<svg width="74" height="72" viewBox="0 0 74 72" fill="none" xmlns="http://www.w3.org/2000/svg">
<g clip-path="url(#clip0_2_18)">
<path d="M34.3348 0.0855068C34.055 0.114194 33.1815 0.214882 32.4108 0.303194C29.304 0.648007 25.7809 1.55588 22.6891 2.82319C11.4995 7.37213 3.07794 17.3526 0.754452 28.8C0.207546 31.5225 0.0745773 32.8601 0.0745773 36C0.0745773 40.0472 0.487937 42.84 1.58348 46.3691C5.16497 57.9173 14.489 66.9746 26.3885 70.4728C29.97 71.5253 32.856 71.9274 37 71.9274C41.1596 71.9274 44.03 71.5253 47.6572 70.4593C59.5261 66.9746 68.835 57.9026 72.4304 46.3247C73.5121 42.84 73.9254 40.032 73.9254 36C73.9254 34.2861 73.8375 32.3286 73.7335 31.6074C72.5345 23.2847 69.0114 16.2861 63.1376 10.5688C57.2748 4.89544 50.1119 1.45463 41.7348 0.288007C40.5809 0.129382 35.2379 -0.0157432 34.3348 0.0855068ZM22.2734 22.7655C23.0597 22.9961 23.4274 23.2121 23.9604 23.7302C24.997 24.7539 25.234 25.3148 25.234 26.8549C25.234 28.0086 25.1889 28.224 24.8345 28.8281C24.1523 29.9509 22.5694 30.9881 21.4745 31.0163C20.7038 31.032 20.7356 30.7001 21.5785 29.8367C22.703 28.6988 22.8654 28.2673 22.8654 26.5669C22.8515 24.9261 22.644 24.3653 21.8601 23.904C21.2079 23.5153 20.4986 23.544 19.462 24.0182C16.7679 25.2726 13.8525 29.448 12.7141 33.7258C11.2035 39.4279 13.8819 43.9914 18.2925 43.2135C19.5794 42.9829 22.0069 41.7746 23.0597 40.8229C23.9315 40.0472 23.9315 40.032 24.0194 39.0679C24.2136 37.0502 25.6768 35.0353 27.6326 34.0993C28.5334 33.6662 28.7571 33.6246 29.97 33.6246C31.1239 33.6246 31.3905 33.6819 31.953 33.9829C33.7434 34.9785 33.3734 37.296 31.4355 37.296C30.3111 37.296 29.733 36.7335 30.5481 36.4331C31.3477 36.1451 31.0494 35.064 30.1192 34.8199C29.0236 34.5454 27.7795 35.2659 26.9955 36.648C26.0474 38.3186 26.0041 40.3065 26.9054 41.2121C27.7795 42.1194 28.8745 41.4011 29.7191 39.3396C30.1619 38.2894 30.7985 37.7269 31.5396 37.7269C32.19 37.7269 32.3097 38.1161 32.027 39.2979C31.6119 41.1261 31.894 41.6008 33.0635 41.0406C33.4474 40.8668 34.0845 40.4651 34.4684 40.1771L35.1934 39.6146L35.6836 37.1228C36.2166 34.3299 36.4219 33.9542 37.5174 33.7545C38.5696 33.5655 38.8066 34.0706 38.4205 35.6681L38.2123 36.5625L38.983 35.7975C40.8029 33.9829 43.0385 33.0908 43.8086 33.84C44.2219 34.2422 44.1768 34.7473 43.5854 36.5316C43.305 37.3821 42.9188 38.7225 42.7431 39.4847C42.4766 40.6361 42.4604 40.9106 42.6101 41.0979C43.0842 41.6447 44.5335 41.0822 45.821 39.8582L46.5755 39.1399L46.6657 37.5401C46.7535 35.6968 46.9299 35.0353 47.4334 34.4441C47.9075 33.8974 48.766 33.4952 49.2245 33.6094C49.6829 33.7258 49.6829 34.1567 49.2695 35.4246C48.6914 37.1666 48.7521 41.1834 49.3441 41.1834C49.5812 41.1834 50.7935 39.9459 51.5641 38.9093L52.1399 38.1443L51.6815 37.6853C50.8819 36.864 50.69 36.3319 50.69 34.9914C50.69 34.0138 50.7646 33.6533 51.0149 33.1763C51.4306 32.4293 52.081 31.8825 52.851 31.6648C53.6639 31.4207 54.671 31.8229 55.0843 32.5434C55.5 33.2775 55.3965 34.9189 54.8629 36.0439L54.479 36.8634H54.9965C55.7075 36.8634 55.9879 36.6919 57.2615 35.5253C57.9275 34.9059 58.6976 34.3721 59.2734 34.1128C61.5385 33.0778 64.2037 33.6094 64.6459 35.1934C65.0159 36.4613 64.2037 37.3534 62.7809 37.2521C61.7599 37.1801 61.568 36.9203 62.16 36.4331C63.2255 35.5669 62.16 34.4599 60.6355 34.8621C59.8065 35.0792 58.8739 35.9848 58.3866 37.0373C57.4084 39.1399 57.9275 41.616 59.3324 41.616C59.8949 41.616 60.8881 40.5354 61.272 39.4847C61.7305 38.2742 62.6925 37.512 63.4174 37.7859C63.8175 37.9294 63.847 38.3181 63.5961 39.5421C63.3139 40.8825 63.2706 42.1352 63.492 42.7106C63.5805 42.9255 63.847 43.3299 64.0996 43.6028C64.5714 44.1208 64.5875 44.3081 64.1875 44.5539C63.9955 44.6833 63.7423 44.6265 63.122 44.2952C62.2635 43.8621 61.5229 43.0841 61.2564 42.3501L61.0939 41.9192L60.5019 42.3501C60.1608 42.5807 59.6284 42.84 59.3185 42.9255C58.09 43.2422 56.5794 42.4226 55.8706 41.0406C55.5879 40.5062 55.5 38.9379 55.7075 38.3333C55.8255 38.0014 55.8255 38.0014 55.3508 38.232C55.1005 38.3619 54.5675 38.5048 54.1541 38.5487C53.4719 38.6218 53.3679 38.6938 52.6886 39.5286C51.7266 40.6929 50.0234 42.2646 49.3279 42.5964C47.8491 43.3148 47.3612 43.1128 46.975 41.6289L46.7085 40.6361L46.0714 41.1834C45.2585 41.8753 43.6305 42.7106 42.6974 42.9126C41.81 43.0993 40.8619 42.8248 40.4774 42.2488C39.9022 41.3854 40.0941 39.5573 41.0105 37.0941C41.6903 35.2659 41.203 35.2378 39.4865 36.9799C38.2129 38.2894 37.666 39.2254 37.3116 40.68C36.9416 42.192 36.4965 42.7388 35.4917 42.9694C34.8841 43.0993 34.6014 42.7388 34.7216 41.9479L34.8095 41.3128L34.247 41.6886C33.4474 42.2207 32.4403 42.7106 31.7448 42.8974C31.0494 43.0841 30.1325 42.8839 29.911 42.5081C29.5115 41.8472 29.5115 41.8472 28.8906 42.3214C27.5425 43.3873 25.6185 43.0841 24.6426 41.6734L24.3304 41.2273L23.3551 42.1059C20.5414 44.6113 17.0206 45.7341 14.415 44.9561C11.0994 43.9785 9.26561 41.2121 9.29509 37.224C9.30897 33.2207 11.1289 29.0019 14.1935 25.8773C15.9256 24.1194 17.5536 23.0822 19.2117 22.6935C20.4084 22.4055 21.1357 22.4201 22.2734 22.7655Z" fill="#00C4CC"/>
<path d="M52.2729 33.0053C51.9474 33.3214 52.0671 34.5893 52.481 35.3959C52.6886 35.8133 52.91 36.1451 52.984 36.1451C53.043 36.1451 53.1759 35.8133 53.28 35.4088C53.65 33.9126 52.984 32.3128 52.2729 33.0053Z" fill="#00C4CC"/>
</g>
<defs>
<clipPath id="clip0_2_18">
<rect width="74" height="72" fill="white"/>
</clipPath>
</defs>
</svg>
