<svg width="74" height="72" viewBox="0 0 74 72" fill="none" xmlns="http://www.w3.org/2000/svg">
<g clip-path="url(#clip0_2_38)">
<path d="M61.7148 0H12.2852C5.50025 0 0 5.48003 0 12.24V59.6448C0 66.4048 5.50025 71.8848 12.2852 71.8848H61.7148C68.4997 71.8848 74 66.4048 74 59.6448V12.24C74 5.48003 68.4997 0 61.7148 0Z" fill="#330000"/>
<path d="M35.8594 43.1395H24.3922L22.0589 50.3605C22.0272 50.4923 21.9503 50.6088 21.8415 50.6901C21.7328 50.7714 21.599 50.8123 21.4632 50.8058H15.655C15.3241 50.8058 15.2081 50.6243 15.3076 50.2615L25.236 21.7731C25.3352 21.4764 25.4346 21.1386 25.5338 20.7593C25.6638 20.0992 25.7303 19.4288 25.7323 18.7563C25.7256 18.7092 25.7299 18.6613 25.745 18.6162C25.76 18.5711 25.7854 18.5301 25.8191 18.4965C25.8529 18.4629 25.894 18.4376 25.9392 18.4225C25.9844 18.4075 26.0326 18.4031 26.0798 18.4098H33.9729C34.2042 18.4098 34.3366 18.4925 34.3701 18.6575L45.6386 50.311C45.7381 50.6411 45.6386 50.8061 45.3409 50.8058H38.8873C38.7765 50.818 38.6649 50.7897 38.5736 50.7259C38.4823 50.6622 38.4173 50.5676 38.391 50.4596L35.8594 43.1395ZM26.1792 36.9078H34.0226L33.9108 36.54L33.7313 35.9577L33.6032 35.5487L33.3989 34.9047L32.9644 33.5491L32.5823 32.3473L31.5899 29.2167C31.3429 28.4385 31.1059 27.6572 30.8788 26.873L30.6973 26.2365L30.4851 25.484L30.1614 24.3176L30.1007 24.0978H30.0512C29.8028 25.285 29.5004 26.4603 29.1447 27.6201L28.4082 29.9805L28.0029 31.2846L27.5939 32.6048C27.5199 32.8432 27.4465 33.0791 27.3728 33.3121L27.1531 34.0027L26.9345 34.6772L26.7172 35.335L26.501 35.9764C26.4293 36.1875 26.3576 36.3957 26.2862 36.6013L26.1792 36.9078ZM52.3397 23.6526C51.8334 23.6728 51.3285 23.5864 50.858 23.3989C50.3875 23.2114 49.9621 22.9271 49.6095 22.5645C49.2578 22.1862 48.9847 21.7424 48.8057 21.2586C48.6268 20.7748 48.5456 20.2605 48.5668 19.7453C48.5488 19.2353 48.639 18.7272 48.8315 18.2543C49.0239 17.7813 49.3144 17.3541 49.6838 17.0006C50.3963 16.3191 51.3453 15.9377 52.333 15.9359L52.4388 15.9371C53.6303 15.9371 54.5655 16.2913 55.2439 17.0003C55.5863 17.3688 55.8524 17.8008 56.027 18.2718C56.2016 18.7429 56.2813 19.2436 56.2614 19.7453C56.2822 20.2625 56.1985 20.7786 56.0151 21.263C55.8318 21.7474 55.5526 22.1901 55.1942 22.5648C54.8323 22.9202 54.4027 23.1998 53.9307 23.3873C53.4587 23.5748 52.9538 23.6662 52.4458 23.6563L52.3397 23.6526ZM48.9143 50.311V26.6697C48.9143 26.373 49.0461 26.2244 49.3115 26.2244H55.4176C55.6821 26.2244 55.8145 26.3727 55.8148 26.6697V50.311C55.8148 50.6411 55.6824 50.8061 55.4176 50.8058H49.3612C49.079 50.8058 48.9305 50.6578 48.9157 50.3617L48.9143 50.311Z" fill="#FF9A00"/>
</g>
<defs>
<clipPath id="clip0_2_38">
<rect width="74" height="72" fill="white"/>
</clipPath>
</defs>
</svg>
