<svg width="74" height="72" viewBox="0 0 74 72" fill="none" xmlns="http://www.w3.org/2000/svg">
<g clip-path="url(#clip0_2_34)">
<path d="M56.6562 0H17.3438C7.76506 0 0 7.55519 0 16.875V55.125C0 64.4448 7.76506 72 17.3438 72H56.6562C66.2349 72 74 64.4448 74 55.125V16.875C74 7.55519 66.2349 0 56.6562 0Z" fill="#001E36"/>
<path d="M16.65 50.0738V19.2038C16.65 18.9937 16.7425 18.8738 16.9584 18.8738C17.4825 18.8738 17.9759 18.8738 18.685 18.8438C19.425 18.8137 20.1959 18.8137 21.0284 18.7838C21.8609 18.7538 22.755 18.7538 23.7109 18.7237C24.6666 18.6938 25.5916 18.6938 26.5166 18.6938C29.045 18.6938 31.1416 18.9937 32.8684 19.6237C34.4162 20.1351 35.8276 20.9755 37 22.0838C37.9935 23.0536 38.7612 24.22 39.2509 25.5038C39.7134 26.7638 39.96 28.0538 39.96 29.4038C39.96 31.9838 39.3434 34.1137 38.11 35.7938C36.8766 37.4738 35.15 38.7338 33.1459 39.4538C31.0491 40.2038 28.7366 40.4738 26.2084 40.4738C25.4684 40.4738 24.975 40.4738 24.6666 40.4438C24.3584 40.4137 23.9266 40.4137 23.3409 40.4137V50.0437C23.3716 50.2538 23.2175 50.4338 23.0016 50.4638H17.02C16.7734 50.4638 16.65 50.3438 16.65 50.0738ZM23.3716 24.6637V34.7437C23.8034 34.7738 24.2041 34.8038 24.5741 34.8038H26.2084C27.4109 34.8038 28.6134 34.6238 29.7541 34.2638C30.7409 33.9938 31.6041 33.4238 32.2825 32.6737C32.93 31.9238 33.2384 30.9038 33.2384 29.5838C33.2674 28.6463 33.0213 27.7201 32.5291 26.9137C32.005 26.1338 31.265 25.5338 30.3709 25.2037C29.23 24.7537 27.9966 24.5737 26.7325 24.6038C25.9309 24.6038 25.2216 24.6038 24.6359 24.6338C24.0191 24.6038 23.5875 24.6338 23.3716 24.6637ZM59.2 32.9138C58.275 32.4338 57.2884 32.1038 56.24 31.8938C55.0991 31.6538 53.9584 31.5037 52.7866 31.5037C52.17 31.4738 51.5225 31.5638 50.9366 31.7138C50.5359 31.8038 50.1966 32.0138 49.9809 32.3137C49.8266 32.5538 49.7341 32.8537 49.7341 33.1237C49.7341 33.3937 49.8575 33.6637 50.0425 33.9038C50.32 34.2338 50.69 34.5038 51.0909 34.7138C51.8058 35.0741 52.5361 35.4044 53.28 35.7038C54.945 36.2438 56.5484 36.9937 58.0284 37.8937C59.0459 38.5237 59.8784 39.3638 60.4641 40.3838C60.9575 41.3438 61.2041 42.3937 61.1734 43.4737C61.2041 44.8838 60.7725 46.2938 59.9709 47.4638C59.1109 48.6613 57.9108 49.5891 56.5175 50.1337C55.0066 50.7637 53.1566 51.0938 50.9366 51.0938C49.5184 51.0938 48.1309 50.9738 46.7434 50.7038C45.656 50.521 44.5983 50.1982 43.5984 49.7438C43.3825 49.6238 43.2284 49.4137 43.2591 49.1738V43.9538C43.2591 43.8638 43.29 43.7437 43.3825 43.6838C43.475 43.6238 43.5675 43.6537 43.66 43.7138C44.8625 44.4038 46.1266 44.8838 47.4834 45.1837C48.655 45.4838 49.8884 45.6337 51.1216 45.6337C52.2934 45.6337 53.1259 45.4838 53.6809 45.2138C54.1741 45.0037 54.5134 44.4938 54.5134 43.9538C54.5134 43.5338 54.2666 43.1438 53.7734 42.7537C53.28 42.3638 52.2625 41.9138 50.7516 41.3438C49.2017 40.8124 47.7299 40.0862 46.3734 39.1838C45.4072 38.5137 44.6067 37.6426 44.03 36.6337C43.5366 35.6738 43.29 34.6238 43.3209 33.5737C43.3209 32.2838 43.6909 31.0537 44.3691 29.9438C45.14 28.7438 46.2809 27.7838 47.6066 27.1837C49.0559 26.4637 50.875 26.1338 53.0641 26.1338C54.3284 26.1338 55.6234 26.2238 56.8875 26.4038C57.8125 26.5238 58.7066 26.7638 59.5391 27.0937C59.6625 27.1238 59.7859 27.2438 59.8475 27.3637C59.8784 27.4838 59.9091 27.6038 59.9091 27.7237V32.6138C59.9091 32.7338 59.8475 32.8537 59.755 32.9138C59.4775 32.9738 59.3234 32.9738 59.2 32.9138Z" fill="#31A8FF"/>
</g>
<defs>
<clipPath id="clip0_2_34">
<rect width="74" height="72" fill="white"/>
</clipPath>
</defs>
</svg>
