<svg width="71" height="75" viewBox="0 0 71 75" fill="none" xmlns="http://www.w3.org/2000/svg">
<path d="M96.25 29.5208C94.3635 29.5198 92.4969 29.904 90.7669 30.6494C89.0368 31.3948 87.4803 32.4855 86.1945 33.8534C84.9086 35.2213 83.921 36.8371 83.2933 38.6C82.6655 40.3628 82.4111 42.235 82.5458 44.0996L73.2417 47.1879C71.7672 44.4237 69.668 42.0345 67.1079 40.2067C64.5479 38.379 61.5962 37.1622 58.4833 36.6513V26.8413C61.4233 26.064 64.0227 24.3478 65.8787 21.9585C67.7348 19.5692 68.744 16.6402 68.75 13.625C68.75 6.08583 62.6083 0 55 0C47.3917 0 41.25 6.08583 41.25 13.625C41.25 19.9833 45.65 25.2971 51.5625 26.8413V36.6513C45.1458 37.6958 39.7375 41.6925 36.8042 47.1879L27.4542 44.0996C27.5 43.7817 27.5 43.4638 27.5 43.1458C27.5 35.6067 21.3583 29.5208 13.75 29.5208C6.14167 29.5208 0 35.6067 0 43.1458C0 50.685 6.14167 56.7708 13.75 56.7708C18.6083 56.7708 22.825 54.2729 25.3 50.5488L34.6042 53.6371C33.6875 59.4958 35.3833 65.7179 39.6 70.3958L33.1375 78.4346C31.3958 77.6171 29.5167 77.2083 27.5 77.2083C19.8917 77.2083 13.75 83.2942 13.75 90.8333C13.75 98.3725 19.8917 104.458 27.5 104.458C35.1083 104.458 41.25 98.3725 41.25 90.8333C41.25 87.745 40.2417 84.9292 38.5 82.6583L44.9625 74.6196C51.1958 78.0713 58.8042 78.0258 64.9917 74.6196L71.4542 82.6583C69.7583 84.9292 68.75 87.745 68.75 90.8333C68.75 98.3725 74.8917 104.458 82.5 104.458C90.1083 104.458 96.25 98.3725 96.25 90.8333C96.25 83.2942 90.1083 77.2083 82.5 77.2083C80.4833 77.2083 78.6042 77.6171 76.8625 78.3892L70.4 70.3504C72.4339 68.0984 73.9373 65.4266 74.8013 62.5282C75.6653 59.6298 75.8684 56.5774 75.3958 53.5917L84.7 50.5033C87.1292 54.2275 91.3917 56.7254 96.25 56.7254C103.858 56.7254 110 50.6396 110 43.1004C110 35.5613 103.858 29.5208 96.25 29.5208ZM13.75 47.6875C11.2292 47.6875 9.16667 45.6438 9.16667 43.1458C9.16667 40.6479 11.2292 38.6042 13.75 38.6042C16.2708 38.6042 18.3333 40.6479 18.3333 43.1458C18.3333 45.6438 16.2708 47.6875 13.75 47.6875ZM27.5 95.375C24.9792 95.375 22.9167 93.3313 22.9167 90.8333C22.9167 88.3354 24.9792 86.2917 27.5 86.2917C30.0208 86.2917 32.0833 88.3354 32.0833 90.8333C32.0833 93.3313 30.0208 95.375 27.5 95.375ZM50.4167 13.625C50.4167 11.1271 52.4792 9.08333 55 9.08333C57.5208 9.08333 59.5833 11.1271 59.5833 13.625C59.5833 16.1229 57.5208 18.1667 55 18.1667C52.4792 18.1667 50.4167 16.1229 50.4167 13.625ZM55 68.125C51.9611 68.125 49.0466 66.9288 46.8977 64.7994C44.7489 62.6701 43.5417 59.7821 43.5417 56.7708C43.5417 53.7595 44.7489 50.8715 46.8977 48.7422C49.0466 46.6129 51.9611 45.4167 55 45.4167C58.0389 45.4167 60.9534 46.6129 63.1023 48.7422C65.2511 50.8715 66.4583 53.7595 66.4583 56.7708C66.4583 59.7821 65.2511 62.6701 63.1023 64.7994C60.9534 66.9288 58.0389 68.125 55 68.125ZM82.5 86.2917C85.0208 86.2917 87.0833 88.3354 87.0833 90.8333C87.0833 93.3313 85.0208 95.375 82.5 95.375C79.9792 95.375 77.9167 93.3313 77.9167 90.8333C77.9167 88.3354 79.9792 86.2917 82.5 86.2917ZM96.25 47.6875C93.7292 47.6875 91.6667 45.6438 91.6667 43.1458C91.6667 40.6479 93.7292 38.6042 96.25 38.6042C98.7708 38.6042 100.833 40.6479 100.833 43.1458C100.833 45.6438 98.7708 47.6875 96.25 47.6875Z" fill="url(#paint0_linear_34_1148)" fill-opacity="0.16"/>
<defs>
<linearGradient id="paint0_linear_34_1148" x1="-23.5" y1="0" x2="164.5" y2="0" gradientUnits="userSpaceOnUse">
<stop offset="0.151042" stop-color="#F21E6A"/>
<stop offset="0.625" stop-color="#0035F0"/>
</linearGradient>
</defs>
</svg>
