<svg width="56" height="56" viewBox="0 0 56 56" fill="none" xmlns="http://www.w3.org/2000/svg">
<path d="M28.5147 16.9835C23.4408 20.8026 19.6967 26.1743 17.8236 32.2519L22.9208 35.821C23.5464 36.259 23.8626 37.0156 23.7478 37.7467C23.408 40.0811 23.4343 42.5338 23.865 44.9762C24.056 46.0594 23.3259 47.102 22.2426 47.2931L15.3687 48.5051C14.2854 48.6961 13.2428 47.9661 13.0518 46.8828C9.79066 28.3881 22.1365 10.7564 40.6312 7.49531C41.7145 7.30429 42.7571 8.03434 42.9481 9.11763L44.1636 16.0113C44.3547 17.0946 43.6246 18.1372 42.5413 18.3282C40.0793 18.7623 37.7852 19.573 35.7078 20.6907C35.0566 21.0289 34.2607 21.0068 33.6119 20.5526L28.5147 16.9835Z" fill="#D00058"/>
</svg>
