<svg width="62" height="62" viewBox="0 0 62 62" fill="none" xmlns="http://www.w3.org/2000/svg">
<path d="M48.36 38.13C49.2642 35.9342 49.755 33.5833 49.755 31C49.755 29.14 49.4708 27.3575 48.98 25.7042C47.3008 26.0917 45.5442 26.2983 43.71 26.2983C39.9538 26.3024 36.2516 25.4033 32.9156 23.6768C29.5796 21.9504 26.7076 19.4472 24.5417 16.3783C22.2247 21.9846 17.8537 26.4942 12.3225 28.985C12.2192 29.6308 12.2192 30.3283 12.2192 31C12.2192 33.4663 12.705 35.9085 13.6488 38.1871C14.5926 40.4657 15.976 42.5361 17.7199 44.2801C21.242 47.8022 26.019 49.7808 31 49.7808C33.7125 49.7808 36.3217 49.1867 38.6725 48.1275C40.145 50.9433 40.8167 52.3383 40.765 52.3383C36.5283 53.7592 33.2475 54.4567 31 54.4567C24.7483 54.4567 18.7808 52.0025 14.3892 47.585C11.718 44.9221 9.73238 41.6511 8.60251 38.0525H5.16667V26.2983H7.9825C8.83563 22.1457 10.797 18.3014 13.6586 15.1734C16.5201 12.0455 20.1751 9.75056 24.2356 8.53213C28.2962 7.3137 32.6108 7.21725 36.7217 8.253C40.8327 9.28874 44.5865 11.4181 47.585 14.415C50.8406 17.6577 53.0612 21.7933 53.9658 26.2983H56.8333V38.0525H56.6783L47.4817 46.5L33.79 44.95V40.6358H46.2675L48.36 38.13ZM23.9475 30.4058C24.7225 30.4058 25.4717 30.7158 26.0142 31.2842C26.5594 31.8338 26.8653 32.5767 26.8653 33.3508C26.8653 34.125 26.5594 34.8679 26.0142 35.4175C25.4717 35.96 24.7225 36.27 23.9475 36.27C22.32 36.27 21.0025 34.9783 21.0025 33.3508C21.0025 31.7233 22.32 30.4058 23.9475 30.4058ZM38.0267 30.4058C39.6542 30.4058 40.9458 31.7233 40.9458 33.3508C40.9458 34.9783 39.6542 36.27 38.0267 36.27C36.3992 36.27 35.0817 34.9783 35.0817 33.3508C35.0817 32.5698 35.3919 31.8207 35.9442 31.2684C36.4965 30.7161 37.2456 30.4058 38.0267 30.4058Z" fill="#D00058"/>
</svg>
