<svg width="90" height="82" viewBox="0 0 90 82" fill="none" xmlns="http://www.w3.org/2000/svg">
<g clip-path="url(#clip0_34_1217)">
<path d="M45.0028 16.4014C33.0026 16.4014 25.5052 21.8659 22.5028 32.7994C27.0014 27.3343 32.253 25.2849 38.2514 26.6514C41.6763 27.4291 44.1239 29.6918 46.8345 32.1992C51.2459 36.278 56.3519 41.0001 67.5028 41.0001C79.5023 41.0001 87.0005 35.5349 90.0028 24.5988C85.5035 30.0672 80.2526 32.1165 74.2535 30.7501C70.8293 29.9717 68.3845 27.7097 65.6705 25.2023C61.2619 21.1234 56.1572 16.4014 45.0028 16.4014ZM22.5028 41.0001C10.5033 41.0001 3.00515 46.4653 0.00280762 57.4014C4.5014 51.933 9.75234 49.8836 15.7514 51.2501C19.1763 52.0284 21.6239 54.2905 24.3344 56.7979C28.7459 60.8768 33.8519 65.5988 45.0028 65.5988C57.0023 65.5988 64.5005 60.1343 67.5028 49.2007C63.0035 54.6659 57.7526 56.7153 51.7535 55.3488C48.3293 54.5711 45.8845 52.3084 43.1705 49.801C38.7619 45.7221 33.6572 41.0001 22.5028 41.0001Z" fill="#38BDF8"/>
</g>
<defs>
<clipPath id="clip0_34_1217">
<rect width="90" height="82" fill="white"/>
</clipPath>
</defs>
</svg>
