<svg width="67" height="60" viewBox="0 0 67 60" fill="none" xmlns="http://www.w3.org/2000/svg">
<g clip-path="url(#clip0_34_1225)">
<path d="M7.84371 7.10158C7.71965 3.90705 10.4986 0.961426 14.2553 0.961426H52.7489C56.5056 0.961426 59.2845 3.90705 59.1605 7.10158C59.0411 10.17 59.1961 14.145 60.3131 17.386C61.4338 20.6372 63.3234 22.6917 66.4185 22.9561V25.95C63.3234 26.2139 61.4338 28.2689 60.3131 31.5202C59.1961 34.7611 59.0411 38.7361 59.1605 41.8045C59.2845 44.9991 56.5056 47.9442 52.7489 47.9442H14.2553C10.4986 47.9442 7.71965 44.9986 7.84371 41.8045C7.96305 38.7361 7.80811 34.7611 6.69058 31.5202C5.57042 28.2694 3.67558 26.2144 0.58049 25.95V22.9561C3.67558 22.6922 5.57042 20.6372 6.69058 17.386C7.80811 14.145 7.96253 10.17 7.84371 7.10158Z" fill="url(#paint0_linear_34_1225)"/>
<g filter="url(#filter0_d_34_1225)">
<path d="M35.1279 37.1129C41.2097 37.1129 44.8743 34.4462 44.8743 30.0479C44.8743 26.723 42.2597 24.316 38.3769 23.9349V23.7962C41.2296 23.3808 43.4678 21.0085 43.4678 18.3587C43.4678 14.5838 40.1398 12.1248 35.0682 12.1248H23.6573V37.1129H35.1279ZM28.095 15.294H33.9988C37.2075 15.294 39.0306 16.5751 39.0306 18.8959C39.0306 21.3718 36.9107 22.7574 33.0676 22.7574H28.095V15.294ZM28.095 33.9441V25.7185H33.9591C38.1586 25.7185 40.3377 27.1037 40.3377 29.8051C40.3377 32.5065 38.2183 33.9441 34.2166 33.9441H28.095Z" fill="url(#paint1_linear_34_1225)"/>
<path d="M35.1279 37.1129C41.2097 37.1129 44.8743 34.4462 44.8743 30.0479C44.8743 26.723 42.2597 24.316 38.3769 23.9349V23.7962C41.2296 23.3808 43.4678 21.0085 43.4678 18.3587C43.4678 14.5838 40.1398 12.1248 35.0682 12.1248H23.6573V37.1129H35.1279ZM28.095 15.294H33.9988C37.2075 15.294 39.0306 16.5751 39.0306 18.8959C39.0306 21.3718 36.9107 22.7574 33.0676 22.7574H28.095V15.294ZM28.095 33.9441V25.7185H33.9591C38.1586 25.7185 40.3377 27.1037 40.3377 29.8051C40.3377 32.5065 38.2183 33.9441 34.2166 33.9441H28.095Z" fill="white"/>
</g>
<path d="M5.96614 56.9204V48.6057H8.60793C9.41036 48.6057 10.0474 48.7815 10.518 49.1335C10.9885 49.4851 11.2235 49.9431 11.2235 50.5074C11.2235 50.9795 11.0812 51.3892 10.7964 51.737C10.5111 52.0848 10.1186 52.3323 9.61764 52.479V52.5024C10.2437 52.5681 10.7446 52.7804 11.1199 53.1399C11.4952 53.4957 11.6831 53.9593 11.6831 54.5316C11.6831 55.2427 11.3984 55.8188 10.8289 56.2595C10.2589 56.7001 9.54017 56.9204 8.67231 56.9204H5.96614ZM7.05384 49.487V52.1715H8.16772C8.76339 52.1715 9.23187 52.044 9.57263 51.789C9.91338 51.5298 10.084 51.166 10.084 50.6987C10.084 49.891 9.49045 49.487 8.30329 49.487H7.05384ZM7.05384 53.0471V56.0392H8.52994C9.16853 56.0392 9.66318 55.9037 10.0128 55.6332C10.3667 55.3627 10.5436 54.9915 10.5436 54.5199C10.5436 53.5379 9.79666 53.0471 8.30329 53.0471H7.05384ZM16.1962 57.061C15.2163 57.061 14.4327 56.7845 13.846 56.2318C13.2634 55.6754 12.9718 54.939 12.9718 54.0226C12.9718 53.0256 13.2759 52.2465 13.8847 51.6859C14.4935 51.1257 15.3158 50.8454 16.3517 50.8454C17.3399 50.8454 18.1104 51.1177 18.6632 51.6629C19.2196 52.2081 19.498 52.9637 19.498 53.9298C19.498 54.8771 19.1981 55.6365 18.5977 56.2088C18.0026 56.777 17.2017 57.061 16.1962 57.061ZM16.2737 51.6456C15.5916 51.6456 15.0525 51.8542 14.6552 52.2718C14.2579 52.6852 14.0595 53.2571 14.0595 53.9879C14.0595 54.6915 14.26 55.2465 14.6615 55.652C15.063 56.0584 15.6 56.2613 16.2737 56.2613C16.9599 56.2613 17.487 56.0621 17.8539 55.6637C18.225 55.2657 18.4103 54.6995 18.4103 53.9649C18.4103 53.2229 18.225 52.6506 17.8539 52.2484C17.487 51.8466 16.9599 51.6456 16.2737 51.6456ZM23.9661 57.061C22.9862 57.061 22.2026 56.7845 21.6159 56.2318C21.0333 55.6754 20.7417 54.939 20.7417 54.0226C20.7417 53.0256 21.0459 52.2465 21.6546 51.6859C22.2634 51.1257 23.0857 50.8454 24.1216 50.8454C25.1098 50.8454 25.8803 51.1177 26.4331 51.6629C26.99 52.2081 27.2685 52.9637 27.2685 53.9298C27.2685 54.8771 26.9685 55.6365 26.3682 56.2088C25.7725 56.777 24.9722 57.061 23.9661 57.061ZM24.0436 51.6456C23.3615 51.6456 22.8224 51.8542 22.4251 52.2718C22.0278 52.6852 21.8294 53.2571 21.8294 53.9879C21.8294 54.6915 22.0299 55.2465 22.4314 55.652C22.8329 56.0584 23.3699 56.2613 24.0436 56.2613C24.7298 56.2613 25.2569 56.0621 25.6238 55.6637C25.995 55.2657 26.1803 54.6995 26.1803 53.9649C26.1803 53.2229 25.995 52.6506 25.6238 52.2484C25.2569 51.8466 24.7303 51.6456 24.0436 51.6456ZM32.0396 56.8641C31.7894 56.9879 31.4591 57.0498 31.0487 57.0498C29.8878 57.0498 29.3073 56.4699 29.3073 55.3102V51.7965H28.1677V50.9846H29.3073V49.5352L30.3693 49.2277V50.9846H32.0391V51.7965H30.3693V55.142C30.3693 55.5399 30.4447 55.8245 30.596 55.9946C30.7467 56.1648 30.9969 56.2496 31.3466 56.2496C31.6141 56.2496 31.8454 56.184 32.0396 56.0527V56.8641ZM33.0561 56.7048V55.6843C33.6345 56.0668 34.271 56.2581 34.9662 56.2581C35.8984 56.2581 36.3648 55.9801 36.3648 55.4237C36.3648 55.2648 36.3239 55.1317 36.2418 55.0234C36.1579 54.9056 36.0476 54.8049 35.9178 54.7276C35.7688 54.6354 35.608 54.5595 35.4388 54.5016C35.2438 54.427 35.0473 54.3554 34.8494 54.287C34.5849 54.1942 34.3256 54.0896 34.0726 53.9738C33.8699 53.8768 33.6826 53.7559 33.5157 53.6143C33.3717 53.4825 33.2574 53.327 33.1791 53.1563C33.1059 52.9862 33.0692 52.7874 33.0692 52.5591C33.0692 52.2812 33.1404 52.0356 33.2828 51.8227C33.4246 51.6068 33.6193 51.4224 33.8523 51.2837C34.0992 51.1329 34.373 51.0209 34.662 50.9527C34.9704 50.879 35.2882 50.842 35.6074 50.8426C36.1816 50.8426 36.6951 50.9316 37.1484 51.1098V52.0721C36.6605 51.7857 36.0994 51.6427 35.4645 51.6427C35.2656 51.6427 35.0871 51.6638 34.9274 51.7065C34.7793 51.7406 34.639 51.7977 34.5129 51.8752C34.4035 51.9453 34.3128 52.0362 34.2475 52.1415C34.1863 52.2451 34.1551 52.3608 34.1569 52.4781C34.1569 52.6323 34.1873 52.7616 34.2475 52.8662C34.3119 52.9707 34.4045 53.0635 34.5259 53.1446C34.6463 53.2257 34.7934 53.2993 34.9662 53.3649C35.1389 53.4306 35.3352 53.5023 35.5555 53.5796C35.8487 53.6799 36.112 53.7845 36.3454 53.8927C36.5618 53.987 36.7623 54.108 36.9411 54.2523C37.1049 54.3835 37.23 54.5363 37.3164 54.7102C37.4069 54.8841 37.4525 55.0909 37.4525 55.3304C37.4525 55.6243 37.3792 55.8793 37.2326 56.0959C37.0897 56.3124 36.8976 56.492 36.6558 56.6349C36.4 56.7834 36.1176 56.8914 35.8209 56.9541C35.4966 57.0249 35.1639 57.06 34.8301 57.0587C34.148 57.0587 33.5571 56.9406 33.0561 56.7048ZM42.1587 56.8641C41.909 56.9879 41.5787 57.0498 41.1684 57.0498C40.0074 57.0498 39.4269 56.4699 39.4269 55.3102V51.7965H38.2874V50.9846H39.4269V49.5352L40.4889 49.2277V50.9846H42.1587V51.7965H40.4889V55.142C40.4889 55.5399 40.5643 55.8245 40.7156 55.9946C40.8663 56.1648 41.1165 56.2496 41.4662 56.2496C41.7337 56.2496 41.965 56.184 42.1592 56.0527L42.1587 56.8641ZM47.035 51.947C46.8492 51.8195 46.5817 51.7557 46.2321 51.7557C45.7788 51.7557 45.3988 51.947 45.0926 52.3295C44.7905 52.7124 44.6393 53.2341 44.6393 53.8951V56.9218H43.5777V50.9846H44.6393V52.2081H44.6654C44.8167 51.7904 45.0476 51.466 45.358 51.234C45.6683 50.9982 46.0159 50.8801 46.4006 50.8801C46.6765 50.8801 46.888 50.9073 47.035 50.9617V51.947ZM52.9347 56.9204H51.8727V55.9923H51.8465C51.3853 56.7038 50.7054 57.0596 49.8082 57.0596C49.1476 57.0596 48.6294 56.9031 48.2536 56.5899C47.8825 56.2768 47.6972 55.861 47.6972 55.3431C47.6972 54.2335 48.4263 53.5885 49.8852 53.4071L51.8732 53.1573C51.8732 52.1485 51.4178 51.6442 50.507 51.6442C49.7088 51.6442 48.988 51.8874 48.3447 52.3745V51.4004C48.9964 51.0296 49.7475 50.844 50.5981 50.844C52.1564 50.844 52.9352 51.5823 52.9352 53.0588L52.9347 56.9204ZM51.8721 53.9171L50.2736 54.114C49.7815 54.1759 49.4099 54.286 49.1597 54.4445C48.9095 54.5992 48.7844 54.8757 48.7844 55.2737C48.7844 55.5638 48.899 55.8015 49.1278 55.9871C49.3607 56.1685 49.6695 56.259 50.0537 56.259C50.5803 56.259 51.0142 56.0949 51.355 55.7668C51.7004 55.4345 51.8732 55.0149 51.8732 54.5082L51.8721 53.9171ZM56.023 56.0626H55.9968V59.6518H54.9353V50.9832H55.9973V52.0266H56.023C56.5454 51.2382 57.3096 50.844 58.3151 50.844C59.1699 50.844 59.8368 51.1107 60.3157 51.6442C60.7946 52.1734 61.0344 52.8849 61.0344 53.7779C61.0344 54.7712 60.7648 55.5676 60.2251 56.1666C59.6855 56.762 58.9474 57.0596 58.011 57.0596C57.152 57.0596 56.4894 56.7277 56.023 56.0626ZM55.9968 53.6677V54.4974C55.9968 54.9882 56.1737 55.4054 56.5281 55.7495C56.8867 56.0898 57.3394 56.2599 57.8875 56.2599C58.5308 56.2599 59.0338 56.0396 59.3965 55.599C59.763 55.1584 59.9462 54.5457 59.9462 53.7606C59.9462 53.0996 59.776 52.5817 59.4353 52.2067C59.0945 51.8317 58.6323 51.6442 58.0497 51.6442C57.4321 51.6442 56.9359 51.8373 56.5606 52.224C56.1847 52.607 55.9968 53.0879 55.9968 53.6677Z" fill="#7952B3"/>
</g>
<defs>
<filter id="filter0_d_34_1225" x="21.8151" y="10.7433" width="24.9014" height="28.6724" filterUnits="userSpaceOnUse" color-interpolation-filters="sRGB">
<feFlood flood-opacity="0" result="BackgroundImageFix"/>
<feColorMatrix in="SourceAlpha" type="matrix" values="0 0 0 0 0 0 0 0 0 0 0 0 0 0 0 0 0 0 127 0" result="hardAlpha"/>
<feOffset dy="0.460781"/>
<feGaussianBlur stdDeviation="0.921094"/>
<feColorMatrix type="matrix" values="0 0 0 0 0 0 0 0 0 0 0 0 0 0 0 0 0 0 0.15 0"/>
<feBlend mode="normal" in2="BackgroundImageFix" result="effect1_dropShadow_34_1225"/>
<feBlend mode="normal" in="SourceGraphic" in2="effect1_dropShadow_34_1225" result="shape"/>
</filter>
<linearGradient id="paint0_linear_34_1225" x1="10.3641" y1="2.20502" x2="62.8809" y2="48.757" gradientUnits="userSpaceOnUse">
<stop stop-color="#9013FE"/>
<stop offset="1" stop-color="#6610F2"/>
</linearGradient>
<linearGradient id="paint1_linear_34_1225" x1="25.6652" y1="13.7691" x2="36.535" y2="34.2979" gradientUnits="userSpaceOnUse">
<stop stop-color="white"/>
<stop offset="1" stop-color="#F1E5FC"/>
</linearGradient>
<clipPath id="clip0_34_1225">
<rect width="67" height="60" fill="white"/>
</clipPath>
</defs>
</svg>
