<svg width="61" height="59" viewBox="0 0 61 59" fill="none" xmlns="http://www.w3.org/2000/svg">
<path d="M13.2284 9.41281C9.72474 14.2826 10.1608 20.6191 12.8376 25.7945L13.0335 26.1624L13.1588 26.3956L13.237 26.5297L13.3766 26.7713C13.4596 26.9128 13.5449 27.0533 13.6321 27.1949L13.7779 27.4272C13.8746 27.5774 13.9733 27.7268 14.0743 27.8757L14.2006 28.0642C14.3402 28.2656 14.4827 28.4661 14.63 28.6639L14.6424 28.6791L14.7148 28.7736C14.8421 28.9432 14.9731 29.111 15.1061 29.2774L15.2533 29.4585C15.372 29.6028 15.4926 29.7457 15.615 29.889L15.7533 30.0485C15.9177 30.2357 16.0859 30.4228 16.257 30.6053L16.267 30.6155L16.2865 30.6362C16.4538 30.8127 16.6249 30.9856 16.7988 31.1585L16.9628 31.3184C17.0972 31.4493 17.2339 31.5779 17.3717 31.706L17.5389 31.86C17.7234 32.0278 17.9092 32.1928 18.0994 32.3532L18.1079 32.3606L18.2056 32.4408C18.3729 32.5814 18.543 32.7196 18.7146 32.8565L18.9253 33.0193C19.0654 33.1276 19.2069 33.235 19.3494 33.3401L19.5767 33.5065C19.734 33.6185 19.8927 33.7286 20.0528 33.837L20.2258 33.9559L20.2739 33.9891C20.4255 34.0905 20.5813 34.1877 20.7362 34.285L20.9363 34.4141C21.1746 34.5593 21.4162 34.7035 21.6602 34.8427L21.8604 34.952C22.0401 35.052 22.2207 35.1506 22.4037 35.2465L22.7044 35.3968L23.0933 35.5922L23.1829 35.6342L23.342 35.7084C23.5455 35.8024 23.7509 35.895 23.9582 35.9845L24.0883 36.0407C24.3257 36.1412 24.5654 36.2375 24.807 36.3302L24.9824 36.3965C25.2059 36.4804 25.4327 36.562 25.6605 36.6395L25.7458 36.668C25.9955 36.7529 26.2481 36.8308 26.5021 36.9077L26.6846 36.9603C26.9429 37.0359 27.1989 37.1253 27.4653 37.1732C44.4085 40.1615 49.3299 27.3258 49.3299 27.3258C45.1962 32.5344 37.8596 33.9079 30.9079 32.3786C30.6444 32.3209 30.389 32.2412 30.1321 32.1684L29.9386 32.1112C29.6881 32.0373 29.4389 31.9589 29.1914 31.8761L29.0889 31.8406C28.8682 31.765 28.6486 31.6862 28.4303 31.6042L28.2454 31.5341C28.0066 31.4429 27.7688 31.3474 27.5344 31.2483L27.3923 31.187C27.1912 31.0996 26.9912 31.0097 26.7923 30.9174L26.6189 30.8367C26.463 30.7634 26.3091 30.6855 26.1547 30.6086L25.8454 30.4514C25.6572 30.3546 25.4727 30.2532 25.2893 30.1499L25.1015 30.049C24.8578 29.9094 24.6163 29.7662 24.3771 29.6194L24.1817 29.4935C24.0082 29.3857 23.8365 29.2753 23.6666 29.1621L23.5003 29.0492C23.3365 28.9376 23.1742 28.8242 23.0132 28.709L22.7973 28.5509C22.6496 28.4417 22.5028 28.3315 22.3579 28.2186L22.1621 28.0665C21.9772 27.9199 21.7946 27.7715 21.6145 27.6198L21.5544 27.5714C21.36 27.4055 21.168 27.2368 20.9788 27.0653L20.8167 26.9141C20.6764 26.7858 20.5385 26.6551 20.4031 26.5219L20.241 26.3652C20.0685 26.1946 19.8993 26.0218 19.7335 25.8462L19.7082 25.8199C19.5329 25.6343 19.3613 25.4454 19.1936 25.2534L19.0587 25.0985C18.9332 24.9525 18.8097 24.8048 18.6884 24.6556L18.5526 24.4919C18.4072 24.3103 18.2646 24.1267 18.1246 23.9411C14.2654 18.8491 12.8786 11.8263 15.9634 6.05903M24.1036 5.30954C21.5702 8.83571 21.7074 13.5571 23.6842 17.2861C24.0149 17.913 24.3893 18.5174 24.8046 19.0953C25.1839 19.6221 25.6052 20.2481 26.109 20.6707C26.2915 20.8653 26.4826 21.0552 26.6775 21.2414L26.8271 21.3847C27.0163 21.5622 27.2089 21.7369 27.4076 21.9065L27.4314 21.9263L27.4371 21.9319C27.6573 22.1185 27.8846 22.2979 28.1153 22.4749L28.2692 22.591C28.5008 22.7625 28.7367 22.9312 28.9788 23.092L28.9993 23.1073L29.3234 23.3133L29.4768 23.4115C29.6498 23.5189 29.8247 23.623 30.0029 23.7231L30.0773 23.7655C30.2307 23.8508 30.3861 23.9346 30.5419 24.0167L30.7073 24.0997L31.0323 24.2628L31.0814 24.2845C31.3049 24.3905 31.5299 24.4933 31.76 24.5901L31.9097 24.65C32.0936 24.7252 32.279 24.7989 32.4658 24.868L32.7041 24.9529C32.8738 25.0137 33.0434 25.0695 33.215 25.1248L33.4456 25.1962C33.6892 25.2691 33.9303 25.3617 34.1838 25.4027C47.2655 27.4986 50.2854 17.7567 50.2854 17.7567C47.5633 21.5493 42.2911 23.3585 36.6653 21.9462C36.4166 21.8827 36.1696 21.8137 35.9242 21.7392L35.7017 21.6696C35.5278 21.6154 35.3551 21.558 35.1837 21.4972L34.9497 21.4129C34.7624 21.3431 34.5764 21.2704 34.3916 21.1948L34.2415 21.1335C34.0115 21.0365 33.784 20.9342 33.5591 20.8265L33.2169 20.6583L33.0196 20.5601C32.8738 20.4836 32.7289 20.4043 32.5864 20.3232L32.483 20.2665C32.306 20.1668 32.1312 20.0635 31.9588 19.9568L31.8005 19.8549L31.4612 19.6373C31.2213 19.4763 30.9855 19.3095 30.754 19.1372L30.5948 19.0155C28.1324 17.1354 26.1804 14.5652 25.2526 11.6511C24.2799 8.62875 24.4896 5.23625 26.1747 2.48261M33.2502 2.24385C31.7567 4.36969 31.6099 7.0104 32.6464 9.35842C33.7392 11.8507 35.9786 13.8055 38.5925 14.7329L38.9175 14.8413L39.0605 14.8855C39.2144 14.9325 39.3674 14.9869 39.5266 15.0155C46.7498 16.3656 48.709 11.4308 49.2303 10.7039C47.5142 13.0939 44.6301 13.6677 41.0911 12.8367C40.8016 12.7652 40.5159 12.6798 40.2352 12.5808C39.8892 12.4618 39.5497 12.3255 39.2182 12.1724C38.5895 11.8796 37.9924 11.5272 37.4354 11.1206C34.2687 8.79653 32.3019 4.3637 34.3683 0.753174" fill="#0868AC"/>
<path d="M31.6242 44.3861H29.6103C29.5533 44.3882 29.4985 44.4081 29.4541 44.4427C29.4097 44.4773 29.3781 44.5249 29.3639 44.5783L28.649 47.7772L27.9342 50.9761C27.9201 51.0295 27.8886 51.0771 27.8443 51.1117C27.7999 51.1464 27.7452 51.1662 27.6883 51.1683H26.2629C24.8527 51.1683 25.0157 50.2248 25.3045 48.9323L25.3131 48.8931L25.3445 48.73L25.3503 48.6995L25.4146 48.3677L25.4837 48.0123L25.5571 47.6504L25.8821 46.1146L26.2076 44.5787C26.2138 44.5553 26.2142 44.5308 26.2089 44.5071C26.2035 44.4835 26.1925 44.4613 26.1767 44.4426C26.1609 44.4238 26.1407 44.4088 26.1179 44.399C26.095 44.3891 26.0701 44.3845 26.0451 44.3856H23.9782C23.9213 44.3876 23.8666 44.4075 23.8224 44.4423C23.7782 44.477 23.7469 44.5248 23.7333 44.5783L23.2887 46.6175L22.8445 48.6571L22.8435 48.6599L22.8026 48.8498C22.2907 51.1098 22.4261 53.2656 25.2082 53.3333L25.2893 53.3347H29.656C29.7129 53.3326 29.7677 53.3128 29.812 53.2782C29.8563 53.2435 29.8879 53.1959 29.9019 53.1425L30.8436 48.8609L31.7853 44.5787C31.8086 44.4727 31.7362 44.3865 31.6242 44.3861ZM10.0569 44.3635H7.84564C7.78852 44.3656 7.7336 44.3854 7.68893 44.4199C7.64425 44.4544 7.61216 44.5018 7.59735 44.5552L7.38767 45.4504L7.17798 46.3455C7.15367 46.4511 7.22468 46.5373 7.33667 46.5373H9.56508C9.62215 46.5352 9.67701 46.5154 9.72149 46.4808C9.76598 46.4462 9.7977 46.3985 9.81194 46.3451L10.0145 45.4504L10.217 44.5557C10.2404 44.4501 10.1689 44.3635 10.0569 44.3635ZM9.41544 47.1494H7.18656C7.12945 47.1516 7.07457 47.1714 7.02991 47.2059C6.98525 47.2404 6.95314 47.2878 6.93827 47.3411L6.62517 48.6825L6.31254 50.0233L6.22533 50.4078L5.92462 51.7767L5.62439 53.1462C5.60103 53.2517 5.5529 53.4223 5.51716 53.5246C5.51716 53.5246 5.10064 54.7231 4.40057 54.7092L4.31289 54.7074L3.70717 54.6968C3.65027 54.6981 3.59483 54.717 3.54988 54.7508C3.50493 54.7846 3.47237 54.8314 3.45698 54.8844L3.22585 55.8242L2.99519 56.7636C2.96898 56.8687 3.03951 56.9554 3.15055 56.9572C3.54753 56.9618 4.43679 56.9715 4.97483 56.9715C6.72334 56.9715 7.64549 56.0344 8.23595 53.3379L8.92744 50.2432L9.57604 47.3407C9.59939 47.2361 9.52696 47.1494 9.41544 47.1494ZM50.4556 46.4239L50.3631 46.0547L50.2721 45.6767L50.2259 45.4859C50.0448 44.8051 49.5134 44.4128 48.3592 44.4128L46.5625 44.411L44.9079 44.4087H43.046C42.9891 44.4107 42.9344 44.4305 42.8901 44.4652C42.8459 44.4998 42.8144 44.5475 42.8005 44.6009L42.7181 44.977L42.6209 45.4213L42.5937 45.5463L41.7554 49.3444L40.9596 52.9498C40.9358 53.0558 40.9281 53.1858 40.9415 53.2384C40.9548 53.2914 41.1698 53.3347 41.2813 53.3347H42.9607C43.0727 53.3347 43.2142 53.3154 43.2752 53.2914C43.3362 53.2674 43.4263 53.0549 43.4487 52.9494L43.747 51.5209L44.0458 50.092L44.0463 50.0897L44.0863 49.8993L44.4485 48.2584L44.7683 46.8092C44.7824 46.7559 44.8139 46.7084 44.8581 46.6738C44.9023 46.6392 44.9569 46.6193 45.0137 46.617L50.2983 46.6147C50.4103 46.6156 50.4808 46.5294 50.4556 46.4239ZM57.2585 43.0867L56.8515 43.0881H55.1602C55.0982 43.0914 55.0377 43.1077 54.9829 43.1358C54.928 43.1639 54.8801 43.2031 54.8423 43.2508L51.1018 48.5506C51.0389 48.6401 50.9669 48.6272 50.9421 48.5221L50.6667 47.3545C50.6519 47.301 50.6197 47.2536 50.5749 47.219C50.5302 47.1845 50.4751 47.1648 50.4179 47.1628H48.0137C47.9017 47.1628 47.8354 47.2476 47.8659 47.3513L48.9434 51.0024C48.9739 51.1065 48.9763 51.2771 48.9487 51.3822L48.4793 53.149C48.4511 53.2541 48.5198 53.3393 48.6318 53.3393H51.0084C51.0659 53.3371 51.1212 53.3175 51.1666 53.2834C51.2121 53.2493 51.2454 53.2023 51.2619 53.149L51.7318 51.3822C51.769 51.2577 51.8275 51.14 51.9048 51.0342L57.9772 43.2393C58.0448 43.1526 58.0081 43.0821 57.8966 43.083L57.2585 43.0867ZM38.155 47.6587V47.6569C38.1468 47.7126 38.1183 47.7636 38.0748 47.8008C38.0312 47.8381 37.9753 47.8591 37.9172 47.8602H34.8686C34.7628 47.8602 34.7095 47.791 34.7252 47.7053L34.7281 47.6984L34.7261 47.6993L34.7276 47.6896L34.7414 47.6394C35.0326 46.8908 35.6254 46.3995 36.7401 46.3995C37.9954 46.399 38.2403 46.9918 38.155 47.6587ZM37.2605 44.2552C33.3475 44.2552 32.4201 46.5525 31.8997 48.8715C31.3797 51.2351 31.424 53.4444 35.4739 53.4444H35.9647L36.0867 53.444H36.1153L36.6014 53.4426H36.61C37.6794 53.4384 38.7521 53.4306 39.1863 53.4274C39.2429 53.4246 39.297 53.4043 39.3407 53.3694C39.3844 53.3345 39.4153 53.287 39.4289 53.2338L39.5928 52.4589L39.6247 52.3082L39.8201 51.3836C39.8264 51.3601 39.8268 51.3356 39.8214 51.312C39.8161 51.2883 39.805 51.2663 39.7892 51.2475C39.7734 51.2288 39.7532 51.2139 39.7304 51.204C39.7075 51.1942 39.6826 51.1897 39.6576 51.1909H36.0172C34.5689 51.1909 34.139 50.8189 34.2977 49.7247H40.117L40.1165 49.7251L40.1204 49.7247C40.1664 49.7227 40.2109 49.708 40.2485 49.6823C40.2861 49.6565 40.3153 49.6208 40.3324 49.5795L40.3463 49.5306L40.3458 49.5311C41.2098 46.3787 40.962 44.2556 37.2605 44.2552ZM18.7651 47.6467L18.7098 47.8353L18.2704 49.3421L17.8311 50.848C17.8131 50.9013 17.7787 50.9481 17.7324 50.9819C17.6861 51.0158 17.6303 51.0352 17.5723 51.0374H15.2467C13.4824 51.0374 13.0526 49.7025 13.4824 47.7343C13.9118 45.7209 14.7539 44.4695 16.4905 44.3427C18.8638 44.1694 19.3384 45.7836 18.7651 47.6467ZM20.3607 50.9217C20.3607 50.9217 21.4572 48.346 21.706 46.859C22.0458 44.8682 21.015 41.98 17.0338 41.98C13.0754 41.98 11.356 44.7368 10.7003 47.7343C10.0445 50.7535 10.9037 53.4006 14.8397 53.379L17.945 53.3679L20.8467 53.3578C20.9043 53.355 20.9595 53.3352 21.005 53.3011C21.0505 53.2669 21.0841 53.2201 21.1012 53.1669L21.6069 51.302C21.635 51.1969 21.5668 51.1112 21.4548 51.1102L20.9702 51.1075L20.4855 51.1047C20.3907 51.1042 20.3363 51.0443 20.3478 50.9655L20.3607 50.9217ZM39.9569 49.1973C39.9569 49.2143 39.9535 49.2311 39.9468 49.2467C39.9402 49.2624 39.9304 49.2767 39.918 49.2887C39.9056 49.3007 39.8909 49.3102 39.8747 49.3167C39.8586 49.3232 39.8412 49.3266 39.8237 49.3266C39.8062 49.3267 39.7888 49.3234 39.7726 49.3169C39.7564 49.3104 39.7417 49.301 39.7293 49.289C39.7169 49.277 39.707 49.2628 39.7003 49.2472C39.6935 49.2315 39.6901 49.2148 39.69 49.1978C39.69 49.1636 39.704 49.1307 39.7289 49.1065C39.7539 49.0822 39.7878 49.0686 39.8232 49.0685C39.8586 49.0684 39.8926 49.082 39.9176 49.1061C39.9427 49.1303 39.9568 49.1631 39.9569 49.1973Z" fill="#131B28"/>
</svg>
