<svg width="68" height="60" viewBox="0 0 68 60" fill="none" xmlns="http://www.w3.org/2000/svg">
<g clip-path="url(#clip0_34_1231)">
<path d="M55.3911 19.4273C54.6741 19.1813 53.9511 18.9535 53.2226 18.7439C53.345 18.2439 53.4576 17.75 53.5576 17.2647C55.1992 9.29601 54.1261 2.87627 50.4605 0.762586C46.9461 -1.26373 41.1984 0.849165 35.3937 5.90101C34.8216 6.39978 34.2622 6.91293 33.7161 7.43995C33.3504 7.0895 32.9784 6.74584 32.6 6.40916C26.5163 1.00759 20.4184 -1.26899 16.7568 0.850744C13.2455 2.88338 12.2058 8.91838 13.6837 16.4705C13.8307 17.2184 13.9967 17.9625 14.1816 18.7021C13.3184 18.9473 12.4855 19.2084 11.6884 19.4863C4.55579 21.9731 0.000789642 25.8702 0.000789642 29.9126C0.000789642 34.0876 4.89079 38.2752 12.3197 40.8144C12.922 41.0194 13.5293 41.2094 14.1411 41.3842C13.9424 42.1807 13.766 42.9826 13.6121 43.7889C12.2032 51.21 13.3034 57.1023 16.8053 59.1221C20.4221 61.2079 26.4926 59.0642 32.4034 53.8971C32.8827 53.477 33.3515 53.045 33.8092 52.6015C34.4007 53.1722 35.0079 53.7263 35.6303 54.2631C41.3561 59.19 47.0108 61.1794 50.5092 59.1542C54.1226 57.0623 55.2971 50.7323 53.7724 43.031C53.6523 42.4277 53.5176 41.8273 53.3684 41.2305C53.7947 41.1042 54.2132 40.9742 54.6211 40.8389C62.3442 38.2802 67.3692 34.1434 67.3692 29.9126C67.3692 25.8555 62.6671 21.9321 55.3911 19.4273ZM53.7161 38.1073C53.3476 38.2292 52.9697 38.3468 52.5845 38.4613C51.7318 35.7621 50.5813 32.8921 49.1732 29.9265C50.5168 27.0318 51.6232 24.1984 52.4518 21.5168C53.1411 21.7163 53.8097 21.9265 54.4545 22.1484C60.6887 24.2947 64.4913 27.4676 64.4913 29.9126C64.4913 32.5168 60.3845 35.8976 53.7161 38.1073ZM50.9492 43.59C51.6234 46.9952 51.7195 50.0742 51.2729 52.4813C50.8718 54.6442 50.065 56.086 49.0671 56.6636C46.9442 57.8926 42.4039 56.2952 37.5074 52.0815C36.9285 51.5824 36.3636 51.0673 35.8134 50.5368C37.7118 48.4607 39.6089 46.0473 41.4605 43.3668C44.7174 43.0779 47.7942 42.6052 50.5845 41.9602C50.7189 42.5005 50.8405 43.0439 50.9492 43.59ZM22.9682 56.4513C20.8939 57.1836 19.2418 57.2047 18.2432 56.6289C16.1182 55.4034 15.2347 50.6721 16.4397 44.3257C16.583 43.5758 16.747 42.83 16.9316 42.0892C19.6911 42.6997 22.7455 43.1386 26.01 43.4034C27.8742 46.0263 29.8261 48.4371 31.7932 50.5481C31.3751 50.9526 30.9472 51.3468 30.5097 51.7302C27.8958 54.015 25.2766 55.636 22.9682 56.4513ZM13.2508 38.0913C9.96579 36.9684 7.2529 35.5092 5.39342 33.9168C3.72237 32.486 2.87895 31.0652 2.87895 29.9126C2.87895 27.4594 6.53605 24.3305 12.6358 22.2039C13.3761 21.946 14.1508 21.7026 14.9547 21.4742C15.7979 24.2163 16.9037 27.0834 18.2382 29.9826C16.8863 32.9247 15.7647 35.8376 14.9134 38.6121C14.355 38.4521 13.8007 38.2785 13.2508 38.0913ZM16.5082 15.9176C15.2421 9.44732 16.0829 4.56653 18.1989 3.34153C20.4526 2.0368 25.4363 3.89706 30.6892 8.56127C31.0317 8.86611 31.3687 9.17712 31.7 9.49416C29.7426 11.596 27.8087 13.9889 25.9611 16.5963C22.7926 16.89 19.7597 17.3615 16.9713 17.9934C16.7995 17.3055 16.6451 16.6132 16.5082 15.9176ZM45.5679 23.0934C44.9093 21.9557 44.2262 20.8324 43.5192 19.7242C45.6687 19.996 47.7282 20.3568 49.6621 20.7978C49.0816 22.6589 48.3579 24.6044 47.5061 26.5992C46.8834 25.4178 46.2372 24.249 45.5679 23.0934ZM33.7174 11.551C35.0447 12.9892 36.3742 14.5947 37.6818 16.3368C35.0292 16.2115 32.3722 16.211 29.7195 16.3352C31.0284 14.6092 32.3692 13.0057 33.7174 11.551ZM21.7908 23.1131C21.1298 24.2594 20.4957 25.4209 19.8889 26.5968C19.0511 24.6092 18.3339 22.6547 17.7484 20.7673C19.6705 20.3373 21.7203 19.9857 23.8561 19.7189C23.1412 20.8339 22.4526 21.9658 21.7908 23.1131ZM23.9174 40.311C21.7108 40.0647 19.6303 39.7313 17.7087 39.3129C18.3034 37.3918 19.0363 35.3957 19.8924 33.3655C20.5015 34.5422 21.1383 35.7045 21.8021 36.8513C22.4847 38.0302 23.1916 39.185 23.9174 40.311ZM33.7968 48.4768C32.4326 47.0052 31.0721 45.3771 29.7434 43.626C31.0334 43.6765 32.3484 43.7023 33.685 43.7023C35.0582 43.7023 36.4155 43.6715 37.7516 43.6121C36.4397 45.3947 35.1153 47.0252 33.7968 48.4768ZM47.5332 33.2618C48.4337 35.3144 49.1926 37.3 49.7953 39.1881C47.8421 39.6339 45.7332 39.9929 43.5111 40.2594C44.2231 39.1306 44.9126 37.9878 45.5792 36.8315C46.2569 35.6563 46.9084 34.4661 47.5332 33.2618ZM43.0863 35.3936C42.0658 37.1664 40.988 38.9054 39.8545 40.6081C37.8012 40.7535 35.7434 40.8258 33.685 40.8247C31.5884 40.8247 29.5492 40.7594 27.5855 40.6321C26.4224 38.9333 25.324 37.1912 24.2926 35.4094C23.2661 33.6371 22.3075 31.8264 21.4184 29.9813C22.3053 28.1357 23.2612 26.3242 24.2842 24.5505L24.2839 24.5507C25.3066 22.7766 26.3962 21.0419 27.5505 19.3505C29.5539 19.1989 31.6084 19.12 33.6847 19.12C35.7705 19.12 37.8279 19.1997 39.8308 19.3523C40.9734 21.0412 42.0561 22.7699 43.0768 24.5352C44.1033 26.305 45.0719 28.1077 45.9811 29.9405C45.0812 31.792 44.1157 33.6109 43.0863 35.3936ZM49.0232 3.25574C51.279 4.5568 52.1563 9.80337 50.7389 16.6836C50.6484 17.1226 50.5468 17.5697 50.4363 18.0231C47.6411 17.3778 44.6061 16.8981 41.4284 16.6C39.5774 13.9639 37.6592 11.5673 35.7337 9.49259C36.2383 9.00614 36.755 8.53231 37.2832 8.07153C42.2568 3.74338 46.9053 2.03443 49.0232 3.25574ZM33.685 23.8968C37.0074 23.8968 39.7008 26.5902 39.7008 29.9126C39.7008 33.235 37.0074 35.9284 33.685 35.9284C30.3626 35.9284 27.6692 33.235 27.6692 29.9126C27.6692 26.5902 30.3626 23.8968 33.685 23.8968Z" fill="#00D8FF"/>
</g>
<defs>
<clipPath id="clip0_34_1231">
<rect width="67.37" height="60" fill="white"/>
</clipPath>
</defs>
</svg>
