<svg width="70" height="60" viewBox="0 0 70 60" fill="none" xmlns="http://www.w3.org/2000/svg">
<g clip-path="url(#clip0_34_1215)">
<path d="M58.3169 40.8397C58.6092 40.6719 58.8522 40.4301 59.0216 40.1386C59.191 39.8472 59.2807 39.5163 59.2817 39.1792L59.3163 28.0568C59.3174 27.7196 59.4071 27.3887 59.5764 27.0972C59.7458 26.8057 59.9888 26.5638 60.2812 26.396L66.3104 22.9327C66.6026 22.7649 66.9338 22.6768 67.2708 22.6773C67.6078 22.6779 67.9387 22.767 68.2303 22.9358C68.522 23.1046 68.7641 23.3471 68.9325 23.639C69.1009 23.9309 69.1895 24.2619 69.1896 24.5989V44.82C69.1896 45.1581 69.1004 45.4902 68.931 45.7828C68.7615 46.0754 68.5179 46.3181 68.2247 46.4865L45.4707 59.5559C45.18 59.7229 44.8507 59.8109 44.5155 59.8112C44.1803 59.8115 43.8509 59.7242 43.5599 59.5578L25.7031 49.3443C25.4089 49.1763 25.1643 48.9336 24.9942 48.6406C24.824 48.3477 24.7343 48.015 24.7342 47.6762V37.48C24.7342 37.4686 24.7477 37.4611 24.7593 37.4665C24.7688 37.4724 24.7823 37.4665 24.7823 37.453V37.4416C24.7823 37.4341 24.7861 37.4262 24.7939 37.4224L39.5009 28.9735C39.5144 28.9657 39.5085 28.9446 39.4931 28.9446C39.489 28.9446 39.4851 28.943 39.4822 28.9401C39.4793 28.9372 39.4777 28.9333 39.4777 28.9292L39.5066 18.933C39.508 18.5949 39.4202 18.2625 39.2521 17.9692C39.0839 17.676 38.8414 17.4323 38.549 17.2626C38.2566 17.093 37.9246 17.0036 37.5866 17.0032C37.2485 17.0029 36.9164 17.0918 36.6236 17.2608L25.6934 23.5595C25.4017 23.7274 25.0709 23.8159 24.7343 23.8159C24.3977 23.8159 24.067 23.7274 23.7753 23.5595L12.8104 17.2459C12.5183 17.0777 12.1871 16.9893 11.85 16.9895C11.5129 16.9897 11.1818 17.0786 10.8899 17.2472C10.598 17.4158 10.3556 17.6582 10.187 17.9502C10.0184 18.2421 9.92951 18.5732 9.92932 18.9103V36.9768C9.92957 37.3135 9.84135 37.6444 9.67348 37.9363C9.50562 38.2282 9.264 38.4709 8.97284 38.64C8.68167 38.8092 8.35118 38.8988 8.01445 38.9001C7.67772 38.9013 7.34658 38.814 7.05418 38.647L0.969047 35.1676C0.674387 34.9993 0.429544 34.7559 0.259407 34.4623C0.0892704 34.1687 -9.38333e-05 33.8353 0.000398754 33.4959L0.0544528 1.91757C0.0553149 1.58104 0.144531 1.25063 0.313176 0.959397C0.48182 0.668167 0.723981 0.426325 1.01543 0.258064C1.30689 0.0898034 1.63741 0.00102337 1.97395 0.000605036C2.31049 0.0001867 2.64123 0.0881447 2.9331 0.25568L23.7772 12.227C24.0684 12.3943 24.3984 12.4823 24.7343 12.4823C25.0702 12.4823 25.4002 12.3943 25.6915 12.227L46.5293 0.25514C46.8217 0.087209 47.153 -0.000864869 47.4902 -0.000240848C47.8273 0.000383174 48.1584 0.0896831 48.4501 0.258695C48.7418 0.427707 48.9839 0.670483 49.1521 0.962653C49.3204 1.25482 49.4088 1.58611 49.4085 1.92325V33.5089C49.4087 33.8468 49.3198 34.1788 49.1508 34.4714C48.9818 34.7639 48.7386 35.0068 48.4458 35.1754L37.5328 41.4603C37.2397 41.6292 36.9963 41.8726 36.8274 42.1657C36.6584 42.4589 36.5699 42.7914 36.5706 43.1298C36.5714 43.4681 36.6615 43.8003 36.8318 44.0926C37.002 44.385 37.2465 44.6272 37.5404 44.7949L43.5601 48.2219C43.851 48.3875 44.1801 48.4742 44.5149 48.4735C44.8496 48.4728 45.1783 48.3846 45.4685 48.2178L58.3172 40.8395L58.3169 40.8397ZM59.5796 12.5059C59.5798 12.8459 59.6702 13.1796 59.8416 13.4732C60.0129 13.7668 60.259 14.0097 60.5548 14.1771C60.8506 14.3446 61.1856 14.4305 61.5255 14.4263C61.8653 14.4221 62.198 14.3277 62.4896 14.153L68.2555 10.6935C68.5402 10.523 68.7758 10.2816 68.9395 9.99301C69.1031 9.70439 69.1893 9.3783 69.1896 9.04649V1.99649C69.189 1.65674 69.0984 1.32321 68.9269 1.02989C68.7554 0.73657 68.5093 0.493947 68.2135 0.32674C67.9178 0.159534 67.583 0.0737206 67.2432 0.0780448C66.9035 0.0823689 66.571 0.176676 66.2796 0.351356L60.5139 3.81082C60.2292 3.98135 59.9935 4.22271 59.8298 4.51139C59.666 4.80007 59.5798 5.12623 59.5796 5.45811V12.5078V12.5059Z" fill="#007FFF"/>
</g>
<defs>
<clipPath id="clip0_34_1215">
<rect width="69.19" height="60" fill="white"/>
</clipPath>
</defs>
</svg>
