<svg width="60" height="56" viewBox="0 0 60 56" fill="none" xmlns="http://www.w3.org/2000/svg">
<g clip-path="url(#clip0_34_1240)">
<path d="M45.9375 0H14.0625C6.296 0 0 5.87626 0 13.125V42.875C0 50.1237 6.296 56 14.0625 56H45.9375C53.704 56 60 50.1237 60 42.875V13.125C60 5.87626 53.704 0 45.9375 0Z" fill="#0073AA"/>
<path d="M9.89391 27.9987C9.89391 35.4264 14.5188 41.8454 21.2252 44.8873L11.6346 20.362C10.4849 22.7648 9.89178 25.3672 9.89391 27.9987ZM43.5722 27.0518C43.5722 24.7328 42.6797 23.1268 41.9142 21.8766C40.8949 20.3309 39.9396 19.0219 39.9396 17.4762C39.9396 15.7512 41.3414 14.1455 43.3158 14.1455C43.4051 14.1455 43.4895 14.1558 43.5764 14.1604C39.9994 11.1018 35.2338 9.23438 29.9993 9.23438C22.9756 9.23438 16.7958 12.5979 13.2009 17.6926C13.6725 17.7057 14.1171 17.7151 14.4947 17.7151C16.5977 17.7151 19.853 17.4767 19.853 17.4767C20.9367 17.4172 21.0647 18.9029 19.9819 19.0226C19.9819 19.0226 18.8927 19.1422 17.6808 19.2015L25.0022 39.5273L29.4021 27.211L26.2697 19.2008C25.1871 19.1416 24.1615 19.0219 24.1615 19.0219C23.078 18.9626 23.205 17.4165 24.2885 17.4762C24.2885 17.4762 27.6087 17.7142 29.5842 17.7142C31.687 17.7142 34.9425 17.4762 34.9425 17.4762C36.0272 17.4165 36.1545 18.9023 35.0714 19.0219C35.0714 19.0219 33.9799 19.1416 32.7703 19.2008L40.0362 39.3727L42.0415 33.1182C42.9108 30.5225 43.5722 28.6583 43.5722 27.0518Z" fill="white"/>
<path d="M30.3523 29.6402L24.3199 46.0005C26.1642 46.5075 28.0769 46.765 29.9995 46.7651C32.2735 46.7658 34.531 46.4061 36.6759 45.7013C36.6201 45.6192 36.5723 45.5327 36.533 45.4427L30.3523 29.6402ZM47.6412 18.9958C47.7326 19.6354 47.7779 20.28 47.7766 20.9252C47.7766 22.8294 47.3955 24.9701 46.2478 27.6468L40.1065 44.219C46.0837 40.9658 50.1042 34.9219 50.1042 27.9992C50.1044 24.7365 49.2117 21.6685 47.6412 18.9958Z" fill="white"/>
<path d="M29.9995 6.125C17.0766 6.125 6.5625 15.9375 6.5625 27.9987C6.5625 40.0614 17.0766 49.8735 29.9995 49.8735C42.9218 49.8735 53.4375 40.0614 53.4375 27.9987C53.437 15.9375 42.9218 6.125 29.9995 6.125ZM29.9995 48.8709C17.6691 48.8709 7.63711 39.5076 7.63711 27.9987C7.63711 16.4905 17.6688 7.12797 29.9995 7.12797C42.3293 7.12797 52.3605 16.4905 52.3605 27.9987C52.3605 39.5076 42.3293 48.8709 29.9995 48.8709Z" fill="white"/>
</g>
<defs>
<clipPath id="clip0_34_1240">
<rect width="60" height="56" fill="white"/>
</clipPath>
</defs>
</svg>
