<svg width="63" height="63" viewBox="0 0 63 63" fill="none" xmlns="http://www.w3.org/2000/svg">
<path d="M11.6196 53.552L7.19775 3.9375H55.8022L51.3745 53.5441L31.4705 59.0625L11.6196 53.552Z" fill="#1572B6"/>
<path d="M31.5 54.8455L47.5847 50.3862L51.3686 7.99512H31.5V54.8455Z" fill="#33A9DC"/>
<path d="M31.5 25.9698H39.5522L40.1074 19.7387H31.5V13.6533H46.7578L46.6121 15.2854L45.1178 32.0552H31.5V25.9698Z" fill="white"/>
<path d="M31.5374 41.773L31.5098 41.7808L24.7334 39.9499L24.3003 35.0969H18.1912L19.0437 44.6513L31.5079 48.1123L31.5374 48.1045V41.773Z" fill="#EBEBEB"/>
<path d="M39.0344 31.7974L38.302 39.946L31.5157 41.777V48.1085L43.9897 44.6513L44.0823 43.6236L45.1395 31.7974H39.0344Z" fill="white"/>
<path d="M31.5217 13.6533V19.7387H16.823L16.7009 18.3704L16.4233 15.2854L16.2776 13.6533H31.5217ZM31.5 25.9698V32.0552H24.8082L24.6862 30.6869L24.4105 27.6019L24.2648 25.9698H31.5Z" fill="#EBEBEB"/>
</svg>
