<svg width="128" height="128" viewBox="0 0 128 128" fill="none" xmlns="http://www.w3.org/2000/svg">
<path d="M90.717 76.293C87.987 76.118 86.4 74.565 85.98 71.66C85.868 70.887 85.868 70.867 85.856 65.85L85.845 60.994H88.261L88.27 65.691C88.279 69.924 88.284 70.421 88.325 70.718C88.489 71.927 88.816 72.74 89.374 73.323C89.82 73.79 90.342 74.063 91.065 74.208C91.405 74.277 92.376 74.277 92.687 74.208C93.385 74.0659 94.0248 73.7191 94.525 73.212C95.116 72.622 95.553 71.785 95.765 70.839L95.835 70.52L95.843 65.784L95.851 61.046H98.318V75.94H95.877V74.758C95.877 73.956 95.868 73.58 95.849 73.586C95.7936 73.6506 95.7468 73.7222 95.71 73.799C95.265 74.5896 94.6116 75.243 93.821 75.688C92.901 76.193 91.978 76.373 90.717 76.293ZM118.417 76.281C117.423 76.1983 116.462 75.8846 115.61 75.365C113.862 74.285 112.828 72.505 112.526 70.057C112.421 69.209 112.408 68.071 112.496 67.351C112.691 65.741 113.324 64.161 114.226 63.034C114.456 62.744 114.981 62.221 115.27 61.99C116.05 61.3677 116.962 60.9329 117.936 60.719C118.502 60.596 119.498 60.538 120.099 60.593C121.609 60.733 122.991 61.443 123.931 62.56C124.887 63.695 125.411 65.281 125.479 67.234C125.49 67.6316 125.491 68.0294 125.484 68.427L125.471 69.063L120.185 69.069L114.899 69.076V69.312C114.899 70.029 115.073 70.846 115.375 71.542C115.635 72.141 116.084 72.795 116.45 73.112C117.202 73.7615 118.14 74.1576 119.13 74.244C119.504 74.279 120.456 74.242 120.881 74.177C122.096 73.99 123.251 73.514 124.182 72.817C124.292 72.734 124.397 72.657 124.416 72.646C124.443 72.629 124.45 72.843 124.449 73.746V74.866L124.198 75.021C123.12 75.6805 121.911 76.0988 120.656 76.247C120.274 76.294 118.874 76.315 118.417 76.281ZM123.017 66.826C123.017 65.625 122.51 64.29 121.793 63.603C121.281 63.1126 120.628 62.7963 119.926 62.699C119.578 62.645 118.845 62.666 118.478 62.739C117.728 62.8818 117.039 63.2478 116.501 63.789C115.909 64.3755 115.46 65.0917 115.192 65.881C115.092 66.171 114.976 66.646 114.939 66.91L114.922 67.036H123.017V66.826ZM51.312 75.906L55.301 65.439L59.279 55.005H61.835L61.941 55.275C62.265 56.106 69.904 75.917 69.904 75.927C69.904 75.934 69.292 75.939 68.544 75.939H67.184L66.084 73.011L64.982 70.083H56.116L56.078 70.183C56.057 70.237 55.586 71.555 55.032 73.11L54.026 75.939H52.663C51.585 75.939 51.303 75.933 51.312 75.906ZM64.173 67.849C64.173 67.844 63.433 65.838 62.527 63.389C60.833 58.811 60.738 58.535 60.604 57.8C60.541 57.456 60.509 57.446 60.472 57.76C60.4192 58.1007 60.3423 58.4372 60.242 58.767C60.197 58.906 59.434 60.997 58.546 63.415C58.0029 64.8866 57.4646 66.3599 56.931 67.835C56.931 67.847 58.561 67.857 60.552 67.857C62.544 67.857 64.173 67.853 64.173 67.849ZM70.726 75.559V75.177L75.143 69.112L79.56 63.047L75.56 63.034L71.562 63.021L71.555 62.007L71.548 60.994H83.116V61.678L78.699 67.776C76.269 71.13 74.281 73.88 74.281 73.886C74.281 73.893 76.245 73.899 78.645 73.899H83.01V75.939H70.726V75.559ZM103.137 75.922C103.127 75.912 103.12 72.549 103.12 68.449V60.993H105.534V62.53C105.534 63.376 105.544 64.067 105.556 64.067C105.569 64.067 105.628 63.929 105.687 63.76C105.967 62.9717 106.429 62.2608 107.036 61.685C107.558 61.1789 108.224 60.8479 108.943 60.738C109.15 60.705 109.325 60.698 109.739 60.709C110.259 60.723 110.53 60.761 110.846 60.864L110.946 60.896V63.4L110.661 63.258C110.167 63.0077 109.614 62.8971 109.062 62.938C108.673 62.958 108.418 63.008 108.107 63.124C107.476 63.3568 106.941 63.7936 106.586 64.365C106.045 65.2479 105.7 66.237 105.576 67.265C105.556 67.442 105.545 68.887 105.54 71.734L105.533 75.941H104.344C103.69 75.941 103.147 75.932 103.137 75.922Z" fill="#0089D6"/>
<path d="M16.2555 44.5766H28.4554L15.7911 82.0996C15.661 82.4853 15.4132 82.8204 15.0826 83.0578C14.7519 83.2952 14.3552 83.4229 13.9481 83.4229H4.45396C4.14561 83.4228 3.84171 83.3493 3.56735 83.2086C3.29299 83.0679 3.05605 82.8639 2.87609 82.6135C2.69619 82.3631 2.57853 82.0734 2.53285 81.7685C2.48717 81.4635 2.51479 81.1521 2.61342 80.8599L14.4126 45.8996C14.5427 45.5139 14.7905 45.1787 15.1211 44.9413C15.4518 44.7039 15.8485 44.5761 16.2555 44.576V44.5766Z" fill="url(#paint0_linear_102_84)"/>
<path d="M33.983 69.745H14.638C14.4581 69.7446 14.2822 69.7984 14.1334 69.8994C13.9845 70.0004 13.8695 70.144 13.8035 70.3113C13.7374 70.4786 13.7233 70.662 13.763 70.8375C13.8027 71.013 13.8943 71.1724 14.026 71.295L26.457 82.898C26.8191 83.2356 27.2959 83.4232 27.791 83.423H38.745L33.983 69.745Z" fill="#0078D4"/>
<path d="M16.2555 44.5766C15.8441 44.5751 15.4429 44.7051 15.1106 44.9478C14.7782 45.1904 14.5322 45.533 14.4084 45.9254L2.62811 80.8282C2.52294 81.1214 2.48994 81.4356 2.53188 81.7443C2.57383 82.053 2.68949 82.347 2.86909 82.6015C3.04868 82.856 3.28694 83.0635 3.56369 83.2065C3.84044 83.3495 4.14755 83.4237 4.45905 83.4229H14.1985C14.5612 83.3581 14.9003 83.1982 15.181 82.9595C15.4617 82.7208 15.674 82.4118 15.7962 82.0642L18.1453 75.1407L26.5368 82.9674C26.8884 83.2583 27.3295 83.4192 27.7858 83.4229H38.6995L33.9128 69.7445L19.9594 69.7478L28.4994 44.5766H16.2555Z" fill="url(#paint1_linear_102_84)"/>
<path d="M31.8378 45.8978C31.7078 45.5126 31.4603 45.178 31.1301 44.941C30.7999 44.7039 30.4037 44.5765 29.9972 44.5766H16.401C16.8074 44.5766 17.2035 44.7041 17.5336 44.9412C17.8638 45.1782 18.1112 45.5127 18.2412 45.8978L30.0407 80.8597C30.1395 81.1519 30.1672 81.4634 30.1217 81.7685C30.0761 82.0735 29.9585 82.3633 29.7787 82.6139C29.5988 82.8645 29.3618 83.0686 29.0874 83.2094C28.813 83.3502 28.5089 83.4236 28.2005 83.4235H41.7973C42.1057 83.4232 42.4095 83.3497 42.6838 83.2088C42.958 83.0679 43.1948 82.8638 43.3746 82.6133C43.5544 82.3628 43.672 82.0731 43.7176 81.7682C43.7633 81.4633 43.7358 81.1518 43.6373 80.8597L31.8378 45.8978Z" fill="url(#paint2_linear_102_84)"/>
<defs>
<linearGradient id="paint0_linear_102_84" x1="20.7022" y1="47.4552" x2="8.03249" y2="84.8841" gradientUnits="userSpaceOnUse">
<stop stop-color="#114A8B"/>
<stop offset="1" stop-color="#0669BC"/>
</linearGradient>
<linearGradient id="paint1_linear_102_84" x1="24.6597" y1="64.8981" x2="21.7292" y2="65.8892" gradientUnits="userSpaceOnUse">
<stop stop-opacity="0.3"/>
<stop offset="0.071" stop-opacity="0.2"/>
<stop offset="0.321" stop-opacity="0.1"/>
<stop offset="0.623" stop-opacity="0.05"/>
<stop offset="1" stop-opacity="0"/>
</linearGradient>
<linearGradient id="paint2_linear_102_84" x1="23.048" y1="46.3635" x2="36.9555" y2="83.4154" gradientUnits="userSpaceOnUse">
<stop stop-color="#3CCBF4"/>
<stop offset="1" stop-color="#2892DF"/>
</linearGradient>
</defs>
</svg>
