<svg width="87" height="82" viewBox="0 0 87 82" fill="none" xmlns="http://www.w3.org/2000/svg">
<path d="M23.993 65.2156C21.2742 65.2156 19.0313 65.5359 17.4 66.1125C16.7883 68.1625 16.5164 70.3406 16.5164 72.775C16.5164 77.2594 17.332 80.0141 22.7695 80.0141C25.2844 80.0141 27.3914 79.3094 29.0906 78.5406L28.5469 76.2344C26.9156 76.8109 24.8086 77.3234 22.9734 77.3234C20.5945 77.3234 19.8469 76.7469 19.7109 72.9031H29.9062V71.4937C29.9062 67.5859 28.4109 65.2156 23.993 65.2156ZM19.7109 71.1094C19.7789 69.1875 19.9148 68.675 20.0508 68.0984C21.3422 67.8422 22.8375 67.8422 23.857 67.8422C26.1 67.8422 26.5078 69.1875 26.5078 71.1094H19.7109ZM9.44766 65.2156C7.6125 65.2156 6.11719 65.6641 4.07812 66.1766V59.5781H1.35938V79.4375H4.07812V68.8031C6.11719 68.1625 7.47656 67.8422 8.83594 67.8422C9.51562 67.8422 10.1953 68.1625 10.1953 68.9312V79.7578L10.4672 79.5016H13.5938V69.3797C13.5938 66.9453 12.3703 65.2156 9.44766 65.2156ZM82.9219 65.3438V76.4906C80.8828 77.1313 79.1156 77.4516 77.6883 77.4516C77.0086 77.4516 76.125 77.1312 76.125 76.3625V65.3438H73.4062V76.0422C73.4062 78.4125 74.2898 80.0781 77.2125 80.0781C79.0477 80.0781 82.2422 79.8219 85.6406 77.8359V65.3438H82.9219ZM70.5516 65.3438H66.8813C65.9977 67.2656 64.7063 69.8281 63.075 71.1094H61.8516V59.5781H58.4531V79.4375H61.8516V73.0312H63.2789C65.182 74.9531 66.4055 77.5156 67.357 79.4375H71.1633C69.7359 76.875 68.1047 74.0562 65.9297 71.4937C67.6969 69.7641 69.3281 67.9062 70.5516 65.3438ZM32.625 79.4375H35.3438V68.8031C36.7031 68.2906 38.7422 68.0984 40.1016 68.0344V65.4719C38.0625 65.6 35.3438 66.0484 32.625 67.4578V79.4375ZM48.5297 65.2156C44.3836 65.2156 41.5289 67.2656 41.5289 72.7109C41.5289 77.8359 43.7039 80.0781 48.5297 80.0781C52.6758 80.0781 55.5305 78.0281 55.5305 72.5828C55.5305 67.4578 53.3555 65.2156 48.5297 65.2156ZM48.5297 77.5156C45.8109 77.5156 44.6555 76.6187 44.6555 72.7109C44.6555 69.1234 46.0148 67.7781 48.5297 67.7781C51.2484 67.7781 52.4039 68.675 52.4039 72.5828C52.3359 76.1703 50.9766 77.5156 48.5297 77.5156ZM67.2891 6.59844C67.2891 3.65156 64.7742 1.28125 61.6477 1.28125H25.3523C22.2258 1.28125 19.7109 3.65156 19.7109 6.59844V51.6984C19.7109 54.6453 22.2258 57.0156 25.3523 57.0156H61.6477C64.7742 57.0156 67.2891 54.6453 67.2891 51.6984V6.59844ZM21.75 6.91875C21.75 4.80469 23.4492 3.20312 25.6242 3.20312H61.3078C63.5508 3.20312 65.25 4.86875 65.25 6.91875V51.3781C65.25 53.4922 63.5508 55.1578 61.3758 55.1578H25.6242C23.3813 55.1578 21.75 53.4922 21.75 51.3781V6.91875ZM58.3852 8.96875H51.1125C51.1125 8.96875 48.8016 14.0938 46.2867 16.6562H53.3555C57.1617 12.1719 58.3852 8.96875 58.3852 8.96875ZM30.5859 49.2641L37.2469 42.9219L30.5859 36.6438V49.2641ZM49.6172 27.1625V49.2641L49.5492 49.3281H55.7344V27.2266C55.7344 15.1188 37.3828 21.9734 37.3828 21.9734V8.84063L30.7219 8.90469C30.7219 8.90469 30.7219 29.4047 30.7898 29.3406C51.1125 21.9094 49.6172 27.1625 49.6172 27.1625Z" fill="#6762A6"/>
</svg>
