<svg width="97" height="99" viewBox="0 0 97 99" fill="none" xmlns="http://www.w3.org/2000/svg">
<path fill-rule="evenodd" clip-rule="evenodd" d="M66.126 77.4512C66.254 77.1999 66.3768 76.9779 66.4814 76.7482C66.5473 76.6012 66.6489 76.5718 66.7921 76.5757C67.6507 76.6005 68.5093 76.6275 69.3687 76.636C70.0984 76.6438 70.8297 76.6298 71.5602 76.6213C72.3832 76.6113 73.2062 76.5672 74.0284 76.5912C75.1235 76.6237 76.1905 76.8425 77.1809 77.3399C78.3639 77.9346 79.2589 78.8403 79.8689 80.0337C80.2524 80.7905 80.4918 81.6145 80.5744 82.4623C80.7048 83.706 80.6191 84.9211 80.2327 86.1106C79.7537 87.5848 78.8443 88.7133 77.5811 89.5586C76.6088 90.2091 75.5426 90.5935 74.3998 90.8131C73.1903 91.0459 71.977 90.9709 70.7638 90.9748C69.4331 90.9802 68.1031 90.9508 66.7724 90.9353C66.5397 90.933 66.5064 90.8882 66.5678 90.6615L66.6246 90.4527C66.7542 90.0366 66.8239 90.018 67.2377 89.9484C67.531 89.9013 67.8115 89.7925 68.0614 89.629C68.2009 89.5346 68.2585 89.2887 68.313 89.0992C68.36 88.9337 68.3623 88.7519 68.3638 88.5771C68.3827 85.9281 68.4024 83.2799 68.4131 80.6324C68.416 79.9627 68.3995 79.2932 68.3638 78.6245C68.338 78.1566 68.0933 77.8364 67.5476 77.7258C67.1233 77.64 66.6958 77.5734 66.2692 77.4969L66.126 77.4512ZM78.3086 83.8653C78.251 83.3379 78.2229 82.8057 78.1305 82.286C77.9092 81.0384 77.3742 79.9518 76.4345 79.1002C74.9151 77.7243 73.0857 77.5123 71.1685 77.6763C70.732 77.7134 70.638 77.8658 70.6312 78.3237C70.6206 78.9734 70.61 79.623 70.6092 80.2727C70.6062 82.3332 70.6062 84.3936 70.6092 86.454C70.61 87.0403 70.616 87.6266 70.6327 88.2113C70.6509 88.8099 70.8638 89.3165 71.4382 89.5486C72.3438 89.9144 73.2964 89.9577 74.2467 89.8084C75.7646 89.571 76.8263 88.6684 77.5386 87.3156C78.1024 86.2421 78.2616 85.0704 78.3086 83.8653ZM81.9984 90.8812C81.9802 90.5602 82.109 90.2949 82.2681 90.0513C82.3113 89.9856 82.4599 89.9886 82.5622 89.9678L83.4306 89.7922C83.7375 89.7257 83.8989 89.5153 83.9421 89.2082C83.9709 89.0056 83.9982 88.8006 84.0005 88.5957C84.0211 86.9738 84.036 85.3519 84.0452 83.73C84.0528 82.1058 84.0467 80.4816 84.0467 78.8573L84.0399 78.5472C84.0088 78.0251 83.7618 77.7544 83.2541 77.6778L82.1529 77.5069C82.0173 77.4884 81.968 77.4218 82.0173 77.2989C82.1022 77.0893 82.1833 76.8719 82.303 76.6832C82.3477 76.6136 82.4985 76.5865 82.6001 76.5888C83.126 76.5966 83.6519 76.6368 84.1778 76.636L88.7558 76.6082C89.6379 76.6074 90.4896 76.7644 91.2808 77.1952C92.1515 77.6686 92.6388 78.401 92.7782 79.3987C92.9237 80.4468 92.6123 81.33 91.862 82.0315C91.5536 82.3208 91.1543 82.5095 90.7966 82.7446L90.6799 82.8189C91.0118 82.9434 91.3278 83.0509 91.6355 83.1793C92.5357 83.556 93.2519 84.1446 93.6308 85.0843C93.9301 85.826 93.9301 86.5994 93.7528 87.3682C93.4769 88.5717 92.7002 89.3722 91.69 89.9778C90.742 90.5463 89.7159 90.8773 88.6232 90.933C87.6153 90.9848 86.6028 90.9655 85.5927 90.9771L85.0076 90.9802C84.0341 90.9574 83.0605 90.9326 82.087 90.9059L81.9984 90.8812ZM86.1944 86.1717H86.2042C86.2042 86.6807 86.1974 87.1896 86.2065 87.6985C86.2126 88.028 86.2012 88.3668 86.2709 88.6839C86.3755 89.158 86.5877 89.5857 87.109 89.7218C87.806 89.9088 88.5342 89.9415 89.2446 89.8177C90.1365 89.6592 90.8481 89.2028 91.2384 88.3358C91.5279 87.6915 91.571 87.0086 91.4718 86.311C91.3399 85.3921 90.8617 84.7254 90.0668 84.2884C89.5454 84.0015 88.9892 83.8259 88.3966 83.8027C87.7327 83.7772 87.0681 83.7756 86.4043 83.7547C86.2179 83.7493 86.1921 83.846 86.1928 84.0022C86.1966 84.7246 86.1944 85.4478 86.1944 86.1717ZM87.6077 82.7106C87.9707 82.692 88.3814 82.6866 88.7899 82.6449C89.5719 82.5652 90.1229 82.1638 90.4101 81.4004C90.5563 81.0129 90.5503 80.6138 90.5541 80.2109C90.5654 79.1613 89.9652 78.3012 88.9884 77.9455C88.2344 77.6709 87.4569 77.6662 86.6748 77.6879C86.3581 77.6964 86.2163 77.8379 86.2118 78.1636L86.1648 82.409C86.1625 82.5776 86.2338 82.6503 86.3944 82.6557L87.6077 82.7106Z" fill="#94795D"/>
<path fill-rule="evenodd" clip-rule="evenodd" d="M7.98963 90.0653L7.93431 90.7954C7.41899 90.7954 6.94384 90.7915 6.4687 90.7969C5.57372 90.8062 4.67874 90.8209 3.78301 90.8341L3.69662 90.8395C3.56855 90.824 3.3359 90.824 3.32984 90.7853C3.29195 90.568 3.30407 90.3398 3.31392 90.1148C3.31468 90.0892 3.40183 90.0568 3.4526 90.0444L4.14903 89.8858C4.58326 89.7706 4.73634 89.5795 4.7568 89.1217C4.78029 88.6058 4.80378 88.0891 4.80606 87.5732C4.81288 86.3033 4.8053 85.0348 4.8106 83.7648C4.81136 83.4678 4.71057 83.2466 4.43927 83.126C4.1169 82.9799 3.79226 82.8392 3.46548 82.7037C3.31089 82.6403 3.11007 82.6055 3.12826 82.3935C3.14645 82.1777 3.3412 82.1213 3.52459 82.0787C4.28392 81.9016 5.04401 81.7292 5.80106 81.5404C6.04508 81.4793 6.27848 81.3765 6.57024 81.2728C6.5854 81.4337 6.61344 81.5868 6.61041 81.74L6.5657 82.4678C6.56494 82.5498 6.60662 82.6596 6.66648 82.7052C6.70286 82.7338 6.82487 82.682 6.88549 82.6341C7.53266 82.1313 8.21773 81.6974 8.99903 81.4445C10.2093 81.0524 11.2482 81.4159 11.9757 82.4809C12.2319 82.8561 12.2326 82.8561 12.588 82.5939C13.1981 82.1414 13.8361 81.7423 14.55 81.4793C16.1172 80.9016 17.6229 81.6348 18.1678 83.2459C18.3664 83.8306 18.4421 84.4346 18.4406 85.0518L18.4262 89.1495C18.4255 89.4875 18.5353 89.6801 18.8506 89.7853C19.2045 89.9036 19.5713 89.9848 19.9699 90.0916L19.8774 90.7962C19.4243 90.7962 19.0075 90.7931 18.5907 90.7969C17.5722 90.8062 16.5537 90.8116 15.5359 90.8356C15.3586 90.8402 15.3124 90.7954 15.3033 90.626C15.2737 90.0838 15.2692 90.0846 15.7693 89.9624L15.9376 89.9183C16.4264 89.7822 16.5893 89.629 16.5931 89.1232C16.6044 87.6707 16.634 86.2143 16.562 84.7649C16.487 83.2613 15.3177 82.4608 13.89 82.846C13.4292 82.9748 12.9952 83.1881 12.6093 83.4756C12.4766 83.5723 12.4516 83.6836 12.4622 83.853C12.5024 84.4934 12.5274 85.1346 12.5327 85.7758C12.5418 86.898 12.5282 88.0203 12.5327 89.1433C12.5342 89.5981 12.6865 89.7721 13.1268 89.8773L13.7808 90.0312L13.9021 90.0591C13.9112 90.2725 13.9195 90.486 13.9097 90.6995C13.9036 90.8333 13.802 90.8449 13.6884 90.8426C13.0526 90.8263 12.416 90.8047 11.7802 90.8062C11.0065 90.8078 10.2335 90.8302 9.46054 90.8441H9.27866C9.27866 90.6175 9.26805 90.4009 9.28624 90.1851C9.29003 90.1333 9.37945 90.0606 9.44084 90.0444L10.2032 89.8796C10.5268 89.7984 10.6814 89.629 10.6996 89.2934C10.786 87.7388 10.8481 86.1834 10.7049 84.6295C10.67 84.3227 10.5865 84.0236 10.4578 83.744C10.0675 82.8638 9.18924 82.4964 8.17605 82.7609C7.69484 82.8862 7.26061 83.1113 6.84988 83.3951C6.76031 83.4514 6.68674 83.5307 6.63648 83.625C6.58623 83.7193 6.56104 83.8254 6.56342 83.9327C6.56342 85.4834 6.56873 87.0342 6.57327 88.5841L6.58161 89.182C6.5907 89.5989 6.76424 89.8185 7.16967 89.9083C7.43036 89.9686 7.69408 90.0096 7.98963 90.0653Z" fill="#50382B"/>
<path fill-rule="evenodd" clip-rule="evenodd" d="M53.8055 81.4314C53.9229 82.0145 53.9207 82.5389 53.5008 82.9365C53.084 83.3317 52.5566 83.1987 52.042 83.1105C52.0898 83.3874 52.1428 83.6225 52.1686 83.8607C52.3558 85.6311 51.6093 86.9452 50.0005 87.6962C49.3927 87.9793 48.7478 88.0845 48.0893 88.1386C47.7619 88.1649 47.4755 88.4202 47.4444 88.6947C47.4126 88.9732 47.5838 89.2593 47.9264 89.3429C48.3303 89.4411 48.7516 89.4689 49.1661 89.5177C50.0558 89.6213 50.9553 89.6685 51.8344 89.8309C53.1636 90.0753 53.9055 91.2594 53.6713 92.6222C53.4629 93.835 52.7748 94.7175 51.8154 95.3942C50.199 96.5374 48.4258 96.8715 46.5373 96.2883C45.4574 95.9542 44.6958 95.2295 44.4328 94.057C44.301 93.4699 44.4412 92.9386 44.8739 92.5403C45.3884 92.0685 45.9485 91.6477 46.4873 91.2022L46.6616 91.0235L46.4615 90.8805C45.9121 90.6144 45.4726 90.2501 45.302 89.6174C45.2437 89.4032 45.3043 89.2624 45.4824 89.1526C45.7855 88.9662 46.0871 88.7767 46.3865 88.5841C46.5274 88.4944 46.6669 88.4016 46.798 88.298C46.9768 88.1587 46.9609 88.0551 46.7472 87.9747C46.2501 87.7875 45.8083 87.516 45.4657 87.0983C44.8936 86.4015 44.7314 85.5716 44.7784 84.6953C44.8519 83.3263 45.5802 82.4245 46.7639 81.8444C48.1711 81.1553 49.5829 81.1119 51.0175 81.74C51.5479 81.972 52.1072 82.0215 52.6763 81.9813C53.1015 81.9504 53.4728 81.7864 53.8055 81.4314ZM48.6197 91.2393C47.5634 91.2301 47.2322 91.3631 46.6123 92.0074C45.9181 92.7297 45.9219 93.7313 46.6146 94.4568C47.1405 95.0067 47.7968 95.2643 48.5265 95.3416C49.3791 95.4314 50.2187 95.395 50.9932 94.9596C51.8192 94.4932 52.23 93.6269 52.0443 92.7545C51.8905 92.0344 51.3706 91.7049 50.7378 91.5154C50.0179 91.3004 49.2737 91.2594 48.6197 91.2393ZM46.5449 84.3496C46.5835 84.6489 46.5994 84.9521 46.6646 85.2452C46.8336 86.0047 47.1572 86.6722 47.8976 87.0102C48.7668 87.4085 49.877 87.2376 50.2574 85.9923C50.5173 85.1636 50.487 84.2685 50.1718 83.4601C50.0382 83.0906 49.7976 82.7712 49.4821 82.5443C48.7274 82.0068 47.3656 81.9357 46.8109 83.1237C46.6305 83.5096 46.56 83.9203 46.5449 84.3496Z" fill="#4F382B"/>
<path fill-rule="evenodd" clip-rule="evenodd" d="M35.8824 81.2403C35.9105 81.3726 35.9666 81.5226 35.9681 81.6734C35.9703 81.9604 35.94 82.2473 35.9241 82.5343V82.7833L36.1621 82.5977C36.8138 82.0501 37.514 81.5837 38.3294 81.3323C39.8011 80.8799 41.2712 81.702 41.7509 83.2319C41.9328 83.8135 42.0048 84.4114 42.0116 85.0193C42.0268 86.3697 42.0359 87.7202 42.0495 89.0706C42.0541 89.5555 42.1086 89.6421 42.558 89.7821C42.8137 89.8601 43.0746 89.9192 43.3386 89.9593C43.4833 89.9825 43.5454 90.0405 43.5379 90.1851L43.5394 90.3181C43.5341 90.8773 43.4962 90.9028 42.965 90.9013C41.6933 90.899 40.4225 90.9067 39.1509 90.9175C38.772 90.9206 38.7712 90.9322 38.7333 90.5502L38.7258 90.3305C38.7492 90.001 38.7568 90.0041 39.0743 89.9562C39.288 89.9237 39.5002 89.8734 39.7086 89.8177C39.9231 89.7613 40.0262 89.5996 40.055 89.383C40.0694 89.2732 40.0883 89.1634 40.0875 89.0536C40.0694 87.5778 40.0928 86.1006 40.014 84.6272C39.9504 83.4353 39.0592 82.7253 37.8869 82.8065C37.3217 82.8465 36.7785 83.0454 36.3174 83.3812C36.0044 83.6047 35.9415 83.9272 35.9431 84.2745C35.9491 85.6543 35.962 87.0341 35.9764 88.4147C35.9794 88.7171 35.9878 89.0195 36.0158 89.3196C36.0454 89.6476 36.1583 89.7798 36.4735 89.851C36.7751 89.919 37.0828 89.9585 37.4049 90.0134L37.4322 90.2671C37.4428 90.8588 37.3821 90.9028 36.8191 90.9005C35.5043 90.8951 34.1895 90.9036 32.8754 90.9183C32.6686 90.9214 32.5806 90.8549 32.586 90.6492L32.5829 90.561C32.5488 90.0281 32.564 90.008 33.0581 89.9214L33.2915 89.8734C33.8265 89.7504 33.9637 89.605 33.9712 89.0505C33.9962 87.294 34.0053 85.5383 34.0228 83.7818C34.025 83.5297 33.9318 83.334 33.7015 83.2296C33.3781 83.085 33.053 82.9448 32.7261 82.8088C32.5458 82.733 32.3397 82.6851 32.3328 82.4306C32.3283 82.2512 32.5162 82.0926 32.7731 82.0393C33.2892 81.9325 33.8098 81.8436 34.3198 81.7129C34.8276 81.5837 35.3262 81.4104 35.8824 81.2403Z" fill="#4F372B"/>
<path fill-rule="evenodd" clip-rule="evenodd" d="M64.3118 85.8283C64.2875 87.4688 63.87 88.7953 62.7332 89.7907C61.2934 91.0537 59.0472 91.4829 57.2111 90.5386C56.4275 90.1356 55.8515 89.5176 55.4764 88.7156C54.9012 87.482 54.7573 86.1849 55.0574 84.8561C55.3544 83.5421 56.1342 82.59 57.3012 81.9735C58.5016 81.3401 59.7656 81.0926 61.0986 81.4252C62.7848 81.8451 63.9965 83.2482 64.2375 85.0348C64.2807 85.348 64.2974 85.6652 64.3118 85.8283ZM62.3589 86.717L62.2937 86.7093C62.2937 86.5546 62.302 86.3999 62.2922 86.2452C62.2369 85.2815 62.0247 84.3635 61.4775 83.5568C60.9584 82.7926 60.2514 82.3417 59.3314 82.2759C58.3015 82.2017 57.4361 82.7895 57.1322 83.863C56.676 85.4749 56.8306 87.0457 57.6324 88.5222C57.9818 89.1657 58.4993 89.6406 59.1927 89.8904C60.5515 90.3785 61.7564 89.7466 62.1103 88.3265C62.2407 87.8022 62.2785 87.2538 62.3589 86.717Z" fill="#4F382B"/>
<path fill-rule="evenodd" clip-rule="evenodd" d="M30.9332 85.9552C30.9051 87.1324 30.6331 88.2206 29.9207 89.1665C29.1576 90.1797 28.1088 90.7211 26.916 90.9493C25.5057 91.2185 24.1811 90.9741 23.0481 90.008C22.5101 89.5486 22.1425 88.96 21.9 88.2902C21.5022 87.1919 21.4029 86.0666 21.6477 84.9196C21.9091 83.6921 22.5881 82.754 23.6407 82.1244C24.8578 81.3981 26.1711 81.0741 27.5738 81.4004C29.3774 81.8212 30.4186 83.0208 30.8036 84.8368C30.8809 85.2034 30.8915 85.5824 30.9332 85.9552ZM28.9583 86.7317L28.906 86.724V86.5028C28.8765 85.4231 28.6696 84.3944 28.0383 83.4972C27.5707 82.8313 26.9448 82.4136 26.1423 82.2969C24.8343 82.1066 23.9795 82.8986 23.6961 83.9744C23.3262 85.3798 23.4422 86.7681 24.0143 88.1007C24.3713 88.9314 24.9351 89.5788 25.8013 89.8928C27.1517 90.3824 28.3748 89.7342 28.7166 88.3196C28.8424 87.8022 28.8802 87.2623 28.9583 86.7317Z" fill="#4F372B"/>
<path fill-rule="evenodd" clip-rule="evenodd" d="M62.4149 25.9442C63.3448 28.6876 64.0132 31.4882 64.2337 34.3902C64.5065 37.9913 64.3822 41.5677 63.638 45.1092L63.5426 45.3923C63.3092 45.3931 63.0712 45.3629 62.8431 45.3993C60.916 45.7086 58.9911 46.0288 57.0655 46.3475C55.0748 46.677 53.0825 46.9933 51.0955 47.3445C50.3915 47.4682 49.52 47.3205 49.2358 48.3136L49.0994 48.3608L49.1957 42.4223L49.0979 28.0936L50.0255 27.9312C51.5418 27.6783 53.0582 27.4207 54.5769 27.174C56.3881 26.8808 58.2007 26.5947 60.0134 26.3085C60.8137 26.1832 61.6147 26.0664 62.4149 25.9442Z" fill="#439934"/>
<path fill-rule="evenodd" clip-rule="evenodd" d="M47.1852 65.6733C46.2069 64.8148 45.1944 63.9942 44.257 63.0908C39.2115 58.2336 35.5202 52.5156 33.7022 45.622C33.2013 43.7255 32.8678 41.7973 32.7602 39.8374C32.6845 38.4653 32.5761 37.0817 32.6716 35.7165C32.9239 32.0868 33.4385 28.4919 34.4812 24.9952L34.5388 24.9139C34.6404 25.0516 34.7859 25.1738 34.8374 25.3293C35.8559 28.389 36.8661 31.4518 37.8717 34.5169C41.031 44.147 44.1865 53.7794 47.3512 63.4079C47.4133 63.5959 47.5732 63.7498 47.6884 63.9192L47.1852 65.6733Z" fill="#45A538"/>
<path fill-rule="evenodd" clip-rule="evenodd" d="M62.4149 25.9442C61.6139 26.0656 60.8129 26.1832 60.0134 26.3085C58.2007 26.5946 56.3881 26.8808 54.5769 27.1739C53.059 27.4199 51.5426 27.6775 50.0255 27.9311L49.0979 28.0936L49.0903 27.4764C49.0593 26.969 49.0077 26.4616 49.0009 25.9542L48.8971 16.2445C48.8728 14.2189 48.8365 12.1932 48.7963 10.1684C48.7758 8.90985 48.7402 7.65163 48.6894 6.394C48.6591 5.71879 48.5523 5.04667 48.5098 4.37146C48.4848 3.9832 48.5182 3.59184 48.5265 3.20203C48.9994 4.13711 49.4624 5.07916 49.9482 6.00728C50.7158 7.4745 51.9397 8.55576 53.0423 9.73525C57.3967 14.3999 60.4878 19.8201 62.4149 25.9442Z" fill="#46A037"/>
<path fill-rule="evenodd" clip-rule="evenodd" d="M49.1002 48.3608L49.2366 48.3136C49.5208 47.3205 50.3923 47.4682 51.0963 47.3445C53.0832 46.9933 55.0755 46.677 57.0663 46.3475C58.9919 46.0296 60.9168 45.7094 62.8439 45.3993C63.072 45.3629 63.3099 45.3931 63.5433 45.3923C63.1834 46.704 62.8999 48.0444 62.443 49.3198C61.9239 50.7661 61.2964 52.1784 60.6303 53.5629C59.6325 55.6275 58.3979 57.5638 56.9526 59.3312C55.8417 60.694 54.6034 61.9555 53.3629 63.1999C52.6763 63.8875 51.8685 64.4483 51.1152 65.067L50.9197 64.9309L50.2172 64.3183L49.4905 62.691C48.9939 60.7933 48.7229 58.8416 48.6834 56.8778L48.697 56.5468L48.7963 55.1129C48.8289 54.6233 48.8728 54.1345 48.8933 53.6449C48.966 51.8845 49.0312 50.1226 49.1002 48.3608Z" fill="#409433"/>
<path fill-rule="evenodd" clip-rule="evenodd" d="M49.1002 48.3607C49.032 50.1226 48.9668 51.8853 48.8933 53.6471C48.8728 54.1375 48.8296 54.6263 48.7963 55.1151L48.3537 55.2861C47.3701 52.3308 46.3857 49.4064 45.4233 46.4751C43.8311 41.6248 42.2587 36.7676 40.6688 31.9159C39.3849 28.0002 38.0921 24.0877 36.7903 20.1782C36.7289 19.9957 36.5546 19.8518 36.4333 19.6901L39.2676 14.3712C39.3653 14.5437 39.4934 14.7053 39.5548 14.891C40.8658 18.851 42.1745 22.8117 43.4719 26.7764C45.1603 31.9352 46.8374 37.0964 48.5242 42.256C48.5917 42.4617 48.7023 42.652 48.8084 42.8832L49.1964 42.4222L49.1002 48.3607Z" fill="#4FAA41"/>
<path fill-rule="evenodd" clip-rule="evenodd" d="M36.4326 19.6902C36.5546 19.8518 36.7289 19.9957 36.7895 20.1782C38.0914 24.0877 39.3843 28.0002 40.668 31.9159C42.2579 36.7677 43.8304 41.6249 45.4225 46.4751C46.3849 49.4064 47.3693 52.33 48.353 55.2861L48.7955 55.1152L48.6963 56.5491L48.6061 56.8794C48.4523 58.4487 48.3227 60.0211 48.1347 61.5873C48.0408 62.3723 47.8399 63.1427 47.6876 63.9192C47.5732 63.7498 47.4125 63.5959 47.3504 63.408C44.185 53.7794 41.0302 44.1471 37.8709 34.517C36.8657 31.4523 35.8543 28.3897 34.8366 25.3293C34.7851 25.1739 34.6396 25.0517 34.5381 24.914L36.4326 19.6902Z" fill="#4AA73C"/>
<path fill-rule="evenodd" clip-rule="evenodd" d="M49.1957 42.4223L48.8077 42.8832C48.7016 42.652 48.5909 42.4617 48.5235 42.256C46.8366 37.0964 45.1596 31.9352 43.4712 26.7764C42.1723 22.8123 40.8665 18.8505 39.554 14.891C39.4926 14.7054 39.3646 14.5437 39.2668 14.3712L42.7717 9.66565C42.8823 9.8157 43.04 9.9495 43.0968 10.1189C44.0698 13.027 45.0338 15.9375 45.9932 18.8502C46.8889 21.5712 47.771 24.2952 48.6773 27.0115C48.738 27.1933 48.9494 27.3217 49.0903 27.4764L49.0979 28.0936L49.1957 42.4223Z" fill="#57AE47"/>
<path fill-rule="evenodd" clip-rule="evenodd" d="M49.0903 27.4764C48.9486 27.3225 48.738 27.1941 48.6773 27.0115C47.7717 24.2952 46.8889 21.5712 45.9932 18.8502C45.0345 15.9374 44.0691 13.027 43.0968 10.1189C43.04 9.94952 42.8823 9.81571 42.7717 9.66566C43.9114 8.52639 45.0156 7.34612 46.2016 6.25945C47.2557 5.2942 48.1029 4.25934 48.1423 2.73334L48.2257 2.42938L48.5258 3.20127C48.5182 3.59109 48.4841 3.98244 48.5091 4.37071C48.5523 5.04592 48.6591 5.71804 48.6887 6.39325C48.744 7.65009 48.7705 8.90924 48.7955 10.1676C48.8357 12.1925 48.8721 14.2181 48.8963 16.2437L49.0002 25.9535C49.0077 26.4616 49.06 26.969 49.0903 27.4764Z" fill="#60B24F"/>
<path fill-rule="evenodd" clip-rule="evenodd" d="M47.6884 63.9185C47.8407 63.1419 48.0415 62.3716 48.1355 61.5865C48.3234 60.0211 48.453 58.4479 48.6069 56.8786L48.6455 56.8724L48.6834 56.8794C48.7229 58.8431 48.9939 60.7949 49.4905 62.6926C49.3882 62.8302 49.2449 62.9517 49.1904 63.1063C48.7698 64.3175 48.3727 65.5388 47.9498 66.7492C47.8922 66.9148 47.7301 67.0439 47.6172 67.1885L47.1844 65.6726L47.6884 63.9185Z" fill="#A9AA88"/>
<path fill-rule="evenodd" clip-rule="evenodd" d="M47.6172 67.1893C47.7301 67.0439 47.8922 66.9155 47.9498 66.75C48.3727 65.5396 48.7698 64.3183 49.1904 63.1071C49.2442 62.9524 49.3882 62.831 49.4905 62.6933L50.2172 64.3206C50.074 64.5279 49.8754 64.7158 49.7959 64.9471L48.4045 69.1175C48.3469 69.2853 48.1522 69.4029 48.0203 69.5444L47.6172 67.1893Z" fill="#B6B598"/>
<path fill-rule="evenodd" clip-rule="evenodd" d="M48.0203 69.5436C48.1514 69.4021 48.3469 69.2845 48.4045 69.1167L49.7958 64.9463C49.8747 64.715 50.074 64.5271 50.2172 64.3198L50.9204 64.9316C50.5809 65.2742 50.3922 65.6702 50.5059 66.1707L50.2922 66.8845C50.1952 67.0067 50.0543 67.1135 50.0065 67.2535C49.5208 68.6735 49.0577 70.1013 48.5682 71.5205C48.506 71.7 48.334 71.8415 48.2135 72.0008L48.0203 69.5436Z" fill="#C2C1A7"/>
<path fill-rule="evenodd" clip-rule="evenodd" d="M48.2128 72.0001C48.334 71.8408 48.5061 71.6992 48.5674 71.5198C49.057 70.1005 49.5208 68.6728 50.0058 67.2527C50.0535 67.1127 50.1945 67.0068 50.2915 66.8838L49.9967 70.1601C49.9179 70.2529 49.8042 70.3341 49.7663 70.4416L48.7857 73.3095C48.7167 73.5052 48.5849 73.68 48.4818 73.8633C48.3901 73.7411 48.2264 73.6228 48.2188 73.4959C48.19 72.9994 48.2105 72.4989 48.2128 72.0001Z" fill="#CECDB7"/>
<path fill-rule="evenodd" clip-rule="evenodd" d="M48.4826 73.864C48.5856 73.6807 48.7175 73.5059 48.7865 73.3103L49.7671 70.4424C49.805 70.3341 49.9194 70.2536 49.9974 70.1608L50.005 72.311L49.2995 74.1572L48.4826 73.864Z" fill="#DBDAC7"/>
<path fill-rule="evenodd" clip-rule="evenodd" d="M49.2995 74.1572L50.005 72.311L50.1505 74.4952L49.2995 74.1572Z" fill="#EBE9DC"/>
<path fill-rule="evenodd" clip-rule="evenodd" d="M50.5052 66.1707C50.3923 65.671 50.5802 65.275 50.9197 64.9316L51.1152 65.0678L50.5052 66.1707Z" fill="#CECDB7"/>
<path fill-rule="evenodd" clip-rule="evenodd" d="M48.6834 56.8802L48.6455 56.8732L48.6068 56.8794L48.697 56.5491L48.6834 56.8802Z" fill="#4FAA41"/>
</svg>
