<svg width="97" height="95" viewBox="0 0 97 95" fill="none" xmlns="http://www.w3.org/2000/svg">
<g clip-path="url(#clip0_102_58)">
<path d="M16.2172 72.4375C16.2172 73.7734 15.0805 75.0352 13.5648 75.0352C12.4281 75.0352 11.443 75.332 10.5336 76C9.54843 76.5938 8.8664 77.4102 8.26015 78.375C7.04765 79.9336 6.4414 81.7891 6.21406 82.457V91.7344C6.21406 93.1445 5.00156 94.332 3.48593 94.332C2.04609 94.332 0.833588 93.1445 0.833588 91.7344V72.4375C0.833588 71.0273 2.04609 69.9141 3.48593 69.9141C5.00156 69.9141 6.21406 71.0273 6.21406 72.4375V72.8086C6.51718 72.4375 6.89609 72.0664 7.27499 71.8438C8.94218 70.8047 11.0641 69.9141 13.5648 69.9141C15.0805 69.9141 16.2172 71.0273 16.2172 72.4375ZM14.7773 82.0859C14.8531 75.4062 20.082 69.8398 26.9781 69.8398C33.4953 69.8398 38.5727 74.5898 39.0273 81.1953V81.418C39.0273 81.4922 39.0273 81.7891 38.9516 81.8633C38.8 83.0508 37.7391 83.793 36.375 83.793H20.4609C20.6883 84.9063 21.2945 86.168 22.1281 86.9844C23.1891 88.1719 25.1594 89.0625 26.9023 89.2109C28.7211 89.3594 30.843 88.9141 32.0555 88.0234C33.1164 86.9844 35.1625 87.0586 35.7687 87.875C36.4508 88.543 36.9055 90.0273 35.7687 91.0664C33.3437 93.293 30.3883 94.2578 26.8266 94.2578C20.082 94.2578 14.7773 88.6914 14.7773 82.0859ZM20.1578 79.7109H34.2531C33.7227 77.7813 31.2219 74.8867 26.9023 74.5156C22.6586 74.6641 20.6125 77.707 20.1578 79.7109ZM64.3383 91.6602C64.3383 93.0703 63.1258 94.332 61.6102 94.332C60.2461 94.332 59.1852 93.3672 58.9578 92.2539C57.0633 93.5156 54.6383 94.332 52.1375 94.332C45.393 94.332 40.0125 88.7656 40.0125 82.1602C40.0125 75.4805 45.393 69.9141 52.1375 69.9141C54.5625 69.9141 56.9875 70.7305 58.8062 71.9922V62.7148C58.8062 61.3047 60.0187 60.043 61.5344 60.043C63.05 60.043 64.2625 61.2305 64.2625 62.7148V82.1602L64.3383 91.6602ZM52.2133 75.1836C50.3945 75.1836 48.8031 75.9258 47.5148 77.1875C46.3023 78.375 45.5445 80.1562 45.5445 82.0859C45.5445 83.9414 46.3023 85.7227 47.5148 86.9102C48.7273 88.1719 50.3945 88.9141 52.2133 88.9141C54.032 88.9141 55.6234 88.1719 56.9117 86.9102C58.1242 85.7227 58.882 83.9414 58.882 82.0859C58.882 80.1562 58.1242 78.375 56.9117 77.1875C55.6992 75.9258 54.1078 75.1836 52.2133 75.1836ZM73.8867 63.7539C73.8867 65.2383 72.75 66.4258 71.1586 66.4258C69.643 66.4258 68.4305 65.2383 68.4305 63.7539V62.7148C68.4305 61.2305 69.643 60.043 71.1586 60.043C72.6742 60.043 73.8867 61.2305 73.8867 62.7148V63.7539ZM73.8867 72.5859V91.6602C73.8867 93.1445 72.75 94.332 71.1586 94.332C69.643 94.332 68.4305 93.1445 68.4305 91.6602V72.5859C68.4305 71.0273 69.643 69.9141 71.1586 69.9141C72.75 69.9141 73.8867 71.0273 73.8867 72.5859ZM77.2969 87.2812C78.2062 86.0937 79.9492 85.9453 81.0102 86.9102C82.2984 87.9492 84.5719 89.1367 86.4664 89.0625C87.8305 89.0625 89.043 88.6172 89.8766 88.0977C90.5586 87.5039 90.7859 87.0586 90.7859 86.6133C90.7859 86.3906 90.7102 86.2422 90.6344 86.0938C90.5586 85.9453 90.407 85.7227 89.9523 85.5C89.2703 84.9805 87.7547 84.4609 85.9359 84.1641H85.8602C84.3445 83.8672 82.8289 83.4961 81.5406 82.9023C80.1766 82.2344 78.9641 81.418 78.1305 80.082C77.6 79.1914 77.2969 78.1523 77.2969 77.0391C77.2969 74.8125 78.5852 72.8828 80.2523 71.6953C81.9953 70.5078 84.1172 69.9141 86.3906 69.9141C89.8008 69.9141 92.3016 71.5469 93.893 72.5859C95.1055 73.4023 95.4086 74.9609 94.7266 76.2227C93.893 77.4102 92.3016 77.707 91.0133 76.8906C89.4219 75.8516 87.982 75.1094 86.3906 75.1094C85.1781 75.1094 84.0414 75.4805 83.3594 76C82.6773 76.4453 82.5258 76.8906 82.5258 77.1133C82.5258 77.3359 82.5258 77.3359 82.6016 77.4844C82.6773 77.5586 82.8289 77.7812 83.132 78.0039C83.8141 78.4492 85.1023 78.8945 86.7695 79.1914L86.8453 79.2656H86.9211C88.5883 79.5625 90.1039 80.0078 91.5437 80.6758C92.9078 81.2695 94.2719 82.1602 95.1055 83.5703C95.7117 84.5352 96.0906 85.6484 96.0906 86.7617C96.0906 89.1367 94.7266 91.1406 92.9836 92.4023C91.1648 93.5898 88.9672 94.332 86.4664 94.332C82.6016 94.2578 79.5703 92.5508 77.6 90.9922C76.5391 90.0273 76.3875 88.3945 77.2969 87.2812Z" fill="#636466"/>
<path d="M81.0102 46.5352C77.2211 48.4649 57.7453 56.332 53.5773 58.4102C49.4094 60.5625 47.1359 60.4883 43.8773 59.0039C40.543 57.4453 19.8547 49.2813 16.0656 47.5C14.1711 46.6094 13.1859 45.8672 13.1859 45.1992V38.2227C13.1859 38.2227 40.1641 32.4336 44.5594 30.9492C48.9547 29.3906 50.4703 29.3906 54.1078 30.7266C57.8211 32.0625 80.025 35.9961 83.6625 37.2578V44.1602C83.7383 44.8281 82.9047 45.5703 81.0102 46.5352Z" fill="#A41E11"/>
<path d="M81.0102 39.5586C77.2211 41.4883 57.7453 49.3555 53.5773 51.4336C49.4094 53.586 47.1359 53.5117 43.8773 52.0274C40.543 50.4688 19.8547 42.3047 16.0656 40.5235C12.3523 38.7422 12.2766 37.5547 15.9141 36.1446C19.5516 34.7344 40.2398 26.793 44.5594 25.3086C48.9547 23.75 50.4703 23.75 54.1078 25.086C57.8211 26.4219 77.2211 33.9922 80.8586 35.2539C84.6476 36.5899 84.7992 37.6289 81.0102 39.5586Z" fill="#D82C20"/>
<path d="M81.0102 35.1797C77.2211 37.1094 57.7453 44.9766 53.5773 47.0547C49.4094 49.2071 47.1359 49.1328 43.8773 47.6485C40.543 46.0899 19.8547 37.8516 16.0656 36.1446C14.1711 35.2539 13.1859 34.5117 13.1859 33.8438V26.8672C13.1859 26.8672 40.1641 21.0781 44.5594 19.5938C48.9547 18.0352 50.4703 18.0352 54.1078 19.3711C57.8211 20.7071 80.025 24.6406 83.6625 25.9024V32.8047C83.7383 33.4727 82.9047 34.2149 81.0102 35.1797Z" fill="#A41E11"/>
<path d="M81.0102 28.2031C77.2211 30.1328 57.7453 38 53.5773 40.0781C49.4094 42.2305 47.1359 42.1563 43.8773 40.6719C40.6188 39.1133 19.8547 30.9492 16.1414 29.168C12.4281 27.3867 12.3523 26.1992 15.9898 24.7891C19.6273 23.3789 40.3156 15.4375 44.6352 13.9531C49.0305 12.3946 50.5461 12.3946 54.1836 13.7305C57.8969 15.0664 77.2969 22.6367 80.9344 23.8985C84.6477 25.1602 84.7992 26.2735 81.0102 28.2031Z" fill="#D82C20"/>
<path d="M81.0102 23.3789C77.2211 25.3086 57.7453 33.1758 53.5773 35.2539C49.4094 37.4063 47.1359 37.3321 43.8773 35.8477C40.6188 34.2891 19.8547 26.125 16.1414 24.3438C14.2469 23.4531 13.2617 22.711 13.2617 22.043V15.0664C13.2617 15.0664 40.2398 9.27736 44.6352 7.79299C49.0305 6.2344 50.5461 6.2344 54.1836 7.57033C57.8969 8.90627 80.1008 12.8399 83.7383 14.1016V21.0039C83.7383 21.5977 82.9047 22.4141 81.0102 23.3789Z" fill="#A41E11"/>
<path d="M81.0102 16.4024C77.2211 18.3321 57.7453 26.1992 53.5773 28.2774C49.4094 30.4297 47.1359 30.3555 43.8773 28.8711C40.6188 27.3125 19.8547 19.1485 16.1414 17.3672C12.4281 15.586 12.3523 14.3985 15.9898 12.9883C19.6273 11.5781 40.3156 3.63674 44.6352 2.15236C49.0305 0.59377 50.5461 0.59377 54.1836 1.92971C57.8969 3.26565 77.2969 10.836 80.9344 12.0977C84.6477 13.3594 84.7992 14.4727 81.0102 16.4024Z" fill="#D82C20"/>
<path d="M57.7453 9.64844L51.607 10.2422L50.243 13.5078L48.0453 9.87109L40.9977 9.27734L46.2266 7.42188L44.7109 4.60156L49.6367 6.45703L54.2594 4.97266L52.9711 7.94141L57.7453 9.64844ZM49.8641 25.3086L38.4969 20.6328L54.8656 18.1836L49.8641 25.3086Z" fill="white"/>
<path d="M34.1016 18.1094C38.9146 18.1094 42.8164 16.6141 42.8164 14.7695C42.8164 12.925 38.9146 11.4297 34.1016 11.4297C29.2885 11.4297 25.3867 12.925 25.3867 14.7695C25.3867 16.6141 29.2885 18.1094 34.1016 18.1094Z" fill="white"/>
<path d="M64.9445 10.5391L74.6445 14.25L64.9445 18.0352V10.5391Z" fill="#7A0C00"/>
<path d="M54.2594 14.6953L64.9445 10.5391V18.0352L63.9594 18.4062L54.2594 14.6953Z" fill="#AD2115"/>
</g>
<defs>
<clipPath id="clip0_102_58">
<rect width="97" height="95" fill="white"/>
</clipPath>
</defs>
</svg>
