<svg width="197" height="91" viewBox="0 0 197 91" fill="none" xmlns="http://www.w3.org/2000/svg">
<g clip-path="url(#clip0_102_70)">
<path d="M19.147 8.1589C18.1535 7.15051 16.7749 6.52946 15.2378 6.52946C13.7048 6.52946 12.337 7.15051 11.3559 8.1589H11.3308C10.8198 8.67696 10.415 9.29184 10.1396 9.96831C9.8641 10.6448 9.72343 11.3695 9.7256 12.1011C9.7256 13.6535 10.3401 15.0418 11.3308 16.0335L11.3559 16.0607C12.337 17.0602 13.7048 17.6727 15.2381 17.6727C16.7749 17.6727 18.1535 17.0602 19.1474 16.0607L19.1589 16.0335C20.1535 15.0418 20.7603 13.6535 20.7603 12.1011C20.7603 10.5572 20.1535 9.16029 19.1589 8.1589H19.147ZM15.2378 84.4297C16.7749 84.4297 18.1535 83.797 19.147 82.8073L19.1585 82.7777C20.1535 81.79 20.7603 80.3927 20.7603 78.857C20.7603 77.3049 20.1535 75.9142 19.1589 74.9082H19.1474C18.1535 73.8901 16.7749 73.2749 15.2381 73.2749C13.7048 73.2749 12.337 73.8901 11.3559 74.9082H11.3308C10.8195 75.4273 10.4144 76.0433 10.139 76.7209C9.86352 77.3985 9.72305 78.1244 9.7256 78.857C9.7256 80.3931 10.3401 81.7903 11.3308 82.7777L11.3559 82.8073C11.8655 83.3226 12.4708 83.7312 13.137 84.0096C13.8032 84.288 14.5169 84.4308 15.2378 84.4297ZM45.2733 67.5481C46.6385 67.1852 47.8743 66.2997 48.6296 64.9604L48.7312 64.7644C49.4026 63.4958 49.525 62.029 49.166 60.7277C48.9827 60.0182 48.6608 59.3528 48.2195 58.7707C47.7781 58.1886 47.226 57.7016 46.5958 57.3382L46.518 57.2853C45.2664 56.5854 43.7941 56.406 42.4138 56.7852C41.0428 57.1313 39.8112 58.0537 39.0605 59.3818C38.3002 60.7021 38.1421 62.2191 38.5057 63.6156C38.8808 64.9896 39.76 66.2309 41.0748 67.0067H41.0825C42.4003 67.7725 43.8901 67.9097 45.2733 67.5481ZM20.8927 39.7697C19.4459 38.3114 17.4486 37.3967 15.2385 37.3967C13.0311 37.3967 11.04 38.3114 9.59555 39.7701C8.85507 40.5183 8.26826 41.4072 7.8689 42.3855C7.46953 43.3637 7.26548 44.4122 7.26849 45.4705C7.26546 47.6147 8.10205 49.6731 9.59555 51.1961C11.04 52.6458 13.0311 53.552 15.2385 53.552C17.4486 53.552 19.4455 52.6458 20.8927 51.1961C22.3888 49.6746 23.227 47.6156 23.2236 45.4705C23.2268 44.4118 23.0224 43.363 22.6224 42.3846C22.2223 41.4062 21.6344 40.5172 20.8927 39.7697ZM17.713 30.2735C20.8585 30.7995 23.7599 32.3145 26.0047 34.603H26.0212C26.3747 34.9633 26.7111 35.3405 27.0293 35.7331L32.5334 32.5154C31.8083 30.3032 31.7459 27.9239 32.3541 25.676C33.1382 22.7088 35.0416 20.0527 37.8954 18.3882L37.9878 18.3287C40.8108 16.7148 44.0186 16.3788 46.914 17.1714C48.4239 17.5797 49.8392 18.2851 51.079 19.2472C52.3187 20.2093 53.3585 21.4091 54.1387 22.778V22.787C55.7778 25.6507 56.1099 28.9368 55.3284 31.8951C54.9285 33.4213 54.2327 34.8521 53.2815 36.1045C52.3302 37.3568 51.1424 38.4059 49.787 39.1907L49.0352 39.6395H48.959C46.3226 40.908 43.4234 41.1067 40.7608 40.3978C38.5746 39.8129 36.5699 38.5786 34.9993 36.8278L29.5029 40.0373C30.1536 41.773 30.4861 43.614 30.4841 45.4701C30.4841 47.3842 30.1351 49.231 29.5029 50.9289L34.9993 54.1291C36.5316 52.3933 38.5353 51.1515 40.7608 50.5583C42.2691 50.142 43.8445 50.0344 45.3945 50.2419C46.9445 50.4494 48.4379 50.9678 49.787 51.7666L49.969 51.8521V51.8611C52.7139 53.543 54.5566 56.1388 55.3284 59.0711C55.7312 60.5922 55.8335 62.1787 55.6294 63.7398C55.4252 65.3009 54.9187 66.806 54.1387 68.1691L54.0394 68.369L54.0279 68.3527C52.3819 71.1189 49.787 72.9929 46.9224 73.7855C43.9847 74.5687 40.7327 74.2342 37.8954 72.5846V72.562C35.0416 70.8945 33.1382 68.2325 32.3541 65.2711C31.746 63.0269 31.8084 60.6511 32.5334 58.4426L27.0297 55.2327C26.7114 55.6197 26.375 55.991 26.0216 56.3453L26.005 56.3628C23.8023 58.597 20.9219 60.1491 17.713 60.6659V67.0938C19.9992 67.5761 22.0466 68.7318 23.6499 70.3535L23.6587 70.3699C24.764 71.4826 25.6406 72.8054 26.2379 74.262C26.8353 75.7186 27.1416 77.2802 27.1393 78.857C27.1393 82.1586 25.808 85.1542 23.6587 87.3277L23.6499 87.362C21.4852 89.5343 18.5156 90.8798 15.2385 90.8798C11.9784 90.8798 9.00147 89.5343 6.8414 87.362H6.83255V87.3277C4.68132 85.1539 3.34696 82.1586 3.34696 78.857C3.34516 77.2798 3.65227 75.7179 4.25056 74.2612C4.84886 72.8046 5.72652 71.482 6.83293 70.3699V70.3535H6.8414C8.44356 68.7318 10.4947 67.5765 12.7726 67.0938V60.6659C9.56477 60.1491 6.68865 58.597 4.4901 56.3628L4.46701 56.3453C1.72094 53.5609 0.00180435 49.7226 0.00180435 45.4705C0.00180435 41.2269 1.72094 37.389 4.46662 34.603H4.48971C6.73044 32.3141 9.62909 30.7989 12.7722 30.2735V23.8731C10.5269 23.379 8.46864 22.2451 6.84101 20.6057H6.83216V20.5882C4.68094 18.4057 3.34657 15.4132 3.34657 12.1011C3.34657 8.80601 4.68094 5.78746 6.83255 3.61396L6.84101 3.60501C9.00109 1.42373 11.9776 0.0793457 15.2381 0.0793457C18.5152 0.0793457 21.4848 1.42373 23.6495 3.60501V3.61396H23.6583C24.7615 4.72831 25.6367 6.05137 26.2339 7.5076C26.8311 8.96383 27.1386 10.5247 27.1389 12.1011C27.1389 15.4132 25.8076 18.4057 23.6583 20.5882L23.6495 20.6057C22.0208 22.2468 19.9602 23.3808 17.7126 23.8731L17.713 30.2735ZM48.63 26.0046L48.5827 25.9346C47.8247 24.6416 46.6127 23.7794 45.2737 23.408C43.8905 23.0366 42.4007 23.1926 41.0752 23.961H41.0828C39.7604 24.7193 38.8754 25.9599 38.5061 27.3502C38.3189 28.0581 38.2715 28.7964 38.3667 29.5229C38.4619 30.2494 38.6978 30.9497 39.0609 31.584L39.0871 31.6182C39.4479 32.2435 39.9277 32.7903 40.4987 33.2271C41.0698 33.6639 41.7208 33.982 42.4141 34.1631C43.7747 34.552 45.2903 34.3875 46.5965 33.6191L46.667 33.5848C47.8997 32.8412 48.7965 31.6405 49.1664 30.2385C49.5311 28.8501 49.3857 27.3327 48.63 26.0046ZM73.0515 27.8845H79.1927V46.8323L88.0493 36.9312H95.4129L84.7207 48.4023L95.4575 62.9428H88.4256L79.1927 49.9547V62.9428H73.0515V27.8845ZM102.548 50.0492C102.548 53.2758 104.844 57.967 110.375 57.967C113.798 57.967 116.051 56.1641 117.219 53.8012C117.831 52.6548 118.113 51.429 118.207 50.1535C118.25 48.9191 118.019 47.6358 117.5 46.496C116.423 44.039 114.033 41.9082 110.33 41.9082C105.363 41.9082 102.547 45.9783 102.547 50.0065L102.548 50.0492ZM124.3 62.9428H118.155V59.2006C116.52 62.2269 113.096 63.7463 109.485 63.7463C101.233 63.7463 96.4068 57.2511 96.4068 49.912C96.4068 41.7181 102.266 36.129 109.485 36.129C114.173 36.129 117.031 38.64 118.155 40.7264V36.9316H124.3V62.9428ZM131.253 41.7181H128.071V36.9316H131.253V35.4659C131.253 27.7375 137.068 27.2712 141.477 27.2195V31.9978C139.926 31.9978 137.398 31.9978 137.398 35.6545V36.932H141.477V41.7185H137.398V62.9432H131.253V41.7185L131.253 41.7181ZM145.653 27.8845H151.793V46.8323L160.651 36.9312H168.015L157.322 48.4023L168.057 62.9428H161.025L151.793 49.9547V62.9428H145.653V27.8845ZM175.149 50.0492C175.149 53.2758 177.444 57.967 182.977 57.967C186.395 57.967 188.648 56.1641 189.818 53.8012C190.432 52.6548 190.714 51.429 190.807 50.1535C190.849 48.9191 190.619 47.6358 190.099 46.496C189.024 44.039 186.634 41.9082 182.932 41.9082C177.964 41.9082 175.149 45.9783 175.149 50.0065V50.0492ZM196.899 62.9428H190.757V59.2006C189.117 62.2269 185.696 63.7463 182.087 63.7463C173.835 63.7463 169.012 57.2511 169.012 49.912C169.012 41.7181 174.869 36.129 182.087 36.129C186.771 36.129 189.633 38.64 190.757 40.7264V36.9316H196.899V62.9428Z" fill="#1A1919"/>
</g>
<defs>
<clipPath id="clip0_102_70">
<rect width="197" height="91" fill="white"/>
</clipPath>
</defs>
</svg>
