<svg width="123" height="80" viewBox="0 0 123 80" fill="none" xmlns="http://www.w3.org/2000/svg">
<g clip-path="url(#clip0_102_8)">
<path d="M60.8057 79.7692C60.3894 79.7692 60.0007 79.6515 59.6396 79.4454L55.947 77.1193C55.3916 76.7952 55.6693 76.6775 55.836 76.6186C56.5855 76.3537 56.7244 76.2945 57.5018 75.8237C57.5851 75.7646 57.6964 75.7942 57.7795 75.853L60.6116 77.6492C60.7226 77.7081 60.8615 77.7081 60.9446 77.6492L72.023 70.8472C72.134 70.7883 72.1897 70.6703 72.1897 70.5233V56.9488C72.1897 56.8013 72.134 56.6838 72.023 56.6247L60.9446 49.8523C60.8336 49.7931 60.6947 49.7931 60.6116 49.8523L49.5332 56.6247C49.4222 56.6836 49.3665 56.8308 49.3665 56.9486V70.5231C49.3665 70.641 49.4222 70.7881 49.5332 70.8472L52.5597 72.7022C54.1978 73.5855 55.2251 72.5549 55.2251 71.5244V58.1264C55.2251 57.9498 55.3639 57.773 55.5583 57.773H56.9742C57.1409 57.773 57.3074 57.9203 57.3074 58.1264V71.5244C57.3074 73.8505 56.1135 75.2051 54.0311 75.2051C53.3926 75.2051 52.8929 75.2051 51.4767 74.4688L48.5615 72.7022C47.8395 72.2607 47.3954 71.4359 47.3954 70.5526V56.9781C47.3954 56.0948 47.8395 55.2701 48.5615 54.8286L59.6396 48.0265C60.3339 47.6143 61.278 47.6143 61.9721 48.0265L73.0502 54.8286C73.7721 55.2701 74.2166 56.0948 74.2166 56.9781V70.5526C74.2166 71.4359 73.7721 72.2607 73.0502 72.7022L61.9721 79.5042C61.611 79.681 61.1944 79.7692 60.8057 79.7692ZM64.2209 70.4349C59.3621 70.4349 58.3625 68.0793 58.3625 66.077C58.3625 65.9001 58.5014 65.7236 58.6957 65.7236H60.1396C60.306 65.7236 60.4449 65.8413 60.4449 66.0181C60.6671 67.5786 61.3056 68.3442 64.2488 68.3442C66.5809 68.3442 67.5808 67.7847 67.5808 66.4596C67.5808 65.694 67.3029 65.1348 63.6657 64.7519C60.6392 64.4278 58.7512 63.7213 58.7512 61.1595C58.7512 58.7743 60.6395 57.3608 63.8046 57.3608C67.3583 57.3608 69.1077 58.6566 69.33 61.4831C69.33 61.5717 69.3021 61.6599 69.2466 61.7483C69.1909 61.8072 69.1077 61.866 69.0244 61.866H67.5806C67.4417 61.866 67.3029 61.7483 67.2752 61.601C66.942 59.9817 66.0813 59.4515 63.8046 59.4515C61.2501 59.4515 60.9446 60.3939 60.9446 61.1004C60.9446 61.9544 61.3056 62.2194 64.7484 62.6905C68.1636 63.1618 69.7741 63.839 69.7741 66.3712C69.7463 68.9626 67.7473 70.4349 64.2209 70.4349Z" fill="#539E43"/>
<path d="M26.4325 26.6782C26.4325 26.1483 26.1548 25.6474 25.7106 25.3824L13.9382 18.1977C13.7436 18.0797 13.5216 18.0209 13.2996 17.9913H13.1884C12.9664 17.9913 12.7442 18.0797 12.5498 18.1977L0.777401 25.3824C0.332967 25.6474 0.0554962 26.148 0.0554962 26.6782L0.0833634 45.9947C0.0833634 46.2596 0.222219 46.5246 0.444195 46.6426C0.666412 46.7898 0.943883 46.7898 1.13847 46.6426L8.1353 42.4023C8.57949 42.1373 8.8572 41.6367 8.8572 41.1068V32.0668C8.8572 31.5368 9.13467 31.0362 9.57911 30.7712L12.5498 28.9455C12.7721 28.7982 13.0219 28.7391 13.2718 28.7391C13.5216 28.7391 13.7714 28.7982 13.966 28.9455L16.9368 30.7712C17.3812 31.0362 17.6587 31.5366 17.6587 32.0668V41.1068C17.6587 41.6367 17.9364 42.1373 18.3806 42.4023L25.3774 46.6426C25.4855 46.7147 25.6106 46.753 25.7384 46.753C25.8661 46.753 25.9912 46.7147 26.0993 46.6426C26.3215 46.5246 26.4604 46.2596 26.4604 45.9947L26.4325 26.6782ZM83.018 0.0884103C82.7961 -0.0295515 82.5184 -0.0295515 82.3238 0.0884103C82.1018 0.235671 81.9629 0.471085 81.9629 0.736054V19.8762C81.9629 20.0527 81.8798 20.2293 81.7131 20.3473C81.5466 20.4354 81.3799 20.4354 81.2134 20.3473L78.2703 18.5511C78.0545 18.4208 77.8105 18.3523 77.5622 18.3523C77.3139 18.3523 77.0699 18.4208 76.8541 18.5511L65.0817 25.7654C64.6375 26.0303 64.3598 26.531 64.3598 27.0609V41.4599C64.3598 41.9898 64.6375 42.4907 65.0817 42.7557L76.8541 49.9699C77.0699 50.1002 77.3139 50.1687 77.5622 50.1687C77.8105 50.1687 78.0545 50.1002 78.2703 49.9699L90.0427 42.7557C90.4869 42.4907 90.7646 41.9901 90.7646 41.4599V5.56535C90.7646 5.00586 90.4869 4.50548 90.0427 4.24026L83.018 0.0884103ZM81.9353 36.7192C81.9353 36.8665 81.8798 36.9842 81.7686 37.0431L77.7427 39.5164C77.6865 39.5455 77.6248 39.5606 77.5622 39.5606C77.4996 39.5606 77.4379 39.5455 77.3817 39.5164L73.3558 37.0431C73.2446 36.9842 73.1891 36.8369 73.1891 36.7192V31.7722C73.1891 31.625 73.2446 31.5073 73.3558 31.4484L77.3817 28.9748C77.4379 28.9457 77.4996 28.9306 77.5622 28.9306C77.6248 28.9306 77.6865 28.9457 77.7427 28.9748L81.7686 31.4484C81.8798 31.507 81.9353 31.6545 81.9353 31.7722V36.7192ZM122.195 31.6545C122.639 31.3896 122.889 30.8889 122.889 30.3587V26.8548C122.889 26.3248 122.611 25.8242 122.195 25.5592L110.506 18.3745C110.29 18.2442 110.046 18.1757 109.798 18.1757C109.549 18.1757 109.305 18.2442 109.089 18.3745L97.317 25.5885C96.8726 25.8535 96.5951 26.3541 96.5951 26.8841V41.2833C96.5951 41.8133 96.8728 42.3139 97.317 42.5789L109.006 49.6459C109.451 49.9108 109.978 49.9108 110.395 49.6459L117.475 45.465C117.697 45.347 117.836 45.082 117.836 44.8171C117.836 44.5521 117.697 44.2871 117.475 44.1692L105.647 36.9549C105.424 36.8076 105.286 36.5722 105.286 36.3073V31.802C105.286 31.5371 105.424 31.2721 105.647 31.1541L109.339 28.9162C109.447 28.844 109.573 28.8058 109.7 28.8058C109.828 28.8058 109.953 28.844 110.061 28.9162L113.754 31.1541C113.976 31.3014 114.115 31.5368 114.115 31.802V35.3355C114.115 35.6005 114.254 35.8655 114.476 35.9832C114.584 36.0554 114.709 36.0937 114.837 36.0937C114.965 36.0937 115.09 36.0554 115.198 35.9832L122.195 31.6545Z" fill="#333333"/>
<path d="M109.617 30.977C109.658 30.9482 109.707 30.9329 109.756 30.9329C109.805 30.9329 109.854 30.9482 109.895 30.977L112.144 32.361C112.227 32.4201 112.282 32.5083 112.282 32.626V35.3941C112.282 35.5118 112.227 35.6002 112.144 35.6591L109.895 37.043C109.854 37.0718 109.805 37.0872 109.756 37.0872C109.707 37.0872 109.658 37.0718 109.617 37.043L107.368 35.6591C107.285 35.6002 107.229 35.5118 107.229 35.3941V32.6262C107.229 32.5083 107.285 32.4198 107.368 32.3612L109.617 30.977Z" fill="#539E43"/>
<path d="M46.118 18.4334C45.9023 18.3031 45.6583 18.2346 45.4101 18.2346C45.1618 18.2346 44.9178 18.3031 44.7021 18.4334L33.013 25.5883C32.5686 25.8532 32.3187 26.3539 32.3187 26.8838V41.2242C32.3187 41.7541 32.5964 42.2548 33.013 42.5197L44.7021 49.6751C44.9178 49.8054 45.1618 49.8739 45.4101 49.8739C45.6583 49.8739 45.9023 49.8054 46.118 49.6751L57.8074 42.5197C58.2515 42.2548 58.5016 41.7541 58.5016 41.2242V26.8841C58.5016 26.3541 58.2237 25.8535 57.8074 25.5885L46.118 18.4334Z" fill="url(#paint0_linear_102_8)"/>
</g>
<defs>
<linearGradient id="paint0_linear_102_8" x1="1817.68" y1="571.51" x2="426.644" y2="2632.48" gradientUnits="userSpaceOnUse">
<stop stop-color="#41873F"/>
<stop offset="0.3288" stop-color="#418B3D"/>
<stop offset="0.6352" stop-color="#419637"/>
<stop offset="0.9319" stop-color="#3FA92D"/>
<stop offset="1" stop-color="#3FAE2A"/>
</linearGradient>
<clipPath id="clip0_102_8">
<rect width="123" height="80" fill="white"/>
</clipPath>
</defs>
</svg>
