<svg width="100" height="71" viewBox="0 0 100 71" fill="none" xmlns="http://www.w3.org/2000/svg">
<g clip-path="url(#clip0_102_54)">
<path d="M29.748 46.8512L32.7871 57.1222C33.4699 59.4542 33.7547 61.0821 33.6406 62.01C35.3027 57.3733 36.4641 52.3203 37.1248 46.8512H40.7791C39.2078 55.7549 37.1354 62.2251 34.5629 66.2613C32.5586 69.3717 30.3629 70.9267 27.9719 70.9267C27.3344 70.9267 26.5484 70.7261 25.6158 70.3278V68.1815C26.0715 68.2511 26.6061 68.2883 27.2209 68.2883C28.3363 68.2883 29.2354 67.9663 29.9193 67.3236C30.7383 66.5406 31.1482 65.6605 31.1482 64.685C31.1482 64.019 30.8285 62.6521 30.192 60.5843L25.9576 46.8512H29.748ZM6.48887 40.5383L12.0553 58.2285H12.0896L17.6902 40.5383H22.266C23.268 49.3114 23.8598 57.3385 24.0414 64.6144H20.1836C20.0479 57.8129 19.6719 51.4172 19.057 45.4261H19.0234L13.1488 64.6144H10.2109L4.37188 45.4261H4.3375C3.9043 51.1798 3.63164 57.5755 3.51797 64.6144H0C0.227344 56.0538 0.796289 48.0291 1.70684 40.5383H6.48887Z" fill="#00758F"/>
<path d="M68.8473 40.1811C74.835 40.1811 77.8289 44.1657 77.8289 52.1309C77.8289 56.4592 76.9285 59.7287 75.1295 61.9374C74.8053 62.341 74.4469 62.6897 74.0695 63.0128L78.3068 65.1951L78.3027 65.1949L76.7982 67.901L71.2801 64.5473C70.3654 64.8295 69.359 64.9705 68.2623 64.9705C65.3223 64.9705 63.1262 64.078 61.6742 62.2953C60.0805 60.3231 59.284 57.2185 59.284 52.9865C59.284 48.6826 60.1828 45.4255 61.9824 43.214C63.6215 41.191 65.9102 40.1811 68.8473 40.1811ZM50.5113 40.2161C52.6514 40.2161 54.5973 40.8126 56.35 42.0013L55.4598 44.0676C53.96 43.4036 52.4813 43.0701 51.023 43.0701C49.8398 43.0701 48.9281 43.3668 48.2926 43.9636C47.6535 44.5552 47.2582 45.3165 47.2582 46.2446C47.2582 47.6707 48.2336 48.9074 50.0346 49.9523C50.6246 50.2882 51.2126 50.628 51.7984 50.9717L51.9328 51.0504L52.0002 51.0899L52.1348 51.1686L52.202 51.2081L52.3363 51.287C53.6996 52.0875 54.9824 52.8517 54.9824 52.8517C56.7832 54.1832 57.6809 55.6028 57.6809 57.9409C57.6809 59.9828 56.9625 61.6589 55.5305 62.9705C54.0975 64.2762 52.1723 64.9308 49.7613 64.9308C47.5064 64.9308 45.3211 64.1773 43.2043 62.6828L44.1945 60.6147C46.0162 61.5657 47.6646 62.0408 49.1449 62.0408C50.5332 62.0408 51.6199 61.7179 52.4061 61.0803C53.1906 60.4381 53.6607 59.5423 53.6607 58.4065C53.6607 56.977 52.7061 55.7549 50.9547 54.7298C50.4065 54.4143 49.8599 54.0958 49.315 53.7743L49.1809 53.6951C48.9344 53.5501 48.6861 53.4032 48.443 53.2594L48.3111 53.1812C47.1285 52.4806 46.1061 51.8684 46.1061 51.8684C44.3553 50.5345 43.4773 49.1033 43.4773 46.745C43.4773 44.7947 44.132 43.2182 45.4395 42.019C46.75 40.8171 48.4408 40.2161 50.5113 40.2161ZM84.8658 40.5384V61.6528H92.1389V64.6145H81.1772V40.5384H84.8658ZM96.1803 61.662V62.1624H95.3807V64.6118H94.7693V62.1624H93.9387V61.662H96.1805H96.1803ZM97.6568 61.662L98.4246 63.6728L99.1299 61.662H99.9965V64.6118H99.4203V62.3669L98.6176 64.6118H98.2022L97.398 62.3669H97.3672V64.6118H96.8221V61.662H97.657H97.6568ZM68.4707 43.142C64.9422 43.142 63.177 46.1752 63.177 52.2377C63.177 55.7104 63.6447 58.2285 64.5785 59.7981C65.4434 61.2506 66.7979 61.9755 68.6422 61.9755C72.1707 61.9755 73.9357 58.9186 73.9357 52.8077C73.9357 49.3836 73.468 46.8871 72.5354 45.3167C71.6695 43.8674 70.3156 43.142 68.4709 43.142H68.4707Z" fill="#F29111"/>
<path d="M59.2223 1.49183C60.3928 -1.50401 64.4855 0.764739 66.0738 1.81123C66.4631 2.07305 66.9096 2.6262 67.3559 2.83066C68.0521 2.85914 68.7479 2.9159 69.4453 2.94621C70.7535 3.26642 71.9789 3.52804 73.0098 4.13958C77.8004 7.07825 80.9189 10.0729 83.7891 15.0193C84.4023 16.067 84.7088 17.2007 85.2098 18.3345C85.9051 20.0245 86.6863 21.7984 87.4934 23.3964C87.8547 24.1541 88.1342 24.9965 88.6359 25.6363C88.8318 25.9288 89.3883 26.0151 89.7209 26.1899C90.6404 26.6856 91.7545 27.062 92.6193 27.6438C94.2344 28.6928 95.7959 29.9427 97.2154 31.2223C97.7445 31.7163 98.1051 32.4155 98.6092 32.9379V33.2016C98.1617 33.3446 97.7158 33.4911 97.2695 33.6084C96.2947 33.8693 95.4312 33.8103 94.4855 34.0713C93.9012 34.2479 93.1756 34.4808 92.5627 34.54L92.6193 34.5994C92.9799 35.6725 94.9307 36.5453 95.8229 37.1871C96.9064 38.0017 97.9105 38.9896 98.7188 40.1242C98.9979 40.4137 99.277 40.6771 99.5547 40.9658C99.7488 41.2583 99.8035 41.6367 100 41.8975V41.9858C99.7824 41.9059 99.626 41.7533 99.4777 41.5938L99.3893 41.4976C99.3008 41.402 99.2115 41.308 99.1098 41.2305C98.4949 40.7931 97.8844 40.2698 97.2695 39.8632C96.2125 39.1646 94.9865 38.7591 93.9012 38.0578C93.2875 37.6508 92.7025 37.1871 92.1176 36.7213C91.5873 36.313 91.0033 35.5289 90.6701 34.9471C90.4738 34.6256 90.4469 34.2479 90.2227 34.0153C90.2627 33.627 90.6043 33.5116 90.949 33.4168L91.0283 33.395C91.1473 33.3629 91.2637 33.3308 91.3652 33.2882C92.8133 32.6478 94.5396 32.4155 96.7689 32.4737C96.685 31.8906 95.292 31.1641 94.8473 30.815C93.9547 30.1449 93.0096 29.4457 92.0627 28.8358C91.5609 28.5164 90.6963 28.2832 90.1404 28.0222C89.3883 27.702 87.7166 27.382 87.2998 26.7721C86.5918 25.8107 86.0832 24.6639 85.5895 23.5055L85.4551 23.1893C85.4103 23.084 85.3653 22.9787 85.3203 22.8734C84.7367 21.4784 84.0117 20.024 83.4268 18.5957C83.1209 17.8989 82.9805 17.2874 82.6455 16.6191C80.6129 12.5182 77.6045 9.08476 73.957 6.67015C72.7584 5.88447 71.4219 5.15738 69.9465 4.66323C69.1104 4.40018 68.1068 4.54564 67.216 4.34383H66.6297C66.1293 4.19695 65.7115 3.64441 65.3211 3.35309C64.4588 2.74318 63.5951 2.33366 62.5639 1.8985C62.2025 1.72395 61.1707 1.31748 60.8105 1.63749C60.5875 1.69588 60.4744 1.78356 60.4195 2.0167C60.1977 2.36458 60.3928 2.88864 60.5309 3.20946C60.9492 4.13917 61.5336 4.69171 62.0641 5.47739C62.5359 6.17417 63.1221 6.95985 63.4566 7.71745C64.1785 9.34597 64.5146 11.1503 65.1836 12.7786C65.4316 13.3909 65.824 14.0877 66.1852 14.6401C66.4912 15.0785 67.0477 15.3954 67.216 15.9504C67.5516 16.5322 66.7137 18.4521 66.5197 19.0618C65.7941 21.4475 65.9348 24.7638 66.7703 26.8317L66.8148 26.9408L66.8594 27.0512C67.1645 27.8086 67.491 28.6242 68.3021 28.836C68.358 28.7782 68.3021 28.8085 68.4129 28.7782C68.6092 27.1776 68.6645 25.6361 69.1941 24.3837C69.5002 23.6007 70.1113 23.0471 70.5303 22.4079C70.8096 22.5821 70.8096 23.1072 70.976 23.4546C71.3385 24.3559 71.7277 25.344 72.1746 26.2478C73.0918 28.1093 74.1238 29.914 75.2932 31.5423C75.6848 32.124 76.2404 32.7642 76.7416 33.288C76.9648 33.4909 77.2148 33.608 77.3826 33.8691H77.4373V33.9569C76.6018 33.6361 76.0721 32.7357 75.4057 32.21C74.151 31.2219 72.6484 29.738 71.7836 28.3142C71.4219 27.4967 71.0309 26.7133 70.641 25.9V25.8412C70.4744 26.0735 70.5303 26.3042 70.4469 26.6557C70.0852 28.1093 70.3637 29.7675 69.1104 30.2904C67.6896 30.9027 66.6299 29.3023 66.1852 28.575C64.7641 26.161 64.3748 22.0885 65.377 18.8012C65.5996 18.0735 65.6299 17.2007 66.0186 16.6197C65.9346 16.0944 65.5459 15.9508 65.3211 15.629C64.9313 15.0789 64.5975 14.438 64.2922 13.8271C63.7059 12.6337 63.2887 11.2078 62.8436 9.92801C62.6479 9.40538 62.5918 8.88071 62.3967 8.38595C62.0639 7.63079 61.4504 6.87318 60.9771 6.20509C60.3363 5.24486 58.4699 3.38381 59.2223 1.49183ZM68.3574 7.19115C68.4318 7.26887 68.5217 7.33682 68.6147 7.40375L68.7268 7.4839C68.8762 7.59172 69.0209 7.70524 69.1096 7.85986C69.2502 8.06452 69.2764 8.26653 69.4447 8.4716C69.4447 9.17081 69.2502 9.63567 68.8574 9.92537C68.8574 9.92537 68.8307 9.95588 68.8031 9.98436C68.5805 9.51829 68.3853 9.05465 68.1611 8.58898C67.885 8.18251 67.4945 7.86006 67.2695 7.39561H67.2154V7.33722C67.5516 7.25076 67.885 7.19115 68.3574 7.19115Z" fill="#00758F"/>
</g>
<defs>
<clipPath id="clip0_102_54">
<rect width="100" height="71" fill="white"/>
</clipPath>
</defs>
</svg>
