<svg width="107" height="106" viewBox="0 0 107 106" fill="none" xmlns="http://www.w3.org/2000/svg">
<g clip-path="url(#clip0_102_90)">
<path d="M81.9219 0H25.0781C11.2279 0 0 11.1229 0 24.8438V81.1562C0 94.8771 11.2279 106 25.0781 106H81.9219C95.7721 106 107 94.8771 107 81.1562V24.8438C107 11.1229 95.7721 0 81.9219 0Z" fill="#F4F2ED"/>
<path d="M67.2967 38.2553L74.5631 31.0564L75.0476 28.0254C61.8063 16.0975 40.7574 17.4503 28.8202 30.8477C25.5049 34.5684 23.0451 39.2076 21.7336 43.9983L24.3358 43.6348L38.8686 41.2609L39.9904 40.1243C46.4547 33.0911 57.385 32.1445 64.8491 38.1286L67.2967 38.2553Z" fill="#EA4335"/>
<path d="M84.9145 43.7867C83.2444 37.6935 79.8152 32.2159 75.0475 28.0258L64.8491 38.1289C66.9746 39.8494 68.6779 42.0255 69.8307 44.4932C70.9834 46.9609 71.5554 49.6557 71.5036 52.3743V54.1677C76.5163 54.1677 80.5802 58.1932 80.5802 63.159C80.5802 68.1253 76.5163 72.0502 71.5036 72.0502H53.3249L51.5401 73.9698V84.7549L53.3249 86.4471H71.5036C84.5421 86.5478 95.1945 76.2591 95.296 63.3425C95.3265 59.4877 94.3946 55.6853 92.5834 52.2735C90.7722 48.8617 88.1378 45.9463 84.9145 43.7867Z" fill="#4285F4"/>
<path d="M35.1717 86.4471H53.3249V72.0502H35.1717C33.8865 72.0499 32.6167 71.7742 31.4492 71.2419L28.8741 72.0249L21.5567 79.2234L20.9193 81.6734C25.023 84.7429 30.0294 86.4691 35.1717 86.4471Z" fill="#34A853"/>
<path d="M35.1717 39.7454C22.1327 39.8225 11.6258 50.3562 11.7031 63.2729C11.7246 66.8324 12.5659 70.3401 14.1629 73.5288C15.76 76.7175 18.0707 79.5029 20.9189 81.673L31.4488 71.2415C26.8804 69.1969 24.8503 63.8704 26.9143 59.3451C28.9782 54.8194 34.3549 52.8083 38.9225 54.8525C40.9356 55.7535 42.548 57.3508 43.4575 59.3451L53.9874 48.9136C51.7773 46.0512 48.9288 43.7341 45.6646 42.1435C42.4003 40.553 38.8089 39.7321 35.1712 39.745L35.1717 39.7454Z" fill="#FBBC05"/>
</g>
<defs>
<clipPath id="clip0_102_90">
<rect width="107" height="106" fill="white"/>
</clipPath>
</defs>
</svg>
