<svg width="93" height="88" viewBox="0 0 93 88" fill="none" xmlns="http://www.w3.org/2000/svg">
<g clip-path="url(#clip0_102_78)">
<path d="M71.2031 0H21.7969C9.75879 0 0 9.23413 0 20.625V67.375C0 78.7659 9.75879 88 21.7969 88H71.2031C83.2412 88 93 78.7659 93 67.375V20.625C93 9.23413 83.2412 0 71.2031 0Z" fill="#F4F2ED"/>
<path d="M30.7863 38.4866C30.7863 39.3233 30.8818 40.0015 31.0489 40.4993C31.2614 41.0591 31.5171 41.6033 31.814 42.1276C31.9335 42.3084 31.9811 42.4892 31.9811 42.6477C31.9811 42.8739 31.8376 43.1001 31.527 43.3259L30.0212 44.276C29.8061 44.4115 29.5911 44.4795 29.4 44.4795C29.161 44.4795 28.9219 44.3664 28.6829 44.1629C28.3609 43.8354 28.0729 43.4795 27.8226 43.1001C27.5555 42.6655 27.3083 42.2203 27.0815 41.7656C25.2175 43.8463 22.8751 44.8865 20.0549 44.8865C18.0475 44.8865 16.4461 44.3438 15.2749 43.2582C14.104 42.1726 13.5064 40.7254 13.5064 38.9163C13.5064 36.9937 14.2236 35.4334 15.6814 34.2574C17.1393 33.0815 19.0752 32.4933 21.5368 32.4933C22.3494 32.4933 23.1861 32.5614 24.0703 32.6745C24.9545 32.7876 25.8627 32.9684 26.8189 33.1719V31.5208C26.8189 29.8021 26.4363 28.6034 25.6956 27.9025C24.9305 27.2013 23.6402 26.8623 21.7998 26.8623C20.9631 26.8623 20.1029 26.9527 19.2187 27.1562C18.3341 27.3598 17.4738 27.6086 16.6372 27.9252C16.3655 28.0403 16.0861 28.1384 15.8009 28.2191C15.6338 28.2645 15.5139 28.2872 15.4184 28.2872C15.0842 28.2872 14.9163 28.061 14.9163 27.5859V26.4777C14.9163 26.1161 14.9643 25.8445 15.0838 25.6864C15.2033 25.5282 15.4184 25.3698 15.753 25.2113C16.5896 24.8043 17.5934 24.4654 18.7646 24.1938C19.9354 23.8996 21.1782 23.7641 22.4929 23.7641C25.3371 23.7641 27.4161 24.3746 28.7548 25.5956C30.0692 26.817 30.7383 28.6715 30.7383 31.1592V38.4866H30.7863ZM21.083 41.9241C21.8714 41.9241 22.684 41.7883 23.5446 41.5168C24.4049 41.2455 25.1696 40.7478 25.8151 40.0696C26.1973 39.6399 26.4843 39.1648 26.6274 38.622C26.7709 38.0793 26.8665 37.4234 26.8665 36.6548V35.7046C26.1418 35.5378 25.4078 35.4095 24.6679 35.3203C23.9227 35.2308 23.1722 35.1854 22.421 35.1845C20.8197 35.1845 19.6488 35.4788 18.8601 36.0893C18.0714 36.6998 17.6889 37.5592 17.6889 38.6901C17.6889 39.753 17.9759 40.5443 18.5731 41.0871C19.1471 41.6525 19.9837 41.9241 21.083 41.9241ZM40.2745 44.3664C39.8443 44.3664 39.5573 44.2984 39.3663 44.1403C39.1752 44.0045 39.0077 43.6879 38.8646 43.2582L33.2482 25.7768C33.1044 25.3244 33.0328 25.0305 33.0328 24.872C33.0328 24.5104 33.2239 24.3066 33.6064 24.3066H35.9485C36.4026 24.3066 36.7136 24.3746 36.8807 24.5327C37.0718 24.6685 37.2153 24.9851 37.3588 25.4148L41.3737 40.3862L45.1025 25.4148C45.222 24.9624 45.3651 24.6689 45.5566 24.5327C45.7476 24.3973 46.0822 24.3069 46.5124 24.3069H48.4243C48.8784 24.3069 49.1894 24.3746 49.3805 24.5327C49.5715 24.6685 49.739 24.9851 49.8346 25.4148L53.6109 40.567L57.7454 25.4148C57.8889 24.9624 58.0563 24.6689 58.2235 24.5327C58.4145 24.3973 58.7255 24.3069 59.1556 24.3069H61.3782C61.7607 24.3069 61.9758 24.4877 61.9758 24.872C61.9758 24.9855 61.9518 25.0982 61.9278 25.234C61.9042 25.3698 61.8563 25.5503 61.7607 25.7995L56.0009 43.2809C55.8574 43.7332 55.6899 44.0272 55.4988 44.1629C55.3078 44.2984 54.9968 44.3891 54.5906 44.3891H52.5352C52.0811 44.3891 51.7705 44.3211 51.5794 44.1629C51.388 44.0045 51.2208 43.7106 51.1253 43.2582L47.4206 28.6715L43.7402 43.2355C43.6206 43.6879 43.4771 43.9818 43.2861 44.1403C43.0946 44.2984 42.76 44.3664 42.3299 44.3664H40.2745ZM70.9863 44.9769C69.7435 44.9769 68.5007 44.8412 67.3055 44.5699C66.1107 44.2984 65.1785 44.0045 64.5569 43.6652C64.1747 43.4617 63.9117 43.2355 63.8162 43.032C63.7231 42.8324 63.6743 42.6169 63.6727 42.3988V41.2455C63.6727 40.7705 63.8638 40.5443 64.2223 40.5443C64.3658 40.5443 64.5093 40.567 64.6524 40.6123C64.7959 40.6574 65.011 40.7478 65.25 40.8385C66.0943 41.1897 66.9756 41.455 67.8791 41.6298C68.8152 41.8098 69.768 41.9008 70.7232 41.9014C72.229 41.9014 73.3999 41.6525 74.2126 41.1551C75.0252 40.6574 75.4553 39.9338 75.4553 39.0067C75.4553 38.3735 75.2403 37.8531 74.8102 37.4234C74.38 36.9937 73.5674 36.6094 72.3961 36.2474L68.9308 35.2299C67.186 34.7098 65.8952 33.9408 65.1065 32.9233C64.3179 31.9282 63.9117 30.8196 63.9117 29.644C63.9117 28.6942 64.1268 27.8575 64.5569 27.1336C64.987 26.41 65.5606 25.7768 66.2778 25.2794C66.9949 24.7589 67.8075 24.3746 68.7633 24.1031C69.7195 23.8315 70.7232 23.7188 71.7749 23.7188C72.3006 23.7188 72.8502 23.7414 73.3763 23.8092C73.9259 23.8769 74.4276 23.9673 74.9297 24.058C75.4077 24.1711 75.8618 24.2842 76.292 24.42C76.7221 24.5554 77.0567 24.6912 77.2957 24.827C77.6303 25.0078 77.8693 25.1886 78.0128 25.3921C78.156 25.5733 78.2279 25.8218 78.2279 26.1388V27.2016C78.2279 27.6763 78.0368 27.9252 77.6783 27.9252C77.4868 27.9252 77.1762 27.8348 76.7701 27.6537C75.4077 27.0658 73.878 26.7719 72.1811 26.7719C70.8188 26.7719 69.7435 26.9754 69.0024 27.4051C68.2616 27.8348 67.8791 28.4907 67.8791 29.4178C67.8791 30.051 68.1181 30.5938 68.5962 31.0234C69.0739 31.4531 69.9585 31.8828 71.2253 32.2671L74.6191 33.2846C76.3396 33.8051 77.5827 34.5287 78.3234 35.4561C79.0642 36.3832 79.4227 37.4461 79.4227 38.622C79.4227 39.5945 79.2077 40.4766 78.8015 41.2455C78.3714 42.0145 77.7978 42.6927 77.0567 43.2355C76.316 43.801 75.4314 44.208 74.404 44.5022C73.3283 44.8188 72.2051 44.9769 70.9863 44.9769Z" fill="#252F3E"/>
<path fill-rule="evenodd" clip-rule="evenodd" d="M75.5033 55.968C67.6401 61.4636 56.216 64.381 46.3928 64.381C32.6266 64.381 20.222 59.5636 10.8534 51.5581C10.1123 50.9249 10.7818 50.0655 11.666 50.5629C21.7998 56.1261 34.2996 59.4959 47.2295 59.4959C55.9529 59.4959 65.537 57.7772 74.356 54.2493C75.6704 53.6838 76.7937 55.0633 75.5033 55.968Z" fill="#FF9900"/>
<path fill-rule="evenodd" clip-rule="evenodd" d="M78.7776 52.4401C77.7738 51.2188 72.1335 51.852 69.576 52.1459C68.8113 52.2366 68.6918 51.6031 69.3849 51.1284C73.878 48.1432 81.2631 49.0026 82.1237 49.9974C82.984 51.0153 81.8847 58.0034 77.6783 61.3505C77.0327 61.8706 76.4115 61.599 76.6981 60.9208C77.6543 58.6819 79.7813 53.6384 78.7776 52.4401Z" fill="#FF9900"/>
</g>
<defs>
<clipPath id="clip0_102_78">
<rect width="93" height="88" fill="white"/>
</clipPath>
</defs>
</svg>
