<svg width="94" height="84" viewBox="0 0 94 84" fill="none" xmlns="http://www.w3.org/2000/svg">
<g clip-path="url(#clip0_102_3)">
<path d="M71.9688 0H22.0312C9.86373 0 0 8.81439 0 19.6875V64.3125C0 75.1856 9.86373 84 22.0312 84H71.9688C84.1363 84 94 75.1856 94 64.3125V19.6875C94 8.81439 84.1363 0 71.9688 0Z" fill="#F4F2ED"/>
<path d="M83.7188 60.0262C82.6498 60.388 81.4696 60.3873 80.4012 60.0242C79.3328 59.6611 78.4503 58.9609 77.9205 58.0558C74.5927 53.6042 70.9179 49.3533 67.3859 45.0112L65.8543 43.1868C61.6486 48.2222 57.4428 53.0568 53.6046 58.0742C53.1047 58.9392 52.2699 59.6124 51.2558 59.9682C50.2417 60.324 49.1174 60.3382 48.0924 60.0082L63.8741 41.0888L49.1947 23.9935C50.2514 23.6525 51.4073 23.6478 52.4675 23.9802C53.5276 24.3126 54.4269 24.9617 55.0135 25.8179C58.4228 30.2699 62.2001 34.5207 65.9564 39.0272C69.7337 34.5572 73.4698 30.2879 76.961 25.8727C77.4637 25.0217 78.299 24.3656 79.3079 24.0292C80.3168 23.6928 81.4289 23.6996 82.4325 24.0483L76.7363 30.7988C74.1844 33.809 71.6732 36.8376 69.0191 39.775C68.8051 39.9461 68.6339 40.1555 68.5167 40.3898C68.3995 40.624 68.3389 40.8777 68.3389 41.1343C68.3389 41.3908 68.3995 41.6445 68.5167 41.8787C68.6339 42.113 68.8051 42.3225 69.0191 42.4935C73.8987 48.277 78.7371 54.0786 83.7188 60.0262ZM10.2812 40.8516C10.7101 39.0272 10.9752 37.0384 11.5675 35.1776C15.0995 23.9574 29.4929 19.2865 39.3948 26.2379C45.1931 30.3066 46.6427 36.0718 46.3571 42.5667H13.691C13.16 54.1702 22.531 61.176 34.5153 57.6001C36.4593 56.9786 38.1995 55.9343 39.579 54.5614C40.9584 53.1886 41.9335 51.5304 42.4164 49.7365C43.0494 47.9122 44.0702 47.6021 46.0097 48.131C45.6903 50.3521 44.8116 52.4796 43.4396 54.3535C42.0676 56.2274 40.238 57.799 38.0884 58.95C34.5368 60.6857 30.462 61.3733 26.4466 60.9146C22.4313 60.4558 18.6812 58.8742 15.7325 56.3958C12.8153 53.4648 11.0515 49.7613 10.7101 45.8506C10.7101 45.2304 10.4446 44.6099 10.3018 44.0262C10.2883 42.968 10.2814 41.9098 10.2812 40.8516ZM13.7317 40.067H43.2741C43.0902 31.6565 37.1491 25.6906 29.2278 25.6361C20.4079 25.5265 14.0993 31.3645 13.7111 40.0306L13.7317 40.067Z" fill="#0F0F0F"/>
</g>
<defs>
<clipPath id="clip0_102_3">
<rect width="94" height="84" fill="white"/>
</clipPath>
</defs>
</svg>
