<svg width="161" height="91" viewBox="0 0 161 91" fill="none" xmlns="http://www.w3.org/2000/svg">
<path d="M161 47.0189C161 31.4674 155.454 19.1962 144.855 19.1962C134.211 19.1962 127.771 31.4678 127.771 46.8976C127.771 65.1823 135.374 74.4161 146.286 74.4161C151.608 74.4161 155.633 72.7759 158.674 70.4677V58.3179C155.634 60.3835 152.145 61.6593 147.718 61.6593C143.379 61.6593 139.533 59.5937 139.041 52.4255H160.911C160.911 51.6353 161 48.4767 161 47.0189ZM138.907 41.2479C138.907 34.3834 141.993 31.528 144.811 31.528C147.539 31.528 150.446 34.3834 150.446 41.2479H138.907ZM110.509 19.1962C106.126 19.1962 103.308 21.9906 101.743 23.9349L101.161 20.1684H91.3228V91L102.503 87.7807L102.548 70.589C104.158 72.1685 106.528 74.4161 110.464 74.4161C118.469 74.4161 125.759 65.6684 125.759 46.4115C125.714 28.7944 118.335 19.1962 110.509 19.1962H110.509ZM107.825 61.0515C105.187 61.0515 103.621 59.7761 102.548 58.1965L102.503 35.6588C103.666 33.8973 105.276 32.6826 107.825 32.6826C111.895 32.6826 114.712 38.8786 114.712 46.8365C114.712 54.9768 111.94 61.0515 107.825 61.0515ZM75.9382 15.6122L87.1636 12.3318V0L75.9382 3.21973V15.6122ZM75.9382 20.2291H87.1636V73.3833H75.9382V20.2291ZM63.9082 24.7242L63.1925 20.2291H53.5325V73.3833H64.7132V37.3601C67.3515 32.6826 71.8239 33.533 73.2103 34.201V20.2291C71.7793 19.4999 66.5468 18.1634 63.9082 24.7242ZM41.5468 7.04685L30.6347 10.2055L30.59 58.8646C30.59 67.8558 35.5543 74.4768 42.1732 74.4768C45.8403 74.4768 48.5236 73.5657 49.9993 72.4722V60.1404C48.5685 60.9302 41.5022 63.7245 41.5022 54.7338V33.1682H49.9993V20.2291H41.5022L41.5468 7.04685ZM11.3147 35.6588C11.3147 33.29 12.7457 32.3784 15.1164 32.3784C18.515 32.3784 22.8082 33.776 26.2072 36.2666V21.9906C22.4953 19.986 18.8282 19.1962 15.1164 19.1962C6.0375 19.1962 0 25.6357 0 36.3884C0 53.1542 16.9943 50.4817 16.9943 57.7109C16.9943 60.5048 15.2057 61.4163 12.7011 61.4163C8.98927 61.4163 4.24858 59.3507 0.491805 56.5564V71.0144C4.65108 73.4444 8.855 74.4768 12.7011 74.4768C22.0032 74.4768 28.3986 68.2201 28.3986 57.3461C28.3539 39.2433 11.3147 42.4626 11.3147 35.6588Z" fill="#635BFF"/>
</svg>
