<svg width="84" height="81" viewBox="0 0 84 81" fill="none" xmlns="http://www.w3.org/2000/svg">
<path d="M42 47.7143C46.1318 47.7143 49.4812 44.4844 49.4812 40.5002C49.4812 36.516 46.1318 33.2861 42 33.2861C37.8682 33.2861 34.5187 36.516 34.5187 40.5002C34.5187 44.4844 37.8682 47.7143 42 47.7143Z" fill="#61DAFB"/>
<path d="M70.4156 28.6033C68.9719 28.0971 67.4625 27.5908 65.8875 27.1479C66.2813 25.6291 66.6094 24.1103 66.8719 22.6549C68.25 14.3018 66.7406 8.4166 62.5406 6.13848C61.2938 5.44238 59.9156 5.12598 58.3406 5.12598C53.7469 5.12598 47.9063 8.4166 42 13.9221C36.0938 8.4166 30.2531 5.12598 25.6594 5.12598C24.0844 5.12598 22.7063 5.44238 21.4594 6.13848C17.2594 8.47988 15.75 14.365 17.1281 22.6549C17.3906 24.1103 17.7188 25.6291 18.1125 27.1479C16.5375 27.5908 15.0281 28.0338 13.5844 28.6033C5.38126 31.6408 0.918762 35.8174 0.918762 40.5002C0.918762 45.183 5.44689 49.3596 13.5844 52.3971C15.0281 52.9033 16.5375 53.4096 18.1125 53.8525C17.7188 55.3713 17.3906 56.89 17.1281 58.3455C15.75 66.6986 17.2594 72.5838 21.4594 74.8619C22.7063 75.558 24.0844 75.8744 25.6594 75.8744C30.3188 75.8744 36.1594 72.5838 42 67.0783C47.9063 72.5838 53.7469 75.8744 58.3406 75.8744C59.9156 75.8744 61.2938 75.558 62.5406 74.8619C66.7406 72.5205 68.25 66.6353 66.8719 58.3455C66.6094 56.89 66.2813 55.3713 65.8875 53.8525C67.4625 53.4096 68.9719 52.9666 70.4156 52.3971C78.6188 49.3596 83.0813 45.183 83.0813 40.5002C83.0813 35.8174 78.6188 31.6408 70.4156 28.6033ZM60.7031 9.30254C63.3938 10.8213 64.3125 15.5041 63.1969 22.1486C63 23.4775 62.6719 24.8697 62.2781 26.3252C58.8656 25.5658 55.2563 25.0596 51.45 24.7432C49.2188 21.7057 46.9219 18.9846 44.625 16.5166C49.4813 11.8971 54.4031 8.73301 58.4063 8.73301C59.2594 8.73301 60.0469 8.92285 60.7031 9.30254ZM53.3531 46.8283C52.1719 48.8533 50.7938 50.8783 49.35 52.9033C46.9219 53.0932 44.4938 53.1564 42 53.1564C39.4406 53.1564 37.0125 53.0932 34.65 52.9033C33.2063 50.8783 31.8938 48.8533 30.7125 46.8283C29.4656 44.74 28.2844 42.5885 27.2344 40.5002C28.2844 38.4119 29.4656 36.2603 30.7125 34.1721C31.8938 32.1471 33.2719 30.1221 34.7156 28.0971C37.1438 27.9072 39.5719 27.8439 42.0656 27.8439C44.625 27.8439 47.0531 27.9072 49.4156 28.0971C50.8594 30.1221 52.1719 32.1471 53.3531 34.1721C54.6 36.2603 55.7813 38.4119 56.8313 40.5002C55.7156 42.5885 54.6 44.6768 53.3531 46.8283ZM58.8 44.74C59.7844 46.9549 60.5719 49.1064 61.2938 51.258C59.0625 51.7643 56.7 52.1439 54.2063 52.4603C54.9938 51.258 55.8469 49.9924 56.5688 48.6635C57.3563 47.3346 58.0781 46.0057 58.8 44.74ZM42 61.8893C40.425 60.2439 38.9156 58.4721 37.4719 56.6369C38.9813 56.7002 40.4906 56.7635 42 56.7635C43.5094 56.7635 45.0188 56.7002 46.5281 56.6369C45.0844 58.4721 43.575 60.2439 42 61.8893ZM29.7938 52.3971C27.3 52.0807 24.9375 51.701 22.7063 51.1947C23.4281 49.1064 24.2156 46.8916 25.2 44.6768C25.9219 45.9424 26.6438 47.2713 27.4313 48.5369C28.2188 49.9291 29.0063 51.1314 29.7938 52.3971ZM25.2 36.2603C24.2156 34.0455 23.4281 31.8939 22.7063 29.7424C24.9375 29.2361 27.3 28.8564 29.7938 28.54C29.0063 29.7424 28.1531 31.008 27.4313 32.3369C26.6438 33.6658 25.9219 34.9947 25.2 36.2603ZM42 19.1111C43.575 20.7564 45.0844 22.5283 46.5281 24.3635C45.0188 24.3002 43.5094 24.2369 42 24.2369C40.4906 24.2369 38.9813 24.3002 37.4719 24.3635C38.9156 22.5283 40.425 20.7564 42 19.1111ZM56.5688 32.4002L54.2063 28.6033C56.7 28.9197 59.0625 29.2994 61.2938 29.8057C60.5719 31.8939 59.7844 34.1088 58.8 36.3236C58.0781 34.9947 57.3563 33.6658 56.5688 32.4002ZM20.8031 22.1486C19.6875 15.5041 20.6063 10.8213 23.2969 9.30254C23.9531 8.92285 24.7406 8.73301 25.5938 8.73301C29.5313 8.73301 34.4531 11.8338 39.375 16.5166C37.0781 18.9213 34.7813 21.7057 32.55 24.7432C28.7438 25.0596 25.1344 25.6291 21.7219 26.3252C21.3281 24.8697 21.0656 23.4775 20.8031 22.1486ZM4.59376 40.5002C4.59376 37.526 8.33439 34.3619 14.8969 32.0205C16.2094 31.5143 17.6531 31.0713 19.0969 30.6916C20.1469 33.8557 21.4594 37.2096 23.0344 40.5635C21.4594 43.9174 20.0813 47.208 19.0969 50.3721C10.0406 47.8408 4.59376 44.0439 4.59376 40.5002ZM23.2969 71.6978C20.6063 70.1791 19.6875 65.4963 20.8031 58.8518C21 57.5228 21.3281 56.1307 21.7219 54.6752C25.1344 55.4346 28.7438 55.9408 32.55 56.2572C34.7813 59.2947 37.0781 62.0158 39.375 64.4838C34.5188 69.1033 29.5969 72.2674 25.5938 72.2674C24.7406 72.2674 23.9531 72.0775 23.2969 71.6978ZM63.1969 58.8518C64.3125 65.4963 63.3938 70.1791 60.7031 71.6978C60.0469 72.0775 59.2594 72.2674 58.4063 72.2674C54.4688 72.2674 49.5469 69.1666 44.625 64.4838C46.9219 62.0791 49.2188 59.2947 51.45 56.2572C55.2563 55.9408 58.8656 55.3713 62.2781 54.6752C62.6719 56.1307 62.9344 57.5228 63.1969 58.8518ZM69.1031 48.9799C67.7906 49.4861 66.3469 49.9291 64.9031 50.3088C63.8531 47.1447 62.5406 43.7908 60.9656 40.4369C62.5406 37.083 63.9188 33.7924 64.9031 30.6283C73.9594 33.1596 79.4063 36.9564 79.4063 40.5002C79.4063 43.4744 75.6 46.6385 69.1031 48.9799Z" fill="#61DAFB"/>
</svg>
