<svg width="83" height="89" viewBox="0 0 83 89" fill="none" xmlns="http://www.w3.org/2000/svg">
<path fill-rule="evenodd" clip-rule="evenodd" d="M56.582 69.6277C56.6916 69.4017 56.7967 69.2022 56.8861 68.9957C56.9426 68.8636 57.0295 68.8371 57.152 68.8406C57.8867 68.8629 58.6214 68.8872 59.3567 68.8949C59.9811 68.9018 60.6069 68.8893 61.232 68.8816C61.9362 68.8726 62.6404 68.833 63.3439 68.8545C64.2809 68.8837 65.1939 69.0805 66.0414 69.5276C67.0536 70.0623 67.8194 70.8765 68.3414 71.9494C68.6696 72.6296 68.8745 73.3705 68.9451 74.1326C69.0567 75.2507 68.9834 76.343 68.6527 77.4124C68.2429 78.7377 67.4648 79.7522 66.3838 80.5121C65.5519 81.0969 64.6395 81.4425 63.6617 81.6399C62.6268 81.8492 61.5886 81.7818 60.5505 81.7853C59.4118 81.7901 58.2738 81.7637 57.1351 81.7498C56.9361 81.7477 56.9075 81.7074 56.9601 81.5036L57.0087 81.3159C57.1196 80.9418 57.1792 80.9251 57.5333 80.8626C57.7842 80.8202 58.0243 80.7224 58.2381 80.5754C58.3575 80.4906 58.4067 80.2695 58.4534 80.0991C58.4936 79.9503 58.4956 79.7869 58.4969 79.6298C58.5131 77.2483 58.5299 74.8676 58.539 72.4875C58.5415 71.8855 58.5274 71.2836 58.4969 70.6825C58.4748 70.2618 58.2654 69.974 57.7985 69.8746C57.4354 69.7974 57.0697 69.7376 56.7046 69.6687L56.582 69.6277ZM67.0063 75.3939C66.957 74.9197 66.933 74.4414 66.8539 73.9741C66.6646 72.8526 66.2068 71.8757 65.4027 71.1101C64.1026 69.8732 62.5373 69.6826 60.8967 69.83C60.5232 69.8634 60.4428 70.0004 60.437 70.412C60.4279 70.9961 60.4188 71.5802 60.4182 72.1642C60.4156 74.0165 60.4156 75.8688 60.4182 77.7211C60.4188 78.2482 60.424 78.7752 60.4383 79.3009C60.4539 79.8391 60.6361 80.2945 61.1276 80.5031C61.9025 80.832 62.7175 80.8709 63.5307 80.7367C64.8295 80.5233 65.738 79.7118 66.3475 78.4957C66.8299 77.5306 66.9661 76.4772 67.0063 75.3939ZM70.1636 81.7011C70.148 81.4126 70.2582 81.1741 70.3944 80.955C70.4314 80.8959 70.5585 80.8987 70.646 80.88L71.3891 80.7221C71.6517 80.6623 71.7898 80.4732 71.8268 80.1972C71.8514 80.015 71.8748 79.8307 71.8767 79.6465C71.8943 78.1885 71.9071 76.7304 71.915 75.2723C71.9215 73.8121 71.9163 72.3519 71.9163 70.8918L71.9104 70.613C71.8839 70.1436 71.6725 69.9003 71.238 69.8314L70.2958 69.6778C70.1798 69.6611 70.1376 69.6013 70.1798 69.4907C70.2524 69.3023 70.3218 69.1069 70.4242 68.9373C70.4625 68.8747 70.5915 68.8504 70.6784 68.8524C71.1284 68.8594 71.5784 68.8955 72.0285 68.8949L75.9457 68.8698C76.7005 68.8691 77.4293 69.0103 78.1063 69.3976C78.8513 69.8231 79.2683 70.4816 79.3876 71.3785C79.5121 72.3207 79.2456 73.1147 78.6036 73.7454C78.3397 74.0054 77.998 74.1751 77.6919 74.3864L77.5921 74.4532C77.8761 74.5651 78.1465 74.6618 78.4097 74.7772C79.1801 75.1158 79.7929 75.6449 80.1171 76.4898C80.3732 77.1566 80.3732 77.8519 80.2215 78.543C79.9854 79.6249 79.3208 80.3446 78.4564 80.889C77.6452 81.4 76.7672 81.6976 75.8322 81.7477C74.9698 81.7943 74.1035 81.7769 73.2391 81.7873L72.7385 81.7901C71.9054 81.7696 71.0724 81.7473 70.2394 81.7234L70.1636 81.7011ZM73.7539 77.4674H73.7624C73.7624 77.9249 73.7565 78.3824 73.7643 78.8399C73.7695 79.1361 73.7598 79.4407 73.8194 79.7257C73.9089 80.152 74.0905 80.5365 74.5366 80.6588C75.133 80.8269 75.756 80.8563 76.3639 80.7451C77.1271 80.6025 77.736 80.1923 78.07 79.4128C78.3177 78.8336 78.3546 78.2197 78.2697 77.5925C78.1568 76.7665 77.7477 76.1671 77.0675 75.7743C76.6213 75.5163 76.1454 75.3585 75.6383 75.3376C75.0703 75.3147 74.5016 75.3133 73.9336 75.2945C73.7741 75.2896 73.752 75.3766 73.7527 75.517C73.7559 76.1664 73.7539 76.8165 73.7539 77.4674ZM74.9633 74.3558C75.2739 74.3392 75.6253 74.3343 75.9749 74.2967C76.644 74.2251 77.1155 73.8643 77.3612 73.178C77.4864 72.8296 77.4812 72.4708 77.4844 72.1086C77.4941 71.165 76.9806 70.3919 76.1447 70.072C75.4995 69.8252 74.8342 69.821 74.1651 69.8405C73.894 69.8481 73.7728 69.9754 73.7689 70.2681L73.7287 74.0847C73.7267 74.2362 73.7877 74.3016 73.9251 74.3065L74.9633 74.3558Z" fill="#94795D"/>
<path fill-rule="evenodd" clip-rule="evenodd" d="M6.83649 80.9678L6.78916 81.6242C6.34822 81.6242 5.94165 81.6207 5.53508 81.6256C4.76928 81.6339 4.00347 81.6471 3.23702 81.6589L3.1631 81.6638C3.05351 81.6499 2.85444 81.6499 2.84925 81.6151C2.81683 81.4197 2.82721 81.2146 2.83563 81.0123C2.83628 80.9893 2.91085 80.9601 2.9543 80.949L3.55021 80.8065C3.92177 80.7029 4.05275 80.5311 4.07026 80.1195C4.09036 79.6557 4.11046 79.1913 4.11241 78.7275C4.11824 77.5858 4.11176 76.4455 4.1163 75.3038C4.11695 75.0368 4.0307 74.8379 3.79856 74.7294C3.52272 74.5982 3.24493 74.4716 2.96532 74.3498C2.83304 74.2928 2.6612 74.2615 2.67677 74.071C2.69233 73.877 2.85898 73.8262 3.0159 73.788C3.66563 73.6288 4.31602 73.4737 4.96381 73.3041C5.1726 73.2491 5.37232 73.1566 5.62197 73.0635C5.63494 73.2081 5.65893 73.3458 5.65634 73.4834L5.61808 74.1377C5.61743 74.2114 5.6531 74.3102 5.70432 74.3512C5.73545 74.3769 5.83985 74.3303 5.89172 74.2872C6.44549 73.8353 7.03167 73.4452 7.70021 73.2178C8.73577 72.8653 9.62478 73.1921 10.2473 74.1496C10.4664 74.4868 10.4671 74.4868 10.7712 74.2511C11.2932 73.8443 11.8392 73.4855 12.45 73.2491C13.791 72.7297 15.0794 73.3889 15.5457 74.8372C15.7155 75.3629 15.7804 75.9059 15.7791 76.4608L15.7668 80.1445C15.7661 80.4484 15.8602 80.6215 16.1299 80.7161C16.4327 80.8225 16.7466 80.8955 17.0876 80.9914L17.0085 81.6249C16.6208 81.6249 16.2641 81.6221 15.9075 81.6256C15.036 81.6339 14.1645 81.6388 13.2936 81.6603C13.1419 81.6645 13.1023 81.6242 13.0946 81.4719C13.0693 80.9845 13.0654 80.9852 13.4934 80.8753L13.6373 80.8357C14.0555 80.7133 14.195 80.5756 14.1982 80.1209C14.2079 78.8151 14.2332 77.5058 14.1716 76.2028C14.1074 74.8511 13.1069 74.1315 11.8852 74.4777C11.4909 74.5935 11.1196 74.7853 10.7894 75.0437C10.6759 75.1306 10.6545 75.2308 10.6636 75.383C10.6979 75.9588 10.7193 76.5352 10.7239 77.1116C10.7317 78.1205 10.72 79.1294 10.7239 80.139C10.7252 80.5478 10.8555 80.7043 11.2323 80.7988L11.7919 80.9372L11.8956 80.9622C11.9034 81.1541 11.9105 81.346 11.9021 81.5379C11.8969 81.6582 11.81 81.6687 11.7127 81.6666C11.1687 81.652 10.624 81.6325 10.08 81.6339C9.41792 81.6353 8.75652 81.6555 8.09511 81.668H7.93949C7.93949 81.4642 7.93041 81.2696 7.94597 81.0756C7.94921 81.029 8.02573 80.9636 8.07825 80.949L8.73058 80.8009C9.00746 80.7279 9.13974 80.5756 9.15531 80.2739C9.22923 78.8763 9.2824 77.478 9.15985 76.0811C9.12998 75.8052 9.05859 75.5364 8.94846 75.285C8.61451 74.4937 7.86297 74.1635 6.99601 74.4013C6.58425 74.5139 6.2127 74.7162 5.86124 74.9714C5.7846 75.022 5.72165 75.0932 5.67865 75.178C5.63565 75.2628 5.6141 75.3582 5.61613 75.4547C5.61613 76.8488 5.62067 78.2429 5.62456 79.6363L5.6317 80.1737C5.63948 80.5485 5.78797 80.746 6.13488 80.8266C6.35795 80.8809 6.5836 80.9177 6.83649 80.9678Z" fill="#50382B"/>
<path fill-rule="evenodd" clip-rule="evenodd" d="M46.0397 73.206C46.1402 73.7303 46.1383 74.2017 45.779 74.5591C45.4224 74.9144 44.9711 74.7948 44.5308 74.7156C44.5716 74.9645 44.617 75.1759 44.6391 75.39C44.7993 76.9816 44.1605 78.1629 42.7839 78.8381C42.2639 79.0926 41.712 79.1871 41.1485 79.2358C40.8684 79.2594 40.6233 79.4889 40.5967 79.7357C40.5695 79.986 40.716 80.2433 41.0091 80.3184C41.3547 80.4067 41.7153 80.4317 42.07 80.4755C42.8312 80.5687 43.6009 80.6111 44.3531 80.7571C45.4905 80.9768 46.1253 82.0414 45.9249 83.2665C45.7466 84.3568 45.1578 85.1501 44.3369 85.7585C42.9538 86.7862 41.4365 87.0866 39.8205 86.5623C38.8965 86.2619 38.2448 85.6104 38.0198 84.5563C37.907 84.0286 38.027 83.5509 38.3972 83.1928C38.8375 82.7687 39.3167 82.3904 39.7777 81.9899L39.9269 81.8293L39.7557 81.7007C39.2856 81.4615 38.9095 81.134 38.7636 80.5652C38.7137 80.3726 38.7655 80.2461 38.9179 80.1473C39.1773 79.9798 39.4354 79.8094 39.6915 79.6363C39.8121 79.5556 39.9314 79.4722 40.0436 79.379C40.1966 79.2539 40.183 79.1607 40.0002 79.0884C39.5748 78.9201 39.1967 78.6761 38.9037 78.3006C38.4141 77.6741 38.2753 76.928 38.3155 76.1403C38.3784 74.9096 39.0016 74.0988 40.0144 73.5773C41.2186 72.9578 42.4266 72.9189 43.6541 73.4835C44.108 73.6921 44.5866 73.7366 45.0735 73.7004C45.4373 73.6726 45.755 73.5252 46.0397 73.206ZM41.6024 82.0233C40.6985 82.015 40.4152 82.1345 39.8847 82.7137C39.2908 83.3632 39.294 84.2636 39.8867 84.9158C40.3367 85.4102 40.8982 85.6417 41.5227 85.7112C42.2522 85.7919 42.9707 85.7592 43.6334 85.3677C44.3402 84.9485 44.6916 84.1697 44.5327 83.3854C44.4011 82.7381 43.9563 82.4419 43.4148 82.2715C42.7988 82.0782 42.1621 82.0414 41.6024 82.0233ZM39.827 75.8295C39.8601 76.0985 39.8737 76.3711 39.9295 76.6346C40.0741 77.3174 40.351 77.9175 40.9845 78.2213C41.7282 78.5794 42.6782 78.4257 43.0037 77.3063C43.2261 76.5613 43.2002 75.7566 42.9305 75.0298C42.8161 74.6976 42.6103 74.4105 42.3404 74.2066C41.6945 73.7233 40.5293 73.6594 40.0546 74.7274C39.9003 75.0743 39.84 75.4436 39.827 75.8295Z" fill="#4F382B"/>
<path fill-rule="evenodd" clip-rule="evenodd" d="M30.7035 73.0344C30.7275 73.1533 30.7755 73.2882 30.7768 73.4238C30.7787 73.6818 30.7528 73.9397 30.7392 74.1977V74.4216L30.9428 74.2547C31.5004 73.7624 32.0996 73.3432 32.7973 73.1172C34.0566 72.7104 35.3145 73.4495 35.725 74.8249C35.8806 75.3477 35.9422 75.8852 35.9481 76.4317C35.961 77.6458 35.9688 78.8598 35.9805 80.0738C35.9844 80.5098 36.0311 80.5876 36.4156 80.7135C36.6344 80.7835 36.8576 80.8367 37.0835 80.8727C37.2073 80.8936 37.2605 80.9457 37.254 81.0757L37.2553 81.1953C37.2508 81.698 37.2183 81.721 36.7638 81.7196C35.6757 81.7175 34.5883 81.7245 33.5002 81.7342C33.176 81.737 33.1753 81.7474 33.1429 81.4039L33.1364 81.2065C33.1565 80.9102 33.163 80.913 33.4347 80.8699C33.6176 80.8407 33.7991 80.7955 33.9774 80.7455C34.161 80.6947 34.2491 80.5494 34.2738 80.3547C34.2861 80.256 34.3023 80.1572 34.3017 80.0585C34.2861 78.7318 34.3062 77.4038 34.2388 76.0792C34.1843 75.0077 33.4217 74.3694 32.4186 74.4425C31.9351 74.4784 31.4702 74.6572 31.0757 74.9591C30.8079 75.16 30.7541 75.45 30.7554 75.7622C30.7606 77.0026 30.7716 78.243 30.7839 79.4842C30.7865 79.756 30.7936 80.0279 30.8176 80.2977C30.8429 80.5925 30.9395 80.7114 31.2093 80.7754C31.4673 80.8365 31.7306 80.872 32.0062 80.9214L32.0295 81.1494C32.0386 81.6814 31.9867 81.721 31.505 81.7189C30.3799 81.714 29.2549 81.7217 28.1305 81.7349C27.9535 81.7377 27.8782 81.6779 27.8828 81.4929L27.8802 81.4137C27.851 80.9346 27.864 80.9165 28.2868 80.8386L28.4865 80.7955C28.9443 80.685 29.0616 80.5543 29.0681 80.0557C29.0895 78.4767 29.0973 76.8983 29.1122 75.3192C29.1142 75.0926 29.0344 74.9167 28.8373 74.8228C28.5606 74.6928 28.2824 74.5667 28.0027 74.4445C27.8484 74.3764 27.672 74.3333 27.6662 74.1045C27.6623 73.9432 27.8231 73.8007 28.0429 73.7527C28.4845 73.6567 28.93 73.5768 29.3664 73.4593C29.8009 73.3432 30.2275 73.1874 30.7035 73.0344Z" fill="#4F372B"/>
<path fill-rule="evenodd" clip-rule="evenodd" d="M55.0296 77.1588C55.0089 78.6336 54.6516 79.826 53.6789 80.7209C52.4469 81.8563 50.5249 82.2422 48.9538 81.3933C48.2833 81.031 47.7905 80.4754 47.4695 79.7544C46.9773 78.6454 46.8541 77.4793 47.1109 76.2848C47.3651 75.1035 48.0323 74.2475 49.0309 73.6934C50.0581 73.1239 51.1397 72.9014 52.2803 73.2004C53.723 73.5779 54.7599 74.8392 54.9661 76.4454C55.0031 76.727 55.0173 77.0121 55.0296 77.1588ZM53.3586 77.9577L53.3029 77.9508C53.3029 77.8117 53.31 77.6726 53.3015 77.5336C53.2542 76.6672 53.0727 75.8419 52.6045 75.1167C52.1603 74.4297 51.5553 74.0243 50.7681 73.9652C49.8869 73.8985 49.1464 74.4269 48.8863 75.392C48.496 76.841 48.6283 78.2532 49.3143 79.5806C49.6132 80.1591 50.0561 80.586 50.6494 80.8106C51.8121 81.2493 52.8431 80.6812 53.1459 79.4047C53.2575 78.9332 53.2899 78.4403 53.3586 77.9577Z" fill="#4F382B"/>
<path fill-rule="evenodd" clip-rule="evenodd" d="M26.4685 77.2729C26.4446 78.3312 26.2118 79.3095 25.6022 80.1598C24.9493 81.0707 24.0518 81.5574 23.0312 81.7625C21.8244 82.0045 20.691 81.7848 19.7216 80.9163C19.2612 80.5033 18.9467 79.9742 18.7392 79.372C18.3987 78.3847 18.3138 77.373 18.5232 76.3419C18.747 75.2384 19.328 74.395 20.2286 73.829C21.27 73.1761 22.3938 72.8848 23.594 73.1782C25.1373 73.5564 26.0283 74.6349 26.3577 76.2675C26.4238 76.597 26.4329 76.9378 26.4685 77.2729ZM24.7787 77.971L24.734 77.964V77.7652C24.7087 76.7945 24.5317 75.8697 23.9915 75.0632C23.5914 74.4645 23.0558 74.0891 22.3691 73.9841C21.2499 73.813 20.5185 74.525 20.276 75.4922C19.9595 76.7556 20.0587 78.0037 20.5483 79.2017C20.8537 79.9484 21.3362 80.5304 22.0773 80.8127C23.2328 81.2529 24.2794 80.6702 24.5719 79.3985C24.6795 78.9333 24.7119 78.448 24.7787 77.971Z" fill="#4F372B"/>
<path fill-rule="evenodd" clip-rule="evenodd" d="M53.4066 23.3237C54.2022 25.79 54.7741 28.3077 54.9628 30.9165C55.1963 34.1539 55.0899 37.369 54.4532 40.5529L54.3715 40.8074C54.1717 40.8081 53.9681 40.7809 53.773 40.8136C52.124 41.0917 50.4769 41.3796 48.8293 41.6661C47.1258 41.9623 45.4211 42.2467 43.7209 42.5623C43.1185 42.6736 42.3728 42.5408 42.1296 43.4336L42.0129 43.476L42.0952 38.1374L42.0116 25.256L42.8053 25.11C44.1028 24.8826 45.4003 24.6511 46.6998 24.4293C48.2496 24.1658 49.8006 23.9085 51.3517 23.6512C52.0364 23.5386 52.7218 23.4336 53.4066 23.3237Z" fill="#439934"/>
<path fill-rule="evenodd" clip-rule="evenodd" d="M40.3749 59.0397C39.5378 58.2679 38.6715 57.5302 37.8694 56.7181C33.5521 52.3515 30.3935 47.2111 28.8379 41.0138C28.4093 39.3089 28.124 37.5754 28.0319 35.8135C27.9671 34.58 27.8744 33.3361 27.9561 32.1089C28.172 28.8458 28.6123 25.614 29.5045 22.4705L29.5538 22.3975C29.6407 22.5212 29.7652 22.6311 29.8093 22.7708C30.6808 25.5215 31.5452 28.2749 32.4056 31.0305C35.109 39.6878 37.8091 48.3472 40.5169 57.0032C40.5701 57.1721 40.7069 57.3105 40.8055 57.4628L40.3749 59.0397Z" fill="#45A538"/>
<path fill-rule="evenodd" clip-rule="evenodd" d="M53.4066 23.3234C52.7212 23.4326 52.0358 23.5382 51.3517 23.6509C49.8006 23.9081 48.2496 24.1654 46.6998 24.4289C45.401 24.65 44.1035 24.8816 42.8053 25.1096L42.0116 25.2557L42.0051 24.7008C41.9785 24.2447 41.9345 23.7886 41.9286 23.3324L41.8398 14.6035C41.819 12.7825 41.7879 10.9614 41.7535 9.1411C41.736 8.0097 41.7056 6.87857 41.6621 5.74797C41.6362 5.14097 41.5447 4.53674 41.5084 3.92973C41.487 3.58068 41.5156 3.22886 41.5227 2.87842C41.9273 3.71905 42.3235 4.56594 42.7392 5.40032C43.396 6.71932 44.4433 7.69137 45.3867 8.75172C49.1127 12.9452 51.7576 17.8179 53.4066 23.3234Z" fill="#46A037"/>
<path fill-rule="evenodd" clip-rule="evenodd" d="M42.0136 43.4759L42.1303 43.4335C42.3734 42.5407 43.1192 42.6735 43.7216 42.5622C45.4218 42.2466 47.1265 41.9622 48.8299 41.666C50.4776 41.3802 52.1247 41.0923 53.7736 40.8135C53.9688 40.7808 54.1724 40.808 54.3721 40.8073C54.0641 41.9865 53.8216 43.1915 53.4306 44.3381C52.9864 45.6383 52.4495 46.9079 51.8795 48.1525C51.0257 50.0086 49.9694 51.7493 48.7327 53.3382C47.7821 54.5633 46.7225 55.6974 45.661 56.8161C45.0735 57.4343 44.3823 57.9384 43.7378 58.4946L43.5705 58.3722L42.9694 57.8216L42.3475 56.3586C41.9226 54.6526 41.6908 52.898 41.6569 51.1327L41.6686 50.8351L41.7535 49.546C41.7814 49.1058 41.819 48.6664 41.8365 48.2262C41.8988 46.6437 41.9546 45.0598 42.0136 43.4759Z" fill="#409433"/>
<path fill-rule="evenodd" clip-rule="evenodd" d="M42.0136 43.4756C41.9552 45.0596 41.8994 46.6442 41.8365 48.2281C41.819 48.6689 41.7821 49.1084 41.7535 49.5478L41.3748 49.7015C40.5332 47.0447 39.6909 44.4157 38.8673 41.7805C37.505 37.4202 36.1595 33.0536 34.799 28.6919C33.7005 25.1718 32.5942 21.6544 31.4803 18.1398C31.4278 17.9757 31.2787 17.8464 31.1749 17.7011L33.6001 12.9194C33.6837 13.0745 33.7933 13.2198 33.8458 13.3867C34.9676 16.9467 36.0875 20.5074 37.1976 24.0716C38.6423 28.7093 40.0773 33.3491 41.5207 37.9875C41.5785 38.1725 41.6731 38.3435 41.7639 38.5514L42.0959 38.137L42.0136 43.4756Z" fill="#4FAA41"/>
<path fill-rule="evenodd" clip-rule="evenodd" d="M31.1743 17.7012C31.2787 17.8465 31.4278 17.9758 31.4797 18.1399C32.5937 21.6545 33.6999 25.1718 34.7984 28.692C36.1588 33.0537 37.5043 37.4202 38.8667 41.7805C39.6902 44.4158 40.5325 47.0441 41.3742 49.7015L41.7529 49.5479L41.6679 50.837L41.5908 51.1339C41.4591 52.5447 41.3482 53.9582 41.1874 55.3662C41.107 56.072 40.9352 56.7645 40.8048 57.4626C40.7069 57.3103 40.5695 57.172 40.5163 57.003C37.8078 48.3471 35.1083 39.6876 32.405 31.0303C31.5449 28.2752 30.6794 25.522 29.8086 22.7707C29.7646 22.6309 29.6401 22.5211 29.5532 22.3973L31.1743 17.7012Z" fill="#4AA73C"/>
<path fill-rule="evenodd" clip-rule="evenodd" d="M42.0953 38.1373L41.7633 38.5517C41.6725 38.3438 41.5778 38.1728 41.5201 37.9878C40.0767 33.3494 38.6417 28.7096 37.197 24.0719C36.0855 20.5081 34.9683 16.9465 33.8452 13.387C33.7927 13.2201 33.6831 13.0748 33.5994 12.9197L36.5984 8.68945C36.6931 8.82434 36.828 8.94463 36.8766 9.09691C37.7092 11.7113 38.534 14.3277 39.355 16.9463C40.1214 19.3924 40.8762 21.8413 41.6517 24.2832C41.7036 24.4466 41.8845 24.562 42.0051 24.7011L42.0116 25.256L42.0953 38.1373Z" fill="#57AE47"/>
<path fill-rule="evenodd" clip-rule="evenodd" d="M42.0051 24.7011C41.8839 24.5627 41.7036 24.4473 41.6517 24.2832C40.8768 21.8413 40.1214 19.3924 39.355 16.9463C38.5347 14.3277 37.7086 11.7112 36.8766 9.09688C36.828 8.94461 36.6931 8.82432 36.5984 8.68943C37.5737 7.66523 38.5185 6.60418 39.5333 5.62727C40.4353 4.75952 41.1602 3.82919 41.1939 2.45734L41.2653 2.18408L41.522 2.878C41.5155 3.22844 41.4864 3.58027 41.5078 3.92932C41.5447 4.53632 41.6362 5.14055 41.6614 5.74756C41.7088 6.87744 41.7315 8.00941 41.7529 9.14068C41.7872 10.961 41.8184 12.782 41.8391 14.6031L41.928 23.332C41.9344 23.7888 41.9792 24.245 42.0051 24.7011Z" fill="#60B24F"/>
<path fill-rule="evenodd" clip-rule="evenodd" d="M40.8055 57.4622C40.9359 56.7641 41.1077 56.0716 41.1881 55.3659C41.3489 53.9585 41.4598 52.5443 41.5914 51.1335L41.6245 51.1279L41.6569 51.1342C41.6908 52.8996 41.9226 54.6542 42.3475 56.3602C42.26 56.4839 42.1374 56.5931 42.0907 56.7322C41.7309 57.821 41.3911 58.9189 41.0292 60.0071C40.98 60.1559 40.8412 60.272 40.7446 60.402L40.3743 59.0392L40.8055 57.4622Z" fill="#A9AA88"/>
<path fill-rule="evenodd" clip-rule="evenodd" d="M40.7446 60.4027C40.8412 60.272 40.98 60.1566 41.0292 60.0078C41.3911 58.9196 41.7308 57.8217 42.0907 56.7328C42.1368 56.5938 42.26 56.4846 42.3475 56.3608L42.9694 57.8238C42.8468 58.0101 42.6769 58.1791 42.6088 58.387L41.4183 62.1361C41.369 62.287 41.2024 62.3927 41.0895 62.5199L40.7446 60.4027Z" fill="#B6B598"/>
<path fill-rule="evenodd" clip-rule="evenodd" d="M41.0895 62.5189C41.2017 62.3917 41.369 62.286 41.4183 62.1351L42.6088 58.386C42.6763 58.1781 42.8468 58.0091 42.9694 57.8228L43.5711 58.3727C43.2806 58.6808 43.1191 59.0368 43.2164 59.4866L43.0336 60.1284C42.9506 60.2383 42.8299 60.3342 42.7891 60.4601C42.3734 61.7367 41.9772 63.0202 41.5584 64.2961C41.5052 64.4574 41.358 64.5847 41.2549 64.7279L41.0895 62.5189Z" fill="#C2C1A7"/>
<path fill-rule="evenodd" clip-rule="evenodd" d="M41.2542 64.7274C41.358 64.5842 41.5052 64.4569 41.5577 64.2956C41.9766 63.0197 42.3734 61.7362 42.7884 60.4596C42.8293 60.3337 42.9499 60.2385 43.0329 60.1279L42.7807 63.0733C42.7132 63.1567 42.616 63.2297 42.5835 63.3264L41.7445 65.9046C41.6855 66.0805 41.5726 66.2376 41.4844 66.4024C41.406 66.2926 41.2659 66.1862 41.2594 66.0722C41.2348 65.6258 41.2523 65.1759 41.2542 64.7274Z" fill="#CECDB7"/>
<path fill-rule="evenodd" clip-rule="evenodd" d="M41.4851 66.4029C41.5733 66.2381 41.6861 66.081 41.7451 65.905L42.5842 63.3268C42.6166 63.2295 42.7145 63.1572 42.7813 63.0737L42.7878 65.0067L42.1841 66.6664L41.4851 66.4029Z" fill="#DBDAC7"/>
<path fill-rule="evenodd" clip-rule="evenodd" d="M42.1841 66.6665L42.7878 65.0068L42.9123 66.9704L42.1841 66.6665Z" fill="#EBE9DC"/>
<path fill-rule="evenodd" clip-rule="evenodd" d="M43.2158 59.4869C43.1192 59.0378 43.28 58.6818 43.5705 58.373L43.7378 58.4954L43.2158 59.4869Z" fill="#CECDB7"/>
<path fill-rule="evenodd" clip-rule="evenodd" d="M41.6569 51.1345L41.6245 51.1282L41.5914 51.1338L41.6686 50.8369L41.6569 51.1345Z" fill="#4FAA41"/>
</svg>
