<svg width="83" height="89" viewBox="0 0 83 89" fill="none" xmlns="http://www.w3.org/2000/svg">
<g clip-path="url(#clip0_53_73)">
<path d="M41.5026 17.8013C30.4357 17.8013 23.5214 23.7323 20.7526 35.5992C24.9013 29.6675 29.7444 27.4432 35.2763 28.9263C38.4348 29.7704 40.692 32.2262 43.1917 34.9477C47.26 39.3747 51.969 44.4999 62.2526 44.4999C73.3188 44.4999 80.2337 38.5682 83.0026 26.6985C78.8532 32.6337 74.0107 34.858 68.4782 33.3749C65.3203 32.5301 63.0657 30.0749 60.5627 27.3535C56.497 22.9264 51.7894 17.8013 41.5026 17.8013ZM20.7526 44.4999C9.68633 44.4999 2.77139 50.4316 0.00256348 62.3013C4.15127 56.3661 8.9938 54.1418 14.5263 55.6249C17.6848 56.4697 19.942 58.9248 22.4417 61.6463C26.51 66.0733 31.219 71.1985 41.5026 71.1985C52.5688 71.1985 59.4837 65.2675 62.2526 53.4006C58.1032 59.3323 53.2607 61.5566 47.7282 60.0735C44.5703 59.2294 42.3157 56.7735 39.8127 54.0521C35.747 49.625 31.0394 44.4999 20.7526 44.4999Z" fill="#38BDF8"/>
</g>
<defs>
<clipPath id="clip0_53_73">
<rect width="83" height="89" fill="white"/>
</clipPath>
</defs>
</svg>
