<svg width="84" height="74" viewBox="0 0 84 74" fill="none" xmlns="http://www.w3.org/2000/svg">
<g clip-path="url(#clip0_53_2)">
<path d="M83.6745 44.3119C83.1708 43.0087 81.8514 42.1011 80.1452 41.8833C79.3406 41.7807 78.4192 41.8245 77.3289 42.0165C75.4284 42.3514 74.0184 42.479 72.9894 42.5036C76.8735 36.9018 80.0317 30.5137 81.8498 24.5003C84.7898 14.7769 83.2187 10.3473 81.3829 8.34367C76.5243 3.04034 69.4358 0.191336 60.8842 0.104161C56.3223 0.0565099 52.3176 0.825942 50.2284 1.37926C48.2833 1.08606 46.1918 0.922366 43.9973 0.892093C39.8836 0.836033 36.249 1.6021 33.1433 3.17656C31.4239 2.67987 28.6643 1.97967 25.4776 1.53287C17.9826 0.481729 11.9418 1.30078 7.52325 3.9673C2.17284 7.19583 -0.307454 12.8053 0.151264 20.6397C0.296952 23.1271 1.92576 30.6953 4.49039 37.8727C5.96433 41.9982 7.53605 45.4241 9.16191 48.0562C11.4676 51.7884 13.9348 53.9862 16.7045 54.7756C18.2569 55.2173 21.0774 55.5268 24.044 53.4161C24.42 53.8052 24.9218 54.1917 25.5875 54.5508C26.4331 55.0063 27.467 55.3785 28.4996 55.5991C32.2209 56.3938 35.7066 56.195 38.6804 55.0811C38.6987 55.533 38.7128 55.9646 38.7247 56.3374C38.7443 56.942 38.764 57.5349 38.79 58.0893C38.9662 61.8381 39.2647 64.753 40.1494 66.7925C40.1979 66.9046 40.2632 67.0756 40.3321 67.2569C40.7735 68.4112 41.5114 70.3436 43.389 71.857C45.3331 73.4247 47.6848 73.9054 49.8386 73.9054C50.9188 73.9054 51.9494 73.7843 52.8534 73.6189C56.0756 73.0289 59.7352 72.1303 62.3825 68.9101C64.8854 65.866 66.1021 61.2811 66.3223 54.0569C66.3508 53.8525 66.3771 53.6575 66.4023 53.4716L66.4548 53.0898L67.0445 53.1341L67.1964 53.1428C70.4783 53.2706 74.4913 52.6761 76.9558 51.6981C78.9032 50.9262 85.1438 48.1117 83.6745 44.3119Z" fill="black"/>
<path d="M78.0629 45.0509C68.3045 46.7705 67.6335 43.9482 67.6335 43.9482C77.9366 30.888 82.2439 14.31 78.5272 10.2527C68.3868 -0.815114 50.8338 4.41926 50.5408 4.55493L50.4466 4.56951C48.5185 4.22754 46.3611 4.02404 43.9359 3.99012C39.5207 3.92845 36.1712 4.97903 33.6295 6.62553C33.6295 6.62553 2.31655 -4.3943 3.7731 20.4848C4.08285 25.7775 12.6535 60.5326 22.8759 50.0349C26.6122 46.1962 30.2226 42.9506 30.2226 42.9506C32.0155 43.9681 34.1621 44.4872 36.4124 44.3008L36.5872 44.1741C36.5328 44.6506 36.5577 45.1167 36.6571 45.6687C34.0236 48.1821 34.7976 48.6233 29.5332 49.5492C24.2061 50.4871 27.3354 52.1566 29.3787 52.5933C31.8557 53.1222 37.5861 53.8717 41.4579 49.2414L41.3037 49.7698C42.3353 50.4759 43.0598 54.362 42.9384 57.8851C42.817 61.408 42.736 63.8267 43.5487 65.7159C44.3622 67.6052 45.1723 71.856 52.0931 70.5893C57.8757 69.5306 60.8724 66.7872 61.2895 62.211C61.5851 58.9578 62.2548 59.4388 62.2968 56.5301L62.834 55.1533C63.4531 50.7433 62.9324 49.3204 66.4949 49.9822L67.3611 50.0473C69.9828 50.149 73.415 49.6868 75.4294 48.8871C79.7665 47.1677 82.339 44.2966 78.0622 45.0509H78.0629Z" fill="#336791"/>
<path d="M35.4625 22.8515C34.5831 22.7469 33.7867 22.8436 33.3838 23.1043C33.1574 23.2509 33.0872 23.4208 33.0681 23.5377C33.0176 23.8474 33.2716 24.1899 33.4277 24.3665C33.8694 24.8666 34.5145 25.2102 35.153 25.2859C35.2456 25.2971 35.3378 25.3022 35.4293 25.3022C36.4941 25.3022 37.4624 24.5938 37.5477 24.0711C37.6543 23.4163 36.5417 22.9796 35.4625 22.8515ZM64.5947 22.8722C64.5107 22.359 63.4417 22.2127 62.4271 22.3332C61.4139 22.4537 60.4315 22.8445 60.5135 23.3588C60.5791 23.7588 61.4247 24.4416 62.4255 24.4416C62.5101 24.4416 62.5954 24.4369 62.6814 24.4265C63.3495 24.3475 63.8397 23.985 64.0727 23.7762C64.427 23.4578 64.6324 23.1029 64.5947 22.8722Z" fill="white"/>
<path d="M81.31 44.8554C80.9379 43.8942 79.7403 43.5851 77.7505 43.936C71.8426 44.9776 69.7269 44.2561 69.0322 43.8191C73.6243 37.8431 77.402 30.6191 79.44 23.8792C80.4054 20.6866 80.9386 17.7215 80.9822 15.3047C81.0304 12.6522 80.5015 10.703 79.4108 9.51228C75.0133 4.71209 68.5591 2.13723 60.7464 2.06659C55.3753 2.01501 50.8374 3.1892 49.9577 3.5194C48.1051 3.12585 46.0855 2.88423 43.8867 2.8534C39.8547 2.79762 36.3694 3.62227 33.4838 5.30325C32.2304 4.90466 28.9911 3.95471 25.0297 3.40952C18.1811 2.4677 12.7388 3.18135 8.85509 5.53169C4.22098 8.33641 2.0816 13.3499 2.49603 20.4326C2.63548 22.8155 4.22492 30.1459 6.7331 37.1661C10.0347 46.406 13.6237 51.6368 17.3998 52.7129C17.8418 52.8387 18.3514 52.9267 18.9134 52.9267C20.2909 52.9267 21.9798 52.3964 23.7369 50.5918C25.88 48.3955 28.097 46.2525 30.385 44.1656C31.8694 44.8462 33.5002 45.2262 35.1681 45.2644C35.1714 45.3016 35.1756 45.3389 35.1796 45.3759C34.8925 45.6684 34.6113 45.9651 34.3363 46.2659C33.1806 47.5191 32.9401 47.7801 29.2202 48.4343C28.162 48.621 25.3516 49.1157 25.3102 50.7987C25.2656 52.6375 28.6325 53.4097 29.0161 53.4915C30.3529 53.7774 31.6407 53.9184 32.8689 53.9184C35.8558 53.9184 38.4844 53.0798 40.5851 51.4571C40.5205 58.0123 40.8404 64.4716 41.7618 66.4396C42.5164 68.0508 44.3599 71.9882 50.1828 71.9879C51.0372 71.9879 51.9776 71.903 53.0122 71.7135C59.0894 70.6007 61.7285 68.3061 62.7493 63.2475C63.2956 60.544 64.2331 54.0883 64.6741 50.6254C65.6046 50.8735 66.8026 50.987 68.0977 50.9867C70.7989 50.9867 73.9157 50.4965 75.8704 49.7215C78.0662 48.8503 82.0286 46.7127 81.31 44.8554ZM66.8377 21.4557C66.8177 22.478 66.653 23.4061 66.4784 24.3748C66.2904 25.4167 66.0962 26.4939 66.0473 27.8015C65.999 29.0741 66.1851 30.3971 66.3649 31.6767C66.7285 34.2611 67.1015 36.9217 65.6575 39.547C65.4176 39.1839 65.2039 38.8087 65.0176 38.4233C64.8381 38.0516 64.4483 37.4546 63.9086 36.6282C61.8089 33.4115 56.8919 25.8786 59.409 22.8048C60.1587 21.8899 62.0615 20.9492 66.8377 21.4557ZM61.0483 4.13663C68.0485 4.26865 73.586 6.50575 77.5064 10.7854C80.5133 14.068 77.2022 29.0045 67.6167 41.8904C67.5203 41.7856 67.4234 41.6813 67.326 41.5773L67.2046 41.4478C69.6816 37.9532 69.1973 34.4957 68.7661 31.4303C68.5889 30.1723 68.4216 28.9841 68.4642 27.8679C68.5082 26.685 68.6913 25.6703 68.8685 24.6893C69.086 23.4803 69.3075 22.2293 69.2465 20.7547C69.2921 20.5999 69.3105 20.4172 69.2865 20.2002C69.1307 18.7861 67.2407 14.5538 63.3885 10.7232C61.2813 8.62792 58.2084 6.28319 54.0126 4.70172C55.8173 4.38217 58.2852 4.08421 61.0483 4.13663ZM21.8774 49.271C19.9414 51.2595 18.6047 50.8783 18.165 50.7533C15.3004 49.937 11.9765 44.7649 9.04606 36.5632C6.51031 29.4665 5.0285 22.3303 4.91103 20.3292C4.5409 14.0005 6.33673 9.58992 10.249 7.21968C16.6159 3.36271 27.0837 5.67129 31.29 6.84211C31.2296 6.89313 31.1666 6.94078 31.1069 6.99263C24.2044 12.9474 24.3682 23.1213 24.3852 23.7433C24.3846 23.9832 24.4082 24.3229 24.4404 24.7902C24.5592 26.5014 24.7803 29.6862 24.1897 33.2929C23.6411 36.6445 24.8505 39.9249 27.5074 42.2932C27.78 42.5357 28.0666 42.7666 28.3661 42.9849C27.1835 44.0669 24.6133 46.4596 21.8774 49.271ZM29.2533 40.8639C27.112 38.955 26.1394 36.3 26.5847 33.5788C27.2081 29.7689 26.9781 26.4507 26.8544 24.668C26.837 24.4185 26.8216 24.1999 26.8127 24.0275C27.821 23.2637 32.4939 21.1249 35.8263 21.7772C37.3468 22.0746 38.2735 22.9593 38.6587 24.4807C40.6524 32.3581 38.9225 35.6413 37.5326 38.2798C37.2461 38.8233 36.9754 39.3371 36.7444 39.8685L36.5652 40.2795C36.1118 41.3183 35.6898 42.2842 35.4283 43.2013C33.1518 43.1957 30.9372 42.3649 29.2533 40.8636V40.8639ZM29.6028 51.4874C28.938 51.3455 28.3401 51.0992 27.9894 50.8948C28.2824 50.7771 28.8038 50.6167 29.7081 50.4575C34.0843 49.6881 34.7602 49.1449 36.2361 47.5441C36.5744 47.1769 36.958 46.7609 37.4892 46.2541L37.4899 46.2536C38.281 45.4967 38.6429 45.6251 39.2992 45.8578C39.8311 46.0456 40.3492 46.6151 40.5592 47.2419C40.6586 47.5379 40.7702 48.0996 40.405 48.5369C37.3219 52.2246 32.8292 52.1772 29.6028 51.4874ZM52.5056 69.6936C47.1519 70.6735 45.2563 68.34 44.0071 65.6724C43.2009 63.9502 42.8045 56.1841 43.0857 47.6077C43.0894 47.4936 43.0703 47.3835 43.0336 47.2797C43.0007 47.0749 42.9507 46.8724 42.8839 46.6737C42.4659 45.4258 41.4471 44.382 40.2248 43.9492C39.7392 43.7774 38.848 43.462 37.777 43.6961C38.0054 42.8922 38.4014 41.9843 38.8309 41.0012L39.0111 40.5878C39.2139 40.1216 39.4685 39.6387 39.7376 39.1274C41.1921 36.367 43.1842 32.586 41.0222 24.0443C40.2124 20.8449 37.5079 19.2825 33.4084 19.6455C30.9507 19.8627 28.7021 20.7098 27.5805 21.1956C27.3394 21.2999 27.1189 21.4008 26.9128 21.4989C27.2258 18.2754 28.4084 12.2511 32.8322 8.43956C35.6176 6.04016 39.3271 4.85504 43.8467 4.91895C52.752 5.04341 58.4627 8.94747 61.6855 12.2009C64.4628 15.0043 65.9666 17.8283 66.5667 19.3515C62.0533 18.9593 58.9837 19.7204 57.4278 21.6208C54.0425 25.7547 59.2797 33.7781 61.7967 37.6342C62.2584 38.3409 62.6568 38.9517 62.7821 39.2112C63.6018 40.9082 64.6629 42.0412 65.4376 42.8681C65.6752 43.1214 65.9055 43.3673 66.0807 43.582C64.7138 43.9186 62.2584 44.6965 62.4822 48.5846C62.3017 50.5355 61.0184 59.6694 60.3664 62.8965C59.5058 67.16 57.6693 68.7479 52.5056 69.6939V69.6936ZM74.8522 47.8479C73.4544 48.4021 71.1152 48.8178 68.8931 48.9072C66.4387 49.0053 65.1892 48.6723 64.8952 48.4674C64.7574 46.0444 65.813 45.7913 66.9303 45.5234C67.1058 45.4813 67.2771 45.4401 67.4425 45.3908C67.5452 45.4623 67.6577 45.5332 67.7811 45.6027C69.7538 46.7149 73.2723 46.8349 78.2397 45.959L78.2942 45.9497C77.6242 46.4848 76.4777 47.2029 74.8522 47.8479Z" fill="white"/>
</g>
<defs>
<clipPath id="clip0_53_2">
<rect width="84" height="74" fill="white"/>
</clipPath>
</defs>
</svg>
