<svg width="72" height="77" viewBox="0 0 72 77" fill="none" xmlns="http://www.w3.org/2000/svg">
<g clip-path="url(#clip0_53_71)">
<path d="M60.687 50.669C60.9907 50.4823 61.2431 50.2134 61.419 49.8894C61.5952 49.5648 61.6883 49.1963 61.689 48.821L61.725 36.4433C61.7257 36.068 61.8188 35.6995 61.995 35.3749C62.1717 35.0505 62.4252 34.7816 62.73 34.5953L69 30.7356C69.3041 30.5496 69.6486 30.4523 69.999 30.4533C70.3499 30.4542 70.6944 30.5538 70.998 30.7421C71.3016 30.9289 71.554 31.1978 71.73 31.5217C71.9051 31.8466 71.9972 32.215 71.997 32.5901V55.0933C71.9967 55.4696 71.9037 55.8392 71.7272 56.1648C71.5508 56.4904 71.2972 56.7604 70.992 56.9478L47.313 71.4944C47.0107 71.6795 46.6684 71.7769 46.32 71.7769C45.9716 71.7769 45.6293 71.6795 45.327 71.4944L26.745 60.1304C26.4388 59.9436 26.1842 59.6735 26.007 59.3476C25.8299 59.0211 25.7368 58.6503 25.737 58.2728V46.9249C25.737 46.9121 25.749 46.9057 25.761 46.9121C25.773 46.9185 25.785 46.9121 25.785 46.896V46.8832C25.785 46.8736 25.791 46.8672 25.797 46.8607L41.103 37.4603C41.115 37.4507 41.109 37.4282 41.094 37.4282L41.0873 37.4265L41.082 37.4218L41.0792 37.4157L41.079 37.409L41.109 26.2857C41.1104 25.9089 41.0188 25.5384 40.8433 25.2117C40.6679 24.8849 40.415 24.6135 40.11 24.4248C39.8058 24.237 39.4608 24.1381 39.1095 24.1381C38.7583 24.1381 38.4132 24.237 38.109 24.4248L26.736 31.4383C26.4325 31.6249 26.0886 31.7231 25.7385 31.7231C25.3884 31.7231 25.0445 31.6249 24.741 31.4383L13.329 24.412C13.0251 24.2255 12.6807 24.1276 12.3302 24.1281C11.9798 24.1286 11.6357 24.2275 11.3322 24.415C11.0288 24.6024 10.7767 24.8718 10.6011 25.1961C10.4256 25.5205 10.3328 25.8885 10.332 26.2632V46.3699C10.3321 46.7447 10.2402 47.113 10.0654 47.4379C9.8906 47.7627 9.63908 48.0328 9.336 48.2211C9.03337 48.4089 8.68992 48.5085 8.34 48.5098C7.98963 48.5109 7.64515 48.4135 7.341 48.2275L1.008 44.355C0.701818 44.1682 0.447228 43.8981 0.270004 43.5722C0.0924333 43.2447 -0.00073501 42.8727 4.36666e-06 42.4942L0.0570044 7.35328C0.0580923 6.97899 0.150958 6.61155 0.326332 6.28763C0.501706 5.96372 0.753454 5.69466 1.05645 5.50732C1.35944 5.31998 1.70308 5.2209 2.05307 5.21998C2.40306 5.21906 2.74715 5.31633 3.051 5.50207L24.741 18.8263C25.0445 19.0129 25.3884 19.1111 25.7385 19.1111C26.0886 19.1111 26.4325 19.0129 26.736 18.8263L48.42 5.50207C48.7241 5.31591 49.0686 5.21854 49.419 5.21974C49.7699 5.22049 50.1145 5.32008 50.418 5.50849C50.722 5.69625 50.9744 5.96623 51.15 6.29132C51.3239 6.61659 51.415 6.985 51.414 7.3597V42.5102C51.414 42.8856 51.324 43.2546 51.147 43.5818C50.9706 43.9073 50.7171 44.1773 50.412 44.3647L39.057 51.3588C38.7515 51.547 38.498 51.8182 38.322 52.1449C38.1464 52.4707 38.0543 52.8404 38.055 53.2165C38.0553 53.5928 38.1485 53.9625 38.325 54.288C38.5029 54.6145 38.7586 54.8846 39.066 55.0709L45.33 58.8856C45.6319 59.0685 45.973 59.1646 46.32 59.1647C46.6696 59.1642 47.013 59.0658 47.316 58.8792L60.687 50.6658V50.669ZM62.001 19.1375C62.0006 19.515 62.0938 19.8858 62.271 20.2123C62.4498 20.5391 62.7065 20.8093 63.015 20.9951C63.3224 21.1809 63.6702 21.2763 64.0232 21.2718C64.3762 21.2673 64.7219 21.163 65.025 20.9695L71.028 17.1195C71.324 16.9296 71.5689 16.661 71.739 16.3398C71.9099 16.018 71.9998 15.6544 72 15.2843V7.44311C71.9993 7.06536 71.9051 6.69454 71.727 6.36832C71.5484 6.04208 71.2923 5.77225 70.9845 5.58627C70.6768 5.4003 70.3285 5.30483 69.975 5.30957C69.622 5.3138 69.2763 5.41785 68.973 5.61115L62.973 9.46116C62.6759 9.65056 62.4299 9.9192 62.259 10.2408C62.0893 10.5629 62.0004 10.9266 62.001 11.2963V19.1375Z" fill="#3782DA"/>
</g>
<defs>
<clipPath id="clip0_53_71">
<rect width="72" height="77" fill="white"/>
</clipPath>
</defs>
</svg>
