<svg width="83" height="82" viewBox="0 0 83 82" fill="none" xmlns="http://www.w3.org/2000/svg">
<g clip-path="url(#clip0_53_37)">
<path d="M63.5469 0H19.4531C8.70946 0 0 8.60453 0 19.2188V62.7812C0 73.3955 8.70946 82 19.4531 82H63.5469C74.2905 82 83 73.3955 83 62.7812V19.2188C83 8.60453 74.2905 0 63.5469 0Z" fill="#F4F2ED"/>
<path d="M73.9219 58.5971C72.978 58.9503 71.9359 58.9496 70.9926 58.5952C70.0492 58.2408 69.27 57.5572 68.8021 56.6737C65.8637 52.328 62.619 48.1783 59.5003 43.9396L58.148 42.1587C54.4344 47.0742 50.7208 51.7937 47.3317 56.6916C46.8903 57.536 46.1532 58.1931 45.2578 58.5405C44.3623 58.8878 43.3696 58.9017 42.4646 58.5795L56.3995 40.1106L43.4379 23.4223C44.3709 23.0895 45.3916 23.0849 46.3277 23.4094C47.2637 23.7338 48.0578 24.3675 48.5758 25.2033C51.5861 29.5493 54.9214 33.6989 58.2381 38.0981C61.5734 33.7345 64.8723 29.5669 67.955 25.2568C68.3988 24.4261 69.1364 23.7855 70.0272 23.4572C70.918 23.1288 71.8999 23.1354 72.7861 23.4758L67.7565 30.0656C65.5032 33.0042 63.2859 35.9607 60.9424 38.8281C60.7535 38.9951 60.6023 39.1996 60.4988 39.4282C60.3953 39.6569 60.3418 39.9045 60.3418 40.155C60.3418 40.4055 60.3953 40.6531 60.4988 40.8817C60.6023 41.1104 60.7535 41.3149 60.9424 41.4819C65.251 47.1277 69.5232 52.7912 73.9219 58.5971ZM9.07812 39.879C9.45681 38.0981 9.6909 36.1567 10.2139 34.3402C13.3325 23.3871 26.0416 18.8275 34.7848 25.6133C39.9045 29.5852 41.1845 35.213 40.9323 41.5533H12.0888C11.62 52.8805 19.8944 59.7195 30.4762 56.2287C32.1928 55.6221 33.7294 54.6026 34.9474 53.2625C36.1654 51.9223 37.0264 50.3036 37.4528 48.5525C38.0117 46.7715 38.9131 46.4688 40.6256 46.9852C40.3436 49.1534 39.5677 51.2302 38.3562 53.0595C37.1448 54.8888 35.5293 56.4229 33.6312 57.5465C30.4953 59.2409 26.8973 59.9122 23.3518 59.4644C19.8064 59.0165 16.4951 57.4725 13.8915 55.0532C11.3157 52.1919 9.7582 48.5766 9.45681 44.759C9.45681 44.1536 9.2224 43.5479 9.09628 42.9781C9.08435 41.9451 9.0783 40.9121 9.07812 39.879ZM12.1248 39.1132H38.2102C38.0477 30.9029 32.8019 25.079 25.8075 25.0258C18.0198 24.9188 12.4494 30.6178 12.1067 39.0776L12.1248 39.1132Z" fill="#0F0F0F"/>
</g>
<defs>
<clipPath id="clip0_53_37">
<rect width="83" height="82" fill="white"/>
</clipPath>
</defs>
</svg>
