<svg width="90" height="82" viewBox="0 0 90 82" fill="none" xmlns="http://www.w3.org/2000/svg">
<g clip-path="url(#clip0_15_228)">
<path d="M45.0028 16.4012C33.0026 16.4012 25.5052 21.8658 22.5028 32.7993C27.0014 27.3342 32.253 25.2848 38.2514 26.6512C41.6763 27.429 44.1239 29.6917 46.8345 32.1991C51.2459 36.2779 56.3519 41 67.5028 41C79.5023 41 87.0005 35.5348 90.0028 24.5987C85.5035 30.0671 80.2526 32.1164 74.2535 30.75C70.8293 29.9716 68.3845 27.7096 65.6705 25.2022C61.2619 21.1233 56.1572 16.4012 45.0028 16.4012ZM22.5028 41C10.5033 41 3.00515 46.4651 0.00280762 57.4012C4.5014 51.9329 9.75234 49.8835 15.7514 51.25C19.1763 52.0283 21.6239 54.2904 24.3344 56.7978C28.7459 60.8766 33.8519 65.5987 45.0028 65.5987C57.0023 65.5987 64.5005 60.1342 67.5028 49.2006C63.0035 54.6658 57.7526 56.7151 51.7535 55.3487C48.3293 54.571 45.8845 52.3083 43.1705 49.8009C38.7619 45.722 33.6572 41 22.5028 41Z" fill="#38BDF8"/>
</g>
<defs>
<clipPath id="clip0_15_228">
<rect width="90" height="82" fill="white"/>
</clipPath>
</defs>
</svg>
