<svg width="82" height="74" viewBox="0 0 82 74" fill="none" xmlns="http://www.w3.org/2000/svg">
<g clip-path="url(#clip0_2_47)">
<path d="M38.0467 0.0878744C37.7367 0.117359 36.7687 0.220843 35.9147 0.311609C32.472 0.665999 28.568 1.59909 25.142 2.90161C12.7427 7.5769 3.41069 17.8346 0.836017 29.6C0.229985 32.3981 0.0826416 33.7729 0.0826416 37C0.0826416 41.1596 0.540689 44.03 1.75467 47.6572C5.72335 59.5261 16.0553 68.835 29.2413 72.4304C33.21 73.5121 36.408 73.9254 41 73.9254C45.6093 73.9254 48.79 73.5121 52.8093 72.4165C65.9613 68.835 76.2767 59.511 80.2607 47.6115C81.4593 44.03 81.9174 41.144 81.9174 37C81.9174 35.2384 81.82 33.2266 81.7047 32.4854C80.376 23.9315 76.4721 16.7384 69.9633 10.8624C63.4667 5.03142 55.5294 1.49503 46.2467 0.295999C44.968 0.132968 39.0474 -0.0161881 38.0467 0.0878744ZM24.6814 23.3979C25.5526 23.6349 25.96 23.8569 26.5507 24.3894C27.6993 25.4415 27.962 26.0179 27.962 27.6008C27.962 28.7866 27.912 29.008 27.5193 29.6289C26.7634 30.7828 25.0094 31.8489 23.796 31.8778C22.9421 31.894 22.9773 31.5529 23.9113 30.6655C25.1573 29.4959 25.3374 29.0525 25.3374 27.3048C25.322 25.6184 25.092 25.0421 24.2233 24.568C23.5007 24.1685 22.7146 24.198 21.566 24.6854C18.5807 25.9746 15.35 30.266 14.0886 34.6626C12.4147 40.5231 15.3827 45.2134 20.27 44.4139C21.6961 44.1768 24.386 42.935 25.5526 41.9568C26.5187 41.1596 26.5187 41.144 26.616 40.1531C26.8313 38.0794 28.4527 36.0085 30.62 35.0465C31.6181 34.6014 31.866 34.5586 33.21 34.5586C34.4887 34.5586 34.784 34.6175 35.4073 34.9268C37.3914 35.9501 36.9814 38.332 34.834 38.332C33.588 38.332 32.9473 37.7539 33.8506 37.4452C34.7366 37.1492 34.406 36.038 33.3753 35.7871C32.1613 35.505 30.7827 36.2455 29.914 37.666C28.8634 39.383 28.8153 41.4261 29.8141 42.3569C30.7827 43.2894 31.996 42.5512 32.932 40.4323C33.4227 39.353 34.128 38.7748 34.9493 38.7748C35.67 38.7748 35.8026 39.1749 35.4893 40.3895C35.0294 42.2684 35.342 42.7564 36.638 42.1806C37.0634 42.0019 37.7693 41.5892 38.1947 41.2932L38.9981 40.715L39.5413 38.1539C40.132 35.2835 40.3594 34.8974 41.5734 34.6921C42.7393 34.4979 43.002 35.017 42.574 36.6589L42.3434 37.5781L43.1974 36.7919C45.214 34.9268 47.6913 34.0099 48.5446 34.78C49.0027 35.1934 48.9527 35.7125 48.2974 37.5463C47.9867 38.4205 47.5587 39.7981 47.364 40.5815C47.0686 41.7649 47.0507 42.047 47.2166 42.2395C47.7419 42.8015 49.348 42.2234 50.7747 40.9654L51.6107 40.2271L51.7106 38.5829C51.808 36.6884 52.0034 36.0085 52.5614 35.4009C53.0867 34.839 54.038 34.4256 54.546 34.543C55.054 34.6626 55.054 35.1055 54.596 36.4086C53.9554 38.199 54.0226 42.3274 54.6786 42.3274C54.9413 42.3274 56.2847 41.0555 57.1386 39.9901L57.7767 39.2038L57.2687 38.7321C56.3827 37.888 56.17 37.3411 56.17 35.9634C56.17 34.9586 56.2526 34.5881 56.53 34.0978C56.9906 33.3301 57.7114 32.7681 58.5647 32.5444C59.4654 32.2935 60.5814 32.7068 61.0394 33.4474C61.5 34.2019 61.3853 35.8888 60.794 37.0451L60.3687 37.8874H60.942C61.73 37.8874 62.0407 37.7111 63.452 36.5121C64.19 35.8755 65.0433 35.3269 65.6814 35.0604C68.1913 33.9966 71.1446 34.543 71.6347 36.171C72.0447 37.4741 71.1446 38.391 69.568 38.2869C68.4367 38.2129 68.224 37.9458 68.88 37.4452C70.0607 36.5548 68.88 35.4171 67.1907 35.8304C66.272 36.0536 65.2387 36.9844 64.6986 38.0661C63.6147 40.2271 64.19 42.772 65.7467 42.772C66.37 42.772 67.4706 41.6614 67.896 40.5815C68.404 39.3374 69.47 38.554 70.2734 38.8355C70.7167 38.983 70.7494 39.3824 70.4713 40.6404C70.1587 42.0181 70.1106 43.3056 70.356 43.897C70.454 44.1179 70.7494 44.5335 71.0293 44.8139C71.5521 45.3464 71.57 45.5389 71.1267 45.7915C70.914 45.9245 70.6334 45.8661 69.946 45.5256C68.9947 45.0805 68.174 44.2809 67.8787 43.5265L67.6987 43.0836L67.0427 43.5265C66.6647 43.7635 66.0747 44.03 65.7313 44.1179C64.37 44.4434 62.6961 43.601 61.9106 42.1806C61.5974 41.6314 61.5 40.0195 61.73 39.3981C61.8607 39.057 61.8607 39.057 61.3347 39.294C61.0573 39.4275 60.4667 39.5744 60.0086 39.6195C59.2527 39.6946 59.1374 39.7686 58.3846 40.6266C57.3186 41.8233 55.4314 43.4386 54.6607 43.7797C53.022 44.5179 52.4813 44.3104 52.0533 42.7853L51.758 41.7649L51.0521 42.3274C50.1513 43.0385 48.3473 43.897 47.3134 44.1046C46.33 44.2965 45.2794 44.0144 44.8534 43.4224C44.2159 42.535 44.4286 40.6561 45.444 38.1245C46.1974 36.2455 45.6574 36.2166 43.7553 38.0071C42.344 39.353 41.738 40.315 41.3453 41.81C40.9353 43.364 40.442 43.9259 39.3286 44.163C38.6553 44.2965 38.342 43.9259 38.4753 43.1131L38.5727 42.4604L37.9493 42.8466C37.0634 43.3935 35.9474 43.897 35.1767 44.089C34.406 44.2809 33.39 44.0751 33.1447 43.6889C32.702 43.0096 32.702 43.0096 32.014 43.497C30.52 44.5925 28.388 44.2809 27.3066 42.831L26.9607 42.3725L25.88 43.2755C22.762 45.8505 18.8606 47.0044 15.9733 46.2049C12.2994 45.2001 10.2673 42.3569 10.3 38.258C10.3153 34.1435 12.332 29.8075 15.728 26.5961C17.6473 24.7894 19.4513 23.7234 21.2886 23.3239C22.6147 23.0279 23.4206 23.0429 24.6814 23.3979Z" fill="#00C4CC"/>
<path d="M57.924 33.9221C57.5634 34.247 57.696 35.5501 58.1547 36.3791C58.3846 36.8081 58.63 37.1492 58.712 37.1492C58.7773 37.1492 58.9247 36.8081 59.04 36.3924C59.45 34.8546 58.712 33.2104 57.924 33.9221Z" fill="#00C4CC"/>
</g>
<defs>
<clipPath id="clip0_2_47">
<rect width="82" height="74" fill="white"/>
</clipPath>
</defs>
</svg>
