<svg width="75" height="70" viewBox="0 0 75 70" fill="none" xmlns="http://www.w3.org/2000/svg">
<g clip-path="url(#clip0_2_42)">
<path d="M15.9697 44.1432C15.9697 48.1518 12.467 51.4259 8.17148 51.4259C3.87656 51.4259 0.369141 48.1518 0.369141 44.1432C0.369141 40.1346 3.87715 36.8605 8.17207 36.8605H15.9703L15.9697 44.1432ZM19.9008 44.1432C19.9008 40.1346 23.4088 36.8605 27.7037 36.8605C31.9986 36.8605 35.5066 40.1341 35.5066 44.1432V62.3733C35.5066 66.3819 31.9992 69.656 27.7037 69.656C23.4088 69.656 19.9008 66.3819 19.9008 62.3733V44.1432Z" fill="#DE1C59"/>
<path d="M27.7037 14.9051C23.4088 14.9051 19.9008 11.6359 19.9008 7.62671C19.9008 3.61812 23.4088 0.344528 27.7037 0.344528C31.9986 0.344528 35.5066 3.61867 35.5066 7.62726V14.9056L27.7037 14.9051ZM27.7037 18.5741C31.9986 18.5741 35.5066 21.8482 35.5066 25.8568C35.5066 29.8654 31.9992 33.1395 27.7037 33.1395H8.17148C3.87656 33.1395 0.369141 29.8659 0.369141 25.8568C0.369141 21.8482 3.87715 18.5741 8.17207 18.5741H27.7037Z" fill="#35C5F0"/>
<path d="M59.0303 25.8568C59.0303 21.8482 62.533 18.5741 66.8285 18.5741C71.1234 18.5741 74.6314 21.8482 74.6314 25.8568C74.6314 29.8654 71.1234 33.1395 66.8285 33.1395H59.0303V25.8568ZM55.0992 25.8568C55.0992 29.8654 51.5912 33.1395 47.2963 33.1395C43.0014 33.1395 39.4933 29.8659 39.4933 25.8568V7.62671C39.4933 3.61812 43.0008 0.344528 47.2963 0.344528C51.5912 0.344528 55.0992 3.61867 55.0992 7.62726V25.8568Z" fill="#2EB57D"/>
<path d="M47.2963 55.0949C51.5912 55.0949 55.0992 58.3641 55.0992 62.3733C55.0992 66.3819 51.5912 69.656 47.2963 69.656C43.0014 69.656 39.4933 66.3819 39.4933 62.3733V55.0949H47.2963ZM47.2963 51.4259C43.0014 51.4259 39.4933 48.1518 39.4933 44.1432C39.4933 40.1346 43.0008 36.8605 47.2963 36.8605H66.8285C71.1234 36.8605 74.6314 40.1341 74.6314 44.1432C74.6314 48.1518 71.1234 51.4259 66.8285 51.4259H47.2963Z" fill="#EBB02E"/>
</g>
<defs>
<clipPath id="clip0_2_42">
<rect width="75" height="70" fill="white"/>
</clipPath>
</defs>
</svg>
