<svg width="73" height="70" viewBox="0 0 73 70" fill="none" xmlns="http://www.w3.org/2000/svg">
<g clip-path="url(#clip0_2_66)">
<path d="M69.5215 62.9071C69.3903 62.98 69.2551 63.0164 69.1143 63.0164C68.9061 63.0164 68.7253 62.9536 68.5734 62.828C68.4208 62.702 68.3444 62.5369 68.3444 62.333C68.3444 62.142 68.4103 61.9793 68.5417 61.8454C68.6729 61.7111 68.8525 61.644 69.0806 61.644C69.2264 61.644 69.3524 61.6693 69.459 61.7198C69.6333 61.8021 69.7413 61.9457 69.7835 62.1504L69.4331 62.1458C69.412 62.0505 69.3675 61.987 69.2991 61.9541C69.2429 61.9237 69.1775 61.9079 69.1109 61.9084C69.0076 61.9084 68.923 61.9445 68.8571 62.0157C68.7915 62.0874 68.7587 62.1956 68.7587 62.3397C68.7587 62.4831 68.7946 62.5872 68.8676 62.6519C68.9403 62.7169 69.0273 62.7491 69.1291 62.7491C69.2224 62.7491 69.2931 62.7277 69.341 62.6849C69.3886 62.6421 69.4197 62.5877 69.4331 62.523H69.7738C69.7368 62.7058 69.6529 62.834 69.5215 62.9071ZM68.274 61.6585C68.055 61.847 67.9458 62.0708 67.9458 62.3296C67.9458 62.598 68.057 62.8261 68.2797 63.013C68.5012 63.2013 68.7681 63.2949 69.0809 63.2949C69.3932 63.2949 69.6595 63.2004 69.8802 63.0118C69.9873 62.9229 70.0719 62.8166 70.1289 62.6994C70.1859 62.5821 70.2141 62.4563 70.2118 62.3296C70.2118 62.072 70.102 61.8482 69.8819 61.6585C69.6601 61.4655 69.3932 61.3691 69.0806 61.3691C68.7656 61.3691 68.4967 61.4655 68.2737 61.6585H68.274ZM70.0422 63.1612C69.7753 63.3791 69.4548 63.4878 69.0809 63.4878C68.6948 63.4878 68.3689 63.3765 68.1049 63.1532C67.8397 62.9302 67.7074 62.6555 67.7074 62.3296C67.7074 61.9911 67.8508 61.7097 68.1359 61.4857C68.4043 61.2757 68.7196 61.1711 69.0809 61.1711C69.4599 61.1711 69.7835 61.2842 70.0516 61.511C70.3199 61.7371 70.4545 62.0099 70.4545 62.3296C70.4545 62.6587 70.317 62.9358 70.0422 63.1612ZM72.9778 50.7245C72.9725 50.6137 72.9616 50.5032 72.945 50.3933C72.9351 50.3243 72.9198 50.256 72.8993 50.1888C72.8675 50.0346 72.8215 49.8828 72.7616 49.7346L72.7602 49.732C72.6322 49.4245 72.4375 49.1398 72.1859 48.8925C71.9463 48.6592 71.6577 48.4651 71.3347 48.32L71.3248 48.3152C71.0352 48.1885 70.725 48.0987 70.4043 48.0486C70.3202 48.0359 70.242 48.0294 70.1639 48.0217C70.5289 46.7027 70.0721 45.6956 69.777 45.2248C69.7998 45.206 69.8237 45.1875 69.8454 45.1697C70.2352 44.8522 70.5663 44.5486 70.8451 44.2436L70.8976 44.1825C71.1009 43.9361 71.2583 43.6648 71.3641 43.3781C71.4353 43.1831 71.4836 42.9826 71.5081 42.7796L71.511 42.7799L71.513 42.769L71.5144 42.7433L71.5235 42.6875H71.5181L71.5221 42.6249H71.5241L71.5249 42.5874C71.5266 42.5504 71.5278 42.5121 71.5278 42.4715C71.5301 42.3969 71.5295 42.3194 71.5249 42.2343C71.5035 41.8258 71.416 41.2947 71.0981 40.7198C70.9259 40.4087 70.6998 40.1209 70.4274 39.8658C70.1193 39.579 69.7576 39.3367 69.3567 39.1485L69.3589 39.1495C69.3287 39.135 69.3048 39.1213 69.2768 39.1076C68.4108 38.0319 67.4216 37.1981 66.5445 36.5655C66.1432 36.2773 65.7291 36.0021 65.303 35.7404C64.9446 35.5184 64.6423 35.3428 64.4741 35.2377L64.4758 35.2384C64.09 34.9998 63.8031 34.8561 63.666 34.791C63.3494 34.6288 63.1148 34.4994 62.9728 34.409C62.9066 34.3687 62.8447 34.3237 62.7877 34.2745L62.7772 34.2627C62.7752 34.2603 62.7629 34.2401 62.7464 34.1682C62.7287 34.0963 62.7096 33.9733 62.7013 33.7958C62.6865 33.5168 62.6979 33.1078 62.7344 32.5678C62.792 31.6994 62.9092 30.5015 63.0301 28.8778C63.07 28.3613 63.0757 27.8747 63.0535 27.4162C63.0172 26.6811 62.9046 26.0152 62.7224 25.4114L62.7218 25.4081C62.6819 25.271 62.6352 25.1363 62.5864 25.0032L62.5855 25.002L62.5847 25.0003C62.5479 24.9012 62.5157 24.8264 62.4957 24.7788L62.4971 24.7814C62.4602 24.6926 62.4212 24.6044 62.3802 24.5168L62.3788 24.5132C62.358 24.4699 62.3318 24.4144 62.297 24.3451L62.2961 24.3434L62.2955 24.3424C62.224 24.1987 62.1452 24.0576 62.0594 23.9196L62.0341 23.8791L61.9867 23.8075L61.9528 23.7593C61.7844 23.5257 61.599 23.3011 61.3976 23.0868C61.2587 22.5585 61.0748 22.0393 60.8476 21.5333C60.5969 20.9808 60.261 20.3676 59.7834 19.7629C59.6112 19.548 59.424 19.3421 59.2228 19.1461L59.2912 19.0859C59.3879 19.0008 61.6822 16.9739 63.4789 14.3435C66.8271 9.44062 65.7125 6.44313 64.1886 4.79199L64.1453 4.74581L64.0997 4.70251C62.63 3.32464 60.6317 2.49426 58.1595 2.23543C53.0396 1.69828 47.25 3.81753 45.7318 4.42034L42.9725 1.84887L42.9619 1.83924C42.7188 1.6145 42.449 1.41145 42.1567 1.2333C41.8633 1.05542 41.5505 0.901573 41.2225 0.77385C40.563 0.515499 39.8395 0.35409 39.0696 0.273265C37.525 0.112819 35.7913 0.268454 33.9053 0.676427C31.0789 1.29151 27.9047 2.48272 24.5867 4.16175C21.2704 5.84127 17.8144 8.01079 14.4591 10.5926C10.3586 13.7472 6.97193 17.0826 4.50426 20.2483C3.27128 21.8313 2.26727 23.3723 1.52132 24.8339C0.776802 26.2964 0.287202 27.6789 0.0984342 28.9581C-0.038437 29.8878 -0.0164805 30.7663 0.204794 31.5763C0.299775 31.9266 0.438267 32.2675 0.617974 32.5933C0.844288 33.0089 1.1446 33.3928 1.50849 33.7318L1.51762 33.74L4.72839 36.577L4.70985 36.604C4.67506 36.6552 4.64256 36.7072 4.60834 36.7591C4.55901 36.8361 4.50911 36.9128 4.46149 36.9905C4.42955 37.0439 4.39847 37.0969 4.36824 37.1505C4.24496 37.3627 4.1312 37.5787 4.02721 37.7981L3.95079 37.9619C3.91343 38.0456 3.87779 38.1315 3.84215 38.2161C3.8199 38.2715 3.79709 38.3268 3.77599 38.3821C3.74234 38.4687 3.71155 38.5563 3.68047 38.6443C3.67191 38.6689 3.66222 38.6924 3.65395 38.717C3.6434 38.748 3.6337 38.7795 3.62372 38.8105C3.59378 38.9005 3.56755 38.9917 3.54103 39.0829C3.52563 39.1372 3.50881 39.1921 3.49369 39.2474L3.46375 39.3677C3.44978 39.4237 3.43781 39.48 3.4244 39.537C3.413 39.588 3.3996 39.6392 3.38933 39.6907C3.36538 39.8052 3.3457 39.9216 3.3266 40.0371C3.32146 40.0715 3.31377 40.1049 3.30892 40.1393L3.30749 40.149L3.30436 40.1802C3.29352 40.2555 3.28582 40.3318 3.27613 40.4088C3.26301 40.5281 3.2516 40.6481 3.2439 40.7691C3.23934 40.822 3.23649 40.8759 3.23364 40.9298C3.23164 40.9714 3.22794 41.0123 3.22623 41.0542C3.22337 41.1383 3.2248 41.2237 3.22423 41.3096C3.22423 41.3604 3.22366 41.4116 3.22423 41.4636C3.2248 41.4941 3.22366 41.5244 3.22423 41.555V41.5725C3.22623 41.6274 3.22879 41.6825 3.23022 41.7368C3.23364 41.7975 3.2402 41.8564 3.24447 41.916C3.24761 41.9605 3.24904 42.005 3.25217 42.0488C3.25674 42.0883 3.25902 42.1179 3.26215 42.1434C3.26786 42.1994 3.27442 42.2564 3.28154 42.312C3.28839 42.3765 3.29666 42.4453 3.30806 42.5237L3.30892 42.5304V42.5292L3.32146 42.6045C3.33173 42.668 3.34371 42.732 3.35511 42.795C3.36424 42.852 3.37621 42.9155 3.39161 42.9954L3.41043 43.0772C3.41899 43.1157 3.4284 43.1537 3.43695 43.1914L3.43781 43.1943L3.43895 43.1996L3.45121 43.2482C3.46261 43.3007 3.4783 43.3666 3.50225 43.4568L3.51936 43.5174C3.53647 43.5746 3.54901 43.6177 3.55842 43.648L3.57525 43.7062C3.58095 43.7255 3.58665 43.7428 3.59435 43.77L3.61089 43.8236L3.62515 43.8683L3.63769 43.909L3.65623 43.9619L3.67362 44.017C3.68902 44.0601 3.70584 44.1024 3.72124 44.1455C3.73978 44.1955 3.76316 44.2621 3.79766 44.3514L3.79196 44.3369L3.79852 44.3538C3.8065 44.3749 3.81306 44.3889 3.82047 44.4067C3.85127 44.481 3.87579 44.5378 3.88805 44.5671L3.89005 44.5705V44.571C3.91001 44.6196 3.93995 44.6908 3.98215 44.7834L3.98272 44.7848L3.98329 44.787L3.98272 44.7846L3.98615 44.7933L3.98472 44.7892L4.00325 44.8274C4.02977 44.8844 4.05116 44.9285 4.06884 44.9624L4.08937 45.0057L4.09279 45.0129C4.12518 45.0794 4.15845 45.1457 4.19259 45.2116L4.1906 45.208L4.21341 45.2493C4.23479 45.289 4.25418 45.3263 4.27215 45.3566C4.28926 45.386 4.30352 45.4122 4.31578 45.4336L4.31407 45.4302L4.31635 45.4348C4.34344 45.4822 4.37594 45.5431 4.42157 45.6191L4.42499 45.6263L4.42784 45.6301L4.44694 45.6619C4.46633 45.6932 4.48487 45.7235 4.50169 45.7497C4.52508 45.7875 4.54646 45.8194 4.563 45.8466L4.56642 45.8529C4.59123 45.8907 4.62573 45.9465 4.6725 46.0179L4.67563 46.0227L4.67906 46.028L4.69845 46.0554C4.71784 46.0843 4.73637 46.1117 4.75376 46.1365C4.78399 46.1793 4.81193 46.2176 4.83361 46.2496L4.84045 46.2585L4.84188 46.2611C4.86469 46.2924 4.89947 46.3417 4.94852 46.4081L4.95308 46.4143L4.96734 46.4336C4.99129 46.4656 5.01467 46.4961 5.03606 46.524C5.07142 46.5678 5.1025 46.6077 5.1293 46.6419L5.12474 46.6361C5.15411 46.6724 5.19403 46.7244 5.24878 46.7898L5.25306 46.7954L5.25563 46.7994L5.25078 46.7925L5.25648 46.7997L5.26076 46.805L5.25933 46.804L5.26133 46.8064L5.26218 46.8069C5.28785 46.8379 5.31408 46.8682 5.34031 46.899C5.37624 46.9416 5.41075 46.9808 5.44154 47.0155L5.43955 47.0131C5.46892 47.0467 5.5057 47.0886 5.5499 47.1381L5.55959 47.1487C5.59324 47.1855 5.62518 47.2197 5.65654 47.2531C5.69703 47.2959 5.73581 47.3361 5.77174 47.3734L5.784 47.3864C5.80853 47.4116 5.83733 47.4417 5.87611 47.48L5.89322 47.4973L5.89265 47.4975L5.89835 47.5035L5.90861 47.5127C5.9665 47.5699 6.01868 47.6192 6.07086 47.6683L6.12618 47.722L6.12675 47.7227L6.12903 47.7246L6.13331 47.7282L6.13189 47.7275C6.15783 47.7515 6.18949 47.7821 6.22884 47.8172L6.24138 47.829V47.8297L6.24366 47.8312L6.25136 47.8377L6.24937 47.8362C6.3121 47.8935 6.37369 47.9461 6.43557 47.9993C6.46123 48.021 6.48633 48.045 6.51227 48.0659L6.51513 48.0683C6.52853 48.0792 6.55847 48.1056 6.60694 48.1465L6.61635 48.1537L6.64401 48.178C6.71844 48.2396 6.79628 48.2988 6.87327 48.3587L6.89095 48.3736L6.89608 48.377L6.89779 48.3784L6.90065 48.3808C6.92061 48.3955 6.95197 48.4203 6.99788 48.4552L7.00273 48.4595C7.10031 48.5322 7.19917 48.6038 7.29928 48.6741L7.30499 48.6781L7.36087 48.7171L7.3988 48.7433L7.39766 48.7421L7.45469 48.7804C7.53824 48.8367 7.62007 48.891 7.69906 48.942L7.7213 48.9569L7.73157 48.9632C7.76179 48.9822 7.78403 48.9959 7.7963 49.0041L7.81169 49.0142L7.82367 49.0212C7.84648 49.0351 7.86929 49.0486 7.89325 49.0628C7.96311 49.1054 8.03297 49.147 8.1034 49.1881L8.16271 49.2232L8.16956 49.2273L8.24284 49.2694L8.24597 49.2706L8.28333 49.2908C8.35462 49.3315 8.43104 49.3714 8.50632 49.4123C8.54624 49.4337 8.58216 49.4539 8.62351 49.4751L8.68767 49.508L8.72388 49.5258L8.74755 49.5379C8.86532 49.5973 8.97567 49.6509 9.0769 49.6981L9.08659 49.7022L9.14932 49.731L9.15389 49.7339C9.29361 49.7967 9.42677 49.8542 9.55252 49.9071L9.5742 49.9158L9.64292 49.9437L9.64349 49.943C9.71164 49.9709 9.77751 49.9949 9.84509 50.0204C9.87645 50.0329 9.90867 50.0452 9.94033 50.057C9.97854 50.0714 10.0185 50.0887 10.0567 50.1024L10.0892 50.1142L10.0986 50.1174L10.114 50.1231C10.1796 50.1465 10.2434 50.1664 10.3079 50.1886L10.341 50.1991C10.4134 50.2237 10.4861 50.2497 10.5582 50.2725L10.5754 50.2778L10.629 50.2942C10.6629 50.3043 10.6977 50.3134 10.7316 50.3237L10.7638 50.3326C10.8673 50.3639 10.9711 50.3957 11.0766 50.4241L11.1014 50.4305L11.1106 50.433L11.114 50.4346C11.2762 50.4772 11.4382 50.5164 11.5999 50.5532L11.6062 50.5547L11.6335 50.5604L11.6241 50.5588C11.767 50.5903 11.9078 50.6175 12.047 50.6439H12.0487L12.1003 50.6555L12.1545 50.6651C12.2874 50.6896 12.4225 50.7093 12.5591 50.7293L12.5976 50.7382L12.6934 50.7505C12.7756 50.7618 12.8577 50.7707 12.9398 50.7801L12.9752 50.8614L12.9766 50.8652C13.202 51.3844 13.4449 51.898 13.7051 52.4055C17.5563 61.3958 28.2021 68.3652 40.35 69.6394C52.4987 70.9136 65.4664 64.102 70.7496 54.8973C70.9689 54.558 71.1773 54.2138 71.3747 53.8651C71.8985 53.41 72.3054 52.938 72.5757 52.4377C72.8991 51.8498 73.008 51.2309 72.9778 50.7245Z" fill="#59473D"/>
<path d="M62.2968 24.3398L62.2979 24.3422L62.2985 24.3432L62.2968 24.3398ZM8.69093 49.5085L8.69008 49.508H8.68951L8.69093 49.5085ZM5.25062 46.7894L5.25119 46.7906V46.7898L5.25062 46.7896M5.25233 46.7922L5.25319 46.7925L5.25119 46.7906L5.25233 46.7922ZM3.64125 43.9131L3.64011 43.909L3.63925 43.908L3.64125 43.9131ZM3.50494 43.4582L3.50466 43.4568L3.50409 43.4561L3.50494 43.4582ZM5.56371 47.1502L5.56771 47.1545L5.562 47.1487L5.55887 47.1451L5.56371 47.1504" fill="#59473D"/>
<path d="M62.5894 5.79413C62.0011 5.24231 61.3204 4.82664 60.5813 4.51873C60.4451 4.47474 60.307 4.43494 60.1673 4.39942C60.0989 4.36093 60.0287 4.32485 59.9577 4.28949C59.3039 4.07829 58.6121 3.94045 57.9007 3.86323C54.3711 3.48004 50.3528 4.56396 48.0548 5.33372C47.9288 5.37822 47.8019 5.42272 47.6733 5.46842C47.1381 5.6612 46.6067 5.86128 46.0793 6.0686C46.0297 6.08784 45.98 6.10805 45.9307 6.12777L45.0254 5.24038L44.7659 4.98588L44.6538 4.87523L42.2851 2.55537L42.0795 2.35378L41.8249 2.10482L41.7795 2.11323L41.1094 2.24121L40.3358 2.38891C39.9081 2.22148 39.4 2.10193 38.8117 2.04011C37.6335 1.91502 36.1376 2.03 34.4335 2.40165C32.7292 2.77066 30.8184 3.39128 28.7919 4.24282C24.7385 5.94399 20.226 8.56671 15.8838 11.9084C14.4131 13.0385 13.0027 14.2232 11.6568 15.4589C10.4444 16.5697 9.29309 17.7267 8.20647 18.9265C6.10407 21.2543 4.4927 23.5183 3.4636 25.5377C2.77639 26.8834 2.35124 28.1198 2.19583 29.178C2.0812 29.9473 2.11114 30.6201 2.26398 31.176C2.31331 31.3557 2.3789 31.5193 2.45275 31.6754C2.60645 32.004 2.80833 32.2871 3.06896 32.5293L5.69603 34.8513L5.97775 35.0998L5.99629 35.083C6.07613 35.0048 6.15854 34.9266 6.24152 34.8504L6.26404 34.8302C6.29427 34.8025 6.32563 34.7768 6.35614 34.7506C6.43485 34.6806 6.5148 34.6116 6.59595 34.5437C6.64643 34.5016 6.69747 34.4612 6.74908 34.4203C6.79898 34.3806 6.84774 34.3392 6.8985 34.3C6.92131 34.2824 6.94498 34.2663 6.96836 34.2488C7.02168 34.2079 7.077 34.1677 7.13232 34.1273C7.25437 34.0378 7.37882 33.9507 7.50558 33.8661L7.52611 33.8526C7.662 33.763 7.79985 33.6756 7.93957 33.5904C8.02711 33.5379 8.11636 33.4857 8.20647 33.4347C8.26065 33.4042 8.31397 33.3737 8.36844 33.3438C8.46054 33.2933 8.55464 33.2442 8.64874 33.1959C8.70377 33.1677 8.75709 33.1398 8.81156 33.1131C8.91022 33.0643 9.0103 33.0181 9.10982 32.9719C9.16314 32.9479 9.21561 32.9226 9.26893 32.8988L9.32882 32.8723L9.33794 32.8678C9.42263 32.831 9.50903 32.7971 9.59514 32.7619C9.64362 32.7427 9.68953 32.7222 9.73886 32.7035C9.81072 32.6746 9.88428 32.6481 9.95757 32.6212C10.0209 32.5979 10.0839 32.5741 10.1483 32.5514L10.2193 32.525C10.3814 32.4692 10.5451 32.4166 10.7101 32.3672C10.7623 32.3513 10.8164 32.3378 10.8689 32.3224C10.9259 32.3066 10.9824 32.2905 11.0403 32.2751L11.107 32.2558C11.1412 32.2469 11.1754 32.2371 11.2094 32.2286C11.2798 32.2111 11.3511 32.1954 11.4215 32.1781L11.474 32.1661C11.5558 32.1464 11.6374 32.1271 11.7201 32.1096C11.7971 32.0927 11.874 32.0788 11.9522 32.0639C12.048 32.045 12.1441 32.027 12.2405 32.01C12.281 32.0035 12.3209 31.996 12.3614 31.9893C12.4016 31.983 12.4435 31.978 12.484 31.9717C12.5786 31.9573 12.6742 31.9438 12.7691 31.9313C12.8535 31.9207 12.9374 31.9113 13.0215 31.9015C13.0896 31.8943 13.1564 31.8863 13.2239 31.8798C13.2516 31.8774 13.279 31.8757 13.3066 31.8738C13.3377 31.8707 13.3674 31.8668 13.3984 31.8647L13.4492 31.8623C13.8188 31.8498 14.189 31.8552 14.5579 31.8784L14.6192 31.8818C15.0264 31.9099 15.4663 31.9643 15.9286 32.047C16.0389 32.067 16.149 32.0862 16.263 32.1096C16.2864 32.073 16.3104 32.0355 16.3343 31.9989C16.579 31.6285 16.8265 31.2674 17.0769 30.9126C18.5397 28.8436 20.1088 27.0349 21.7105 25.4579C22.2432 24.9328 22.793 24.4202 23.3592 23.9208C25.6564 21.8968 27.9672 20.3207 30.0802 19.1038C30.533 18.8431 30.9919 18.5901 31.4566 18.3448C32.0326 18.0413 32.6178 17.7504 33.2117 17.4726C33.6419 17.2714 34.0768 17.0776 34.5162 16.8912C35.1307 16.6301 35.7545 16.3849 36.3868 16.1561C36.7692 16.0181 37.155 15.8869 37.5439 15.7625C37.37 15.7471 37.1932 15.7353 37.0124 15.7274C36.8442 15.7199 36.6731 15.717 36.5 15.7168L36.3697 15.717C35.8448 15.7212 35.3209 15.7576 34.8022 15.826C34.6842 15.8417 34.5656 15.8592 34.4452 15.8792C35.2731 15.518 36.1378 15.2205 37.029 14.9903C37.5853 14.846 38.1291 14.733 38.6509 14.6468C39.7092 14.4747 40.7851 14.3916 41.8628 14.3986C42.2318 14.4017 42.5714 14.4152 42.8768 14.4344C43.9435 14.5018 44.5865 14.6396 44.5865 14.6396C44.4351 14.4597 44.2444 14.3029 44.0371 14.166C43.6592 13.9192 43.2244 13.7424 42.8428 13.6171C42.6176 13.5428 42.3878 13.4787 42.1545 13.4251C42.3341 13.3991 42.5118 13.377 42.6869 13.3573C42.8699 13.3363 43.0534 13.3183 43.2372 13.3034C44.5366 13.2017 45.8463 13.2517 47.1295 13.452C48.3476 13.6421 49.081 13.9004 49.081 13.9004C48.9074 13.6149 48.6499 13.3712 48.3682 13.1653C48.1708 13.0225 47.9604 12.8932 47.7388 12.7785C48.9883 13.0222 50.2021 13.3814 51.3582 13.8497C51.6006 13.9483 51.8399 14.0521 52.0759 14.1612C52.6725 14.4356 53.0021 14.6329 53.0021 14.6329C52.9023 14.337 52.6998 14.0573 52.4637 13.8064C52.4044 13.7433 52.344 13.6813 52.2824 13.6223L52.3109 13.6334C52.3329 13.6394 52.3796 13.6517 52.4449 13.6705C52.4923 13.6839 52.5496 13.7005 52.6183 13.7214C52.8778 13.8011 53.2747 13.9348 53.7412 14.1304L53.8091 14.159C53.8724 14.1864 53.9371 14.2143 54.0018 14.2432C54.1621 14.3144 54.3275 14.3935 54.4963 14.4782C54.746 14.6036 54.9894 14.7377 55.2257 14.8804C55.4036 14.9879 55.5804 15.1036 55.7561 15.2273C55.9386 15.3561 56.1145 15.4914 56.2833 15.6329C56.3167 15.6615 56.3512 15.6894 56.3848 15.719C56.5097 15.8272 56.63 15.9412 56.7464 16.0596C56.972 16.2863 57.1754 16.5281 57.3546 16.7827C57.5798 17.1017 57.7617 17.4411 57.897 17.7944C57.9044 17.8151 57.9112 17.8365 57.9178 17.857C58.0184 17.7658 58.1958 17.602 58.4268 17.3783C60.3444 15.5188 65.9917 9.47935 62.5894 5.79413Z" fill="#141C26"/>
<path d="M71.028 50.9145L71.0292 50.9141C71.0292 50.9141 71.0953 50.496 70.8333 50.1219L70.8276 50.1116C70.8125 50.0901 70.7964 50.0693 70.7791 50.049L70.762 50.0274C70.7313 49.9939 70.6981 49.962 70.6627 49.9319C70.5948 49.8715 70.5181 49.8185 70.4346 49.7741C70.3862 49.7475 70.3358 49.7235 70.2838 49.7022C70.1352 49.6423 69.957 49.5968 69.7454 49.5706C69.5718 49.5515 69.3965 49.5451 69.2216 49.5513C69.1438 49.5533 69.0671 49.5547 68.9829 49.5614L68.945 49.5634L68.959 49.6064L68.9963 49.7248L69.0154 49.7897C69.0428 49.8821 69.0759 49.9997 69.1095 50.1325C69.0995 50.1582 69.0879 50.1834 69.0748 50.208L69.0619 50.2338C68.9655 50.4229 68.7035 50.8592 68.1198 51.4269C68.0203 51.5231 67.9102 51.6242 67.7922 51.7281C66.164 53.1473 62.6395 55.1684 55.2257 56.299C52.7098 56.5985 50.3901 56.6149 48.4089 56.407C45.4793 56.0996 43.2842 55.3101 42.2631 54.2483C42.1747 54.1572 42.0935 54.0631 42.0162 53.9686C41.9594 53.8991 41.9052 53.8282 41.8537 53.7559C41.8354 53.7295 41.8186 53.7028 41.8009 53.6765C41.3816 53.0487 41.1679 52.338 41.1816 51.6174C41.1958 50.7784 41.5058 49.9757 42.031 49.3587C42.457 48.8583 43.0233 48.4802 43.686 48.3055C44.0211 48.2171 44.3728 48.1822 44.7231 48.2026C44.7967 48.2069 44.8942 48.2156 45.0157 48.2283C45.2592 48.2541 45.5994 48.2945 46.0165 48.3397L46.1557 48.3546C47.5472 48.5004 49.7628 48.6769 52.4421 48.5389C57.317 48.2885 63.7331 46.9945 69.5592 42.5624L69.5752 42.5451V42.5374C69.5946 42.1662 69.5358 41.4958 68.9798 40.9743C68.8774 40.8789 68.7637 40.7927 68.6405 40.7169C68.5651 40.6697 68.4864 40.6263 68.4049 40.587C68.3194 40.5471 68.241 40.5067 68.1654 40.466C68.0674 40.4148 67.9718 40.3604 67.8788 40.3029L67.866 40.2873C67.8267 40.2353 67.7847 40.1848 67.7445 40.1329C66.2333 38.202 64.1514 37.0812 63.321 36.5677C62.9295 36.3247 62.6803 36.2141 62.6803 36.2141C60.8824 35.2903 60.6187 34.9839 60.7869 32.475C60.8468 31.5714 60.9629 30.3839 61.0823 28.7741C61.0971 28.573 61.1063 28.3717 61.11 28.1703C61.1111 28.1234 61.1123 28.0779 61.1123 28.032C61.1144 27.8524 61.1113 27.6728 61.1032 27.4934L61.1012 27.4436L61.0963 27.3904C61.0835 27.2013 61.0657 27.0124 61.043 26.824C61.026 26.69 61.0047 26.5564 60.9791 26.4234C60.9666 26.3575 60.9512 26.294 60.9369 26.2298C60.9211 26.1589 60.904 26.0883 60.8856 26.0179C60.8686 25.9502 60.8503 25.8827 60.8306 25.8156L60.8297 25.8151L60.8306 25.8144V25.8151C60.8063 25.7343 60.7784 25.6575 60.7518 25.581C60.7422 25.5529 60.7345 25.5238 60.7236 25.4968C60.7136 25.4709 60.7028 25.4473 60.6931 25.4213L60.6828 25.3958L60.6523 25.3222L60.6515 25.3174C60.6264 25.258 60.6001 25.2002 60.5748 25.1442L60.5668 25.1254L60.5408 25.072L60.5095 25.0064L60.5023 24.9939V24.9922C60.4482 24.8858 60.392 24.7826 60.3321 24.6859L60.2845 24.6145C60.2183 24.5227 60.1485 24.4328 60.0752 24.3448L60.0467 24.3088L60.011 24.2691C59.9597 24.2099 59.9084 24.1522 59.8571 24.098L59.7866 24.0235C59.7197 23.956 59.6506 23.89 59.5796 23.8255V23.825L59.5782 23.8152L59.5762 23.8031L59.5722 23.7863L59.5671 23.7622L59.5628 23.7384L59.5537 23.6999L59.5494 23.6764L59.5368 23.6222L59.5317 23.603C59.5001 23.4708 59.4651 23.3392 59.4268 23.2083L59.4239 23.1967C59.4119 23.1585 59.4 23.1183 59.3874 23.0769L59.382 23.0613C59.3682 23.0169 59.354 22.9726 59.3392 22.9285L59.3375 22.9256C59.2995 22.8118 59.259 22.6985 59.216 22.5859C59.2021 22.5475 59.1852 22.507 59.1684 22.4671C59.1354 22.3823 59.1008 22.2979 59.0643 22.2141C59.0427 22.1643 59.019 22.115 58.9959 22.064C58.9587 21.9821 58.9196 21.9008 58.8784 21.8203C58.8519 21.7659 58.822 21.7123 58.7937 21.6574C58.7192 21.5187 58.6403 21.3817 58.5571 21.2466C58.5044 21.1632 58.4496 21.0807 58.3928 20.9993C58.3557 20.9468 58.3195 20.8939 58.2822 20.8412C58.2166 20.753 58.1459 20.6666 58.0746 20.5802C58.0387 20.5377 58.005 20.4932 57.9674 20.4503C57.9343 20.4133 57.8969 20.3789 57.8624 20.3428C57.7803 20.2543 57.6993 20.1658 57.6095 20.0825L57.5987 20.0734L57.5476 20.0325C57.4322 19.9276 57.3107 19.8256 57.1801 19.7318L57.1567 19.715C57.0989 19.6738 57.0398 19.634 56.9793 19.5957L56.9731 19.5913L56.9514 19.5781C56.8995 19.5452 56.8459 19.5136 56.7917 19.4829L56.7632 19.466L56.7746 19.474C56.7176 19.4384 56.6138 19.3922 56.4775 19.3409C56.426 19.3219 56.3742 19.3035 56.3221 19.2856C56.0415 19.1906 55.6622 19.0831 55.2128 18.9823C55.1849 18.9755 55.1552 18.9698 55.1279 18.964C54.5757 18.8431 54.0148 18.7528 53.4486 18.6936C53.3768 18.6859 53.3029 18.6828 53.2305 18.6763C53.2014 18.6739 53.1715 18.672 53.1421 18.6693C52.7933 18.639 52.4428 18.6241 52.0922 18.6248L52.0714 18.6255C51.6168 18.6291 51.1617 18.6609 50.7277 18.7333C50.8298 18.5907 51.1056 18.4329 51.3822 18.301C51.6062 18.1955 51.8365 18.0998 52.0722 18.0143C51.8752 18.0268 51.673 18.0504 51.4717 18.0778C51.407 18.0869 51.3414 18.0944 51.2761 18.1045C51.2333 18.111 51.1914 18.1182 51.1495 18.1247L51.1124 18.1312C51.0768 18.1372 51.0426 18.1435 51.0075 18.1497C49.9941 18.3318 49.0189 18.6397 48.4765 18.8264C48.3995 18.8529 48.3322 18.8769 48.2729 18.8978L48.2387 18.9099C48.1845 18.9154 48.1295 18.9224 48.0753 18.9279L48.0767 18.9265C48.4765 18.3027 49.0665 17.9667 49.5159 17.7891C49.5943 17.7581 49.6693 17.7302 49.7371 17.7086C49.7628 17.7001 49.7839 17.6948 49.8064 17.6876C49.8714 17.6684 49.9268 17.6532 49.9747 17.6414C50.0808 17.6155 50.1498 17.6039 50.1498 17.6039C50.1013 17.6049 50.0565 17.6102 50.0095 17.6123C49.9695 17.6147 49.9299 17.6176 49.8906 17.6203C49.8321 17.6239 49.7728 17.6265 49.7152 17.6311C49.6807 17.634 49.6445 17.6347 49.6097 17.6376C48.4893 17.7401 47.493 18.0605 46.639 18.4586C46.0905 18.7148 45.5709 19.0129 45.0869 19.3491C44.9692 19.3698 44.8489 19.391 44.7268 19.4129C43.5018 19.6334 42.1023 19.9175 40.6309 20.2986C40.075 20.4422 39.5231 20.5967 38.9757 20.7619C38.2141 20.9939 37.4627 21.2488 36.7227 21.5261C34.4635 22.3769 32.2373 23.5063 30.3667 25.0218C30.2995 25.0764 30.2287 25.1276 30.1626 25.1832C30.0004 25.3211 29.8416 25.462 29.6864 25.6056C29.6222 25.6638 29.5549 25.7186 29.4919 25.7778C29.4129 25.8514 29.3399 25.9308 29.2629 26.0063C28.9097 26.35 28.5778 26.7089 28.2686 27.0816C28.0356 27.3644 27.8164 27.6553 27.6116 27.9533L27.5863 27.9889C27.1465 28.6334 26.7742 29.3091 26.4736 30.0081C26.273 30.4747 26.1028 30.9501 25.9638 31.4324L25.9472 31.4863C25.8276 31.9147 25.731 32.3475 25.6578 32.7833C25.6433 32.8711 25.6267 32.958 25.6128 33.0472C25.5797 33.27 25.5537 33.497 25.5315 33.7273C25.511 33.9403 25.4952 34.1536 25.4842 34.3671L25.4816 34.4172C25.4767 34.523 25.4696 34.6279 25.467 34.7354C25.4642 34.8578 25.4653 34.9827 25.4653 35.1075C25.4648 35.1364 25.4648 35.1653 25.4645 35.1948C25.4649 35.4417 25.4711 35.6884 25.483 35.935L25.4862 35.975C25.499 36.2242 25.5198 36.4784 25.5455 36.7351C25.5563 36.8414 25.5669 36.9482 25.5797 37.0562C25.5828 37.0822 25.5848 37.1087 25.5877 37.1354C25.5951 37.1953 25.6036 37.2556 25.6116 37.3155C25.649 37.5991 25.6943 37.8878 25.7471 38.1806C25.761 38.2619 25.7742 38.3429 25.7898 38.4247C25.8383 38.6809 25.8911 38.939 25.9512 39.2017C25.9512 39.2017 25.8968 38.8649 25.9307 38.3694C25.9393 38.2551 25.9518 38.1334 25.97 38.0035C26.012 37.7221 26.0833 37.4118 26.2047 37.0913C26.2347 37.0132 26.2683 36.9343 26.3045 36.8549C26.3194 36.8202 26.3376 36.7863 26.3541 36.7514C26.426 36.605 26.5067 36.458 26.6042 36.3124C26.6262 36.4159 26.6498 36.5191 26.6744 36.6235L26.6824 36.6572L26.6815 36.7043L26.6789 36.9112C26.6754 37.2974 26.6807 37.6836 26.6949 38.0697C26.7285 39.002 26.8238 40.1273 27.0627 41.0862C27.0627 41.0862 27.1075 39.3427 27.4574 39.1454C27.4574 39.1454 28.069 42.3741 28.6368 43.5929C28.7103 43.7507 28.7836 43.8768 28.8543 43.9554L28.8398 43.6353L28.7588 41.8408C28.7588 41.8408 28.7625 41.7736 28.7702 41.6563C29.2189 42.4284 29.7048 43.1848 30.2267 43.9234C30.3787 44.1383 30.5336 44.354 30.6944 44.5722C29.6428 45.3523 28.6704 46.4562 27.9724 47.7763C27.8597 47.9896 27.7554 48.2059 27.6596 48.4249C27.4892 48.819 27.346 49.2212 27.2307 49.6293C27.2181 49.6731 27.205 49.7168 27.1939 49.7611C27.158 49.8956 27.124 50.0305 27.0941 50.1676L27.0918 50.1804C27.0625 50.3175 27.0365 50.4563 27.0134 50.5958C27.006 50.6408 26.9992 50.6863 26.9932 50.731C26.9778 50.8306 26.9646 50.9307 26.9532 51.031C26.9467 51.082 26.9418 51.1327 26.9364 51.1842C26.9266 51.2859 26.9186 51.3878 26.9125 51.4897C26.8993 51.6842 26.893 51.8789 26.8934 52.0737L26.8939 52.093C26.8939 52.208 26.8979 52.3227 26.9031 52.4384C26.9088 52.5551 26.917 52.6718 26.927 52.7894L26.9307 52.8365L26.9327 52.8659C26.9458 53.0085 26.9641 53.1512 26.9846 53.2953C26.9912 53.341 27.0006 53.3864 27.0077 53.4324C27.0237 53.5305 27.0394 53.6291 27.0596 53.7285C27.0699 53.7831 27.0827 53.8391 27.0938 53.8938C27.1143 53.9847 27.134 54.0751 27.1571 54.1663C27.1719 54.2247 27.1879 54.2832 27.2027 54.3419C27.268 54.5821 27.3427 54.8204 27.4269 55.0563C27.4477 55.115 27.4688 55.1744 27.491 55.2334C27.5264 55.3262 27.5643 55.4198 27.6022 55.5124C27.6256 55.5682 27.6476 55.624 27.6718 55.6798C27.7166 55.7828 27.7645 55.8857 27.8138 55.9889C27.8358 56.0351 27.8557 56.0811 27.8788 56.1275C28.0297 56.4331 28.1956 56.7332 28.3761 57.0272C28.4041 57.0712 28.434 57.1162 28.4614 57.1609C28.5281 57.266 28.5963 57.3714 28.667 57.4767C28.7046 57.5316 28.7437 57.5864 28.783 57.642C28.8498 57.7368 28.9171 57.8323 28.9883 57.9273C29.0317 57.986 29.0773 58.0452 29.1224 58.1041C29.2412 58.2578 29.3635 58.4096 29.4891 58.5595C29.5649 58.6504 29.6436 58.7413 29.7249 58.8318C29.7773 58.8914 29.8295 58.9511 29.8837 59.0107C29.9693 59.1038 30.0565 59.1967 30.1466 59.2893C30.2002 59.3461 30.2538 59.4028 30.3091 59.4591C30.4095 59.5601 30.5139 59.6617 30.6194 59.7622C30.669 59.8098 30.7158 59.8575 30.7662 59.9049C30.9245 60.053 31.0865 60.2007 31.2558 60.3482L31.2553 60.3472C31.1715 60.2413 31.0942 60.1318 31.0237 60.0191L31.0189 60.0124C30.9944 59.9736 30.9684 59.9306 30.9419 59.8854L30.9333 59.8729C30.904 59.8227 30.8754 59.7722 30.8478 59.7213L30.8418 59.7122C30.8094 59.6525 30.7782 59.5923 30.7483 59.5318C30.4991 59.0261 30.2567 58.3242 30.288 57.5414C30.3844 57.6504 30.4828 57.7555 30.5803 57.8626C30.7747 58.1954 30.976 58.5253 31.184 58.8522C31.4529 59.2724 31.7354 59.6863 32.0312 60.0934C32.4073 60.607 32.8204 61.1213 33.2473 61.5649L33.2465 61.5644C33.2445 61.5615 32.7497 60.69 32.5841 60.1182C32.5376 59.9575 32.5156 59.8195 32.5396 59.7326L32.6593 59.8365C32.699 59.8714 32.7392 59.9053 32.7791 59.9402C32.8581 60.0287 32.9579 60.1403 33.0694 60.264L33.1258 60.3265C33.1812 60.3879 33.2382 60.4516 33.2998 60.5192L33.3032 60.5231L33.5256 60.766C34.222 61.5211 35.1481 62.486 35.8088 63.0161C36.0292 63.1929 36.2197 63.3216 36.3626 63.3772L35.4093 61.9365C37.5667 63.4176 46.4691 65.3191 55.2394 63.1965C56.3157 62.9375 57.3705 62.6189 58.3971 62.2428C59.0328 62.0114 59.6565 61.7572 60.2665 61.4809L60.3561 61.4388C60.7919 61.2372 61.2203 61.0244 61.6407 60.8007L61.6501 60.7958C62.5207 60.3333 63.3545 59.8233 64.1463 59.2691L64.1477 59.2686L64.1497 59.2672C64.1788 59.2455 64.2087 59.2243 64.2392 59.2027C64.7283 58.8426 65.1974 58.4635 65.645 58.0668C66.1998 57.5736 66.7207 57.054 67.2053 56.5107L67.2395 56.4732C67.3539 56.344 67.4659 56.2158 67.5746 56.0883L67.6054 56.051C67.6407 56.0075 67.6721 55.9658 67.7072 55.9228C67.8575 55.7417 68.0044 55.5585 68.1477 55.3734L68.2492 55.2411C68.322 55.1446 68.3918 55.0479 68.4617 54.9524C68.5144 54.8776 68.5686 54.8028 68.6197 54.7287C68.6767 54.6479 68.7337 54.567 68.7893 54.4867C68.8863 54.3428 68.9815 54.198 69.0748 54.0523C69.111 53.9953 69.1452 53.9397 69.1803 53.8834C69.2504 53.7713 69.3188 53.6607 69.3839 53.5512C69.4141 53.5 69.4446 53.449 69.474 53.3982L69.5005 53.3501C69.5805 53.2141 69.6585 53.0773 69.7346 52.9397L69.7488 52.9109C69.9978 52.7175 70.2246 52.5048 70.4264 52.2756C70.452 52.2467 70.4785 52.2178 70.5019 52.1892C70.8929 51.7134 71.0209 51.2924 71.028 50.9145ZM18.6366 45.5659C18.6286 45.5322 18.6218 45.4988 18.6149 45.4656L18.6218 45.4632C18.5183 44.978 18.4395 44.4894 18.3857 43.9985C18.3823 43.9629 18.3763 43.9285 18.3717 43.8931C18.2742 43.9189 18.1641 44.0278 18.0535 44.1767C18.0102 44.2359 17.9693 44.2962 17.9309 44.3576C17.6343 44.8274 17.3674 45.4786 17.3674 45.4786C17.3896 45.2549 17.4166 45.0316 17.4481 44.8087C17.4518 44.7822 17.4564 44.7565 17.4604 44.7298C17.4932 44.4988 17.5314 44.266 17.5719 44.0346C17.5764 44.0064 17.5818 43.9788 17.5867 43.9513C17.634 43.6903 17.6842 43.431 17.7364 43.1809L17.7564 43.0846L17.7603 43.068L17.7786 42.981C17.8282 42.747 17.8805 42.5135 17.9354 42.2805C17.9739 42.1162 18.0116 41.9606 18.0475 41.8143L18.0589 41.7672C18.0643 41.7441 18.0703 41.7231 18.0754 41.7012C18.0811 41.6798 18.0863 41.6577 18.0914 41.6353L18.0934 41.6276C18.1028 41.5911 18.1128 41.5535 18.1213 41.5189L18.1242 41.5093C18.1322 41.4749 18.1402 41.4458 18.1482 41.4138C18.1616 41.3633 18.1741 41.3118 18.1866 41.2646L18.1901 41.2517C18.2003 41.2134 18.2097 41.1747 18.2192 41.1398C18.2328 41.0898 18.2454 41.0436 18.2562 40.9998L18.2568 40.9986L18.2576 40.9974C18.2639 40.9724 18.2702 40.9507 18.2765 40.9276L18.2776 40.9235C18.2836 40.9026 18.289 40.8807 18.2944 40.8622L18.3275 40.7422L18.3358 40.7138L18.3389 40.7032L18.3483 40.6695L18.3549 40.6462L18.3563 40.6428L18.3517 40.6459L18.2919 40.6917C18.2391 40.7313 18.1849 40.7701 18.1356 40.8139L18.0811 40.8644C18.0218 40.9199 17.9658 40.978 17.9135 41.0383L17.8855 41.0679C17.8199 41.1449 17.7592 41.2257 17.7013 41.3077V41.3079L17.6936 41.3188V41.3192L17.67 41.3558C17.6566 41.3758 17.644 41.3965 17.6312 41.4167C17.5978 41.4681 17.563 41.5182 17.5331 41.5699L17.5317 41.5718L17.5305 41.5735L17.5291 41.5778L17.5174 41.5973L17.5066 41.617C17.4608 41.6974 17.4176 41.7787 17.3768 41.861C17.2473 42.1215 17.1378 42.3889 17.0489 42.6613C17.0107 42.7775 16.9839 42.8684 16.9719 42.9129L16.9713 42.9167L16.9628 42.9466L16.9662 42.9117C16.9708 42.8427 16.9802 42.7739 16.9867 42.7053C16.9993 42.561 17.0101 42.4159 17.0289 42.2723C17.0441 42.1515 17.066 42.0334 17.0863 41.9136L17.1062 41.8015C17.1148 41.7462 17.1239 41.6909 17.1347 41.6361C17.1441 41.5848 17.1575 41.5343 17.169 41.484L17.1695 41.4802L17.1824 41.4236L17.1861 41.4083C17.2046 41.3224 17.2237 41.2366 17.2434 41.1509L17.2536 41.1083L17.2556 41.1003L17.2707 41.04C17.2765 41.0147 17.285 40.9902 17.291 40.9664C17.3152 40.8759 17.3412 40.7874 17.3663 40.6981L17.3706 40.6832C17.3891 40.6168 17.4062 40.55 17.4264 40.4845L17.427 40.4817L17.429 40.4773L17.4353 40.4581C17.4766 40.3234 17.5225 40.1918 17.5684 40.0592L17.5924 39.9861C17.6012 39.9618 17.6087 39.9358 17.6181 39.9113C17.6936 39.6963 17.7749 39.4839 17.861 39.2763L17.8721 39.2503C17.9463 39.074 18.021 38.9003 18.0994 38.7292L18.1079 38.7098C18.1436 38.6345 18.1801 38.5623 18.2149 38.4877L18.2206 38.4769C18.2742 38.366 18.3269 38.2544 18.3817 38.1471V38.1454L18.3828 38.144L18.3891 38.1305C18.4036 38.1036 18.4376 38.0384 18.4903 37.9422L18.4912 37.9405L18.4983 37.9275C18.5188 37.8895 18.5382 37.8527 18.5582 37.8142L18.6551 37.6323L18.6839 37.5797L18.6848 37.5773L19.2403 36.7349C19.2634 36.6992 19.2862 36.6641 19.3084 36.6285L19.3201 36.6117L19.3486 36.5684C19.4091 36.4748 19.4698 36.3808 19.5291 36.2898L19.7838 35.9028C19.9469 35.655 20.0866 35.445 20.1716 35.3183C20.2007 35.2747 20.2296 35.2311 20.2582 35.1874L20.2622 35.1811H20.2617L20.2597 35.1797L20.2545 35.1763C20.2329 35.1641 20.0643 35.0659 19.7866 34.924C19.1771 34.6152 18.541 34.3454 17.8835 34.1169C17.6385 34.0317 17.3902 33.9532 17.139 33.8817C17.0723 33.8632 17.0021 33.848 16.9348 33.8302C16.7181 33.7725 16.4957 33.7208 16.2682 33.6751L16.2551 33.6726C16.0988 33.6409 15.9437 33.6079 15.7834 33.5829C15.6575 33.5621 15.5309 33.5439 15.4039 33.5283C15.3429 33.5211 15.2798 33.517 15.2185 33.5124L15.0358 33.4968C14.8634 33.4844 14.6906 33.4767 14.5176 33.4737C14.4338 33.472 14.3497 33.4699 14.2659 33.4713C13.8895 33.4785 13.5199 33.5067 13.1569 33.5502L13.0908 33.5589C12.4463 33.6397 11.8139 33.7782 11.2042 33.9719C11.0003 34.0368 10.799 34.1066 10.6014 34.1831C10.5453 34.2053 10.4895 34.228 10.434 34.2512C10.3665 34.2788 10.2977 34.306 10.231 34.3349C9.63795 34.5932 9.07972 34.9048 8.56603 35.2644L8.54778 35.2771C7.98047 35.6738 7.47147 36.1264 7.03165 36.6252C6.91544 36.7558 6.80399 36.8895 6.69746 37.0259C6.49651 37.2853 6.31388 37.5545 6.15054 37.832C6.09294 37.9299 6.03648 38.0283 5.98373 38.1284C5.97375 38.1471 5.96491 38.1668 5.9555 38.1858C5.61224 38.8479 5.37971 39.547 5.26459 40.263C5.24119 40.4066 5.22245 40.5508 5.20841 40.6953L5.20357 40.7496C5.18117 41.0079 5.17356 41.267 5.18075 41.5259C5.18104 41.5492 5.1836 41.5711 5.18446 41.594C5.18874 41.7056 5.19387 41.8167 5.20357 41.9274L5.21098 41.9856L5.21925 42.0621C5.2278 42.1496 5.23778 42.2365 5.24976 42.3219L5.25404 42.3416V42.3471L5.25461 42.3481C5.26174 42.3911 5.27057 42.4347 5.2777 42.478C5.29111 42.5557 5.30394 42.6339 5.31905 42.7108C5.33131 42.7669 5.34585 42.8217 5.35869 42.8773C5.37579 42.949 5.39091 43.0216 5.41058 43.0928C5.42627 43.1515 5.4448 43.209 5.46191 43.266L5.47332 43.3064L5.49214 43.3666L5.50611 43.4123L5.52322 43.4678C5.54289 43.5275 5.56599 43.5872 5.5868 43.6463C5.60962 43.7089 5.63157 43.7729 5.6561 43.8342C5.67948 43.8953 5.70628 43.9552 5.73223 44.0156L5.75333 44.0637C5.77101 44.107 5.78897 44.1508 5.80951 44.1936C5.83745 44.2547 5.86825 44.3155 5.89819 44.3766C5.92585 44.432 5.95293 44.4883 5.98173 44.5433C5.99827 44.5749 6.01595 44.6059 6.03306 44.6359C6.05103 44.6665 6.06699 44.6975 6.08382 44.7278C6.14808 44.844 6.21684 44.9583 6.28998 45.0706C6.32135 45.1192 6.351 45.1678 6.38265 45.2159C6.42485 45.2792 6.46991 45.3415 6.51468 45.4043C6.54604 45.448 6.57684 45.4925 6.60935 45.537C6.65697 45.6008 6.7063 45.6624 6.75648 45.7247C6.7887 45.7663 6.82093 45.8072 6.85372 45.8474C6.90647 45.9106 6.96122 45.9734 7.01625 46.0362C7.10482 46.1387 7.19725 46.2387 7.29342 46.3362C7.32478 46.3694 7.35615 46.4028 7.39008 46.4353C7.45338 46.499 7.51925 46.5613 7.58598 46.6236C7.61677 46.653 7.64814 46.6821 7.68065 46.7117C7.74965 46.7752 7.82094 46.8377 7.89365 46.8981C7.92502 46.9238 7.95439 46.9503 7.98576 46.976C8.09013 47.0615 8.19632 47.1454 8.30427 47.2276C8.38582 47.2885 8.4688 47.3486 8.55349 47.4078C8.58143 47.427 8.60823 47.447 8.63618 47.466C8.724 47.5266 8.81354 47.5846 8.90365 47.6426C8.92931 47.6582 8.95611 47.6755 8.98121 47.6917C9.07559 47.7496 9.17026 47.8062 9.26664 47.8617L9.33821 47.9029C9.43801 47.9591 9.53924 48.0145 9.64133 48.0672L9.70662 48.1004C9.81213 48.155 9.92049 48.2057 10.0291 48.2567L10.085 48.2832C10.1976 48.3346 10.3117 48.3832 10.4261 48.4309L10.4751 48.4506C10.5931 48.4987 10.7121 48.5444 10.833 48.5887L10.8757 48.6043C10.9992 48.6478 11.1238 48.6895 11.2493 48.7299L11.2843 48.7405C11.4141 48.7804 11.5433 48.8184 11.6753 48.8542L11.7021 48.8614C11.7662 48.8783 11.8321 48.8927 11.8968 48.9088C11.9673 48.9262 12.0377 48.9449 12.109 48.961L12.129 48.9658C12.2687 48.9964 12.4093 49.0245 12.551 49.05L12.5632 49.0529C12.5638 49.0532 12.5652 49.0532 12.5655 49.0536C12.7087 49.0791 12.8535 49.1022 12.9995 49.1215L13.0061 49.1234C13.4601 49.185 13.9189 49.2182 14.3788 49.2228C14.4897 49.2244 14.6006 49.2254 14.7121 49.2244C15.0785 49.2143 15.4438 49.186 15.8062 49.1398C16.2882 49.078 16.7649 48.9896 17.2331 48.8752C18.07 48.6702 18.8094 48.3965 19.2514 48.1184C19.2514 48.1184 18.9605 47.0321 18.7147 45.9284C18.6881 45.8077 18.662 45.6868 18.6366 45.5659Z" fill="#856249"/>
<path d="M56.761 19.4656L56.762 19.4662L56.7595 19.4636L56.761 19.4656Z" fill="#856249"/>
<path d="M39.5311 4.7576L39.4248 3.65732L40.0778 2.43774L40.3358 2.38891C39.9081 2.22148 39.4 2.10193 38.8117 2.04011C37.6335 1.91502 36.1376 2.03 34.4335 2.40165C32.7292 2.77066 30.8184 3.39128 28.7919 4.24282C24.7385 5.94399 20.226 8.56671 15.8838 11.9084C14.4131 13.0385 13.0027 14.2232 11.6568 15.4589C10.4444 16.5697 9.29309 17.7267 8.20647 18.9265C6.10407 21.2543 4.4927 23.5183 3.4636 25.5377C2.77639 26.8834 2.35124 28.1198 2.19583 29.178C2.0812 29.9473 2.11114 30.6201 2.26398 31.176C2.31331 31.3557 2.3789 31.5193 2.45275 31.6754C2.60645 32.004 2.80833 32.2871 3.06896 32.5293L5.69603 34.8513L5.97775 35.0998L5.99629 35.083C6.07613 35.0048 6.15854 34.9266 6.24152 34.8504L6.26404 34.8302C6.29427 34.8025 6.32563 34.7768 6.35614 34.7506C6.43485 34.6806 6.5148 34.6116 6.59595 34.5437C6.64643 34.5016 6.69747 34.4612 6.74908 34.4203C6.79898 34.3806 6.84774 34.3392 6.8985 34.3C6.92131 34.2824 6.94498 34.2663 6.96836 34.2488C7.02168 34.2079 7.077 34.1677 7.13232 34.1273C7.25437 34.0378 7.37882 33.9507 7.50558 33.8661L7.52611 33.8526C7.662 33.763 7.79985 33.6756 7.93957 33.5904C8.02711 33.5379 8.11636 33.4857 8.20647 33.4347C8.26065 33.4042 8.31397 33.3737 8.36844 33.3438C8.46054 33.2933 8.55464 33.2442 8.64874 33.1959C8.70377 33.1677 8.75709 33.1398 8.81156 33.1131C8.91022 33.0643 9.0103 33.0181 9.10982 32.9719C9.16314 32.9479 9.21561 32.9226 9.26893 32.8988L9.32882 32.8723L9.33252 32.8632C9.96156 31.3942 10.9037 29.7996 12.125 28.1381C13.6254 26.0973 15.5425 23.9568 17.8188 21.8251C19.3075 20.433 20.8761 19.1033 22.5189 17.8406C24.7146 16.1524 26.9524 14.6461 29.16 13.3411C30.5797 12.4995 32.0463 11.7155 33.5547 10.9919C33.691 10.927 33.8276 10.8594 33.963 10.7964C34.3396 10.6208 34.7193 10.4501 35.1019 10.2842C35.8926 9.93792 36.6972 9.61467 37.5143 9.31506L37.129 8.92489L37.0652 8.86066L33.8749 5.62406L33.8995 3.65227L33.8695 3.62365L35.7869 3.14135L39.5311 4.7576Z" fill="#3478AD"/>
<path d="M71.028 50.9145L71.0292 50.9141C71.0292 50.9141 71.0953 50.496 70.8333 50.1219L70.8276 50.1116C70.8125 50.0901 70.7964 50.0693 70.7791 50.049L70.762 50.0274C70.7313 49.9939 70.6981 49.962 70.6627 49.9319C70.5948 49.8715 70.5181 49.8185 70.4346 49.7741C70.3862 49.7475 70.3358 49.7235 70.2838 49.7022C70.1352 49.6423 69.957 49.5968 69.7454 49.5706C69.5718 49.5515 69.3965 49.5451 69.2216 49.5513C69.1438 49.5533 69.0671 49.5547 68.9829 49.5614L68.945 49.5634L68.959 49.6064L68.9963 49.7248L69.0154 49.7897C69.0428 49.8821 69.0759 49.9997 69.1095 50.1325C69.0995 50.1582 69.0879 50.1834 69.0748 50.208L69.0619 50.2338C68.9655 50.4229 68.7035 50.8592 68.1198 51.4269C68.0203 51.5231 67.9102 51.6242 67.7922 51.7281C66.164 53.1473 62.6395 55.1684 55.2257 56.299C52.7098 56.5985 50.3901 56.6148 48.4089 56.407C45.4793 56.0996 43.2842 55.3101 42.2631 54.2483C42.1747 54.1571 42.0935 54.0631 42.0162 53.9686C41.9594 53.8991 41.9052 53.8282 41.8537 53.7559C41.8354 53.7295 41.8186 53.7028 41.8009 53.6765C41.3816 53.0487 41.1679 52.338 41.1816 51.6174C41.1958 50.7784 41.5058 49.9757 42.031 49.3587C42.457 48.8583 43.0233 48.4802 43.686 48.3055C44.0211 48.2171 44.3728 48.1822 44.7231 48.2026C44.7967 48.2069 44.8942 48.2156 45.0157 48.2283C45.2592 48.2541 45.5994 48.2945 46.0165 48.3397L46.1557 48.3546C47.5472 48.5004 49.7628 48.6769 52.4421 48.5389C57.317 48.2885 63.7331 46.9945 69.5592 42.5624L69.5752 42.5451V42.5374C69.5946 42.1662 69.5358 41.4958 68.9798 40.9743C68.8774 40.8789 68.7637 40.7927 68.6405 40.7169C68.5651 40.6697 68.4864 40.6263 68.4049 40.587C68.3194 40.5471 68.241 40.5067 68.1654 40.466C68.0674 40.4148 67.9718 40.3604 67.8788 40.3029L67.866 40.2873C67.8267 40.2353 67.7847 40.1848 67.7445 40.1329C66.2332 38.202 64.1514 37.0812 63.321 36.5677C62.9295 36.3247 62.6803 36.2141 62.6803 36.2141C60.8824 35.2903 60.6187 34.9839 60.7869 32.4749C60.8468 31.5714 60.9629 30.3838 61.0823 28.7741C61.0971 28.573 61.1063 28.3717 61.11 28.1703C61.1111 28.1234 61.1123 28.0779 61.1123 28.032C61.1144 27.8524 61.1113 27.6728 61.1031 27.4934L61.1012 27.4436L61.0963 27.3904C61.0835 27.2013 61.0657 27.0124 61.043 26.824C61.026 26.69 61.0047 26.5564 60.9791 26.4234C60.9666 26.3575 60.9512 26.294 60.9369 26.2298C60.9211 26.1589 60.904 26.0883 60.8856 26.0179C60.8686 25.9502 60.8503 25.8827 60.8305 25.8156L60.8297 25.8151L60.8305 25.8144V25.8151C60.8063 25.7343 60.7784 25.6575 60.7518 25.581C60.7422 25.5529 60.7345 25.5238 60.7236 25.4968C60.7136 25.4709 60.7028 25.4473 60.6931 25.4213L60.6828 25.3958L60.6523 25.3222L60.6515 25.3174C60.6264 25.258 60.6001 25.2002 60.5748 25.1442L60.5668 25.1254L60.5408 25.072L60.5095 25.0064L60.5023 24.9938V24.9922C60.4482 24.8858 60.392 24.7826 60.3321 24.6859L60.2845 24.6145C60.2183 24.5227 60.1485 24.4328 60.0752 24.3448L60.0467 24.3088L60.011 24.2691C59.9597 24.2099 59.9084 24.1522 59.8571 24.098L59.7866 24.0235C59.7197 23.956 59.6506 23.89 59.5796 23.8255V23.825C59.4972 23.7514 59.4116 23.6804 59.323 23.6121C59.2274 23.5617 59.1291 23.515 59.0284 23.4724C58.9968 23.4584 58.9645 23.4478 58.9317 23.4358C58.8682 23.4102 58.8034 23.3868 58.7376 23.3656C58.6996 23.3535 58.6629 23.3439 58.6255 23.3331C58.5675 23.317 58.509 23.3021 58.4501 23.2886C58.4116 23.2808 58.3729 23.2736 58.3341 23.2672C58.2399 23.2499 58.1446 23.2377 58.0486 23.2306C57.9928 23.2258 57.9363 23.2239 57.8804 23.222C57.8429 23.2208 57.8053 23.2205 57.7678 23.221C57.7103 23.2219 57.6528 23.2243 57.5955 23.2282C57.5605 23.2306 57.5248 23.233 57.49 23.2361L57.413 23.2458C57.378 23.2511 57.3429 23.2542 57.3067 23.2602C57.2762 23.2645 57.2451 23.2689 57.2146 23.2742C57.1433 23.2867 57.0726 23.3021 57.0024 23.3191L56.9406 23.3326C56.7552 23.3793 56.5699 23.4392 56.3868 23.5094L56.3255 23.534C56.2542 23.5616 56.1829 23.5907 56.1113 23.6215L56.0292 23.6588C55.9645 23.6872 55.8998 23.7172 55.8356 23.7478L55.7478 23.7911C55.6842 23.8224 55.6203 23.8541 55.5567 23.8873L55.4703 23.9323C55.4042 23.9672 55.3375 24.0033 55.2707 24.0398L55.1972 24.0805C55.1222 24.1219 55.0466 24.1642 54.9713 24.2073L54.9263 24.2327C54.8419 24.2813 54.7558 24.3314 54.6696 24.3814L54.6668 24.3836L54.6537 24.3903H54.6545C54.4943 24.4832 54.3346 24.5782 54.1726 24.673C54.0375 24.7526 53.8992 24.8322 53.7606 24.9113L53.6939 24.9501C53.5541 25.0292 53.413 25.1064 53.2713 25.1834L53.2 25.2209C53.0574 25.2955 52.9146 25.3684 52.7703 25.4374L52.6944 25.473C52.5496 25.5415 52.4025 25.6065 52.2533 25.6679L52.1792 25.6972C52.0286 25.7574 51.8752 25.8139 51.7198 25.8632L51.6556 25.8839C51.4954 25.9341 51.3325 25.978 51.1674 26.0155L51.1241 26.0239C50.9493 26.0619 50.7745 26.0922 50.5946 26.1129C50.294 26.145 49.9913 26.1606 49.6884 26.1596C49.1909 26.16 48.694 26.1285 48.2022 26.0653C48.0352 26.0436 47.8687 26.0198 47.7026 25.9938C47.6433 25.9842 47.5843 25.9767 47.5258 25.9671C47.0924 25.8959 46.6561 25.811 46.217 25.7218C46.0322 25.6847 45.848 25.6472 45.6627 25.6092C45.3653 25.5481 45.0647 25.4889 44.7639 25.4312C44.7043 25.4194 44.647 25.4069 44.5865 25.3958L44.5894 25.3956L44.4619 25.373C44.3952 25.3607 44.3285 25.3487 44.2623 25.3359L44.071 25.3039L44.0376 25.2981L44.0154 25.2945L43.8397 25.2652C43.7034 25.2435 43.566 25.2229 43.4285 25.2036C43.3878 25.1976 43.3467 25.1933 43.3065 25.188C43.2048 25.1743 43.1029 25.1616 43.0008 25.1497C42.9495 25.1435 42.897 25.1394 42.8463 25.1341L42.8349 25.1331C42.7459 25.1234 42.6569 25.1147 42.5677 25.1071C42.5086 25.1023 42.4488 25.0982 42.3903 25.0934C42.3638 25.0918 42.337 25.0905 42.3096 25.0886C42.2492 25.0848 42.1876 25.0804 42.1263 25.0776C41.9748 25.0688 41.823 25.0638 41.6712 25.0626C41.6432 25.0626 41.6153 25.0622 41.5873 25.0617C41.5617 25.0614 41.5351 25.0605 41.5092 25.0605C41.3927 25.0607 41.2763 25.0629 41.1599 25.0672C41.1297 25.0679 41.0977 25.0677 41.0666 25.0696C40.9173 25.0751 40.7682 25.0845 40.6195 25.0978C40.5808 25.1011 40.542 25.1062 40.5026 25.1093C40.4057 25.1189 40.3087 25.13 40.2118 25.1425L40.1681 25.1478C40.1151 25.1545 40.0612 25.163 40.0085 25.1709C39.9087 25.1863 39.81 25.2024 39.7102 25.2207C39.6526 25.2315 39.5953 25.2421 39.538 25.2544C39.4396 25.2741 39.3404 25.2965 39.2411 25.32C39.0753 25.3581 38.9115 25.402 38.7501 25.4516C38.7013 25.466 38.6529 25.4788 38.6041 25.4949C38.445 25.5442 38.2879 25.5979 38.133 25.6561C36.8975 26.2563 35.8362 27.0753 34.9924 28.0305C34.7113 28.349 34.4543 28.6821 34.2231 29.0279C33.9796 29.3936 33.7652 29.7727 33.5815 30.1625C33.4366 30.4671 33.3105 30.7778 33.204 31.0935C33.1971 31.1144 33.1914 31.136 33.1846 31.1575C33.0363 31.6135 32.9314 32.0789 32.8709 32.549C32.8538 32.6787 32.8384 32.8081 32.8281 32.938C32.8027 33.2874 32.8032 33.6379 32.8296 33.9873C32.831 34.0188 32.8344 34.051 32.837 34.0823C32.8441 34.1718 32.8478 34.2603 32.8592 34.35C32.8897 34.5988 32.9317 34.8477 32.991 35.0945C33.0118 35.1859 33.0412 35.2716 33.0671 35.3596C33.0916 35.4438 33.1136 35.5304 33.1404 35.6124V35.612C33.3382 36.212 33.6264 36.7881 33.9978 37.3264C35.344 39.2883 37.5573 40.4617 39.161 41.0912C39.7979 41.3275 40.4492 41.535 41.1123 41.7128C41.1123 41.7128 41.0803 41.7296 41.031 41.7578C40.6204 41.8461 40.2138 41.9474 39.8123 42.0616C39.4423 42.1666 39.0766 42.2822 38.7159 42.408C37.6751 42.7717 36.4934 43.2891 35.4467 44.0038C35.3155 44.0928 35.1869 44.1852 35.0606 44.2804C34.8451 44.4449 34.6392 44.6181 34.4438 44.7995C34.4213 44.8202 34.3973 44.8399 34.3759 44.8609C34.346 44.8888 34.3166 44.9179 34.2875 44.9463C34.2131 45.0196 34.1393 45.0944 34.068 45.1709L33.9824 45.2628C33.8883 45.3677 33.7962 45.474 33.7095 45.5844C33.624 45.6927 33.5422 45.8045 33.4646 45.9178C32.8441 46.8314 32.4922 47.9255 32.6003 49.23L32.6034 49.2165L32.6054 49.2069L32.6169 49.1583L32.6203 49.1475C32.6248 49.1277 32.6317 49.1042 32.6388 49.0787L32.6431 49.0623C32.6516 49.0327 32.6616 48.9986 32.673 48.9615L32.6807 48.9375L32.7229 48.8085H32.7238C32.7389 48.7628 32.758 48.7135 32.7771 48.6628L32.7894 48.6317C32.8096 48.58 32.8319 48.5259 32.8561 48.4703L32.8689 48.4436C32.8914 48.3907 32.9165 48.3368 32.9436 48.281L32.9565 48.2553C32.9858 48.1951 33.0183 48.1331 33.052 48.07L33.0737 48.0306C33.1099 47.9661 33.1467 47.9007 33.1877 47.8345L33.1931 47.8266C33.2544 47.7277 33.3234 47.6269 33.397 47.5254C33.4247 47.4869 33.4512 47.4489 33.482 47.4104L33.5054 47.3782L33.5059 47.3775C33.6234 47.2283 33.7514 47.0851 33.8892 46.9488C33.9091 46.9291 33.9305 46.9094 33.9519 46.8894C34.0024 46.8413 34.0551 46.7932 34.1099 46.746C34.1324 46.7273 34.1544 46.7076 34.1769 46.689C34.2519 46.6272 34.3286 46.5668 34.4101 46.5084L34.417 46.5029C34.417 46.5029 33.0084 49.1908 33.6209 51.3223C33.6209 51.3223 33.6203 51.3158 33.6203 51.3045V51.2912C33.6197 51.2792 33.6197 51.2657 33.6197 51.2475C33.6197 51.2441 33.6197 51.2398 33.6191 51.2359C33.6197 51.2143 33.6197 51.1888 33.6209 51.1585C33.6209 51.1546 33.6209 51.1512 33.6214 51.1467C33.6214 51.1154 33.6243 51.08 33.626 51.0408L33.6268 51.0295C33.6331 50.9308 33.6422 50.8322 33.6542 50.7339L33.6559 50.7209C33.6622 50.6673 33.6713 50.6117 33.6807 50.5532C33.6813 50.5482 33.6827 50.5429 33.6836 50.5376C33.6941 50.4758 33.7064 50.4115 33.7207 50.3454L33.7241 50.3298L33.7315 50.2966V50.2951C33.7486 50.2206 33.7694 50.1445 33.7928 50.0676C33.7945 50.0628 33.7957 50.0572 33.7971 50.0522C33.821 49.9769 33.8467 49.9006 33.8755 49.8241L33.9023 49.7539L33.9217 49.7051V49.7041C33.9485 49.6413 33.9776 49.5783 34.0092 49.5157L34.0141 49.5056L34.0144 49.5052C34.0712 49.3941 34.1363 49.2862 34.2094 49.1821C34.2679 49.0989 34.3292 49.0173 34.3987 48.9401L34.4016 48.9363C34.4016 48.9363 34.3212 49.5982 34.342 50.3858C34.3491 50.5983 34.3631 50.8105 34.3839 51.0223C34.384 51.0226 34.3841 51.0229 34.3842 51.0233C34.3429 51.5837 34.3544 52.146 34.4187 52.705C34.5308 53.6734 34.8037 54.6979 35.2841 55.7765C35.2841 55.7765 34.8436 54.5363 35.478 53.2957C35.5353 53.4088 35.5966 53.5223 35.6605 53.6368C35.7127 54.0049 35.8008 54.5274 35.9291 55.1028C36.0517 56.0616 36.5955 58.9376 38.9118 60.9606C38.9118 60.9606 38.0364 60.0023 38.1724 58.7548C38.2636 58.9186 38.3543 59.0665 38.4404 59.1938C38.8368 59.8194 39.6249 60.9847 40.4841 61.7924C40.4841 61.7924 39.7869 60.6534 39.9494 60.4081C39.9494 60.4081 42.2224 62.7924 42.9455 63.025L41.9948 61.6953L41.9734 61.6563C45.2763 63.6767 49.8079 64.4267 55.4127 63.1099C56.4264 62.8694 57.4229 62.5799 58.3971 62.2428C59.0328 62.0114 59.6565 61.7572 60.2665 61.4809L60.3561 61.4388C60.7919 61.2372 61.2203 61.0244 61.6407 60.8007L61.6501 60.7958C62.5207 60.3333 63.3545 59.8233 64.1462 59.2691L64.1477 59.2686L64.1497 59.2671C64.1788 59.2455 64.2087 59.2243 64.2392 59.2027C64.7283 58.8426 65.1974 58.4635 65.645 58.0668C66.1998 57.5736 66.7207 57.054 67.2053 56.5107L67.2395 56.4732C67.3539 56.344 67.4659 56.2158 67.5746 56.0883L67.6054 56.051C67.6407 56.0075 67.6721 55.9658 67.7072 55.9228C67.8575 55.7417 68.0044 55.5585 68.1477 55.3734L68.2492 55.2411C68.322 55.1446 68.3918 55.0479 68.4617 54.9524C68.5144 54.8776 68.5686 54.8028 68.6197 54.7287C68.6767 54.6479 68.7337 54.567 68.7893 54.4867C68.8863 54.3428 68.9815 54.198 69.0748 54.0523C69.111 53.9953 69.1452 53.9397 69.1803 53.8834C69.2504 53.7713 69.3188 53.6607 69.3839 53.5512C69.4141 53.5 69.4446 53.449 69.474 53.3982L69.5005 53.3501C69.5804 53.2141 69.6585 53.0773 69.7346 52.9397L69.7488 52.9109C69.9978 52.7175 70.2246 52.5048 70.4264 52.2756C70.452 52.2467 70.4785 52.2178 70.5019 52.1892C70.8929 51.7134 71.0209 51.2924 71.028 50.9145ZM18.3717 43.8931C18.2742 43.9189 18.1641 44.0278 18.0535 44.1767C18.0102 44.2359 17.9693 44.2962 17.9309 44.3576C17.6343 44.8274 17.3674 45.4786 17.3674 45.4786C17.3896 45.2549 17.4166 45.0316 17.4481 44.8087C17.4518 44.7822 17.4564 44.7565 17.4604 44.7298C17.4932 44.4988 17.5314 44.266 17.5719 44.0346C17.5764 44.0064 17.5818 43.9788 17.5867 43.9513C17.634 43.6903 17.6842 43.431 17.7364 43.1809L17.7564 43.0846L17.7603 43.068L17.7786 42.981C17.8282 42.747 17.8805 42.5135 17.9354 42.2805C17.9739 42.1162 18.0116 41.9606 18.0475 41.8143L18.0589 41.7671C18.0643 41.7441 18.0703 41.7231 18.0754 41.7012C18.0811 41.6798 18.0863 41.6577 18.0914 41.6353L18.0934 41.6276C18.1028 41.5911 18.1128 41.5535 18.1213 41.5189L18.1242 41.5093C18.1322 41.4749 18.1402 41.4458 18.1481 41.4138C18.1615 41.3633 18.1741 41.3118 18.1866 41.2646L18.1901 41.2516C18.2003 41.2134 18.2097 41.1747 18.2191 41.1398C18.2328 41.0898 18.2454 41.0436 18.2562 40.9998L18.2568 40.9986L18.2576 40.9974C18.2639 40.9724 18.2702 40.9507 18.2765 40.9276L18.2776 40.9235C18.2836 40.9026 18.289 40.8807 18.2944 40.8622L18.3275 40.7422L18.3358 40.7138L18.3389 40.7032L18.3483 40.6695L18.3549 40.6462L18.3563 40.6428L18.3517 40.6459L18.2919 40.6916C18.2391 40.7313 18.1849 40.7701 18.1356 40.8139L18.0811 40.8644C18.0218 40.9199 17.9658 40.9779 17.9135 41.0383L17.8855 41.0679C17.8199 41.1448 17.7592 41.2257 17.7013 41.3077V41.3079L17.6936 41.3188V41.3192L17.67 41.3558C17.6566 41.3758 17.644 41.3965 17.6312 41.4167C17.5978 41.4681 17.563 41.5182 17.5331 41.5699L17.5317 41.5718L17.5305 41.5735L17.5291 41.5778L17.5174 41.5973L17.5066 41.617C17.4608 41.6974 17.4176 41.7787 17.3768 41.861C17.2473 42.1215 17.1378 42.3889 17.0489 42.6613C17.0107 42.7775 16.9839 42.8684 16.9719 42.9129L16.9713 42.9167L16.9628 42.9466L16.9662 42.9117C16.9708 42.8426 16.9802 42.7738 16.9867 42.7053C16.9993 42.561 17.0101 42.4159 17.0289 42.2723C17.0441 42.1515 17.066 42.0334 17.0863 41.9136L17.1062 41.8015C17.1148 41.7462 17.1239 41.6909 17.1347 41.6361C17.1441 41.5848 17.1575 41.5343 17.1689 41.484L17.1695 41.4802L17.1824 41.4236L17.1861 41.4082C17.2046 41.3224 17.2237 41.2366 17.2434 41.1509L17.2536 41.1083L17.2556 41.1003L17.2707 41.04C17.2764 41.0147 17.285 40.9902 17.291 40.9664C17.3152 40.8759 17.3412 40.7874 17.3663 40.6981L17.3705 40.6832C17.3891 40.6168 17.4062 40.55 17.4264 40.4845L17.427 40.4816L17.429 40.4773L17.4353 40.4581C17.4766 40.3234 17.5225 40.1918 17.5684 40.0592L17.5924 39.9861C17.6012 39.9618 17.6086 39.9358 17.6181 39.9113C17.6936 39.6963 17.7749 39.4838 17.861 39.2763L17.8721 39.2503C17.9463 39.074 18.021 38.9003 18.0994 38.7292L18.1079 38.7098C18.1436 38.6345 18.1801 38.5623 18.2149 38.4877L18.2206 38.4769C18.2742 38.366 18.3269 38.2544 18.3817 38.1471V38.1454L18.3828 38.144L18.3891 38.1305C18.4036 38.1036 18.4376 38.0384 18.4903 37.9422L18.4912 37.9405L18.4983 37.9275C18.5188 37.8895 18.5382 37.8527 18.5582 37.8142L18.6551 37.6323L18.6839 37.5797C18.6383 37.5587 18.5907 37.5402 18.5436 37.5202L18.5171 37.5092L18.4672 37.488C18.1603 37.3641 17.84 37.2656 17.5106 37.1938L17.4578 37.1827C17.1168 37.1111 16.7681 37.0684 16.417 37.0553C16.3079 37.0513 16.1986 37.0503 16.0894 37.0521C15.924 37.055 15.7615 37.0668 15.6012 37.0817C15.5499 37.0873 15.5005 37.0947 15.4509 37.1002C15.3717 37.1103 15.2932 37.1233 15.2143 37.1354C15.1837 37.1409 15.1515 37.144 15.121 37.1498C14.9587 37.1786 14.7981 37.2142 14.64 37.2564C14.5915 37.2693 14.543 37.2797 14.496 37.2936C14.3548 37.3355 14.2165 37.3812 14.0808 37.432C14.0266 37.4522 13.9767 37.4755 13.924 37.4964C13.8621 37.5222 13.8008 37.5498 13.74 37.576L13.6773 37.6032C13.5487 37.6643 13.4231 37.7296 13.3006 37.799C13.2288 37.839 13.1589 37.8794 13.0908 37.9217C13.0488 37.9487 13.0089 37.9766 12.9667 38.004C12.8 38.1168 12.6414 38.2378 12.4917 38.3665C12.401 38.4423 12.3126 38.5195 12.2299 38.6005L12.1877 38.641C12.1441 38.685 12.1036 38.7314 12.0628 38.7774L12.0562 38.7838L12.0511 38.7899C12.0235 38.8207 11.9935 38.8502 11.9664 38.8818L11.9556 38.894L11.945 38.9063L11.9442 38.9075L11.9436 38.9082C11.7766 39.1061 11.6293 39.3153 11.5031 39.5336C11.4845 39.5649 11.468 39.5971 11.4503 39.6289C11.3914 39.7363 11.3376 39.8456 11.2889 39.9565C11.2698 40.0008 11.2484 40.0436 11.2305 40.0884L11.2296 40.0888V40.0891L11.229 40.09C11.1845 40.2033 11.1452 40.3183 11.1115 40.4369L11.0987 40.4807L11.0865 40.5365L11.0847 40.5413C11.0619 40.6272 11.0397 40.7128 11.0237 40.7999C11.0155 40.8427 11.0103 40.8865 11.0038 40.9298L11.0015 40.9421C10.9949 40.9882 10.9895 41.0349 10.9838 41.0816C10.979 41.1165 10.973 41.1521 10.9695 41.1877C10.9576 41.325 10.9524 41.4633 10.9561 41.6038C10.9596 41.7121 10.971 41.8189 10.9829 41.9257L10.9838 41.9317L10.9881 41.9815C10.9949 42.0404 11.0072 42.0986 11.0174 42.1571C11.1281 42.8133 11.4167 43.4392 11.8609 43.986C12.2608 44.4871 12.7769 44.9146 13.3782 45.2426C13.7225 45.4289 14.0915 45.5805 14.4777 45.6941C14.8513 45.8055 15.2413 45.8866 15.648 45.9241C15.7392 45.932 15.8319 45.9378 15.9246 45.9433C16.0634 45.951 16.2017 45.9561 16.3432 45.9537C16.4732 45.9513 16.5998 45.9376 16.7278 45.9272C16.8008 45.9214 16.8761 45.921 16.9482 45.9123C17.1322 45.8907 17.3124 45.8591 17.49 45.8219L17.5299 45.8144C17.6041 45.798 17.6725 45.7754 17.7441 45.7567C17.966 45.6998 18.183 45.6303 18.3937 45.5486L18.4393 45.5315C18.4977 45.5103 18.5585 45.4899 18.6149 45.4656L18.6218 45.4632C18.5183 44.978 18.4395 44.4894 18.3857 43.9985C18.3823 43.9629 18.3763 43.9285 18.3717 43.8931Z" fill="#FCE9C9"/>
<path d="M40.3486 5.11048L40.4459 5.14636L40.4442 5.13687L40.3486 5.11048Z" fill="#4D94C3"/>
<path d="M69.0155 49.7895C69.0089 49.7679 69.0025 49.7462 68.9964 49.7245L68.959 49.6064C68.7993 49.1693 68.5971 48.828 68.4172 48.5848C68.1871 48.2706 67.9963 48.1155 67.9963 48.1155C68.0784 47.8757 68.1375 47.6308 68.1731 47.383C68.3117 46.3871 67.9958 45.6119 67.7426 45.1745C67.7069 45.1127 67.6692 45.0517 67.6294 44.9917C67.4469 45.1012 67.2626 45.2089 67.0782 45.3141C63.578 47.3135 59.6384 48.5964 55.3728 49.1477C52.433 49.5278 49.3405 49.5634 46.1249 49.2331L46.1811 49.2468C46.1811 49.2468 44.2429 49.4705 43.7174 51.0389L43.7502 51.055L43.5899 52.1069C43.6467 53.5312 44.4186 54.4227 45.2971 54.8918C46.2104 55.1857 47.3131 55.4097 48.5375 55.5381C50.6687 55.7616 53.1147 55.7024 55.6118 55.3681L55.6243 55.3664L55.6372 55.3649C58.958 54.9894 63.6455 53.4935 66.9963 51.5626C67.7597 51.1224 68.454 50.661 69.0468 50.1837L69.0691 50.1655L69.1093 50.1325C69.0803 50.0177 69.049 49.9034 69.0155 49.7895Z" fill="white"/>
<path d="M62.6803 36.2143C60.8825 35.2906 60.6187 34.9839 60.787 32.4749C60.8468 31.5714 60.9629 30.3838 61.0824 28.7741C61.0971 28.573 61.1063 28.3717 61.11 28.1703C61.1112 28.1234 61.1123 28.0779 61.1123 28.032C61.1144 27.8524 61.1114 27.6728 61.1032 27.4934L61.1012 27.4436L61.0963 27.3904C61.0835 27.2013 61.0657 27.0124 61.043 26.8239C61.0261 26.69 61.0048 26.5564 60.9791 26.4234C60.9666 26.3575 60.9512 26.294 60.9369 26.2298C60.9211 26.1589 60.904 26.0883 60.8856 26.0179C60.8687 25.9502 60.8503 25.8827 60.8306 25.8156L60.8297 25.8151L60.8306 25.8144C60.5768 25.4931 60.2675 25.2057 59.913 24.9616L59.8431 24.9176L59.8289 24.9087L59.7764 24.8755L59.7584 24.8642C59.7071 24.8305 59.6529 24.798 59.5996 24.768C59.5425 24.7358 59.4846 24.7047 59.4259 24.6746C58.8944 24.4018 58.3019 24.2306 57.6677 24.1512C57.3084 24.1075 56.9451 24.0919 56.5824 24.1045C56.4096 24.1098 56.2346 24.1226 56.0586 24.1401C55.5827 24.1881 55.1128 24.2718 54.6546 24.3903C54.4943 24.4832 54.3346 24.5782 54.1727 24.6729C54.0375 24.7526 53.8992 24.8322 53.7606 24.9113L53.6939 24.9501C53.5542 25.0292 53.413 25.1064 53.2713 25.1834L53.2 25.2209C53.0574 25.2955 52.9146 25.3684 52.7703 25.4374L52.6944 25.473C52.5497 25.5415 52.4026 25.6065 52.2533 25.6679L52.1792 25.6972C52.0286 25.7573 51.8752 25.8139 51.7198 25.8632L51.6556 25.8839C51.4954 25.9341 51.3325 25.978 51.1675 26.0155L51.1241 26.0239C50.9493 26.0619 50.7745 26.0922 50.5946 26.1129C50.2941 26.145 49.9914 26.1606 49.6884 26.1595C49.1909 26.16 48.6941 26.1285 48.2022 26.0653C48.0353 26.0436 47.8687 26.0198 47.7026 25.9938C47.6433 25.9842 47.5843 25.9767 47.5258 25.9671C47.0924 25.8959 46.6561 25.811 46.217 25.7217C46.0322 25.6847 45.848 25.6472 45.6627 25.6092C45.3653 25.5481 45.0647 25.4889 44.7639 25.4312C44.7043 25.4194 44.647 25.4069 44.5865 25.3958C44.3342 25.4073 44.081 25.4283 43.8266 25.4552L43.7713 25.461C43.0178 25.5454 42.2764 25.6941 41.5586 25.9048C41.5181 25.9166 41.4773 25.9265 41.4371 25.939C41.3227 25.9734 41.209 26.0111 41.0949 26.0489C40.9423 26.0999 40.7898 26.1531 40.6387 26.2096C39.5768 26.605 38.5457 27.1429 37.5867 27.8268C37.2034 28.101 36.8388 28.3932 36.4946 28.7022C35.9822 29.1626 35.518 29.6596 35.1071 30.1876C35.0845 30.2164 35.0623 30.2453 35.0409 30.2746C34.827 30.5537 34.6294 30.8413 34.4487 31.1365C34.3842 31.2409 34.3192 31.3458 34.2599 31.4512L34.2479 31.4716C34.0574 31.8127 33.8893 32.1625 33.7443 32.5192C33.7361 32.5401 33.7289 32.5613 33.7218 32.5822C33.7013 32.6337 33.6856 32.6852 33.6665 32.7362C33.5414 33.0673 33.4373 33.4038 33.3545 33.7443C33.3466 33.7814 33.3366 33.8184 33.3292 33.8555C33.3058 33.9603 33.2835 34.0652 33.2636 34.1701C33.1953 34.5521 33.1562 34.9373 33.1467 35.3235C33.1433 35.4198 33.139 35.5167 33.1404 35.612C33.3382 36.212 33.6264 36.7881 33.9978 37.3263C35.344 39.2883 37.5573 40.4617 39.161 41.0912C39.7979 41.3275 40.4492 41.535 41.1123 41.7128L41.1294 41.7375H41.1303L41.1331 41.7366L41.1767 41.7084C41.2631 41.6531 41.3492 41.5973 41.4385 41.5425C41.4699 41.522 41.5021 41.5028 41.534 41.4828C41.6583 41.4059 41.784 41.3307 41.911 41.2572C42.0065 41.2009 42.1049 41.1436 42.2053 41.0881C42.2383 41.0688 42.272 41.051 42.3056 41.0323C42.4069 40.9757 42.5098 40.9192 42.6153 40.8634L42.7194 40.8083L43.0427 40.6418C43.0801 40.6231 43.1183 40.6041 43.1557 40.5848C43.2652 40.5314 43.3758 40.4766 43.4893 40.4222C43.5303 40.4037 43.5711 40.3842 43.6119 40.3645C43.7234 40.3116 43.8372 40.2591 43.9532 40.2069C43.9988 40.1865 44.0448 40.1656 44.0918 40.1451C44.2059 40.0941 44.3211 40.0436 44.4383 39.9936L44.5894 39.9296C44.706 39.8805 44.8241 39.8319 44.9427 39.7836C44.9989 39.7607 45.0562 39.7386 45.1129 39.7157C45.2295 39.6693 45.3476 39.6231 45.4676 39.5772C45.5298 39.5529 45.5951 39.5295 45.6593 39.5052C45.777 39.461 45.8952 39.4176 46.014 39.3753C46.0844 39.3489 46.1568 39.3239 46.2281 39.2989C46.3445 39.258 46.4622 39.2171 46.5817 39.1762C46.6613 39.1497 46.7423 39.1233 46.8227 39.0961C46.9382 39.0583 47.0542 39.0201 47.1723 38.9825C47.2607 38.9537 47.3511 38.9255 47.44 38.8983C47.5544 38.863 47.6678 38.8276 47.7848 38.7925L48.0836 38.7054C48.1954 38.6727 48.3077 38.6395 48.4218 38.6085C48.531 38.5772 48.6419 38.5476 48.7526 38.5178C48.8618 38.4877 48.9707 38.4581 49.0816 38.429C49.2031 38.397 49.3266 38.366 49.4512 38.3342C49.555 38.3088 49.6593 38.2816 49.7651 38.2561C49.8991 38.2229 50.0369 38.1911 50.1729 38.1589C50.2413 38.1433 50.3075 38.1257 50.3762 38.1108C50.9086 36.9802 52.4883 34.1773 55.1946 33.8706C55.4604 33.8385 55.7285 33.8216 55.997 33.8201C56.0592 33.8194 56.1259 33.8155 56.1852 33.8167C56.1539 33.6541 56.1293 33.4848 56.1168 33.3087C56.0318 32.1009 56.4721 31.0968 57.0994 31.0648C57.5853 31.0316 57.972 31.6304 58.0378 31.8399C58.2226 32.2072 58.3521 32.6763 58.3894 33.1966C58.4228 33.6719 58.3706 34.1107 58.2631 34.4766C58.3179 34.5242 58.3629 34.5769 58.4119 34.6274C59.0319 35.2764 59.1368 36.1765 59.1111 36.8142C59.3521 36.7938 59.5996 36.7757 59.8468 36.7579L60.0359 36.743L60.0749 36.7401C60.1106 36.737 60.1462 36.7353 60.1819 36.7329C60.4881 36.7115 60.7978 36.6915 61.1117 36.6728L61.126 36.6721C61.8372 36.6302 62.5674 36.5948 63.3211 36.5677C62.9296 36.3247 62.6803 36.214 62.6803 36.214M69.49 53.1228C68.372 53.9608 67.1465 54.6908 65.8364 55.2993C65.2423 55.5743 64.6333 55.8257 64.0114 56.0527C62.8014 56.4967 61.5485 56.8527 60.2666 57.1166C57.7758 57.6285 56.0193 57.6295 56.0193 57.6295C57.3814 58.265 59.1054 58.271 60.2879 58.1702C61.102 58.1019 61.6615 57.9838 61.6615 57.9838C61.6385 58.3778 61.5794 58.7697 61.4847 59.156C61.3929 59.5316 61.2601 59.8992 61.0881 60.2541L61.0752 60.283L61.0741 60.2847C60.8852 60.6709 60.6439 61.0374 60.355 61.3768C60.3253 61.4109 60.2965 61.4477 60.2666 61.4809L60.3561 61.4388C60.7919 61.2372 61.2203 61.0244 61.6407 60.8006L61.6501 60.7958C62.5207 60.3333 63.3545 59.8233 64.1463 59.2691L64.1477 59.2686L64.1497 59.2671C64.1788 59.2455 64.2087 59.2243 64.2392 59.2027C64.7284 58.8425 65.1975 58.4635 65.645 58.0668C66.1998 57.5736 66.7208 57.054 67.2054 56.5107L67.2396 56.4731C67.3539 56.344 67.466 56.2158 67.5746 56.0883L67.6054 56.051C67.6408 56.0074 67.6721 55.9658 67.7072 55.9228C67.8576 55.7416 68.0044 55.5585 68.1478 55.3734L68.2493 55.2411C68.322 55.1446 68.3919 55.0479 68.4617 54.9524C68.5145 54.8776 68.5686 54.8028 68.6197 54.7287C68.6767 54.6479 68.7337 54.567 68.7894 54.4867C68.8864 54.3428 68.9815 54.1979 69.0748 54.0523C69.111 53.9952 69.1452 53.9397 69.1803 53.8834C69.2504 53.7713 69.3189 53.6606 69.3839 53.5512C69.4141 53.4999 69.4446 53.449 69.474 53.3982L69.5005 53.3501C69.5805 53.2141 69.6585 53.0773 69.7346 52.9397C69.6528 53.0027 69.5712 53.0624 69.49 53.1225M39.812 42.0616C39.4421 42.1666 39.0766 42.2821 38.7159 42.408C37.6751 42.7717 36.4935 43.2891 35.4467 44.0038C35.3155 44.0928 35.1869 44.1851 35.0606 44.2804C34.8451 44.4448 34.6392 44.6181 34.4438 44.7995C34.4213 44.8202 34.3973 44.8399 34.3759 44.8608C34.346 44.8887 34.3166 44.9179 34.2876 44.9462C34.2131 45.0196 34.1393 45.0944 34.068 45.1709L33.9824 45.2628C33.8883 45.3677 33.7962 45.474 33.7096 45.5844C33.624 45.6927 33.5422 45.8045 33.4646 45.9178C32.8441 46.8314 32.4923 47.9255 32.6003 49.23L32.6035 49.2165L32.6055 49.2069L32.6169 49.1583L32.6203 49.1474C32.6249 49.1277 32.6317 49.1041 32.6388 49.0786L32.6431 49.0623C32.6517 49.0327 32.6616 48.9985 32.673 48.9615L32.6807 48.9374L32.7229 48.8085H32.7238C32.7389 48.7628 32.758 48.7135 32.7771 48.6627L32.7894 48.6317C32.8096 48.58 32.8319 48.5259 32.8561 48.4703L32.8689 48.4436C32.8915 48.3907 32.9166 48.3368 32.9436 48.281L32.9565 48.2552C32.9859 48.1951 33.0184 48.133 33.052 48.07L33.0737 48.0306C33.1099 47.9661 33.1467 47.9007 33.1877 47.8345L33.1932 47.8266C33.2545 47.7277 33.3235 47.6269 33.397 47.5254C33.4247 47.4869 33.4512 47.4489 33.482 47.4104L33.5054 47.3782L33.506 47.3775C33.6235 47.2283 33.7514 47.0851 33.8892 46.9488C33.9092 46.9291 33.9305 46.9094 33.9519 46.8894C34.0024 46.8413 34.0552 46.7932 34.1099 46.746C34.1324 46.7273 34.1544 46.7075 34.1769 46.689C34.2519 46.6272 34.3286 46.5668 34.4102 46.5084L34.417 46.5028C34.417 46.5028 33.0084 49.1907 33.6209 51.3223C33.6209 51.3223 33.6203 51.3158 33.6203 51.3045V51.2912C33.6197 51.2792 33.6197 51.2657 33.6197 51.2474C33.6197 51.2441 33.6197 51.2397 33.6192 51.2359C33.6197 51.2142 33.6197 51.1887 33.6209 51.1584C33.6209 51.1546 33.6209 51.1512 33.6214 51.1467C33.6214 51.1154 33.6243 51.08 33.626 51.0408L33.6269 51.0295C33.6331 50.9308 33.6422 50.8322 33.6542 50.7339L33.6559 50.7209C33.6622 50.6672 33.6713 50.6117 33.6808 50.5532C33.6813 50.5482 33.6828 50.5429 33.6836 50.5376C33.6942 50.4758 33.7064 50.4115 33.7207 50.3454L33.7241 50.3297L33.7315 50.2965V50.2951C33.7486 50.2205 33.7694 50.1445 33.7928 50.0675C33.7945 50.0627 33.7957 50.0572 33.7971 50.0522C33.8211 49.9769 33.8467 49.9006 33.8755 49.8241L33.9023 49.7539L33.9217 49.705V49.7041C33.9485 49.6413 33.9776 49.5783 34.0092 49.5157L34.0141 49.5056L34.0144 49.5051C34.0712 49.3941 34.1364 49.2862 34.2094 49.1821C34.2679 49.0989 34.3292 49.0173 34.3988 48.9401L34.4016 48.9362C34.4016 48.9362 34.3212 49.5982 34.342 50.3858C34.3491 50.5982 34.3631 50.8105 34.3839 51.0223C34.4441 50.2139 34.616 49.4141 34.8963 48.6394C34.9711 48.4349 35.0523 48.236 35.1387 48.0397C35.1507 48.0113 35.1624 47.9829 35.1749 47.9548C35.3534 47.559 35.557 47.1715 35.7849 46.7941C35.8014 46.7682 35.8171 46.7427 35.8331 46.7167C36.0444 46.3741 36.2744 46.0399 36.5223 45.7153L36.575 45.6455C36.6668 45.5274 36.7606 45.4134 36.8547 45.3003C36.8793 45.2703 36.9032 45.2385 36.9277 45.2089C36.9508 45.1825 36.9725 45.156 36.995 45.1295C37.1148 44.99 37.2351 44.8541 37.3566 44.7228L37.4145 44.661C37.5408 44.5258 37.6668 44.3939 37.7934 44.2681L37.8003 44.2614C37.9554 44.1068 38.1141 43.9549 38.2765 43.8058C38.3923 43.6997 38.5069 43.5977 38.6207 43.4996C38.6634 43.4628 38.7076 43.4262 38.7515 43.3889C39.0032 43.1746 39.2625 42.9669 39.5291 42.7659C40.2617 42.2129 40.8323 41.8711 41.031 41.758C40.6204 41.8463 40.2139 41.9476 39.8123 42.0618" fill="#EFCFA5"/>
<path d="M58.5442 36.1094C58.5442 36.1094 58.5362 36.0406 58.5072 35.9372C58.3928 35.5441 57.9323 34.617 56.1196 34.764C54.2242 34.918 53.5875 36.2083 53.4244 36.6478C53.3907 36.7392 53.3759 36.7964 53.3759 36.7964L53.4275 36.8335C53.6679 36.6612 54.1264 36.6817 54.5425 36.9044C54.7201 36.998 54.8718 37.1227 54.9873 37.2701V37.2708C55.1475 37.4789 55.192 37.7033 55.0785 37.8697C55.0546 37.9058 55.0244 37.9359 54.9896 37.9624C54.9896 37.9624 55.0626 37.9862 55.1855 38.0162C55.7121 38.1473 57.1727 38.4059 57.9628 37.5448C58.001 37.5034 58.0398 37.4649 58.0746 37.4187C57.9192 37.3516 57.8322 37.1592 57.8319 36.9309C57.8307 36.8142 57.8504 36.6981 57.8904 36.5864C58.0201 36.2246 58.3133 36.011 58.5442 36.1094ZM49.148 47.8542C48.1085 48.0351 47.0644 48.197 46.0165 48.3397L46.1557 48.3546C47.5472 48.5004 49.7628 48.6769 52.4421 48.5389C57.317 48.2884 63.7331 46.9945 69.5592 42.5624L69.5752 42.5451V42.5374C69.5946 42.1662 69.5358 41.4958 68.9798 40.9743C68.8775 40.8789 68.7637 40.7927 68.6405 40.7169C68.6188 40.7063 68.5986 40.6943 68.576 40.6835C68.4232 40.6113 68.2895 40.5382 68.1654 40.466C68.0674 40.4148 67.9718 40.3604 67.8788 40.3029L67.866 40.2873C67.4973 40.7309 67.083 41.1462 66.6279 41.5285C66.4602 41.6679 66.2883 41.8036 66.1124 41.9355C64.505 43.157 62.428 44.1743 60.1858 45.0122C56.4601 46.4042 52.2958 47.3075 49.1477 47.8542M18.2918 40.6916C18.2391 40.7313 18.1849 40.7701 18.1356 40.8138L18.0811 40.8644C18.0218 40.9199 17.9658 40.9779 17.9135 41.0383L17.8855 41.0679C17.8199 41.1448 17.7592 41.2257 17.7013 41.3077V41.3079L17.6936 41.3188V41.3192L17.6699 41.3558C17.6565 41.3758 17.644 41.3965 17.6312 41.4167C17.5978 41.4681 17.563 41.5182 17.5331 41.5699L17.5316 41.5718L17.5305 41.5735L17.5291 41.5778L17.5174 41.5973L17.5066 41.617C17.4608 41.6974 17.4176 41.7787 17.3768 41.861C17.2473 42.1215 17.1378 42.3888 17.0489 42.6613C17.0107 42.7774 16.9839 42.8684 16.9719 42.9129L16.9713 42.9167L16.9628 42.9466L16.9662 42.9117C16.9708 42.8426 16.9802 42.7738 16.9867 42.7053C16.9993 42.561 17.0101 42.4159 17.0289 42.2723C17.044 42.1515 17.066 42.0334 17.0862 41.9136L17.1062 41.8015C17.1148 41.7462 17.1239 41.6909 17.1347 41.636C17.1441 41.5848 17.1575 41.5343 17.1689 41.484L17.1695 41.4802L17.1823 41.4236L17.186 41.4082C17.2045 41.3223 17.2237 41.2365 17.2434 41.1509L17.2536 41.1083L17.2556 41.1003L17.2707 41.04C17.2764 41.0147 17.285 40.9902 17.291 40.9663C17.3152 40.8759 17.3412 40.7874 17.3663 40.6981L17.3705 40.6832C17.3891 40.6168 17.4062 40.55 17.4264 40.4845L17.427 40.4816L17.429 40.4773L17.4353 40.4581C17.4766 40.3234 17.5225 40.1918 17.5684 40.0592L17.5924 39.9861C17.6012 39.9618 17.6086 39.9358 17.618 39.9113C17.6936 39.6962 17.7749 39.4838 17.861 39.2762L17.8721 39.2503C17.9463 39.0739 18.021 38.9003 18.0994 38.7292L18.1079 38.7097C18.1436 38.6345 18.1801 38.5623 18.2149 38.4877L18.2206 38.4769C18.2742 38.366 18.3269 38.2544 18.3817 38.1471V38.1454L18.3828 38.144L18.3891 38.1305C18.4036 38.1036 18.4376 38.0384 18.4903 37.9422L18.4912 37.9405L18.4983 37.9275C18.5188 37.8895 18.5382 37.8527 18.5582 37.8142L18.6551 37.6323L18.6839 37.5796C18.6383 37.5587 18.5907 37.5402 18.5436 37.5202L18.5171 37.5092L18.4672 37.488C18.1603 37.3641 17.8399 37.2656 17.5105 37.1938L17.4578 37.1827C17.1168 37.1111 16.7681 37.0684 16.417 37.0552C16.3079 37.0513 16.1986 37.0503 16.0894 37.0521C15.924 37.055 15.7614 37.0668 15.6012 37.0817C15.5499 37.087 15.5005 37.0947 15.4509 37.1002C15.3716 37.1103 15.2932 37.1233 15.2142 37.1354C15.1837 37.1409 15.1515 37.144 15.121 37.1498C14.9587 37.1786 14.7981 37.2142 14.64 37.2563C14.5915 37.2693 14.543 37.2797 14.496 37.2936C14.3548 37.3355 14.2165 37.3812 14.0808 37.4319C14.0266 37.4522 13.9767 37.4755 13.9239 37.4969C13.8621 37.5222 13.8008 37.5498 13.74 37.5763L13.6773 37.6032C13.5487 37.6643 13.4231 37.7296 13.3006 37.799C13.2288 37.839 13.1589 37.8794 13.0907 37.9217C13.0488 37.9486 13.0089 37.9766 12.9667 38.004C12.8 38.1168 12.6413 38.2378 12.4917 38.3665C12.401 38.4417 12.3137 38.5198 12.2299 38.6005L12.1877 38.641C12.1441 38.685 12.1036 38.7314 12.0628 38.7773L12.0562 38.7838L12.0511 38.7899C12.0234 38.8206 11.9935 38.8502 11.9664 38.882L11.9556 38.894L11.945 38.9063L11.9442 38.9075L11.9436 38.9082C11.7765 39.1062 11.6299 39.3159 11.503 39.5346C11.4845 39.5659 11.468 39.5971 11.4511 39.6289C11.3918 39.7357 11.3385 39.8451 11.2889 39.9565C11.2698 40.0008 11.2484 40.0436 11.2304 40.0883L11.2296 40.0888V40.0891C11.2398 40.1179 11.2513 40.1451 11.2615 40.1735C11.2977 40.2726 11.3345 40.3688 11.3733 40.4622L11.3867 40.4941L11.4012 40.5266C11.5498 40.8757 11.7281 41.2152 11.9348 41.5425C11.9556 41.5745 11.9761 41.6079 11.9963 41.6384L12.0109 41.6611L12.0303 41.6882C12.124 41.8286 12.2237 41.9662 12.3291 42.1005C12.4459 42.2498 12.5708 42.3945 12.7035 42.534L12.7577 42.5893C12.7714 42.6033 12.7842 42.6158 12.7962 42.6271C12.8318 42.6615 12.8538 42.6815 12.8538 42.6817C12.8401 42.6329 12.8333 42.5848 12.8213 42.5352C12.7392 42.1939 12.6925 41.8473 12.6818 41.4992V41.479L12.6807 41.4397C12.6747 41.2257 12.6814 41.0115 12.7007 40.798C12.7656 40.9908 12.8381 41.1817 12.9182 41.3705L12.9342 41.4092L12.9408 41.4234C13.1172 41.8268 13.3346 42.2166 13.5906 42.5884C13.849 42.9636 14.0856 43.2294 14.2271 43.3757C14.2704 43.4212 14.3156 43.4655 14.3625 43.5085C14.2644 43.1466 14.2074 42.7777 14.1923 42.4068C14.1852 42.2861 14.1824 42.1653 14.1837 42.0445C14.1863 41.892 14.1957 41.7419 14.2105 41.5939C14.2892 41.847 14.3796 42.0813 14.4763 42.3021L14.4831 42.319C14.8304 43.113 15.2593 43.6971 15.5553 44.043L15.5889 44.0812C15.6411 44.1399 15.6859 44.1895 15.7267 44.2337C15.7549 44.2636 15.7814 44.2924 15.8036 44.3138C15.8369 44.3484 15.8713 44.3822 15.9069 44.4151L15.8946 44.3631C15.8814 44.3114 15.8688 44.2596 15.8567 44.2078C15.8159 44.0243 15.7854 43.8394 15.7654 43.6535C15.7502 43.5323 15.7393 43.4107 15.7326 43.2889C15.7281 43.1753 15.7272 43.0616 15.7298 42.948L15.7321 42.8871C15.7344 42.8287 15.7358 42.77 15.7395 42.7123L15.7421 42.6764L15.7449 42.6507C15.7555 42.502 15.7706 42.3548 15.7925 42.2105C15.8492 42.3718 15.9126 42.5316 15.9827 42.6892L15.9887 42.7026L15.9984 42.7252L16.0155 42.7654C16.1109 42.9769 16.2177 43.1846 16.3354 43.388C16.4224 43.5397 16.5111 43.68 16.5966 43.8082C16.6465 43.8804 16.6939 43.9484 16.7412 44.0136C16.8404 44.1502 16.9457 44.2836 17.0569 44.4134L17.0908 44.4524C17.1525 44.5234 17.2163 44.5931 17.2821 44.6614C17.3406 44.7213 17.3819 44.7605 17.4005 44.7776L17.411 44.7872L17.4481 44.8086C17.4518 44.7822 17.4564 44.7564 17.4604 44.7297C17.4932 44.4988 17.5314 44.266 17.5719 44.0346C17.5764 44.0064 17.5818 43.9788 17.5867 43.9513C17.634 43.6903 17.6842 43.431 17.7364 43.1808L17.7563 43.0846L17.7603 43.068L17.7786 42.9809C17.8282 42.747 17.8804 42.5135 17.9354 42.2805C17.9739 42.1162 18.0115 41.9605 18.0475 41.8143L18.0589 41.7671C18.0643 41.744 18.0703 41.7231 18.0754 41.7012C18.0811 41.6798 18.0863 41.6577 18.0914 41.6353L18.0934 41.6276C18.1028 41.5911 18.1128 41.5535 18.1213 41.5189L18.1242 41.5093C18.1322 41.4749 18.1402 41.4458 18.1481 41.4138C18.1615 41.3633 18.1741 41.3118 18.1866 41.2646L18.1901 41.2516C18.2003 41.2134 18.2097 41.1747 18.2191 41.1398C18.2328 41.0897 18.2454 41.0436 18.2562 40.9998L18.2568 40.9986L18.2576 40.9974C18.2639 40.9724 18.2702 40.9507 18.2765 40.9276L18.2776 40.9235C18.2836 40.9026 18.289 40.8807 18.2944 40.8622L18.3275 40.7422L18.3358 40.7138L18.3389 40.7032L18.3483 40.6695L18.3549 40.6462L18.3563 40.6428L18.3517 40.6459L18.2918 40.6916ZM57.7444 52.1805C58.204 52.0463 58.6044 51.9381 58.9149 51.8238C59.5374 51.6001 59.8716 51.4493 59.8508 51.3937C59.8297 51.3367 59.4541 51.3797 58.7929 51.5058C58.4618 51.571 58.0606 51.628 57.5995 51.7151C57.3703 51.7617 57.1171 51.7882 56.8544 51.831C56.5901 51.8697 56.3121 51.9188 56.0187 51.9453C55.4395 52.0146 54.7769 52.0776 54.0734 52.1466C53.7267 52.1707 53.3691 52.1955 53.0012 52.2205C52.6297 52.2361 52.2482 52.2522 51.8566 52.2683C50.2918 52.3068 48.5643 52.2472 46.8067 51.9744C45.8799 51.8368 44.6413 51.4817 43.7502 51.055L43.7174 51.0391C44.2429 49.4707 46.1811 49.247 46.1811 49.247L46.1249 49.2331L46.0274 49.2237C45.7454 49.1944 45.4976 49.166 45.2851 49.1419C45.1334 49.1246 45.0003 49.1092 44.8879 49.0974C44.7798 49.0861 44.7026 49.0794 44.6578 49.077C43.4904 49.0094 42.8508 49.8434 42.6295 50.2047C42.5982 50.2569 42.5691 50.3105 42.5397 50.3651C42.3618 50.7114 42.2568 51.0812 42.2292 51.4579C42.1716 52.195 42.3966 53.0044 43.0661 53.6934C43.5126 54.1581 44.2894 54.5678 45.2971 54.8918C44.4186 54.4227 43.6467 53.5312 43.5899 52.1069C44.5851 52.4678 45.7448 52.6886 46.6159 52.8192C48.4816 53.1093 50.2821 53.1439 51.9006 53.06C52.3049 53.0316 52.6984 53.0066 53.0805 52.9741C53.4632 52.932 53.8344 52.8918 54.1946 52.8524C54.8949 52.7528 55.541 52.6563 56.1478 52.5435C56.4501 52.4957 56.731 52.4257 56.9964 52.3648C57.2622 52.2999 57.514 52.2508 57.7444 52.1805Z" fill="#EFCFA5"/>
<path d="M56.1966 33.8237C57.1712 33.843 57.8333 34.104 58.2745 34.4838C58.382 34.1177 58.4347 33.6789 58.4002 33.2036C58.3629 32.6833 58.234 32.2142 58.0495 31.8466C57.9839 31.6374 57.5967 31.0384 57.1105 31.0716C56.4829 31.1036 56.044 32.1079 56.1287 33.3154C56.1407 33.4918 56.1647 33.6609 56.1966 33.8237ZM57.843 36.9379C57.8439 37.1664 57.9306 37.3586 58.0857 37.4255C58.319 37.5241 58.6095 37.309 58.7387 36.9473C58.751 36.9155 58.7578 36.884 58.7664 36.853V36.8522C58.849 36.5234 58.7649 36.2054 58.5548 36.1164C58.3238 36.0178 58.031 36.2319 57.9018 36.5929C57.8599 36.7108 57.8422 36.8279 57.843 36.9379ZM53.4173 37.5207C53.5205 37.6627 53.6762 37.7998 53.8752 37.9068C54.2961 38.132 54.7637 38.151 55.0007 37.9696C55.0358 37.9431 55.0663 37.9123 55.0899 37.8767C55.2034 37.71 55.1589 37.4858 54.9993 37.2773L54.9987 37.2768C54.883 37.1296 54.7313 37.0049 54.5539 36.9112C54.1378 36.6884 53.6793 36.668 53.4389 36.8407C53.3987 36.8685 53.3646 36.9021 53.338 36.9398C53.2293 37.1012 53.2696 37.3167 53.4173 37.5202V37.5207ZM69.5752 42.5465V42.5393L69.5478 42.5728C69.5518 42.5696 69.5561 42.5672 69.5598 42.5641L69.5752 42.5465Z" fill="#59473D"/>
<path d="M69.0696 50.1672L69.0474 50.185C68.4546 50.6622 67.7597 51.1243 66.9969 51.5643C63.6461 53.4952 58.9586 54.9909 55.6372 55.3664L55.6243 55.3681L55.6118 55.3698C53.1147 55.7044 50.6687 55.7633 48.5375 55.5396C47.3128 55.4111 46.2107 55.1874 45.2971 54.8932C44.2902 54.5692 43.5132 54.1596 43.0661 53.6951C42.3966 53.0059 42.1716 52.1967 42.2295 51.4596C42.2573 51.0829 42.3624 50.7132 42.5403 50.3668C42.5691 50.3122 42.5988 50.2586 42.6301 50.2064C42.8514 49.8451 43.4904 49.0108 44.6584 49.0782C44.7026 49.0813 44.7804 49.0878 44.8879 49.0991C45.0003 49.1107 45.1337 49.1261 45.2857 49.1434C45.4976 49.1674 45.7462 49.1958 46.0279 49.2252C46.0607 49.2288 46.0927 49.2314 46.1249 49.2345C49.3405 49.5646 52.4329 49.5295 55.3728 49.1494C59.6384 48.5981 63.5785 47.315 67.0781 45.316C67.2634 45.2103 67.4472 45.1027 67.6293 44.9932L69.5478 42.5728C63.7254 46.9974 57.3147 48.2899 52.4421 48.5403C49.7625 48.6784 47.5469 48.5021 46.1563 48.3563C46.1097 48.3514 46.0631 48.3463 46.0165 48.3411C45.5994 48.2964 45.2592 48.2557 45.0162 48.23C44.8948 48.217 44.7967 48.2084 44.7231 48.204C44.373 48.1836 44.0214 48.2186 43.6866 48.3072C43.0236 48.4821 42.457 48.8598 42.0316 49.3604C41.5058 49.9774 41.1961 50.7798 41.1819 51.6191C41.1716 52.3097 41.3621 53.0237 41.8015 53.6782C41.8186 53.7044 41.8354 53.7311 41.8539 53.7578C41.9047 53.8295 41.9594 53.9003 42.0165 53.9695C42.0935 54.0648 42.1744 54.1586 42.2637 54.25C43.2845 55.3116 45.4799 56.1013 48.4089 56.4087C50.3907 56.6165 52.7104 56.5997 55.2263 56.3005C62.6401 55.1699 66.1645 53.1493 67.7922 51.7295C67.9111 51.6261 68.0203 51.5251 68.1201 51.4286C68.7035 50.8609 68.9661 50.4243 69.0619 50.2355L69.075 50.2097C69.0996 50.1609 69.1093 50.1352 69.1095 50.134L69.0696 50.1672Z" fill="#59473D"/>
<path d="M45.4759 28.4777C45.2421 28.3702 44.9869 28.2937 44.7294 28.2398C44.4992 28.1926 44.2649 28.161 44.0288 28.1453C43.1611 28.0813 42.4105 28.2054 42.4105 28.2054C42.2497 28.2362 42.0955 28.2713 41.9463 28.3098C40.7675 28.6115 39.9469 29.1294 39.3731 29.7269C38.9089 30.2104 38.6072 30.7461 38.4145 31.2631C38.3506 31.4381 38.2955 31.6153 38.2491 31.7942C38.1553 32.1737 38.1009 32.5594 38.0866 32.9469C38.0717 33.3809 38.1116 33.6604 38.1116 33.6604C38.3057 33.3015 38.5196 32.9505 38.7527 32.6085C39.3019 31.8014 39.8972 31.1514 40.4989 30.6292C41.6712 29.6117 42.8654 29.075 43.7909 28.7929C44.7907 28.4881 45.4759 28.4777 45.4759 28.4777ZM59.5576 27.0614L59.5183 27.0176C59.3817 26.8708 59.2195 26.7422 59.0372 26.6363C58.5896 26.3765 57.9719 26.2411 57.1153 26.3893C57.1153 26.3893 56.0988 26.5918 55.5043 27.1528C55.5043 27.1528 57.2762 26.5144 59.1519 27.6392C59.323 27.7417 59.4943 27.8605 59.6657 27.994C59.8506 28.1386 60.0252 28.2923 60.1884 28.4544C60.1884 28.4544 60.114 27.765 59.6483 27.1711C59.6199 27.1335 59.5896 27.0969 59.5576 27.0614Z" fill="#E1B27E"/>
<path d="M45.6903 38.0069C46.4168 37.8194 47.1515 37.6555 47.8928 37.5157C48.0297 36.9985 48.0636 36.3577 47.9667 35.6735C47.7423 34.0691 46.8842 32.8401 46.0513 32.9269C45.2178 33.0135 44.726 34.3847 44.9507 35.9882C45.0641 36.7959 45.3385 37.5094 45.69 38.0066" fill="#59473D"/>
<path d="M41.8249 2.10481L40.0778 2.43797L40.4442 5.14127L35.7871 3.14158L33.8698 3.62388L33.8998 3.65251L39.5574 9.0923L39.6116 9.06344L39.6846 9.02495C39.8605 8.93017 40.037 8.83588 40.2149 8.74279C40.2768 8.71007 40.3387 8.67615 40.4008 8.64392C40.6575 8.51114 40.9141 8.38076 41.1722 8.2511L38.7689 5.92883L42.6575 7.53282L42.6723 7.52584C42.7892 7.47172 42.9056 7.41736 43.0225 7.36371L42.6641 5.02148L44.4286 6.74309L44.4499 6.73443C44.5994 6.67093 44.7456 6.61079 44.8925 6.54945L44.9381 6.53093L45.0094 6.50062C45.0348 6.49052 45.0604 6.47969 45.0853 6.46911C45.1477 6.44361 45.2119 6.41619 45.2735 6.39069C45.286 6.3854 45.298 6.38107 45.3108 6.37577C45.517 6.29222 45.7237 6.20963 45.931 6.12801L41.8249 2.10481Z" fill="#FACE56"/>
<path d="M40.0891 2.52337L40.0778 2.43797L40.0891 2.52385" fill="#4D94C3"/>
<path d="M40.0777 2.43798L40.3358 2.3889C39.9081 2.22148 39.3999 2.10193 38.8117 2.04011C37.6335 1.91502 36.1376 2.03 34.4335 2.40165C32.7292 2.77066 30.8184 3.39128 28.7919 4.24282C24.7385 5.94399 20.226 8.5667 15.8838 11.9084C14.4131 13.0385 13.0027 14.2232 11.6567 15.4589L16.9314 20.9086C18.4076 19.5362 19.9601 18.2237 21.5839 16.9756C23.8232 15.2535 26.1061 13.7171 28.3633 12.3818C30.5507 11.0891 32.7109 9.99172 34.7908 9.10385L33.8749 5.62406L33.8994 3.65227L33.8695 3.62365L35.7868 3.14134L39.5311 4.75784L39.4248 3.65732L40.0777 2.43774" fill="#4D94C3"/>
<path d="M40.0778 2.43797L39.4248 3.65732L39.5311 4.75759L40.4442 5.14127L40.0778 2.43797ZM38.7686 5.92859L42.6572 7.53258L41.1719 8.25086L38.7686 5.92859ZM42.6638 5.02124L43.0222 7.36347L44.4283 6.74285L42.6638 5.02124Z" fill="#141C26"/>
<path d="M57.376 4.15525C57.6109 4.14727 57.8461 4.14527 58.0812 4.14924C58.7356 4.16055 59.3501 4.22574 59.9326 4.34842C59.964 4.35539 59.9965 4.35924 60.0273 4.36622L60.0344 4.3679L60.0572 4.37199L60.1146 4.38594L60.1673 4.39941C60.0989 4.36092 60.0287 4.32484 59.9577 4.28948C59.3039 4.07828 58.6121 3.94044 57.9007 3.86323C54.3711 3.48003 50.3528 4.56395 48.0548 5.33371C47.9287 5.37821 47.8019 5.42271 47.6733 5.46842C47.1381 5.66119 46.6067 5.86127 46.0793 6.06859C46.0297 6.08783 45.98 6.10804 45.9307 6.12776C45.7254 6.20907 45.5198 6.29038 45.3105 6.37553C45.2977 6.38058 45.2857 6.38515 45.2732 6.39044C45.2116 6.41594 45.1474 6.44337 45.085 6.46886C45.0599 6.47964 45.0347 6.49015 45.0094 6.50038L44.9381 6.53068L44.8922 6.54921C44.7453 6.61055 44.5991 6.67069 44.4497 6.73419L44.4283 6.74285C44.4237 6.74526 44.4191 6.74694 44.4149 6.74886C44.3778 6.76378 44.343 6.77845 44.3065 6.79361L44.2877 6.8013L44.207 6.83715C43.8184 7.00523 43.432 7.17684 43.0479 7.35192L43.0222 7.36347C42.9053 7.41711 42.7892 7.47172 42.672 7.5256L42.6572 7.53257C42.2764 7.71024 41.8981 7.89163 41.5223 8.0767C41.483 8.09594 41.4436 8.11446 41.404 8.13419L41.3036 8.18398C41.2722 8.19914 41.2417 8.21526 41.2115 8.23089L41.1719 8.25086C40.9141 8.38051 40.6572 8.51089 40.4005 8.64367C40.3384 8.67591 40.2765 8.70983 40.2143 8.7423C40.0367 8.83563 39.8602 8.92993 39.684 9.02471L39.6113 9.06319L39.5571 9.09206C38.2514 9.80043 36.9747 10.5462 35.7292 11.328C35.6283 11.3915 35.5279 11.4559 35.4267 11.5204C33.385 12.817 31.4135 14.2081 29.5241 15.6531C27.5295 17.1791 25.629 18.7651 23.8337 20.3582C22.9886 21.0716 22.1587 21.7977 21.3444 22.5362C19.9768 23.7786 19.2309 24.5467 19.2617 24.564C19.2739 24.5753 19.3942 24.481 19.6078 24.3008C19.431 24.474 19.2542 24.6467 19.0809 24.8187C22.0621 22.1373 25.3687 19.3914 28.9191 16.8043C31.0759 15.2343 33.32 13.7229 35.6386 12.3205V12.321C36.9729 11.5122 38.3381 10.7403 39.7319 10.0064C39.8995 9.91835 40.0689 9.83319 40.2372 9.74611C40.3321 9.69704 40.4274 9.64749 40.5234 9.59866C40.7034 9.50725 40.8842 9.41704 41.0644 9.3266C41.2414 9.2388 41.418 9.15099 41.5953 9.06416C41.6886 9.01917 41.7812 8.97371 41.8742 8.92921C42.0994 8.82077 42.3255 8.71372 42.5526 8.60807C42.6871 8.54505 42.8235 8.4813 42.9589 8.41924L42.96 8.41876C43.3867 8.22313 43.8164 8.03212 44.2489 7.84577C44.2843 7.83014 44.3205 7.81498 44.357 7.79959L44.5591 7.71299C44.6487 7.6745 44.7371 7.63553 44.8272 7.59776C44.8614 7.58381 44.8942 7.5689 44.9281 7.55447L44.9424 7.54893C45.0034 7.52343 45.0633 7.49914 45.1237 7.47436L45.1617 7.45921L45.1828 7.44959L45.7442 7.2201C45.7779 7.20711 45.8121 7.19196 45.8469 7.17849C45.9068 7.15371 45.9661 7.13134 46.0265 7.10704C46.2408 7.02157 46.4556 6.93682 46.6707 6.85278C46.7291 6.83041 46.7887 6.80587 46.8466 6.78374L46.9379 6.74934L47.1192 6.68055C47.369 6.58529 47.6174 6.49123 47.8606 6.40199C48.0836 6.3202 48.2997 6.24539 48.517 6.16818C49.7451 5.73278 50.8994 5.36642 51.9721 5.07536C54.0341 4.51752 55.8142 4.21178 57.376 4.15525Z" fill="white"/>
</g>
<defs>
<clipPath id="clip0_2_66">
<rect width="73" height="70" fill="white"/>
</clipPath>
</defs>
</svg>
