<svg width="67" height="65" viewBox="0 0 67 65" fill="none" xmlns="http://www.w3.org/2000/svg">
<g clip-path="url(#clip0_2_55)">
<path d="M1.541 47.0275L23.785 5.90652C26.6105 7.70279 40.8585 16.2172 43.1595 17.8366L20.9155 58.9598C18.4828 62.4302 -1.541 52.2939 1.541 47.0252V47.0275Z" fill="#FBBC04"/>
<path d="M65.4517 47.0266L43.2077 5.90822C40.0979 0.319911 33.4005 -1.71091 27.8995 1.58967C22.3984 4.89026 20.7234 12.0001 23.8332 17.838L46.0772 58.9615C49.1869 64.5473 55.8845 66.5778 61.3856 63.2775C66.6462 59.9766 68.5614 52.6147 65.4517 47.0315V47.0266Z" fill="#4285F4"/>
<path d="M11.166 64.8666C17.3328 64.8666 22.3319 59.6025 22.3319 53.109C22.3319 46.6154 17.3328 41.3513 11.166 41.3513C4.99918 41.3513 0 46.6154 0 53.109C0 59.6025 4.99918 64.8666 11.166 64.8666Z" fill="#34A853"/>
</g>
<defs>
<clipPath id="clip0_2_55">
<rect width="67" height="65" fill="white"/>
</clipPath>
</defs>
</svg>
