<svg width="63" height="63" viewBox="0 0 63 63" fill="none" xmlns="http://www.w3.org/2000/svg">
<g clip-path="url(#clip0_2_63)">
<path d="M63.0007 54.9992C63.0071 56.1065 62.7523 57.2024 62.2533 58.2141C61.7543 59.2259 61.0224 60.1306 60.1061 60.8681C59.1899 61.6056 58.1102 62.1591 56.9386 62.492C55.7671 62.8249 54.5304 62.9296 53.3106 62.799C48.87 62.2068 45.6162 58.7238 45.7245 54.6787V8.17338C45.6172 4.12408 48.8791 0.639115 53.3253 0.0532593C54.544 -0.0753484 55.7791 0.0307432 56.9489 0.364517C58.1187 0.698291 59.1965 1.25214 60.1112 1.98943C61.0258 2.72672 61.7563 3.63065 62.2544 4.64144C62.7526 5.65222 63.0069 6.74682 63.0007 7.85284V54.9992Z" fill="#F9AB00"/>
<path d="M8.63814 47.2928C13.4089 47.2928 17.2763 50.7791 17.2763 55.0793C17.2763 59.3797 13.4089 62.8658 8.63814 62.8658C3.86736 62.8658 0 59.3797 0 55.0795C0 50.7791 3.86736 47.2928 8.63814 47.2928ZM31.3669 23.6929C26.5737 23.9298 22.8545 27.5541 22.966 31.8802V52.7955C22.966 58.4718 25.7367 61.9177 29.7963 62.6522C31.0549 62.8821 32.3545 62.8567 33.6008 62.5777C34.8471 62.2987 36.0089 61.7731 37.002 61.0391C37.995 60.3052 38.7943 59.3811 39.3419 58.3341C39.8896 57.287 40.1718 56.1433 40.1682 54.9857V31.5197C40.1703 30.4824 39.9432 29.455 39.5001 28.4976C39.0571 27.5401 38.407 26.6718 37.5877 25.9433C36.7684 25.2148 35.7964 24.6406 34.7283 24.2542C33.6603 23.8679 32.5176 23.6769 31.3669 23.6929Z" fill="#E37400"/>
</g>
<defs>
<clipPath id="clip0_2_63">
<rect width="63" height="63" fill="white"/>
</clipPath>
</defs>
</svg>
