<svg width="74" height="66" viewBox="0 0 74 66" fill="none" xmlns="http://www.w3.org/2000/svg">
<g clip-path="url(#clip0_2_59)">
<path d="M66.7734 0H7.22656C3.23544 0 0 2.88566 0 6.44531V59.5547C0 63.1143 3.23544 66 7.22656 66H66.7734C70.7646 66 74 63.1143 74 59.5547V6.44531C74 2.88566 70.7646 0 66.7734 0Z" fill="url(#paint0_linear_2_59)"/>
<path d="M60.9112 8.58H45.2787C43.363 8.58 41.81 9.96512 41.81 11.6738V34.3613C41.81 36.0699 43.363 37.455 45.2787 37.455H60.9112C62.827 37.455 64.38 36.0699 64.38 34.3613V11.6738C64.38 9.96512 62.827 8.58 60.9112 8.58Z" fill="white"/>
<path d="M28.7212 8.58H13.0887C11.173 8.58 9.62 9.96512 9.62 11.6738V50.8613C9.62 52.5699 11.173 53.955 13.0887 53.955H28.7212C30.637 53.955 32.19 52.5699 32.19 50.8613V11.6738C32.19 9.96512 30.637 8.58 28.7212 8.58Z" fill="white"/>
</g>
<defs>
<linearGradient id="paint0_linear_2_59" x1="3700" y1="0" x2="3700" y2="6600" gradientUnits="userSpaceOnUse">
<stop stop-color="#0091E6"/>
<stop offset="1" stop-color="#0079BF"/>
</linearGradient>
<clipPath id="clip0_2_59">
<rect width="74" height="66" fill="white"/>
</clipPath>
</defs>
</svg>
