<svg width="86" height="88" viewBox="0 0 86 88" fill="none" xmlns="http://www.w3.org/2000/svg">
<path d="M54.1531 27.7063H54.4219L54.2875 27.5688L63.6938 17.9438V17.7375C55.7656 10.5875 44.8141 8.1125 34.6687 11.2063C24.5234 14.3 16.7297 22.55 13.9078 33C14.0422 32.9313 14.2438 32.8625 14.4453 32.8625C17.9391 30.525 22.1047 29.15 26.4719 29.15C27.95 29.15 29.3609 29.2875 30.7719 29.5625C30.8391 29.4938 30.9062 29.4938 30.9734 29.4938C37.0203 22.6875 47.2328 21.8625 54.2203 27.7063H54.1531Z" fill="#EA4535"/>
<path d="M72.6297 32.8625C71.0844 27.0187 67.8594 21.725 63.3578 17.6687L53.75 27.4312C57.7813 30.8 60.1328 35.8875 59.9984 41.1812V42.9C71.3531 42.9 71.3531 60.225 59.9984 60.225H42.9328V73.975H42.8656L42.9328 74.1125H59.9984C69.8078 74.1812 78.475 67.7187 81.3641 58.2312C84.2531 48.7437 80.6922 38.4312 72.6297 32.8625Z" fill="#557EBF"/>
<path d="M26.2031 74.1813H43.8734V60.2937H26.2031C24.9266 60.2937 23.7172 60.0187 22.575 59.5375L12.3625 69.575V69.7125C16.3938 72.6688 21.2313 74.25 26.2703 74.25L26.2031 74.1813Z" fill="#36A852"/>
<path d="M27.0094 28.8063C16.9984 28.875 8.12969 35.2 4.90469 44.4812C1.67969 53.8312 4.90469 64.075 12.8328 70.125L23.3141 59.8812C17.5359 57.3375 16.1922 49.9125 20.6266 45.5813C25.0609 41.1813 32.5859 42.5562 35.2063 48.1937L45.6875 37.95C41.2531 32.2438 34.3328 28.875 27.0094 28.9437V28.8063Z" fill="#F9BC15"/>
</svg>
