<svg width="85" height="77" viewBox="0 0 85 77" fill="none" xmlns="http://www.w3.org/2000/svg">
<path d="M23.4414 61.2391C20.7852 61.2391 18.5938 61.5398 17 62.0812C16.4023 64.0062 16.1367 66.0516 16.1367 68.3375C16.1367 72.5484 16.9336 75.1352 22.2461 75.1352C24.7031 75.1352 26.7617 74.4734 28.4219 73.7516L27.8906 71.5859C26.2969 72.1273 24.2383 72.6086 22.4453 72.6086C20.1211 72.6086 19.3906 72.0672 19.2578 68.4578H29.2188V67.1344C29.2188 63.4648 27.7578 61.2391 23.4414 61.2391ZM19.2578 66.7734C19.3242 64.9688 19.457 64.4875 19.5898 63.9461C20.8516 63.7055 22.3125 63.7055 23.3086 63.7055C25.5 63.7055 25.8984 64.9688 25.8984 66.7734H19.2578ZM9.23047 61.2391C7.4375 61.2391 5.97656 61.6602 3.98438 62.1414V55.9453H1.32812V74.5938H3.98438V64.6078C5.97656 64.0063 7.30469 63.7055 8.63281 63.7055C9.29688 63.7055 9.96094 64.0062 9.96094 64.7281V74.8945L10.2266 74.6539H13.2812V65.1492C13.2812 62.8633 12.0859 61.2391 9.23047 61.2391ZM81.0156 61.3594V71.8266C79.0234 72.4281 77.2969 72.7289 75.9023 72.7289C75.2383 72.7289 74.375 72.4281 74.375 71.7062V61.3594H71.7188V71.4055C71.7188 73.6312 72.582 75.1953 75.4375 75.1953C77.2305 75.1953 80.3516 74.9547 83.6719 73.0898V61.3594H81.0156ZM68.9297 61.3594H65.3438C64.4805 63.1641 63.2188 65.5703 61.625 66.7734H60.4297V55.9453H57.1094V74.5938H60.4297V68.5781H61.8242C63.6836 70.3828 64.8789 72.7891 65.8086 74.5938H69.5273C68.1328 72.1875 66.5391 69.5406 64.4141 67.1344C66.1406 65.5102 67.7344 63.7656 68.9297 61.3594ZM31.875 74.5938H34.5312V64.6078C35.8594 64.1266 37.8516 63.9461 39.1797 63.8859V61.4797C37.1875 61.6 34.5312 62.0211 31.875 63.3445V74.5938ZM47.4141 61.2391C43.3633 61.2391 40.5742 63.1641 40.5742 68.2773C40.5742 73.0898 42.6992 75.1953 47.4141 75.1953C51.4648 75.1953 54.2539 73.2703 54.2539 68.157C54.2539 63.3445 52.1289 61.2391 47.4141 61.2391ZM47.4141 72.7891C44.7578 72.7891 43.6289 71.9469 43.6289 68.2773C43.6289 64.9086 44.957 63.6453 47.4141 63.6453C50.0703 63.6453 51.1992 64.4875 51.1992 68.157C51.1328 71.5258 49.8047 72.7891 47.4141 72.7891ZM65.7422 6.19609C65.7422 3.42891 63.2852 1.20312 60.2305 1.20312H24.7695C21.7148 1.20312 19.2578 3.42891 19.2578 6.19609V48.5461C19.2578 51.3133 21.7148 53.5391 24.7695 53.5391H60.2305C63.2852 53.5391 65.7422 51.3133 65.7422 48.5461V6.19609ZM21.25 6.49688C21.25 4.51172 22.9102 3.00781 25.0352 3.00781H59.8984C62.0898 3.00781 63.75 4.57188 63.75 6.49688V48.2453C63.75 50.2305 62.0898 51.7945 59.9648 51.7945H25.0352C22.8438 51.7945 21.25 50.2305 21.25 48.2453V6.49688ZM57.043 8.42188H49.9375C49.9375 8.42188 47.6797 13.2344 45.2227 15.6406H52.1289C55.8477 11.4297 57.043 8.42188 57.043 8.42188ZM29.8828 46.2602L36.3906 40.3047L29.8828 34.4094V46.2602ZM48.4766 25.5063V46.2602L48.4102 46.3203H54.4531V25.5664C54.4531 14.1969 36.5234 20.6336 36.5234 20.6336V8.30156L30.0156 8.36172C30.0156 8.36172 30.0156 27.6117 30.082 27.5516C49.9375 20.5734 48.4766 25.5063 48.4766 25.5063Z" fill="#6762A6"/>
</svg>
