<svg width="91" height="67" viewBox="0 0 91 67" fill="none" xmlns="http://www.w3.org/2000/svg">
<g clip-path="url(#clip0_2_8)">
<path d="M25.7331 24.2768C25.7331 25.6505 25.854 26.7641 26.0647 27.5808C26.3324 28.4996 26.6546 29.3929 27.0288 30.2533C27.1795 30.5502 27.2396 30.8472 27.2396 31.1073C27.2396 31.4782 27.059 31.8495 26.6673 32.2209L24.7691 33.7798C24.4978 34.0027 24.2266 34.114 23.9853 34.114C23.6842 34.114 23.3827 33.9283 23.0813 33.5942C22.6753 33.0567 22.3122 32.4724 21.9968 31.8495C21.6953 31.2189 21.3939 30.513 21.0626 29.6595C18.7122 33.0744 15.759 34.7822 12.2036 34.7822C9.67266 34.7822 7.6536 33.8911 6.17698 32.1096C4.70072 30.3274 3.94748 27.9517 3.94748 24.9822C3.94748 21.8271 4.85144 19.2658 6.68957 17.3355C8.52734 15.4052 10.9683 14.44 14.0719 14.44C15.0964 14.44 16.1511 14.5513 17.2658 14.7369C18.3809 14.9226 19.5259 15.2195 20.7313 15.5536V12.8439C20.7313 10.0224 20.2489 8.05533 19.3147 6.9045C18.3507 5.75368 16.7234 5.19666 14.4032 5.19666C13.3486 5.19666 12.264 5.34555 11.1489 5.67967C10.0342 6.01336 8.94928 6.42193 7.8946 6.94173C7.41259 7.20141 7.05108 7.34986 6.83993 7.4243C6.62914 7.49875 6.47842 7.53553 6.35791 7.53553C5.93597 7.53553 5.72518 7.16418 5.72518 6.38471V4.56564C5.72518 3.97183 5.78561 3.52648 5.93597 3.2668C6.08669 3.00668 6.35791 2.747 6.77985 2.48732C7.83453 1.81907 9.1 1.26205 10.5763 0.816701C12.0532 0.334126 13.6201 0.111668 15.2773 0.111668C18.8633 0.111668 21.4849 1.1136 23.1723 3.11835C24.8295 5.12266 25.6734 8.16656 25.6734 12.2501V24.2768H25.7338H25.7331ZM13.4993 29.9192C14.4939 29.9192 15.5183 29.6968 16.6029 29.251C17.6878 28.8056 18.6522 27.9889 19.4655 26.8753C19.9478 26.1703 20.3093 25.3908 20.4899 24.4997C20.6709 23.609 20.7914 22.5321 20.7914 21.2701V19.7111C19.8776 19.4371 18.952 19.2265 18.0191 19.0801C17.0796 18.9331 16.1337 18.8587 15.1867 18.8572C13.1676 18.8572 11.6914 19.3398 10.6971 20.3422C9.70252 21.3445 9.2205 22.755 9.2205 24.6109C9.2205 26.3555 9.58201 27.6548 10.3353 28.5459C11.0586 29.4739 12.1133 29.9192 13.4993 29.9192ZM37.6957 33.9283C37.1532 33.9283 36.7917 33.817 36.5507 33.5569C36.3097 33.3345 36.0986 32.8147 35.918 32.1096L28.837 3.41525C28.6558 2.67256 28.5655 2.18998 28.5655 1.9303C28.5655 1.3365 28.8065 1.00194 29.2888 1.00194H32.2417C32.814 1.00194 33.2061 1.1136 33.4169 1.37328C33.6579 1.59618 33.8388 2.11598 34.0194 2.82101L39.0817 27.3951L43.7824 2.82101C43.9331 2.07875 44.114 1.59618 44.3547 1.37328C44.596 1.15083 45.018 1.00237 45.5604 1.00237H47.9709C48.5432 1.00237 48.9353 1.1136 49.1759 1.37328C49.4173 1.59618 49.6281 2.11598 49.7486 2.82101L54.5097 27.692L59.7223 2.82101C59.9029 2.07875 60.114 1.59618 60.3248 1.37328C60.5658 1.15083 60.9576 1.00237 61.5 1.00237H64.3022C64.7845 1.00237 65.0558 1.29928 65.0558 1.9303C65.0558 2.11598 65.0255 2.30165 64.9953 2.52411C64.9651 2.747 64.905 3.0439 64.7845 3.45247L57.5223 32.1464C57.3417 32.8891 57.1309 33.3717 56.8896 33.5942C56.6486 33.817 56.2568 33.9655 55.745 33.9655H53.1536C52.5809 33.9655 52.1892 33.8543 51.9479 33.5942C51.7068 33.3345 51.496 32.8519 51.3755 32.1096L46.7047 8.16656L42.0644 32.072C41.914 32.8147 41.7331 33.2972 41.4921 33.5569C41.2511 33.817 40.8291 33.9283 40.287 33.9283H37.6953H37.6957ZM76.4158 34.9306C74.8489 34.9306 73.282 34.7078 71.7755 34.2624C70.2687 33.817 69.0939 33.334 68.3104 32.7779C67.8281 32.4433 67.4964 32.0724 67.3763 31.7383C67.2589 31.4106 67.1973 31.0568 67.1953 30.6987V28.8056C67.1953 28.0261 67.4363 27.6548 67.8885 27.6548C68.073 27.6556 68.2562 27.6934 68.4309 27.7665C68.6115 27.8409 68.8827 27.9889 69.1842 28.1374C70.2484 28.7141 71.3595 29.1496 72.4986 29.4366C73.6789 29.7317 74.8802 29.8809 76.0845 29.882C77.9827 29.882 79.4594 29.4739 80.4838 28.6572C81.5083 27.8405 82.0507 26.6529 82.0507 25.1307C82.0507 24.0915 81.7795 23.2376 81.2371 22.5321C80.6946 21.8271 79.6701 21.1961 78.1939 20.6018L73.8245 18.9317C71.6248 18.0777 69.9978 16.8157 69.0032 15.1451C68.009 13.5117 67.4968 11.693 67.4968 9.76273C67.4968 8.20378 67.768 6.83006 68.3104 5.64201C68.8525 4.45441 69.5759 3.41525 70.4799 2.59855C71.3838 1.74463 72.4083 1.1136 73.6137 0.66825C74.8187 0.222897 76.0842 0.0372238 77.4101 0.0372238C78.073 0.0372238 78.7662 0.074446 79.4291 0.185675C80.1223 0.296904 80.755 0.445355 81.3878 0.593805C81.9903 0.779479 82.5629 0.965152 83.1054 1.18805C83.6478 1.4105 84.0694 1.6334 84.3709 1.85586C84.7928 2.1532 85.0939 2.4501 85.2748 2.78422C85.4558 3.08113 85.546 3.48926 85.546 4.00905V5.75368C85.546 6.53316 85.305 6.94173 84.8529 6.94173C84.6119 6.94173 84.2201 6.79284 83.7083 6.49594C81.9903 5.53079 80.0619 5.04821 77.9227 5.04821C76.205 5.04821 74.8489 5.38234 73.9148 6.08781C72.9809 6.79284 72.4986 7.86966 72.4986 9.39139C72.4986 10.431 72.8 11.3217 73.4025 12.0272C74.0054 12.7322 75.1201 13.4377 76.7173 14.0687L80.996 15.7393C83.1655 16.5932 84.7324 17.7808 85.6665 19.3026C86.6007 20.8247 87.0529 22.5694 87.0529 24.4997C87.0529 26.0958 86.7813 27.5436 86.2691 28.8056C85.727 30.0677 85.0036 31.1813 84.0694 32.0724C83.1353 33.0003 82.0205 33.6686 80.7248 34.1512C79.3687 34.671 77.9525 34.9306 76.4158 34.9306Z" fill="#252F3E"/>
<path d="M82.1108 52.9712C72.1975 61.9916 57.7939 66.7802 45.4097 66.7802C28.0532 66.7802 12.4147 58.8733 0.602872 45.7325C-0.3313 44.6934 0.512228 43.2829 1.62698 44.0991C14.4032 53.2313 30.1626 58.7621 46.4644 58.7621C57.4626 58.7621 69.5457 55.9411 80.6647 50.1502C82.3219 49.2218 83.7381 51.4867 82.1108 52.9712ZM86.2392 47.1803C84.9737 45.176 77.8622 46.2151 74.6381 46.6977C73.6737 46.8466 73.523 45.807 74.3971 45.0275C80.0619 40.1273 89.373 41.5382 90.4575 43.1712C91.5424 44.8418 90.1561 56.312 84.8529 61.806C84.0396 62.6599 83.2561 62.2145 83.6176 61.1009C84.8227 57.4256 87.5047 49.1478 86.2392 47.1803Z" fill="#FF9900"/>
</g>
<defs>
<clipPath id="clip0_2_8">
<rect width="91" height="67" fill="white"/>
</clipPath>
</defs>
</svg>
