<svg width="25" height="25" viewBox="0 0 25 25" fill="none" xmlns="http://www.w3.org/2000/svg">
<path d="M20.6667 7.56771L12.5 13.5781L4.33333 7.56771M3.36979 5.57812C3.09352 5.57812 2.82857 5.68787 2.63322 5.88322C2.43787 6.07857 2.32812 6.34352 2.32812 6.61979V18.3958C2.32812 18.6721 2.43787 18.9371 2.63322 19.1324C2.82857 19.3278 3.09352 19.4375 3.36979 19.4375H21.6302C21.9065 19.4375 22.1714 19.3278 22.3668 19.1324C22.5621 18.9371 22.6719 18.6721 22.6719 18.3958V6.60417C22.6719 6.3279 22.5621 6.06295 22.3668 5.8676C22.1714 5.67225 21.9065 5.5625 21.6302 5.5625H3.36979V5.57812Z" stroke="#444444" stroke-linecap="round" stroke-linejoin="round"/>
</svg>
