<svg width="30" height="30" viewBox="0 0 30 30" fill="none" xmlns="http://www.w3.org/2000/svg">
<g clip-path="url(#clip0_34_1319)">
<path d="M23.7177 12.3954L23.7824 12.7335L24.1212 12.7938C25.7284 13.0798 27.17 13.9577 28.1619 15.2543C29.1537 16.5509 29.6237 18.1721 29.4792 19.7981C29.3347 21.4241 28.5862 22.937 27.3812 24.0383C26.1839 25.1328 24.6222 25.7419 23.0007 25.7477V24.8727C24.4549 24.8645 25.8505 24.296 26.8967 23.2849C27.9505 22.2666 28.5676 20.8788 28.6179 19.4142C28.6682 17.9497 28.1477 16.5229 27.1663 15.4346C26.1849 14.3465 24.8193 13.6819 23.3575 13.5812C23.3574 13.5811 23.3573 13.5811 23.3573 13.5811L22.9913 13.5557L22.9519 13.1909L22.9518 13.1905C22.7384 11.2308 21.8088 9.41888 20.3413 8.10255C18.8739 6.78622 16.972 6.0582 15.0007 6.0582C13.0294 6.0582 11.1275 6.78622 9.66004 8.10255C8.19259 9.41888 7.26297 11.2308 7.04957 13.1905L7.04952 13.1909L7.01016 13.5552L6.64551 13.5801C6.64526 13.5801 6.64502 13.5801 6.64478 13.5802C5.18016 13.6772 3.81072 14.3402 2.82616 15.4289C1.84144 16.5177 1.31899 17.947 1.36937 19.4143C1.41975 20.8815 2.039 22.2715 3.09608 23.2903C4.14536 24.3015 5.54429 24.8682 7.00069 24.8728V25.7477C5.37923 25.7419 3.81752 25.1328 2.62014 24.0383C1.41521 22.937 0.666692 21.4241 0.52219 19.7981C0.377688 18.1721 0.847696 16.5509 1.83953 15.2543C2.83136 13.9577 4.27301 13.0798 5.88019 12.7938L6.21902 12.7335L6.28367 12.3954C6.67146 10.3676 7.75408 8.5385 9.34514 7.22288C10.9362 5.90726 12.9362 5.1875 15.0007 5.1875C17.0652 5.1875 19.0652 5.90726 20.6562 7.22288C22.2473 8.5385 23.3299 10.3676 23.7177 12.3954Z" fill="#8A1919" stroke="#B1B1B1"/>
<path d="M21.5625 20.625V18.75H19.5928C19.4719 18.1631 19.2389 17.6051 18.9066 17.1066L20.3034 15.7097L18.9778 14.3841L17.5809 15.7809C17.0824 15.4486 16.5244 15.2156 15.9375 15.0947V13.125H14.0625V15.0947C13.4756 15.2156 12.9176 15.4486 12.4191 15.7809L11.0222 14.3841L9.69656 15.7097L11.0934 17.1066C10.7611 17.6051 10.5281 18.1631 10.4072 18.75H8.4375V20.625H10.4072C10.5281 21.2119 10.7611 21.7699 11.0934 22.2684L9.69656 23.6653L11.0222 24.9909L12.4191 23.5941C12.9176 23.9264 13.4756 24.1594 14.0625 24.2803V26.25H15.9375V24.2803C16.5244 24.1594 17.0824 23.9264 17.5809 23.5941L18.9778 24.9909L20.3034 23.6653L18.9066 22.2684C19.2389 21.7699 19.4719 21.2119 19.5928 20.625H21.5625ZM15 22.5C14.4437 22.5 13.9 22.335 13.4375 22.026C12.9749 21.717 12.6145 21.2777 12.4016 20.7638C12.1887 20.2499 12.133 19.6844 12.2415 19.1388C12.3501 18.5932 12.6179 18.0921 13.0113 17.6988C13.4046 17.3054 13.9057 17.0376 14.4513 16.929C14.9969 16.8205 15.5624 16.8762 16.0763 17.0891C16.5902 17.302 17.0295 17.6624 17.3385 18.125C17.6475 18.5875 17.8125 19.1312 17.8125 19.6875C17.8118 20.4332 17.5152 21.1481 16.9879 21.6754C16.4606 22.2027 15.7457 22.4993 15 22.5Z" fill="#444444"/>
</g>
<defs>
<clipPath id="clip0_34_1319">
<rect width="30" height="30" fill="white"/>
</clipPath>
</defs>
</svg>
