<svg width="55" height="51" viewBox="0 0 55 51" fill="none" xmlns="http://www.w3.org/2000/svg">
<path d="M29.7917 40.375C29.7917 41.0975 29.8833 41.7987 29.9979 42.5H14.8958C11.4583 42.5 8.45624 41.4375 5.98124 39.1638C3.52916 36.9325 2.29166 34.1912 2.29166 30.9825C2.29166 28.22 3.18541 25.755 4.97291 23.5875C6.76041 21.42 9.16666 20.0387 12.0312 19.4437C12.9937 16.1925 14.8958 13.5575 17.7604 11.5387C20.625 9.52 23.8792 8.5 27.5 8.5C31.9687 8.5 35.75 9.945 38.8667 12.835C41.9833 15.725 43.5417 19.2312 43.5417 23.375C46.1771 23.6512 48.3542 24.7137 50.0958 26.5625C51.2646 27.7737 52.0208 29.1338 52.3875 30.6425C49.9238 28.6867 46.7848 27.6159 43.5417 27.625H38.9583V23.375C38.9583 20.4425 37.8125 17.935 35.6125 15.8525C33.3667 13.8125 30.6625 12.75 27.5 12.75C24.3375 12.75 21.6333 13.8125 19.3875 15.8525C17.1875 17.935 16.0417 20.4425 16.0417 23.375H14.8958C12.6729 23.375 10.7937 24.0975 9.23541 25.5637C7.65416 27.0087 6.87499 28.7512 6.87499 30.8125C6.87499 32.8738 7.65416 34.6163 9.23541 36.125C10.7937 37.5275 12.6729 38.25 14.8958 38.25H29.9979C29.8833 38.9513 29.7917 39.6525 29.7917 40.375ZM40.6771 41.2888L37.0333 37.91L34.375 40.375L40.6771 46.75L51.5625 36.6562L48.9042 33.66L40.6771 41.2888Z" fill="#F21E6A"/>
</svg>
