<svg width="40" height="45" viewBox="0 0 40 45" fill="none" xmlns="http://www.w3.org/2000/svg">
<path d="M5.71429 2.8125C2.5625 2.8125 0 5.33496 0 8.4375V36.5625C0 39.665 2.5625 42.1875 5.71429 42.1875H34.2857C37.4375 42.1875 40 39.665 40 36.5625V8.4375C40 5.33496 37.4375 2.8125 34.2857 2.8125H5.71429ZM32.2411 10.1953L22.9732 20.6191L33.875 34.8047H25.3393L18.6607 26.2002L11.0089 34.8047H6.76786L16.6786 23.6514L6.22321 10.1953H14.9732L21.0179 18.0615L28 10.1953H32.2411ZM28.8661 32.3086L13.6964 12.5596H11.1696L26.5089 32.3086H28.8571H28.8661Z" fill="#444444"/>
</svg>
