<svg width="44" height="44" viewBox="0 0 44 44" fill="none" xmlns="http://www.w3.org/2000/svg">
<g clip-path="url(#clip0_79_3)">
<path d="M0 22.0003C0 31.009 5.41716 38.7482 13.1689 42.1508C13.107 40.6146 13.1579 38.7704 13.5518 37.0989C13.9748 35.3129 16.3826 25.1109 16.3826 25.1109C16.3826 25.1109 15.6798 23.7062 15.6798 21.6301C15.6798 18.3698 17.5694 15.9349 19.9227 15.9349C21.9239 15.9349 22.8907 17.4379 22.8907 19.2378C22.8907 21.2494 21.6076 24.2584 20.9478 27.0454C20.3966 29.3791 22.1179 31.2826 24.4202 31.2826C28.5885 31.2826 31.3959 25.9289 31.3959 19.5857C31.3959 14.7639 28.1483 11.1549 22.2415 11.1549C15.5679 11.1549 11.4104 16.1317 11.4104 21.6908C11.4104 23.6075 11.9756 24.9592 12.8607 26.0059C13.2677 26.4866 13.3243 26.68 13.177 27.232C13.0714 27.6368 12.8291 28.6113 12.7287 28.9975C12.5823 29.5548 12.1308 29.754 11.6272 29.5482C8.55336 28.2934 7.12181 24.9272 7.12181 21.1432C7.12181 14.8937 12.3925 7.39991 22.8453 7.39991C31.2448 7.39991 36.7732 13.4781 36.7732 20.0026C36.7732 28.633 31.9751 35.0805 24.9025 35.0805C22.5273 35.0805 20.2931 33.7966 19.5278 32.3383C19.5278 32.3383 18.2505 37.4072 17.98 38.386C17.5135 40.0823 16.6005 41.7777 15.7658 43.099C17.79 43.6976 19.89 44.0014 22.0009 44.0012C34.1497 44.0012 44.0002 34.1512 44.0002 22.0003C44.0002 9.84998 34.1497 0 22.0009 0C9.85085 0 0 9.84998 0 22.0003Z" fill="#CB1F27"/>
</g>
<defs>
<clipPath id="clip0_79_3">
<rect width="44" height="44" fill="white"/>
</clipPath>
</defs>
</svg>
