<svg id="sw-js-blob-svg" viewBox="0 0 100 100" xmlns="http://www.w3.org/2000/svg"><defs><linearGradient id="sw-gradient" x1="0" x2="1" y1="1" y2="0"><stop id="stop1" stop-color="rgba(82, 80, 225, 1)" offset="0"/><stop id="stop2" stop-color="rgba(82, 80, 225, 1)" offset="100%"/></linearGradient></defs><path fill="url(#sw-gradient)" d="M25.3-27.9C33.5-23.4 41.1-16 43.8-6.8 46.6 2.4 44.4 13.4 38.7 21.6 33.1 29.8 24 35.3 14.5 38 5 40.7-4.9 40.6-12.7 36.9-20.6 33.2-26.4 25.9-30 18.1-33.6 10.3-35 1.9-34.3-6.7-33.5-15.3-30.6-24.2-24.5-29.1-18.5-34-9.2-34.9-.3-34.5 8.6-34.2 17.2-32.5 25.3-27.9z" width="100%" height="100%" transform="translate(50 50)" stroke-width="0" style="transition:all .3s ease 0s"/></svg>