<svg xmlns="http://www.w3.org/2000/svg" xmlns:xlink="http://www.w3.org/1999/xlink" viewBox="0 0 700 700" style="overflow:hidden;display:block" width="700" height="700"><defs><linearGradient id="two-151" x1="350" y1="-350" x2="350" y2="350" spreadMethod="pad" gradientUnits="userSpaceOnUse"><stop offset="0" stop-color="hsl(1, 0%, 100%)" stop-opacity="1"/><stop offset="100%" stop-color="hsl(244, 74%, 42%)" stop-opacity="1"/></linearGradient></defs><g id="two-0" transform="matrix(1 0 0 1 0 0)" opacity="1"><path transform="matrix(1 0 0 1 350 350)" id="two-150" d="M296.390052 122.768779C279.449864 162.33958 271.072856 210.199261 240.738428 240.738428 210.39349 271.288176 165.887441 292.326475 123.105053 297.201888 81.739385 301.915854 40.902636 277.364673.0 269.598449-34.419035 263.063272-72.098993 265.559475-104.89575 253.24074-138.112275 240.764336-169.600667 219.731677-195.7705 195.770499-222.449385 171.343232-249.695941 142.552952-262.27904 108.639535-274.771749 74.969735-265.203083 35.746534-268.65394.0-272.424804-39.061414-293.694073-79.697386-284.525427-117.854291-275.289763-156.290107-243.930798-188.031889-216.345664-216.345664-188.594807-244.829538-156.496108-274.011776-119.084069-287.494374-82.046679-300.841955-39.106018-299.217812-1e-6-294.674071 37.154255-290.357107 72.004159-270.002809 108.562456-262.092956 152.5739-252.57052 209.695003-273.205763 243.782304-243.782305 276.946422-215.155719 263.993501-156.769325 280.623904-116.238228 297.193701-75.854836 340.931897-43.55938 343.752699-1e-6 346.558858 43.333264 313.479654 82.848961 296.390052 122.768779z" fill="url(#two-151)" stroke="undefined" stroke-width="1" stroke-opacity="1" fill-opacity="1" visibility="visible" stroke-linecap="butt" stroke-linejoin="miter" stroke-miterlimit="4"/></g></svg>