<svg id="sw-js-blob-svg" viewBox="0 0 100 100" xmlns="http://www.w3.org/2000/svg"><defs><linearGradient id="sw-gradient" x1="0" x2="1" y1="1" y2="0"><stop id="stop1" stop-color="rgba(81.015, 55, 248, 1)" offset="0"/><stop id="stop2" stop-color="rgba(94.316, 73.48, 197.013, 1)" offset="100%"/></linearGradient></defs><path fill="url(#sw-gradient)" d="M24.2-26.9C32.3-22.2 40.1-15.3 40.8-7.8 41.4-.2 34.7 8 28.7 14.8 22.7 21.7 17.3 27.2 10.7 29.7 4.2 32.1-3.5 31.5-10.3 28.8-17.1 26.1-22.9 21.4-27.4 15.1-31.9 8.8-35.1 1-35.5-7.9-36-16.9-33.6-27.1-27.2-32.1-20.9-37.1-10.4-36.9-1.2-35.6 8.1-34.2 16.2-31.6 24.2-26.9z" width="100%" height="100%" transform="translate(50 50)" stroke-width="0" style="transition:all .3s ease 0s"/></svg>